<svg width="20" height="23" viewBox="0 0 20 23" fill="none" xmlns="http://www.w3.org/2000/svg">
    <path d="M6.89655 20.6897H2.75862C1.99825 20.6897 1.37931 20.0711 1.37931 19.3104V5.68292C1.37931 5.32126 1.52681 4.96599 1.78408 4.70837L4.70838 1.78408C4.96566 1.5268 5.32059 1.37931 5.68293 1.37931H15.1724C15.9328 1.37931 16.5517 1.99791 16.5517 2.75862V8.27586C16.5517 8.65673 16.8602 8.96552 17.2414 8.96552C17.6226 8.96552 17.931 8.65673 17.931 8.27586V2.75862C17.931 1.23754 16.6938 0 15.1724 0H5.68292C4.95757 0 4.24636 0.294986 3.73316 0.808862L0.808862 3.73317C0.294986 4.24771 0 4.95825 0 5.68293V19.3104C0 20.8314 1.23721 22.069 2.75862 22.069H6.89655C7.27775 22.069 7.58621 21.7602 7.58621 21.3793C7.58621 20.9985 7.27775 20.6897 6.89655 20.6897Z" fill="#1F2D5A"/>
    <path d="M19.1919 12.4832L18.2167 11.5079C17.1741 10.4647 15.3564 10.466 14.3158 11.5079L9.43905 16.3844C8.91777 16.9053 8.63086 17.5983 8.63086 18.3351C8.63086 19.0719 8.91777 19.7646 9.43905 20.2855L10.4143 21.2608C10.9355 21.782 11.6279 22.069 12.3647 22.069C13.1022 22.069 13.7945 21.782 14.3151 21.2608L16.7538 18.8227C17.5607 18.0162 17.5607 16.7032 16.7538 15.8967C15.9726 15.1145 14.6081 15.1158 13.8282 15.8967L11.8771 17.8475C11.6077 18.1166 11.6077 18.5533 11.8771 18.8227C12.1465 19.0921 12.5829 19.0921 12.8523 18.8227L14.8041 16.8716C15.064 16.6123 15.5173 16.6106 15.7786 16.8719C16.0473 17.141 16.0473 17.5784 15.7786 17.8475L13.3399 20.2855C12.8186 20.8068 11.9108 20.8068 11.3895 20.2855L10.4143 19.3103C10.1536 19.0497 10.0102 18.7035 10.0102 18.3351C10.0102 17.9667 10.1536 17.6202 10.4143 17.3596L15.291 12.4831C15.8123 11.9619 16.7202 11.9619 17.2414 12.4831L18.2167 13.4584C18.4773 13.719 18.6208 14.0652 18.6208 14.4336C18.6208 14.8023 18.4773 15.1485 18.2167 15.4091C17.9473 15.6782 17.9473 16.1149 18.2167 16.3843C18.4861 16.6537 18.9225 16.6537 19.1919 16.3843C19.7132 15.8634 20.0001 15.1707 20.0001 14.4336C20.0001 13.6968 19.7132 13.0041 19.1919 12.4832Z" fill="#1F2D5A"/>
    <path d="M13.1035 6.89656C13.1035 6.5157 12.795 6.20691 12.4138 6.20691H5.51729C5.1361 6.20691 4.82764 6.5157 4.82764 6.89656C4.82764 7.27743 5.1361 7.58622 5.51729 7.58622H12.4138C12.795 7.58622 13.1035 7.27743 13.1035 6.89656Z" fill="#1F2D5A"/>
    <path d="M5.51729 9.65518C5.1361 9.65518 4.82764 9.96398 4.82764 10.3448C4.82764 10.7257 5.1361 11.0345 5.51729 11.0345H8.96557C9.34676 11.0345 9.65522 10.7257 9.65522 10.3448C9.65522 9.96398 9.34676 9.65518 8.96557 9.65518H5.51729Z" fill="#1F2D5A"/>
</svg>
