<svg width="20" height="20" viewBox="0 0 20 20" fill="none" xmlns="http://www.w3.org/2000/svg">
    <path d="M20 14.1406V5.85938C20 2.62333 17.3767 0 14.1406 0H5.85938C2.62333 0 0 2.62333 0 5.85938V14.1406C0 17.3767 2.62333 20 5.85938 20H14.1406C17.3767 20 20 17.3767 20 14.1406Z" fill="url(#paint0_linear_2_1173)"/>
    <path d="M9.1252 4.61367L4.42949 9.30937C4.04824 9.69062 4.04824 10.309 4.42949 10.6906L9.1252 15.3863C9.50645 15.7676 10.1248 15.7676 10.5064 15.3863C10.8877 15.0051 10.8877 14.3867 10.5064 14.0051L7.47793 10.9766H14.8807C15.4201 10.9766 15.8572 10.5395 15.8572 10C15.8572 9.46055 15.4201 9.02344 14.8807 9.02344H7.47754L10.5061 5.99492C10.8873 5.61367 10.8873 4.99531 10.5061 4.61367C10.1248 4.23242 9.50645 4.23242 9.1248 4.61367H9.1252Z" fill="white"/>
    <defs>
        <linearGradient id="paint0_linear_2_1173" x1="1.71602" y1="1.71602" x2="18.284" y2="18.284" gradientUnits="userSpaceOnUse">
            <stop stop-color="#2E74D8"/>
            <stop offset="1" stop-color="#1F2D5A"/>
        </linearGradient>
    </defs>
</svg>
