<svg width="20" height="27" viewBox="0 0 20 27" fill="none" xmlns="http://www.w3.org/2000/svg">
    <path d="M19.7351 20.896L16.8852 15.9181C16.6379 15.4854 16.2303 15.1672 15.7505 15.0322C15.2707 14.8971 14.7571 14.956 14.3203 15.1962L12.6864 16.1461L8.8865 9.49637L10.5299 8.54641C10.7481 8.42149 10.9393 8.25452 11.0925 8.05516C11.2457 7.85581 11.3578 7.62803 11.4223 7.38504C11.4868 7.14204 11.5024 6.88866 11.4683 6.63958C11.4342 6.3905 11.3509 6.15068 11.2234 5.934L8.40202 0.946675C8.15143 0.51465 7.74081 0.198668 7.25901 0.0671068C6.77721 -0.0644546 6.26299 -0.00101425 5.82761 0.2437L0.916285 3.0936C0.537081 3.33171 0.251 3.69266 0.10578 4.11622C-0.0394402 4.53977 -0.0350167 5.00032 0.118313 5.42102C1.35327 11.6053 7.16706 21.7319 11.7459 25.8928C12.1541 26.3096 12.7025 26.5601 13.2848 26.5958C13.586 26.5946 13.8812 26.5126 14.1398 26.3583L19.0511 23.5084C19.2685 23.3827 19.4588 23.2151 19.6111 23.0154C19.7633 22.8157 19.8744 22.5878 19.938 22.3448C20.0017 22.1019 20.0165 21.8488 19.9816 21.6001C19.9468 21.3514 19.863 21.1121 19.7351 20.896ZM13.2658 24.6958C13.1718 24.6368 13.0828 24.5701 12.9999 24.4963C8.69651 20.5825 3.12021 10.7978 1.97075 5.06953C1.95231 4.96266 1.95231 4.85341 1.97075 4.74654L6.80608 1.89664L9.65597 6.87446L8.02203 7.82443C7.79781 7.94447 7.59996 8.1083 7.44023 8.30622C7.2805 8.50414 7.16213 8.73211 7.09214 8.97663C7.02215 9.22114 7.00197 9.47722 7.03279 9.72968C7.06361 9.98214 7.1448 10.2258 7.27156 10.4463L11.0714 17.0961C11.3221 17.5307 11.7344 17.8485 12.2185 17.9802C12.7026 18.1119 13.2191 18.0468 13.6553 17.7991L15.2893 16.8491L18.1392 21.8269L13.2658 24.6958Z" fill="#1F2D5A"/>
</svg>
