<svg width="20" height="17" viewBox="0 0 20 17" fill="none" xmlns="http://www.w3.org/2000/svg">
    <path d="M17.4498 2.86144H14.7397L14.4242 1.91474C14.2721 1.45507 13.9788 1.0551 13.5862 0.771802C13.1935 0.488503 12.7215 0.336317 12.2373 0.336916H8.33819C7.85414 0.336546 7.3823 0.488831 6.98979 0.772107C6.59728 1.05538 6.3041 1.45522 6.15196 1.91474L5.83576 2.86144H3.12569C2.5146 2.8621 1.92873 3.10515 1.49662 3.53726C1.06452 3.96937 0.821469 4.55523 0.820801 5.16632V14.4439C0.822137 15.0546 1.06548 15.6398 1.49751 16.0714C1.92955 16.5029 2.51504 16.7456 3.12569 16.7463H17.4523C18.063 16.745 18.6482 16.5016 19.0798 16.0696C19.5113 15.6376 19.754 15.0521 19.7547 14.4414V5.1638C19.7534 4.55315 19.51 3.96793 19.078 3.53637C18.646 3.10481 18.0605 2.8621 17.4498 2.86144ZM18.4924 14.4414C18.4921 14.7178 18.3822 14.9828 18.1867 15.1783C17.9912 15.3737 17.7262 15.4837 17.4498 15.484H3.12569C2.84927 15.4837 2.58427 15.3737 2.38881 15.1783C2.19335 14.9828 2.0834 14.7178 2.08306 14.4414V5.1638C2.08406 4.88782 2.19431 4.62346 2.3897 4.42855C2.58508 4.23364 2.8497 4.12403 3.12569 4.1237H6.29081C6.42321 4.1236 6.55223 4.08186 6.65961 4.00438C6.76699 3.92691 6.84728 3.81763 6.88912 3.692L7.34921 2.31172C7.4183 2.10411 7.55103 1.92354 7.72856 1.79563C7.90608 1.66773 8.11939 1.59899 8.33819 1.59918H12.2373C12.4562 1.59894 12.6696 1.66773 12.8472 1.79577C13.0247 1.92381 13.1574 2.10457 13.2263 2.31235L13.6864 3.692C13.7282 3.81763 13.8085 3.92691 13.9159 4.00438C14.0233 4.08186 14.1523 4.1236 14.2847 4.1237H17.4498C17.7262 4.12403 17.9912 4.23399 18.1867 4.42944C18.3822 4.6249 18.4921 4.8899 18.4924 5.16632V14.4414Z" fill="#3B4559"/>
    <path d="M10.2879 4.75488C9.35173 4.75488 8.43656 5.0325 7.65814 5.55262C6.87973 6.07274 6.27303 6.81201 5.91476 7.67694C5.55649 8.54187 5.46276 9.49361 5.6454 10.4118C5.82804 11.33 6.27886 12.1734 6.94085 12.8354C7.60284 13.4974 8.44626 13.9482 9.36446 14.1309C10.2827 14.3135 11.2344 14.2198 12.0993 13.8615C12.9643 13.5033 13.7035 12.8966 14.2237 12.1181C14.7438 11.3397 15.0214 10.4246 15.0214 9.48836C15.0201 8.23337 14.5209 7.03017 13.6335 6.14276C12.7461 5.25535 11.5429 4.75622 10.2879 4.75488ZM10.2879 12.9596C9.60138 12.9596 8.93025 12.756 8.35942 12.3746C7.78858 11.9931 7.34366 11.451 7.08094 10.8167C6.81821 10.1825 6.74947 9.48451 6.8834 8.81116C7.01734 8.13781 7.34794 7.5193 7.8334 7.03384C8.31886 6.54838 8.93737 6.21778 9.61072 6.08384C10.2841 5.9499 10.982 6.01865 11.6163 6.28137C12.2506 6.5441 12.7927 6.98902 13.1741 7.55985C13.5556 8.13069 13.7591 8.80182 13.7591 9.48836C13.7581 10.4087 13.3921 11.291 12.7413 11.9418C12.0906 12.5925 11.2082 12.9586 10.2879 12.9596Z" fill="#3B4559"/>
    <path d="M16.5991 6.64825C16.9477 6.64825 17.2303 6.36568 17.2303 6.01712C17.2303 5.66855 16.9477 5.38599 16.5991 5.38599C16.2506 5.38599 15.968 5.66855 15.968 6.01712C15.968 6.36568 16.2506 6.64825 16.5991 6.64825Z" fill="#3B4559"/>
</svg>
