<svg width="160" height="153" viewBox="0 0 160 153" fill="none" xmlns="http://www.w3.org/2000/svg">
    <path d="M33.759 9.22161C34.295 9.22161 34.7294 8.78714 34.7294 8.25119C34.7294 7.71524 34.295 7.28076 33.759 7.28076C33.223 7.28076 32.7886 7.71524 32.7886 8.25119C32.7886 8.78714 33.223 9.22161 33.759 9.22161Z" fill="#9FBFFF"/>
    <path d="M12.4855 17.2311C12.4855 18.1323 11.7551 18.8627 10.8539 18.8627C9.95273 18.8627 9.22241 18.1323 9.22241 17.2311C9.22241 16.3303 9.95273 15.5996 10.8539 15.5996C11.7551 15.6 12.4855 16.3303 12.4855 17.2311Z" fill="#4E69FF"/>
    <g opacity="0.18">
        <path d="M137.57 136.073C144.983 128.494 150.561 117.621 151.274 106.91C152.014 95.7987 148.834 85.1996 151.644 73.9645C153.25 67.54 156.28 61.4735 157.18 54.9124C161.433 23.913 114.125 -7.03495 91.7356 20.4976C90.2007 22.385 88.8828 24.5042 86.9402 25.9684C84.5195 27.7929 81.2232 28.3952 78.3134 27.5446C73.6222 26.1735 69.9178 22.116 65.4203 20.1244C61.3488 18.3213 57.0251 17.155 52.6061 16.6188C43.8337 15.5542 34.7734 16.9748 26.6729 20.4741C10.4925 27.4636 -0.877901 42.8702 0.0532783 60.8641C0.604137 71.5124 5.68388 81.4078 11.6295 90.2587C23.0013 107.188 37.9177 121.634 54.7724 133.116C68.3908 142.394 83.8387 149.924 100.299 150.689C114.851 151.367 128.185 145.667 137.57 136.073Z" fill="#9FBFFF"/>
    </g>
    <g opacity="0.47">
        <path d="M154.547 87.7298C154.57 77.9053 151.244 67.0818 144.794 59.5097C138.103 51.6542 129.14 46.673 123.743 37.3979C120.656 32.0945 118.746 26.1082 115.102 21.1704C97.8875 -2.15973 46.4736 7.87524 49.4073 40.6267C49.6086 42.8719 50.1034 45.1306 49.7602 47.3587C49.3324 50.1347 47.5332 52.6653 45.0518 53.9818C41.051 56.1039 35.9687 55.8049 31.6957 57.3901C27.8272 58.825 24.2027 60.8454 20.9222 63.3461C14.41 68.3099 9.3131 75.1096 6.19739 82.6693C-0.0265257 97.769 2.38384 115.348 14.6337 126.692C21.883 133.405 31.6518 136.691 41.3203 138.724C59.8134 142.613 79.0549 142.561 97.667 139.289C112.705 136.645 127.829 131.658 139.252 121.526C149.351 112.568 154.519 100.166 154.547 87.7298Z" fill="#9FBFFF"/>
    </g>
    <g opacity="0.17">
        <path d="M158.453 14.7325C160.793 11.1176 159.035 5.82133 154.527 2.90256C150.019 -0.0158456 141.335 -1.47898 138.995 2.13586C136.655 5.75069 143.592 10.5179 146.409 14.8195C150.338 20.819 156.113 18.3477 158.453 14.7325Z" fill="#9FBFFF"/>
    </g>
    <g opacity="0.47">
        <path d="M137.508 98.0672C138.705 91.5565 137.804 83.98 134.439 78.1832C130.948 72.1694 125.605 67.7878 123.143 60.9888C121.735 57.101 121.189 52.9022 119.368 49.1899C110.763 31.6495 75.4675 32.1133 73.4699 54.1809C73.3329 55.6936 73.3893 57.2509 72.8934 58.6865C72.2754 60.4754 70.778 61.9368 68.9746 62.5108C66.0665 63.4363 62.7331 62.626 59.7088 63.1626C56.9713 63.6482 54.3251 64.5516 51.8491 65.8145C46.9338 68.3216 42.736 72.2165 39.7601 76.8531C33.8159 86.115 33.2979 98.0597 40.0538 107.056C44.0518 112.38 50.133 115.734 56.2987 118.246C68.0915 123.05 80.8551 125.333 93.5887 125.404C103.878 125.461 114.505 123.976 123.298 118.633C131.072 113.91 135.991 106.309 137.508 98.0672Z" fill="#9FBFFF"/>
    </g>
    <g opacity="0.31">
        <path d="M143.645 34.426C143.318 35.6215 142.083 36.3251 140.888 35.9975C139.692 35.67 138.988 34.4352 139.316 33.2397C139.643 32.0441 140.878 31.3406 142.074 31.6681C143.269 31.9956 143.973 33.2301 143.645 34.426Z" fill="#9FBFFF"/>
    </g>
    <g opacity="0.31">
        <path d="M67.4672 150.508C68.8143 149.127 68.7863 146.915 67.4047 145.568C66.0231 144.221 63.8111 144.249 62.464 145.63C61.1169 147.012 61.1449 149.224 62.5265 150.571C63.9081 151.918 66.1202 151.89 67.4672 150.508Z" fill="#9FBFFF"/>
    </g>
    <g opacity="0.31">
        <path d="M10.8906 54.6219C10.7511 55.4197 9.99113 55.9534 9.19339 55.8135C8.39564 55.674 7.86191 54.9141 8.0014 54.1164C8.1409 53.3186 8.90083 52.7849 9.69858 52.9244C10.4963 53.0642 11.0301 53.8242 10.8906 54.6219Z" fill="#9FBFFF"/>
    </g>
    <path d="M155.058 135.328C155.747 135.328 156.306 134.769 156.306 134.08C156.306 133.39 155.747 132.831 155.058 132.831C154.368 132.831 153.809 133.39 153.809 134.08C153.809 134.769 154.368 135.328 155.058 135.328Z" fill="#4E69FF"/>
    <path opacity="0.47" d="M148.548 150.778C149.237 150.778 149.796 150.219 149.796 149.529C149.796 148.84 149.237 148.281 148.548 148.281C147.858 148.281 147.299 148.84 147.299 149.529C147.299 150.219 147.858 150.778 148.548 150.778Z" fill="#9FBFFF"/>
    <path d="M24.7902 147.146C25.3262 147.146 25.7607 146.712 25.7607 146.176C25.7607 145.64 25.3262 145.205 24.7902 145.205C24.2543 145.205 23.8198 145.64 23.8198 146.176C23.8198 146.712 24.2543 147.146 24.7902 147.146Z" fill="#9FBFFF"/>
    <path d="M15.1413 145.903C14.3911 145.404 14.187 144.391 14.6858 143.641C15.1845 142.891 16.1974 142.687 16.9477 143.186C17.698 143.684 17.9021 144.697 17.4033 145.448C16.9042 146.198 15.8916 146.402 15.1413 145.903Z" fill="#4E69FF"/>
    <path d="M145.127 138.913C144.846 138.726 144.769 138.346 144.957 138.064C145.144 137.782 145.524 137.706 145.806 137.893C146.088 138.081 146.164 138.461 145.977 138.742C145.79 139.024 145.409 139.101 145.127 138.913Z" fill="#1B1B25"/>
    <path opacity="0.56" d="M108.19 41.7529L102.154 46.2165L99.083 39.3383L104.024 35.4081C104.024 35.4081 107.757 36.7667 108.19 41.7529Z" fill="#292930"/>
    <path d="M104.742 35.8174L60.3335 10.4993C59.4512 9.99622 58.3756 9.96732 57.4676 10.4226L51.2529 13.5383L51.2533 13.5433C52.0599 13.1273 53.0618 13.0837 53.9623 13.5971L98.7053 39.1057C100.837 40.3213 102.154 42.5871 102.154 45.0414V140.609C102.154 141.568 101.652 142.349 100.942 142.795L100.945 142.797L105.89 139.969C107.312 139.155 108.191 137.641 108.191 136.002V41.753C108.19 39.2988 106.874 37.0329 104.742 35.8174Z" fill="#1B1B25"/>
    <path d="M102.154 140.61V45.0418C102.154 42.5875 100.837 40.322 98.7051 39.1061L53.9621 13.5975C53.0616 13.0841 52.0598 13.1276 51.2531 13.5436C50.3598 14.0042 49.7058 14.9226 49.7058 16.0703V111.25C49.7058 113.394 50.8478 115.375 52.7024 116.449L98.2706 142.847C99.1657 143.366 100.176 143.277 100.942 142.795C101.652 142.35 102.154 141.568 102.154 140.61Z" fill="#292930"/>
    <path d="M99.783 128.798L52.0767 101.161V24.1001L99.783 51.0058V128.798Z" fill="white"/>
    <path d="M99.783 128.798L52.0767 101.161V24.1001L99.783 51.0058V128.798Z" fill="white"/>
    <path d="M99.783 128.798L52.0767 101.161V24.1001L99.783 51.0058V128.798Z" fill="#9FBFFF"/>
    <path d="M81.222 35.7168C81.0479 35.7168 80.873 35.6711 80.7143 35.579L72.5013 30.8382C72.1885 30.6573 71.9937 30.3205 71.9937 29.9591V29.8924C71.9937 29.5239 72.1845 29.1949 72.5042 29.0115C72.8235 28.8278 73.2035 28.8303 73.5217 29.0162L81.735 33.8237C82.0447 34.005 82.2373 34.3407 82.2373 34.6999C82.2373 35.0671 82.0479 35.3957 81.7297 35.579C81.5709 35.6707 81.3968 35.7168 81.222 35.7168ZM73.009 29.2327C72.8966 29.2327 72.7843 29.262 72.6815 29.3209C72.4742 29.4397 72.3504 29.6534 72.3504 29.8921V29.9588C72.3504 30.1932 72.4767 30.4119 72.6797 30.5289L80.8927 35.2697C81.0992 35.3892 81.3461 35.3889 81.5513 35.2697C81.7575 35.1509 81.8806 34.9376 81.8806 34.6996C81.8806 34.4666 81.7557 34.249 81.5548 34.1313L73.3419 29.3237C73.2377 29.2631 73.1236 29.2327 73.009 29.2327Z" fill="white"/>
    <path d="M72.5912 123.793C71.2943 123.793 69.8693 122.834 69.0495 121.272C68.5382 120.297 68.3342 119.234 68.4747 118.278C68.6181 117.301 69.1026 116.55 69.839 116.163C70.5754 115.776 71.4684 115.806 72.3543 116.243C73.2209 116.671 73.9797 117.443 74.4906 118.418C75.0019 119.392 75.206 120.455 75.0658 121.412C74.9223 122.389 74.4378 123.14 73.7015 123.526C73.3561 123.707 72.9793 123.793 72.5912 123.793ZM70.9579 116.25C70.6186 116.25 70.2961 116.327 70.0049 116.479C69.3724 116.811 68.9542 117.468 68.8279 118.33C68.6984 119.212 68.8893 120.198 69.3659 121.106C70.3396 122.961 72.2094 123.905 73.5359 123.21C74.1685 122.878 74.5866 122.221 74.7129 121.359C74.8424 120.477 74.6515 119.491 74.1749 118.583C73.6986 117.675 72.9958 116.957 72.1966 116.563C71.7752 116.355 71.355 116.25 70.9579 116.25Z" fill="white"/>
    <path opacity="0.56" d="M108.19 75.2747L102.154 78.8517V54.9789L108.19 51.3217V75.2747Z" fill="#292930"/>
    <path d="M104.687 70.4761C104.452 70.4761 104.217 70.4147 104.001 70.292C103.563 70.0423 103.302 69.5924 103.302 69.0883V58.5035C103.302 58.0219 103.558 57.568 103.969 57.3186L104.94 56.7307C105.373 56.4677 105.895 56.4595 106.337 56.7086C106.779 56.9572 107.043 57.4086 107.043 57.9155V68.5135C107.043 69.0005 106.782 69.4572 106.364 69.7051L105.393 70.2802C105.173 70.4108 104.93 70.4761 104.687 70.4761ZM105.657 56.8855C105.473 56.8855 105.29 56.9358 105.125 57.0361L104.154 57.6237C103.848 57.8089 103.659 58.146 103.659 58.5035V69.0883C103.659 69.4625 103.853 69.7968 104.178 69.982C104.503 70.1675 104.89 70.1639 105.211 69.9734L106.181 69.3983C106.492 69.2142 106.685 68.8753 106.685 68.5135V57.9155C106.685 57.5391 106.49 57.2041 106.162 57.0193C106.003 56.9301 105.83 56.8855 105.657 56.8855Z" fill="#CCCCCC"/>
    <path d="M91.7092 76.3421C95.9288 74.1287 97.1349 68.1125 94.4031 62.9047C91.6712 57.6968 86.0359 55.2693 81.8163 57.4828C77.5967 59.6962 76.3906 65.7124 79.1225 70.9203C81.8543 76.1281 87.4896 78.5556 91.7092 76.3421Z" fill="#3A5CE8"/>
    <path d="M90.7201 76.3329C94.5075 74.3457 95.3627 68.513 92.6303 63.3052C89.8979 58.0973 84.6125 55.4864 80.825 57.4736C77.0376 59.4607 76.1824 65.2935 78.9148 70.5013C81.6472 75.7092 86.9326 78.3201 90.7201 76.3329Z" fill="#4E69FF"/>
    <path d="M24.1353 22.3237V40.4411C24.1353 41.6908 24.7989 42.8464 25.8777 43.4765L68.0077 68.075C70.4366 69.4932 73.4885 67.741 73.4885 64.9282V45.6435C73.4885 43.6024 72.385 41.7208 70.604 40.7243L28.9035 17.3953C26.7679 16.2004 24.1353 17.7442 24.1353 20.1917V22.3237Z" fill="#3A5CE8"/>
    <path d="M73.4885 54.2745L76.9849 59.7403L73.4885 61.6694V54.2745Z" fill="#3A5CE8"/>
    <path d="M22.7559 23.0727V41.19C22.7559 42.4398 23.4195 43.5954 24.4983 44.2254L66.6283 68.8239C69.0572 70.2421 72.1091 68.4899 72.1091 65.6775V46.3928C72.1091 44.3517 71.0056 42.4701 69.2246 41.4736L27.5241 18.1445C25.3885 16.9497 22.7559 18.4935 22.7559 20.9409V23.0727Z" fill="#4E69FF"/>
    <path d="M67.0049 51.5221C66.9453 51.5221 66.885 51.5071 66.8297 51.476L50.1951 42.0651C50.0235 41.968 49.9632 41.7504 50.0603 41.5788C50.1573 41.4072 50.3756 41.3469 50.5465 41.4439L67.1815 50.8549C67.3531 50.9519 67.4134 51.1696 67.3163 51.3412C67.25 51.4568 67.129 51.5221 67.0049 51.5221Z" fill="white"/>
    <path d="M43.4187 38.1783C43.3591 38.1783 43.2988 38.1634 43.2435 38.1323L29.1431 30.1549C28.9715 30.0578 28.9112 29.8402 29.0083 29.6686C29.1049 29.497 29.3236 29.437 29.4942 29.5334L43.5946 37.5108C43.7662 37.6079 43.8265 37.8255 43.7295 37.9971C43.6638 38.1131 43.5429 38.1783 43.4187 38.1783Z" fill="white"/>
    <path d="M44.102 47.771C44.0425 47.771 43.9822 47.7564 43.9269 47.7246L28.0865 38.7632C27.9149 38.6661 27.8546 38.4485 27.9516 38.2769C28.0483 38.1053 28.2663 38.045 28.4375 38.142L44.2779 47.1038C44.4495 47.2009 44.5098 47.4185 44.4128 47.5898C44.3472 47.7057 44.2262 47.771 44.102 47.771Z" fill="white"/>
    <path d="M58.6873 51.4615C58.6277 51.4615 58.5674 51.4465 58.5121 51.4154L42.2571 42.2192C42.0855 42.1222 42.0252 41.9046 42.1223 41.733C42.2193 41.5613 42.4377 41.5011 42.6086 41.5981L58.8635 50.7943C59.0351 50.8913 59.0954 51.109 58.9984 51.2806C58.9324 51.3965 58.8114 51.4615 58.6873 51.4615Z" fill="white"/>
    <path d="M42.4324 42.2653C42.3728 42.2653 42.3125 42.2503 42.2572 42.2193L28.0662 34.1908C27.8946 34.0938 27.8343 33.8761 27.9314 33.7045C28.0284 33.5329 28.2464 33.4726 28.4176 33.5697L42.6087 41.5981C42.7803 41.6952 42.8406 41.9128 42.7435 42.0844C42.6775 42.2 42.5566 42.2653 42.4324 42.2653Z" fill="white"/>
    <path d="M72.1091 55.0234L75.6055 60.4892L72.1091 62.4186V55.0234Z" fill="#4E69FF"/>
    <path d="M87.2874 67.492L86.1996 67.1199C86.4943 67.142 86.7879 67.101 87.0651 66.9843C88.2311 66.4934 88.667 64.8854 88.0388 63.393C87.4105 61.9006 85.9556 61.089 84.7896 61.5799C83.6237 62.0708 83.1877 63.6788 83.816 65.1712C84.1103 65.8704 84.5873 66.4174 85.1296 66.7538L84.4086 66.5073C83.1891 66.0902 81.9404 67.0556 81.9404 68.416V69.6744C81.9404 69.9305 82.0803 70.1631 82.2986 70.2716L88.5247 73.3559C89.0288 73.6057 89.6068 73.215 89.6068 72.6245V70.8728C89.6068 69.3308 88.6695 67.9651 87.2874 67.492Z" fill="white"/>
    <path d="M69.074 97.8878C73.2936 95.6743 74.4996 89.6582 71.7678 84.4503C69.0359 79.2425 63.4007 76.815 59.1811 79.0284C54.9614 81.2419 53.7554 87.2581 56.4872 92.4659C59.2191 97.6738 64.8544 100.101 69.074 97.8878Z" fill="#E29837"/>
    <path d="M68.0763 97.8875C71.8638 95.9008 72.7195 90.0684 69.9876 84.8605C67.2558 79.6527 61.9709 77.0414 58.1834 79.0282C54.396 81.0149 53.5403 86.8473 56.2721 92.0552C59.004 97.263 64.2889 99.8743 68.0763 97.8875Z" fill="#FFB54A"/>
    <path d="M82.1262 87.1524V105.27C82.1262 106.519 82.7898 107.675 83.8687 108.305L125.999 132.904C128.428 134.322 131.479 132.57 131.479 129.757V110.473C131.479 108.431 130.376 106.55 128.595 105.553L86.8949 82.2239C84.7592 81.0291 82.1266 82.5728 82.1266 85.0199V87.1524H82.1262Z" fill="#E29837"/>
    <path d="M80.7471 87.9013V106.019C80.7471 107.268 81.4107 108.424 82.4896 109.054L124.62 133.653C127.048 135.071 130.1 133.319 130.1 130.506V111.221C130.1 109.18 128.997 107.299 127.216 106.302L85.5157 82.9731C83.3801 81.7783 80.7474 83.3221 80.7474 85.7695V87.9013H80.7471Z" fill="#FFB54A"/>
    <path d="M124.996 116.351C124.937 116.351 124.876 116.336 124.821 116.304L108.186 106.893C108.015 106.796 107.954 106.578 108.051 106.407C108.148 106.236 108.366 106.175 108.537 106.272L125.172 115.684C125.343 115.78 125.404 115.998 125.307 116.169C125.241 116.286 125.12 116.351 124.996 116.351Z" fill="white"/>
    <path d="M101.41 103.007C101.35 103.007 101.29 102.992 101.235 102.961L87.1343 94.9836C86.963 94.8869 86.9023 94.6689 86.9994 94.4977C87.0961 94.3257 87.3144 94.2658 87.4853 94.3628L101.586 102.34C101.757 102.437 101.818 102.655 101.721 102.826C101.655 102.942 101.534 103.007 101.41 103.007Z" fill="white"/>
    <path d="M102.093 112.6C102.033 112.6 101.973 112.585 101.918 112.553L86.0774 103.592C85.9061 103.495 85.8455 103.277 85.9425 103.106C86.0395 102.935 86.2579 102.875 86.4284 102.971L102.269 111.932C102.44 112.029 102.501 112.247 102.404 112.418C102.338 112.534 102.217 112.6 102.093 112.6Z" fill="white"/>
    <path d="M116.678 116.29C116.619 116.29 116.559 116.275 116.503 116.244L100.248 107.048C100.077 106.95 100.016 106.733 100.113 106.562C100.21 106.39 100.428 106.33 100.599 106.427L116.854 115.623C117.026 115.72 117.086 115.938 116.989 116.109C116.924 116.225 116.803 116.29 116.678 116.29Z" fill="white"/>
    <path d="M100.423 107.094C100.364 107.094 100.303 107.079 100.248 107.047L86.0571 99.0187C85.8858 98.9216 85.8252 98.704 85.9222 98.5327C86.0189 98.3611 86.2369 98.3012 86.4082 98.3979L100.599 106.427C100.77 106.523 100.831 106.741 100.734 106.913C100.668 107.029 100.547 107.094 100.423 107.094Z" fill="white"/>
    <path d="M80.747 100.605L76.6865 94.275L80.747 91.8835V100.605Z" fill="#E29837"/>
    <path d="M80.7469 100.604L77.2505 95.1387L80.7469 93.2096V100.604Z" fill="#FFB54A"/>
    <path d="M64.3101 89.0401L63.2223 88.668C63.517 88.6901 63.8106 88.649 64.0878 88.5324C65.2538 88.0415 65.6897 86.4335 65.0615 84.9411C64.4332 83.4487 62.9783 82.6371 61.8123 83.128C60.6464 83.6189 60.2104 85.2269 60.8387 86.7189C61.133 87.4182 61.61 87.9651 62.1523 88.3015L61.4313 88.055C60.2118 87.638 58.9631 88.6034 58.9631 89.9638V91.2221C58.9631 91.4783 59.103 91.7109 59.3213 91.8193L65.5474 94.9036C66.0515 95.1534 66.6295 94.7627 66.6295 94.1723V92.4205C66.6295 90.8785 65.6926 89.5128 64.3101 89.0401Z" fill="white"/>
    <path d="M150.053 98.5509C152.509 97.2624 153.211 93.7608 151.621 90.7299C150.03 87.699 146.75 86.2866 144.295 87.575C141.839 88.8635 141.137 92.3651 142.727 95.396C144.317 98.4269 147.597 99.8393 150.053 98.5509Z" fill="#3A5CE8"/>
    <path d="M149.462 98.5662C151.666 97.4098 152.164 94.0154 150.574 90.9845C148.984 87.9537 145.909 86.434 143.704 87.5904C141.5 88.7467 141.002 92.1411 142.592 95.172C144.182 98.2029 147.257 99.7225 149.462 98.5662Z" fill="#4E69FF"/>
    <path d="M110.723 67.1259V77.6699C110.723 78.3971 111.109 79.0699 111.737 79.4363L136.256 93.7522C137.669 94.5778 139.446 93.5582 139.446 91.9209V80.6975C139.446 79.5098 138.803 78.4145 137.767 77.8348L113.498 64.2574C112.255 63.562 110.722 64.4604 110.722 65.8846V67.1259H110.723Z" fill="#3A5CE8"/>
    <path d="M139.446 85.7212L141.481 88.9022L139.446 90.025V85.7212Z" fill="#3A5CE8"/>
    <path d="M109.92 67.5618V78.1059C109.92 78.833 110.306 79.5059 110.934 79.8723L135.453 94.1885C136.866 95.0141 138.643 93.9944 138.643 92.3572V81.1338C138.643 79.9461 138.001 78.8508 136.964 78.2711L112.695 64.694C111.452 63.9987 109.92 64.897 109.92 66.3213V67.5618Z" fill="#4E69FF"/>
    <path d="M135.672 84.09C135.642 84.09 135.612 84.0825 135.585 84.0668L125.903 78.5896C125.818 78.5411 125.787 78.4323 125.835 78.3463C125.885 78.26 125.992 78.2307 126.079 78.2789L135.76 83.7557C135.846 83.8046 135.876 83.913 135.828 83.999C135.795 84.0575 135.734 84.09 135.672 84.09Z" fill="white"/>
    <path d="M121.946 76.3241C121.916 76.3241 121.886 76.3167 121.858 76.301L113.652 71.6583C113.566 71.6097 113.536 71.5009 113.584 71.4153C113.633 71.329 113.742 71.2993 113.827 71.3479L122.034 75.9906C122.12 76.0391 122.15 76.1479 122.101 76.2335C122.068 76.2913 122.008 76.3241 121.946 76.3241Z" fill="white"/>
    <path d="M122.343 81.9067C122.313 81.9067 122.283 81.8992 122.255 81.8838L113.036 76.6681C112.951 76.6196 112.92 76.5108 112.969 76.4252C113.018 76.3388 113.126 76.3092 113.212 76.3578L122.431 81.5731C122.517 81.622 122.547 81.7304 122.499 81.8164C122.466 81.8742 122.405 81.9067 122.343 81.9067Z" fill="white"/>
    <path d="M130.832 84.0548C130.802 84.0548 130.772 84.0477 130.744 84.032L121.284 78.6796C121.198 78.6311 121.168 78.5223 121.216 78.4367C121.265 78.3507 121.373 78.3211 121.459 78.3692L130.92 83.7212C131.005 83.7701 131.036 83.8785 130.987 83.9645C130.954 84.0223 130.894 84.0548 130.832 84.0548Z" fill="white"/>
    <path d="M121.371 78.7027C121.341 78.7027 121.311 78.6952 121.283 78.6795L113.024 74.0068C112.939 73.9583 112.908 73.8495 112.957 73.7639C113.006 73.6779 113.114 73.6479 113.2 73.6964L121.459 78.3691C121.545 78.4176 121.575 78.5264 121.527 78.6124C121.494 78.6699 121.433 78.7027 121.371 78.7027Z" fill="white"/>
    <path d="M138.643 86.1569L140.678 89.3382L138.643 90.4606V86.1569Z" fill="#4E69FF"/>
    <path d="M146.934 93.3795C146.285 93.3795 145.614 92.8965 145.292 92.1326C145.099 91.676 145.058 91.1861 145.176 90.753C145.297 90.3042 145.574 89.9688 145.953 89.809C146.334 89.6495 146.767 89.6859 147.173 89.9124C147.564 90.1311 147.886 90.5029 148.078 90.9596C148.481 91.9175 148.185 92.9596 147.417 93.2836C147.261 93.3485 147.098 93.3795 146.934 93.3795ZM146.441 90.0676C146.32 90.0676 146.202 90.0908 146.092 90.1372C145.815 90.2535 145.612 90.505 145.52 90.8457C145.423 91.2022 145.459 91.61 145.621 91.9935C145.947 92.7698 146.691 93.2019 147.278 92.9536C147.865 92.7063 148.076 91.8736 147.749 91.0973C147.588 90.7137 147.321 90.4033 146.999 90.2232C146.814 90.1204 146.623 90.0676 146.441 90.0676Z" fill="white"/>
    <path d="M148.384 97.0489C148.293 97.0489 148.202 97.0278 148.117 96.9861L144.494 95.1912C144.307 95.0984 144.186 94.8993 144.186 94.6838V93.9514C144.186 93.505 144.396 93.0887 144.747 92.8379C145.075 92.6031 145.48 92.5417 145.859 92.672L147.534 93.2446C148.414 93.5454 149.005 94.4038 149.005 95.3806V96.4003C149.005 96.6311 148.891 96.8394 148.701 96.9579C148.604 97.0185 148.494 97.0489 148.384 97.0489ZM145.462 92.9624C145.284 92.9624 145.107 93.0188 144.954 93.1283C144.696 93.3124 144.543 93.6203 144.543 93.9517V94.6842C144.543 94.7652 144.586 94.839 144.653 94.8715L148.276 96.6664C148.353 96.7046 148.439 96.7014 148.513 96.655C148.597 96.6029 148.648 96.5077 148.648 96.401V95.3813C148.648 94.5568 148.154 93.834 147.419 93.5825L145.744 93.0098C145.651 92.9781 145.556 92.9624 145.462 92.9624Z" fill="white"/>
    <path d="M10.4477 67.8627C12.9469 66.5519 13.6614 62.9888 12.0436 59.9044C10.4258 56.8199 7.0883 55.3821 4.58913 56.6929C2.08995 58.0038 1.37545 61.5668 2.99326 64.6513C4.61106 67.7357 7.94853 69.1735 10.4477 67.8627Z" fill="#E29837"/>
    <path d="M10.991 60.1427C12.609 63.227 12.1024 66.6813 9.85896 67.858C7.61593 69.0346 4.4856 67.4883 2.86763 64.404C1.24966 61.3197 1.75628 57.8654 3.99967 56.6888C6.24306 55.5118 9.37304 57.0584 10.991 60.1427Z" fill="#FFB54A"/>
    <path d="M18.1746 61.4993V72.2286C18.1746 72.9685 18.5674 73.6528 19.2067 74.026L44.1566 88.5938C45.5951 89.4336 47.4025 88.3961 47.4025 86.7304V75.3097C47.4025 74.1009 46.7493 72.9867 45.6943 72.3963L20.9984 58.5809C19.7337 57.8734 18.1746 58.7875 18.1746 60.2371V61.4993Z" fill="#E29837"/>
    <path d="M17.3579 61.9427V72.6719C17.3579 73.4119 17.7507 74.0962 18.3901 74.4694L43.34 89.0372C44.7785 89.877 46.5859 88.8395 46.5859 87.1737V75.753C46.5859 74.5443 45.9323 73.4301 44.8777 72.84L20.1818 59.0243C18.917 58.3168 17.3579 59.2308 17.3579 60.6801V61.9427Z" fill="#FFB54A"/>
    <path d="M43.5625 78.7582C43.5329 78.7582 43.5026 78.7507 43.4748 78.7354L33.6235 73.1619C33.5379 73.1133 33.5076 73.0045 33.5561 72.9189C33.6046 72.8333 33.7138 72.8033 33.7991 72.8515L43.6503 78.425C43.7359 78.4735 43.7662 78.5823 43.7177 78.668C43.6853 78.7257 43.6246 78.7582 43.5625 78.7582Z" fill="white"/>
    <path d="M29.5949 70.856C29.5653 70.856 29.535 70.8485 29.5071 70.8328L21.1565 66.1084C21.0709 66.0599 21.0405 65.9511 21.0891 65.8655C21.1376 65.7798 21.2467 65.7495 21.332 65.798L29.6827 70.5224C29.7683 70.571 29.7986 70.6798 29.7501 70.7654C29.7173 70.8232 29.657 70.856 29.5949 70.856Z" fill="white"/>
    <path d="M29.999 76.537C29.9694 76.537 29.9391 76.5295 29.9113 76.5138L20.5303 71.2064C20.4446 71.1579 20.4143 71.0491 20.4628 70.9634C20.511 70.8775 20.6202 70.8475 20.7058 70.896L30.0868 76.2034C30.1724 76.2519 30.2028 76.3607 30.1542 76.4463C30.1218 76.5041 30.0615 76.537 29.999 76.537Z" fill="white"/>
    <path d="M38.6368 78.7226C38.6069 78.7226 38.5769 78.7151 38.5491 78.6997L28.9226 73.2532C28.837 73.2047 28.8066 73.0959 28.8552 73.0103C28.9037 72.9243 29.0125 72.8947 29.0981 72.9429L38.7246 78.389C38.8102 78.4375 38.8405 78.5463 38.792 78.632C38.7596 78.6901 38.6989 78.7226 38.6368 78.7226Z" fill="white"/>
    <path d="M29.0105 73.2761C28.9805 73.2761 28.9505 73.2686 28.9227 73.2529L20.5185 68.4982C20.4329 68.4496 20.4026 68.3408 20.4511 68.2552C20.4996 68.1692 20.6084 68.1392 20.6941 68.1878L29.0982 72.9425C29.1839 72.991 29.2142 73.0998 29.1657 73.1854C29.1332 73.2436 29.0725 73.2761 29.0105 73.2761Z" fill="white"/>
    <path d="M17.3579 69.466L14.9529 65.7174L17.3579 64.3014V69.466Z" fill="#E29837"/>
    <path d="M17.3578 69.4659L15.2871 66.2289L17.3578 65.0865V69.4659Z" fill="#FFB54A"/>
    <path d="M7.40079 62.5121C6.74218 62.5125 6.06003 62.0216 5.73323 61.2452C5.32365 60.2723 5.62512 59.2134 6.40503 58.8848C6.7907 58.7225 7.23025 58.76 7.64268 58.9897C8.04084 59.212 8.36764 59.5898 8.5628 60.0536C8.97238 61.0265 8.67126 62.0854 7.89099 62.414C7.7333 62.4808 7.56776 62.5121 7.40079 62.5121ZM6.89988 59.1428C6.77608 59.1428 6.6562 59.1663 6.54346 59.2138C5.94479 59.4657 5.72894 60.3151 6.06217 61.1068C6.3954 61.8985 7.15319 62.3377 7.75292 62.0854C8.35159 61.8336 8.56744 60.9841 8.23421 60.1924C8.06974 59.8014 7.79788 59.4853 7.46893 59.3019C7.27984 59.1959 7.08576 59.1428 6.89988 59.1428Z" fill="white"/>
    <path d="M8.87673 66.2465C8.78504 66.2465 8.69263 66.2255 8.60701 66.183L4.92011 64.3564C4.73102 64.2625 4.60864 64.0609 4.60864 63.843V63.0977C4.60864 62.6446 4.82128 62.2218 5.1777 61.9674C5.51128 61.7287 5.92228 61.6677 6.30653 61.7986L8.01119 62.3816C8.90491 62.6874 9.50536 63.5597 9.50536 64.5522V65.5897C9.50536 65.8238 9.39048 66.0346 9.19782 66.1541C9.099 66.2155 8.98804 66.2465 8.87673 66.2465ZM5.90444 62.088C5.72178 62.088 5.54161 62.1454 5.38498 62.2575C5.12204 62.4451 4.96542 62.7594 4.96542 63.0977V63.843C4.96542 63.9268 5.01001 64.0028 5.07816 64.0367L8.76541 65.8634C8.84462 65.9026 8.93381 65.8987 9.00945 65.8512C9.0965 65.7974 9.14859 65.6996 9.14859 65.5901V64.5526C9.14859 63.7127 8.64518 62.976 7.8956 62.7195L6.19093 62.1365C6.09675 62.1037 6.00006 62.088 5.90444 62.088Z" fill="white"/>
    <g opacity="0.49">
        <path d="M44.3236 106.144C45.6069 108.591 45.0404 111.417 43.0585 112.456C41.0763 113.496 38.4294 112.356 37.146 109.91C35.8627 107.463 36.4293 104.637 38.4112 103.598C40.3934 102.558 43.0406 103.698 44.3236 106.144Z" fill="#3A5CE8"/>
        <path d="M43.4877 106.337C44.771 108.784 44.3689 111.523 42.59 112.457C40.8108 113.39 38.3284 112.163 37.045 109.717C35.7617 107.271 36.1638 104.531 37.9427 103.598C39.7216 102.664 42.2044 103.891 43.4877 106.337Z" fill="#4E69FF"/>
        <path d="M11.3142 87.0838V95.5936C11.3142 96.1805 11.626 96.7235 12.1326 97.0193L31.9215 108.573C33.0624 109.239 34.4959 108.417 34.4959 107.095V98.0371C34.4959 97.0785 33.9775 96.1948 33.1409 95.7267L13.554 84.7687C12.5508 84.2075 11.3142 84.9325 11.3142 86.082V87.0838Z" fill="#3A5CE8"/>
        <path d="M34.4956 102.091L36.1382 104.659L34.4956 105.565V102.091Z" fill="#3A5CE8"/>
        <path d="M10.6663 87.4356V95.9454C10.6663 96.5323 10.9777 97.0753 11.4847 97.371L31.2735 108.925C32.4145 109.591 33.848 108.769 33.848 107.447V98.3889C33.848 97.4303 33.3296 96.5465 32.493 96.0785L12.9061 85.1205C11.9028 84.5593 10.6663 85.2843 10.6663 86.4338V87.4356Z" fill="#4E69FF"/>
        <path d="M31.4503 100.809C31.4207 100.809 31.3903 100.802 31.3625 100.786L23.5488 96.366C23.4632 96.3171 23.4329 96.2086 23.4814 96.1227C23.5299 96.0367 23.6387 96.0063 23.7243 96.0552L31.538 100.476C31.6237 100.525 31.654 100.633 31.6055 100.719C31.573 100.777 31.5127 100.809 31.4503 100.809Z" fill="white"/>
        <path d="M20.372 94.5416C20.3424 94.5416 20.3121 94.5341 20.2843 94.5184L13.6611 90.7712C13.5755 90.7223 13.5452 90.6139 13.5937 90.5279C13.6422 90.4419 13.7514 90.4119 13.8367 90.4605L20.4598 94.208C20.5454 94.2569 20.5758 94.3654 20.5272 94.4513C20.4944 94.5095 20.4341 94.5416 20.372 94.5416Z" fill="white"/>
        <path d="M20.6926 99.0472C20.663 99.0472 20.6326 99.0401 20.6048 99.0244L13.1643 94.8148C13.0787 94.7659 13.0483 94.6575 13.0969 94.5715C13.1454 94.4855 13.2542 94.4555 13.3398 94.504L20.7803 98.7136C20.866 98.7625 20.8963 98.871 20.8478 98.9569C20.8153 99.0147 20.7547 99.0472 20.6926 99.0472Z" fill="white"/>
        <path d="M27.5434 100.781C27.5134 100.781 27.4834 100.773 27.4556 100.758L19.8203 96.4388C19.7347 96.3899 19.7043 96.2815 19.7529 96.1955C19.801 96.1095 19.9102 96.0795 19.9958 96.1281L27.6311 100.447C27.7168 100.496 27.7471 100.605 27.6986 100.69C27.6661 100.748 27.6055 100.781 27.5434 100.781Z" fill="white"/>
        <path d="M19.9081 96.4613C19.8785 96.4613 19.8482 96.4538 19.8204 96.4384L13.1548 92.6673C13.0691 92.6185 13.0388 92.51 13.0873 92.424C13.1359 92.338 13.2447 92.3081 13.3303 92.3566L19.9959 96.1277C20.0815 96.1766 20.1119 96.285 20.0633 96.371C20.0309 96.4288 19.9706 96.4613 19.9081 96.4613Z" fill="white"/>
        <path d="M33.8477 102.443L35.4902 105.01L33.8477 105.917V102.443Z" fill="#4E69FF"/>
        <path d="M40.5394 108.306C40.0025 108.306 39.4473 107.908 39.1822 107.279C39.0242 106.903 38.9903 106.5 39.087 106.143C39.1879 105.77 39.4181 105.492 39.7345 105.358C40.051 105.225 40.4113 105.255 40.7481 105.443C41.071 105.623 41.3357 105.929 41.4941 106.305C41.827 107.095 41.579 107.957 40.9415 108.226C40.8127 108.28 40.6768 108.306 40.5394 108.306ZM40.1416 105.634C40.0485 105.634 39.9582 105.651 39.8737 105.687C39.6603 105.777 39.5033 105.972 39.4316 106.236C39.3556 106.517 39.3838 106.838 39.5115 107.14C39.7681 107.749 40.3489 108.088 40.8038 107.897C41.2597 107.705 41.4224 107.053 41.1659 106.444C41.0385 106.141 40.8288 105.897 40.5751 105.755C40.4306 105.675 40.2829 105.634 40.1416 105.634Z" fill="white"/>
        <path d="M41.7095 111.268C41.631 111.268 41.5525 111.25 41.4791 111.214L38.5546 109.765C38.3922 109.685 38.2874 109.512 38.2874 109.325V108.734C38.2874 108.363 38.4618 108.017 38.754 107.807C39.0284 107.611 39.3669 107.56 39.6827 107.669L41.0349 108.131C41.7584 108.378 42.245 109.085 42.245 109.888V110.711C42.245 110.909 42.1473 111.089 41.9835 111.19C41.899 111.242 41.8044 111.268 41.7095 111.268ZM39.3523 107.97C39.215 107.97 39.0794 108.013 38.9617 108.097C38.7629 108.239 38.6441 108.477 38.6441 108.734V109.325C38.6441 109.377 38.6712 109.425 38.7133 109.445L41.6378 110.894C41.7077 110.929 41.767 110.904 41.7955 110.887C41.8537 110.85 41.8883 110.785 41.8883 110.711V109.888C41.8883 109.237 41.499 108.667 40.9196 108.469L39.5675 108.006C39.4968 107.982 39.424 107.97 39.3523 107.97Z" fill="white"/>
        <path d="M117.378 48.7702C119.412 47.7029 119.993 44.8027 118.676 42.2923C117.359 39.7819 114.642 38.6119 112.608 39.6792C110.574 40.7464 109.993 43.6467 111.31 46.1571C112.627 48.6675 115.344 49.8374 117.378 48.7702Z" fill="#E29837"/>
        <path d="M117.821 42.4987C119.138 45.0094 118.726 47.8207 116.9 48.7787C115.074 49.7366 112.526 48.4779 111.209 45.9673C109.893 43.4567 110.305 40.6453 112.131 39.6874C113.956 38.7298 116.504 39.9885 117.821 42.4987Z" fill="#FFB54A"/>
        <path d="M123.668 43.6031V52.3362C123.668 52.9385 123.988 53.4958 124.508 53.7994L144.816 65.6567C145.987 66.3403 147.458 65.4958 147.458 64.1401V54.8444C147.458 53.8604 146.926 52.9535 146.067 52.4732L125.966 41.2277C124.937 40.6519 123.667 41.3958 123.667 42.5756V43.6031H123.668Z" fill="#E29837"/>
        <path d="M123.003 43.9642V52.6973C123.003 53.2996 123.323 53.8568 123.843 54.1605L144.151 66.0178C145.322 66.7014 146.793 65.8569 146.793 64.5012V55.2054C146.793 54.2215 146.261 53.3145 145.403 52.8343L125.302 41.5888C124.272 41.013 123.003 41.7569 123.003 42.9367V43.9642Z" fill="#FFB54A"/>
        <path d="M144.333 57.6843C144.303 57.6843 144.273 57.6769 144.245 57.6612L136.226 53.1248C136.141 53.0763 136.11 52.9674 136.159 52.8818C136.208 52.7955 136.316 52.7662 136.402 52.8144L144.421 57.3508C144.506 57.3993 144.537 57.5081 144.488 57.5937C144.455 57.6515 144.395 57.6843 144.333 57.6843Z" fill="white"/>
        <path d="M132.964 51.252C132.934 51.252 132.904 51.2445 132.876 51.2288L126.079 47.3835C125.993 47.335 125.963 47.2261 126.011 47.1405C126.06 47.0542 126.169 47.0246 126.254 47.0731L133.051 50.9184C133.137 50.9669 133.167 51.0757 133.119 51.1614C133.086 51.2195 133.025 51.252 132.964 51.252Z" fill="white"/>
        <path d="M133.293 55.8761C133.263 55.8761 133.233 55.8687 133.205 55.853L125.57 51.5331C125.484 51.4846 125.454 51.3758 125.502 51.2902C125.551 51.2038 125.659 51.1742 125.745 51.2227L133.381 55.5426C133.466 55.5911 133.497 55.6999 133.449 55.7855C133.415 55.8437 133.355 55.8761 133.293 55.8761Z" fill="white"/>
        <path d="M140.323 57.655C140.294 57.655 140.264 57.6475 140.236 57.6318L132.4 53.1989C132.315 53.1504 132.284 53.0416 132.332 52.956C132.382 52.87 132.489 52.8404 132.576 52.8885L140.411 57.3214C140.497 57.37 140.527 57.4788 140.479 57.5644C140.445 57.6226 140.385 57.655 140.323 57.655Z" fill="white"/>
        <path d="M132.488 53.2221C132.458 53.2221 132.428 53.2146 132.4 53.1989L125.56 49.329C125.474 49.2804 125.444 49.1716 125.492 49.086C125.541 49 125.649 48.97 125.735 49.0186L132.576 52.8885C132.662 52.937 132.692 53.0458 132.644 53.1315C132.61 53.1896 132.55 53.2221 132.488 53.2221Z" fill="white"/>
        <path d="M123.003 50.0878L121.046 47.0363L123.003 45.8839V50.0878Z" fill="#E29837"/>
        <path d="M123.003 50.0877L121.318 47.4529L123.003 46.5228V50.0877Z" fill="#FFB54A"/>
        <path d="M114.899 44.4606C114.35 44.4606 113.783 44.0536 113.511 43.4092C113.17 42.6001 113.424 41.7188 114.075 41.4445C114.398 41.3085 114.767 41.3392 115.112 41.5315C115.442 41.716 115.713 42.0292 115.875 42.4135C116.037 42.7977 116.072 43.2105 115.972 43.5758C115.869 43.9569 115.634 44.2419 115.311 44.3782C115.178 44.4342 115.039 44.4603 114.899 44.4606ZM114.491 41.7181C114.394 41.7181 114.301 41.7363 114.214 41.7734C113.743 41.9714 113.576 42.6432 113.84 43.2708C114.104 43.8977 114.701 44.2476 115.172 44.0496C115.392 43.9569 115.554 43.7557 115.628 43.4827C115.706 43.1941 115.677 42.8637 115.546 42.5523C115.415 42.2408 115.199 41.9889 114.938 41.8433C114.789 41.7599 114.637 41.7181 114.491 41.7181Z" fill="white"/>
        <path d="M116.1 47.5004C116.02 47.5004 115.941 47.4818 115.866 47.4451L112.865 45.9581C112.7 45.876 112.593 45.7001 112.593 45.5103V44.9038C112.593 44.5242 112.771 44.1699 113.07 43.9566C113.35 43.756 113.695 43.704 114.019 43.8149L115.407 44.2894C116.147 44.5427 116.645 45.2656 116.645 46.0876V46.932C116.645 47.134 116.546 47.3163 116.379 47.4198C116.293 47.4733 116.197 47.5004 116.1 47.5004ZM113.681 44.1153C113.539 44.1153 113.399 44.1603 113.277 44.247C113.073 44.3936 112.95 44.6391 112.95 44.9038V45.5103C112.95 45.566 112.979 45.6163 113.023 45.6384L116.024 47.1251C116.099 47.1622 116.16 47.1354 116.191 47.1169C116.252 47.079 116.288 47.0102 116.288 46.9324V46.0879C116.288 45.4183 115.887 44.8314 115.291 44.6273L113.903 44.1528C113.83 44.1278 113.755 44.1153 113.681 44.1153Z" fill="white"/>
    </g>
    <path d="M97.5888 17.9962C97.5795 19.0305 96.4564 19.6684 95.5634 19.1472L90.2971 16.0721L88.0455 14.7574C87.632 14.5159 87.3779 14.0731 87.3779 13.5943V4.58473C87.3779 3.55615 88.4843 2.90718 89.3819 3.40952L96.9823 7.66155C97.4115 7.90165 97.6758 8.3569 97.6716 8.84889L97.5888 17.9962Z" fill="#C12736"/>
    <path d="M91.248 20.9343L90.2969 16.0721L93.3541 17.8567L91.248 20.9343Z" fill="#C12736"/>
    <path d="M96.8031 18.4576C96.7939 19.4915 95.6707 20.1298 94.7777 19.6086L89.5114 16.5339L87.2598 15.2192C86.8463 14.9776 86.5923 14.5349 86.5923 14.0561V5.04613C86.5923 4.01755 87.6986 3.36893 88.5963 3.87092L96.1966 8.12294C96.6258 8.36305 96.8902 8.8183 96.8859 9.31029L96.8031 18.4576Z" fill="#F13C45"/>
    <path d="M91.2479 20.9343L89.5115 16.5334L92.5683 18.3184L91.2479 20.9343Z" fill="#F13C45"/>
    <path d="M94.6352 12.4841C94.6548 12.2832 94.6349 12.0595 94.566 11.8144C94.368 11.1162 93.8182 10.4715 93.1946 10.2032C92.5228 9.9153 91.9301 10.1023 91.6758 10.6057C91.4881 9.91209 90.9422 9.24207 90.2679 8.95629C89.4466 8.60951 88.7759 8.93667 88.6885 9.71265C88.6064 10.4462 89.1113 11.2846 89.6193 12.0028C90.2316 12.8801 90.8409 13.7706 91.4731 14.6415C91.5238 14.7118 93.2377 13.9204 93.4029 13.8445C93.9502 13.5919 94.5599 13.2586 94.6352 12.4841Z" fill="white"/>
    <path d="M108.278 28.4294C108.273 28.9056 107.756 29.1996 107.344 28.9595L104.918 27.5428L103.88 26.937C103.69 26.8257 103.573 26.6219 103.573 26.4011V22.2507C103.573 21.777 104.083 21.478 104.496 21.7092L107.997 23.6682C108.195 23.7788 108.317 23.9886 108.315 24.2151L108.278 28.4294Z" fill="#C12736"/>
    <path d="M105.356 29.783L104.918 27.5432L106.327 28.3656L105.356 29.783Z" fill="#C12736"/>
    <path d="M107.916 28.642C107.911 29.1183 107.394 29.4123 106.982 29.1722L104.556 27.7554L103.519 27.1496C103.328 27.0383 103.211 26.8346 103.211 26.6137V22.4634C103.211 21.9896 103.721 21.6906 104.135 21.9218L107.636 23.8809C107.834 23.9915 107.956 24.2012 107.953 24.4278L107.916 28.642Z" fill="#F13C45"/>
    <path d="M105.357 29.7829L104.556 27.7557L105.965 28.5777L105.357 29.7829Z" fill="#F13C45"/>
    <path d="M106.917 25.8902C106.926 25.7978 106.917 25.6947 106.884 25.5816C106.794 25.2601 106.54 24.9629 106.253 24.8395C105.943 24.7068 105.67 24.7928 105.553 25.025C105.467 24.7054 105.215 24.3967 104.904 24.2651C104.526 24.1053 104.217 24.2562 104.177 24.6137C104.139 24.9515 104.372 25.3379 104.606 25.6686C104.888 26.0729 105.168 26.4832 105.46 26.8842C105.483 26.9166 106.273 26.552 106.349 26.517C106.601 26.4004 106.882 26.247 106.917 25.8902Z" fill="white"/>
</svg>
