<svg width="20" height="20" viewBox="0 0 20 20" fill="none" xmlns="http://www.w3.org/2000/svg">
    <path d="M10 20C15.5228 20 20 15.5228 20 10C20 4.47715 15.5228 0 10 0C4.47715 0 0 4.47715 0 10C0 15.5228 4.47715 20 10 20Z" fill="#FF5A54"/>
    <path fill-rule="evenodd" clip-rule="evenodd" d="M20.0006 9.85809C20.0012 9.90584 20.0024 9.95347 20.0024 10.0014C20.0024 15.5242 15.5252 20.0014 10.0024 20.0014C9.94996 20.0014 9.89779 20.0002 9.8455 19.9994L6.15121 16.3051C6.02354 16.1956 5.93921 16.0365 5.92821 15.856L5.41167 7.38443H5.47642L4.74862 6.65664C4.71087 6.61889 4.6875 6.5668 4.6875 6.50943V5.43609C4.6875 5.08205 4.97625 4.79334 5.33025 4.79334H8.03854V4.2678C8.03854 3.86855 8.36417 3.54297 8.76337 3.54297H11.2415C11.4535 3.54297 11.6449 3.63484 11.7776 3.78089L12.7901 4.79334H14.6746C14.8737 4.79334 15.0522 4.88472 15.1702 5.02768L20.0006 9.85809Z" fill="#DB3A3C"/>
    <path fill-rule="evenodd" clip-rule="evenodd" d="M7.91592 9.10284C8.1 9.10284 8.24925 9.25209 8.24925 9.43618V13.6689C8.24925 13.853 8.1 14.0022 7.91592 14.0022C7.73183 14.0022 7.58258 13.853 7.58258 13.6689V9.43618C7.58258 9.25209 7.73183 9.10284 7.91592 9.10284ZM9.66913 9.43618C9.66913 9.25209 9.81838 9.10284 10.0025 9.10284C10.1865 9.10284 10.3358 9.25209 10.3358 9.43618V13.6689C10.3358 13.853 10.1865 14.0022 10.0025 14.0022C9.81838 14.0022 9.66913 13.853 9.66913 13.6689V9.43618ZM11.7557 9.43618C11.7557 9.25209 11.9049 9.10284 12.089 9.10284C12.2731 9.10284 12.4223 9.25209 12.4223 9.43618V13.6689C12.4223 13.853 12.2731 14.0022 12.089 14.0022C11.9049 14.0022 11.7557 13.853 11.7557 13.6689V9.43618ZM5.41171 7.38439L5.92825 15.856C5.94896 16.1956 6.2295 16.4596 6.56979 16.4596H13.4351C13.7754 16.4596 14.056 16.1956 14.0766 15.856L14.5932 7.38439H5.41171ZM5.33029 4.79334H8.03858V4.2678C8.03858 3.86855 8.36421 3.54297 8.76342 3.54297H11.2415C11.6407 3.54297 11.9663 3.86855 11.9663 4.2678V4.79334H14.6746C15.0286 4.79334 15.3173 5.08209 15.3173 5.43609V6.50943C15.3173 6.62418 15.2238 6.71776 15.109 6.71776H4.89583C4.78108 6.71776 4.6875 6.62418 4.6875 6.50943V5.43609C4.6875 5.08205 4.97629 4.79334 5.33029 4.79334Z" fill="white"/>
</svg>
