<svg width="10" height="9" viewBox="0 0 10 9" fill="none" xmlns="http://www.w3.org/2000/svg">
    <path d="M2.5 0L0 2.5L1.25 3.27377L2.5 2.5L3.20588 1.25L2.5 0Z" fill="#FF2820"/>
    <path d="M2.5 2.5H0V5.75L1.25 6.43643L2.5 5.75V2.5Z" fill="#0084FF"/>
    <path d="M0 5.75V7.41666C0 7.875 0.375 8.25 0.83334 8.25H2.5L3.20588 6.92301L2.5 5.75H0Z" fill="#0066DD"/>
    <path d="M9.48016 0.887618L7.93396 2.11244V2.125L7.42969 4.0502L7.93396 5.9985L9.47328 7.23738C9.67981 7.41068 9.99646 7.26512 9.99646 6.99477V1.13023C9.99646 0.859883 9.68668 0.714317 9.48016 0.887618Z" fill="#00AD3C"/>
    <path d="M7.9375 2.11244V0.823769C7.9375 0.370703 7.57047 0 7.12188 0H5.49062H2.5V2.5H5.5625V4.125L7.20789 3.9417L7.9375 2.11244Z" fill="#FFBA00"/>
    <path d="M5.5625 5.75H2.5V8.25H5.49062H7.12188C7.57047 8.25 7.9375 7.87984 7.9375 7.42742V6L7.12123 4.32303L5.5625 4.125V5.75Z" fill="#00AD3C"/>
    <path d="M5.5625 4.12584L7.9375 6.00084V2.11328L5.5625 4.12584Z" fill="#00831E"/>
</svg>
