<svg width="30" height="30" viewBox="0 0 30 30" fill="none" xmlns="http://www.w3.org/2000/svg">
    <path d="M2.68964 15.5492L10.098 19.333C10.3171 19.4425 10.795 19.7114 11.0639 19.2733C11.3128 18.865 10.8946 18.5364 10.6955 18.387L2.07228 11.7852C1.44496 11.2874 1.30556 10.3215 1.78351 9.6643C2.26147 8.97723 3.25722 8.77808 3.93433 9.24609L12.6969 15.5293C12.8562 15.6487 13.2944 15.9674 13.613 15.599C13.9316 15.2504 13.5831 14.8521 13.4437 14.7028L5.30846 6.11944C4.72097 5.4722 4.7608 4.39679 5.54744 3.6699C6.17476 3.09236 7.28004 3.07245 7.87749 3.68981L15.8733 12.0143C15.9928 12.1338 16.3613 12.5121 16.7396 12.2333C17.128 11.9346 16.8492 11.4965 16.7795 11.3272L11.8107 3.08241C11.4721 2.55466 11.4622 1.4693 12.3783 0.921635C13.3242 0.364016 14.2304 0.921635 14.5789 1.50913L20.1053 10.3912C20.8919 11.7056 22.1266 12.8109 23.222 13.3287C24.0683 13.7269 24.7255 13.2191 24.8351 12.3329C25.0043 10.9588 25.2732 9.25604 25.7512 7.82217C26.249 6.31859 28.0015 5.57178 29.4952 6.32854L28.9873 8.33C28.4795 10.3613 28.4198 12.4922 28.7683 14.5634C29.067 16.296 29.3657 18.5265 29.3259 20.508C29.2761 23.4952 27.2647 24.7997 25.4624 26.4227C17.6856 33.4826 12.0298 23.8836 9.27153 22.5194L1.25577 18.0684C0.578659 17.6801 0.429297 16.7739 0.827596 16.1167C1.21594 15.4795 2.01254 15.2007 2.68964 15.5492Z" fill="#FFD869"/>
    <path d="M27.1741 6.29112C27.4131 6.34091 27.6421 6.41061 27.8712 6.52015L27.3633 8.5216C26.8555 10.5529 26.7958 12.6838 27.1443 14.755C27.443 16.4876 27.7417 18.7181 27.7019 20.6996C27.6521 23.6868 25.6407 24.9913 23.8384 26.6143C22.3647 27.9486 20.9706 28.6855 19.6562 28.9942C21.4287 29.024 23.3704 28.337 25.4615 26.4351C27.2638 24.812 29.2652 23.5076 29.325 20.5204C29.3648 18.5289 29.0661 16.2984 28.7673 14.5757C28.4089 12.5046 28.4786 10.3737 28.9864 8.34236L29.4942 6.34091C28.7275 5.95257 27.8811 5.97248 27.1741 6.29112Z" fill="#F2C34E"/>
    <path d="M27.1622 13.7701C27.4609 15.5027 27.7596 17.7331 27.7198 19.7147C27.67 22.7019 25.6586 24.0064 23.8563 25.6294C20.7496 28.4474 17.9814 28.6067 15.6016 27.7006C18.31 29.3436 21.6358 29.9311 25.4794 26.436C27.2817 24.8129 29.2831 23.5085 29.3429 20.5212C29.3827 18.5297 29.084 16.2993 28.7853 14.5766C28.4367 12.5055 26.8037 11.6989 27.1622 13.7701Z" fill="#F2C34E"/>
    <path d="M6.25002 3.86544L15.1122 12.9964C15.2317 13.1159 15.6001 13.4943 15.9785 13.2155C16.3668 12.9168 16.088 12.4787 16.0183 12.3094L15.63 11.6621L7.88304 3.69616C7.33538 3.12859 6.37947 3.09871 5.74219 3.52689C5.93138 3.60655 6.10066 3.71608 6.25002 3.86544Z" fill="#F2C34E"/>
    <path d="M2.2304 9.48592L11.9489 16.4462C12.1281 16.5756 12.616 16.9242 12.9646 16.5159C13.2732 16.1873 13.0243 15.8089 12.855 15.6098L4.0327 9.28677C3.44521 8.87851 2.60878 8.93826 2.03125 9.37639C2.10095 9.41622 2.17065 9.44609 2.2304 9.48592Z" fill="#F2C34E"/>
    <path d="M12.9513 1.68836L18.4777 10.5704C19.2644 11.8848 20.4991 12.9901 21.5944 13.5079C22.1819 13.7867 22.6798 13.6075 22.9685 13.1793C21.9429 12.6217 20.8476 11.606 20.1107 10.3912L14.5843 1.50913C14.2358 0.921635 13.3297 0.364016 12.3837 0.921635C12.324 0.951507 12.2842 0.991337 12.2344 1.03117C12.5431 1.20044 12.802 1.43942 12.9513 1.68836Z" fill="#F2C34E"/>
    <path d="M9.54995 20.2614C9.79889 20.3909 10.3665 20.6995 10.6751 20.1917C10.7946 19.9926 10.7648 19.8233 10.6951 19.6739L2.78882 15.6312C2.1615 15.3126 1.46448 15.452 0.976562 15.8801L9.54995 20.2614Z" fill="#F2C34E"/>
    <path d="M19.7886 29.4978C16.2039 29.4978 13.2863 26.7296 11.255 24.8078C10.3788 23.9714 9.61204 23.2544 9.05442 22.9756L1.01873 18.5147C0.600521 18.2757 0.301797 17.8873 0.182307 17.4094C0.0429023 16.8916 0.13252 16.334 0.401371 15.866C0.929118 14.9698 2.00452 14.6412 2.91066 15.0992L10.319 18.8831C10.3987 18.9229 10.5879 19.0125 10.6476 19.0125C10.6177 18.9827 10.5381 18.903 10.3887 18.7835L1.76555 12.1817C0.91916 11.5046 0.749883 10.25 1.36725 9.3737C1.67593 8.93557 2.16384 8.61693 2.72146 8.52731C3.25917 8.42774 3.78691 8.54723 4.20513 8.84595L12.9777 15.1291C13.1569 15.2685 13.2266 15.2785 13.2465 15.2785C13.2366 15.2685 13.2166 15.1889 13.0872 15.0495L4.94198 6.46612C4.14538 5.56994 4.25491 4.18586 5.20087 3.3096C6.04726 2.54287 7.46122 2.56279 8.22795 3.34943L16.2238 11.6739C16.3632 11.8133 16.4229 11.8332 16.4528 11.8432C16.4429 11.7934 16.3732 11.654 16.3532 11.6042L11.3745 3.34943C11.1057 2.94117 11.016 2.34372 11.1455 1.80602C11.2749 1.25836 11.6135 0.810271 12.1114 0.511547C13.2366 -0.155604 14.4613 0.372142 14.999 1.26831L20.5155 10.1504C21.2125 11.3154 22.3576 12.3908 23.4231 12.9086C23.5724 12.9783 23.8014 13.0381 23.9807 12.9385C24.1599 12.8389 24.2894 12.6099 24.3292 12.2912C24.4885 11.0565 24.7474 9.22434 25.2652 7.69089C25.544 6.83454 26.1912 6.14748 27.0376 5.79897C27.894 5.45045 28.8698 5.49028 29.7162 5.9085C29.9253 6.01803 30.0348 6.24705 29.9751 6.47607L29.4672 8.47753C28.9793 10.4292 28.9096 12.4605 29.2581 14.5018C29.6664 16.8418 29.8556 18.8731 29.8257 20.546C29.7759 23.364 28.113 24.8078 26.4999 26.2118C26.2709 26.4109 26.0319 26.62 25.8029 26.8292C23.6521 28.7609 21.6307 29.4978 19.7886 29.4978ZM2.06427 15.8958C1.74563 15.8958 1.44691 16.0651 1.26767 16.3738V16.3838C1.12827 16.6128 1.08844 16.9016 1.14818 17.1604C1.18801 17.3098 1.28759 17.5189 1.50665 17.6484L9.51246 22.0994C10.1896 22.428 10.9961 23.1947 11.9321 24.0908C15.1086 27.098 19.45 31.2204 25.1258 26.0724C25.3648 25.8533 25.6037 25.6542 25.8427 25.4451C27.416 24.0709 28.7802 22.896 28.83 20.5161C28.8598 18.913 28.6706 16.9414 28.2823 14.6611C27.9039 12.4804 27.9836 10.3097 28.5014 8.21863L28.8997 6.63539C28.4118 6.48603 27.894 6.50595 27.416 6.7051C26.8385 6.94408 26.4003 7.41208 26.2111 7.98961C25.7232 9.45336 25.4643 11.2059 25.315 12.4008C25.2353 13.0281 24.9266 13.5359 24.4686 13.7948C24.0404 14.0338 23.5127 14.0338 23.0048 13.7948C21.7502 13.1974 20.4756 11.9925 19.679 10.6582L14.1526 1.77615C13.9933 1.51725 13.3859 0.899888 12.6292 1.35793C12.3603 1.51725 12.191 1.74627 12.1213 2.02508C12.0417 2.34372 12.1213 2.6524 12.2209 2.81172L17.1996 11.0665C17.6378 11.9328 17.349 12.3809 17.0403 12.6198C16.7715 12.819 16.2238 13.058 15.5268 12.3709L7.52097 4.03649C7.12267 3.63819 6.32607 3.63819 5.88794 4.03649C5.28053 4.60407 5.30045 5.37079 5.67883 5.78901L13.8041 14.3524C14.4115 14.9897 14.2921 15.5872 13.9734 15.9357C13.834 16.095 13.2863 16.6028 12.3902 15.9257L3.62759 9.65251C3.42844 9.5131 3.16955 9.45336 2.89074 9.50315C2.60197 9.55293 2.34308 9.71225 2.18376 9.94128C1.86512 10.3894 1.95474 11.0565 2.37295 11.3951L10.9862 17.9869C11.7828 18.6142 11.6931 19.1719 11.4741 19.5204C11.2451 19.8988 10.7771 20.2473 9.87093 19.7693L2.45261 15.9755C2.33312 15.9257 2.20367 15.8958 2.06427 15.8958Z" fill="#1F2D5A"/>
    <path d="M6.97084 27.6614C4.06326 27.6614 1.36478 26.0085 0.050397 23.3897C-0.0690927 23.1507 0.030482 22.852 0.279419 22.7225C0.528356 22.603 0.82708 22.7026 0.94657 22.9416C2.12155 25.2716 4.56113 26.7354 7.16999 26.6557C7.4488 26.6657 7.67782 26.8648 7.67782 27.1436C7.68778 27.4224 7.46872 27.6515 7.18991 27.6515C7.12021 27.6614 7.0505 27.6614 6.97084 27.6614Z" fill="#1F2D5A"/>
    <path d="M6.92517 25.1905C6.90526 25.1905 6.8953 25.1905 6.87538 25.1905C4.96355 25.0013 3.26082 23.8861 2.33477 22.2033C2.20533 21.9643 2.28499 21.6556 2.53392 21.5262C2.7729 21.3967 3.08159 21.4764 3.21103 21.7253C3.97776 23.1194 5.39172 24.0454 6.97496 24.2047C7.24381 24.2346 7.45292 24.4736 7.42304 24.7524C7.39317 25.0013 7.17411 25.1905 6.92517 25.1905Z" fill="#1F2D5A"/>
    <path d="M23.6613 7.06712C23.4123 7.06712 23.1933 6.87793 23.1634 6.61903C22.8846 4.03009 21.1022 1.80957 18.6327 0.963187C18.3738 0.87357 18.2344 0.594761 18.3241 0.335866C18.4137 0.076972 18.6925 -0.0624326 18.9514 0.0271847C21.7793 0.99306 23.8206 3.54217 24.1492 6.51946C24.1791 6.78831 23.9799 7.03725 23.7111 7.06712C23.7011 7.06712 23.6812 7.06712 23.6613 7.06712Z" fill="#1F2D5A"/>
    <path d="M21.2406 7.56391C21.0016 7.56391 20.7826 7.38467 20.7527 7.13574C20.5137 5.56245 19.518 4.19828 18.0841 3.50126C17.8352 3.38177 17.7356 3.08304 17.8551 2.83411C17.9746 2.58517 18.2733 2.48559 18.5222 2.60508C20.2449 3.45147 21.4497 5.0845 21.7385 6.98637C21.7783 7.25523 21.5891 7.51412 21.3203 7.55395C21.2904 7.55395 21.2705 7.56391 21.2406 7.56391Z" fill="#1F2D5A"/>
</svg>
