<svg width="30" height="35" viewBox="0 0 30 35" fill="none" xmlns="http://www.w3.org/2000/svg">
    <path d="M24.7674 29.0721H5.23256C2.34419 29.0721 0 26.7279 0 23.8395V12.0628C0 10.3605 0.837209 8.75581 2.23256 7.77907L12 0.94186C13.8 -0.313954 16.214 -0.313954 18 0.94186L27.7674 7.77907C29.1628 8.75581 30 10.3605 30 12.0628V23.8395C30 26.7279 27.6558 29.0721 24.7674 29.0721ZM15 2.08605C14.3721 2.08605 13.7442 2.2814 13.2 2.65814L3.43256 9.49535C2.59535 10.0814 2.09302 11.0442 2.09302 12.0628V23.8395C2.09302 25.5698 3.50233 26.9791 5.23256 26.9791H24.7674C26.4977 26.9791 27.907 25.5698 27.907 23.8395V12.0628C27.907 11.0442 27.4047 10.0814 26.5674 9.49535L16.8 2.65814C16.2558 2.2814 15.6279 2.1 15 2.1V2.08605Z" fill="#2E74D8"/>
    <path d="M20.5843 29.073H9.42151C8.84942 29.073 8.375 28.5986 8.375 28.0265V21.0498C8.375 17.394 11.3471 14.4219 15.0029 14.4219C18.6587 14.4219 21.6308 17.394 21.6308 21.0498V28.0265C21.6308 28.5986 21.1564 29.073 20.5843 29.073ZM10.468 26.98H19.5378V21.0498C19.5378 18.5521 17.5006 16.5149 15.0029 16.5149C12.5052 16.5149 10.468 18.5521 10.468 21.0498V26.98Z" fill="#2E74D8"/>
    <line x1="5" y1="34.5" x2="25" y2="34.5" stroke="#2E74D8"/>
</svg>
