<svg width="21" height="20" viewBox="0 0 21 20" fill="none" xmlns="http://www.w3.org/2000/svg">
    <path d="M17.8734 20H10.4869C4.70412 20 0 15.5139 0 10C0 4.48614 4.70412 0 10.4869 0C16.2697 0 20.9738 4.48614 20.9738 10C20.9716 12.3852 20.0869 14.6852 18.4899 16.4569L19.0891 17.0562C19.33 17.2972 19.494 17.6042 19.5604 17.9384C19.6269 18.2726 19.5927 18.619 19.4622 18.9337C19.3318 19.2485 19.1109 19.5175 18.8276 19.7068C18.5442 19.8961 18.2111 19.9971 17.8704 19.997L17.8734 20ZM10.4869 1.49813C5.53034 1.49813 1.49813 5.31236 1.49813 10C1.49813 14.6876 5.53034 18.5019 10.4869 18.5019H17.8734C17.9179 18.502 17.9614 18.4889 17.9984 18.4643C18.0355 18.4396 18.0644 18.4045 18.0814 18.3635C18.0985 18.3224 18.103 18.2772 18.0944 18.2336C18.0858 18.1899 18.0644 18.1498 18.033 18.1184L16.9094 16.9948C16.8391 16.9245 16.7836 16.841 16.7459 16.7491C16.7082 16.6572 16.6892 16.5587 16.69 16.4593C16.6908 16.36 16.7113 16.2618 16.7504 16.1705C16.7894 16.0791 16.8463 15.9965 16.9176 15.9273C17.7218 15.163 18.363 14.2438 18.8026 13.2252C19.2422 12.2065 19.4712 11.1095 19.4757 10C19.4757 5.31236 15.4434 1.49813 10.4869 1.49813Z" fill="#2E74D8"/>
    <path d="M11.6105 14.4943H9.36332C9.16466 14.4943 8.97413 14.4154 8.83365 14.2749C8.69318 14.1345 8.61426 13.9439 8.61426 13.7453C8.61426 13.5466 8.69318 13.3561 8.83365 13.2156C8.97413 13.0751 9.16466 12.9962 9.36332 12.9962H11.6105C11.8092 12.9962 11.9997 13.0751 12.1402 13.2156C12.2807 13.3561 12.3596 13.5466 12.3596 13.7453C12.3596 13.9439 12.2807 14.1345 12.1402 14.2749C11.9997 14.4154 11.8092 14.4943 11.6105 14.4943Z" fill="#2E74D8"/>
    <path d="M10.4871 14.4944C10.2884 14.4944 10.0979 14.4155 9.95742 14.275C9.81694 14.1345 9.73802 13.944 9.73802 13.7453V9.15056C9.59523 9.06811 9.48363 8.94085 9.42054 8.78851C9.35744 8.63617 9.34637 8.46727 9.38905 8.308C9.43173 8.14873 9.52576 8.00799 9.65658 7.90761C9.78739 7.80723 9.94767 7.75281 10.1126 7.75281H10.4871C10.6858 7.75281 10.8763 7.83173 11.0168 7.9722C11.1572 8.11268 11.2362 8.30321 11.2362 8.50187V13.7453C11.2362 13.944 11.1572 14.1345 11.0168 14.275C10.8763 14.4155 10.6858 14.4944 10.4871 14.4944Z" fill="#2E74D8"/>
    <path d="M10.4869 6.62927C11.1074 6.62927 11.6105 6.12622 11.6105 5.50568C11.6105 4.88513 11.1074 4.38208 10.4869 4.38208C9.86633 4.38208 9.36328 4.88513 9.36328 5.50568C9.36328 6.12622 9.86633 6.62927 10.4869 6.62927Z" fill="#2E74D8"/>
</svg>
