<svg width="15" height="15" viewBox="0 0 15 15" fill="none" xmlns="http://www.w3.org/2000/svg">
    <path d="M14.9798 14.6951L12.8181 9.46191C12.7841 9.37964 12.7044 9.32605 12.6159 9.32605H2.38081C2.29235 9.32605 2.21257 9.37967 2.17861 9.46191L0.0168322 14.6951C-0.011325 14.7632 -0.0038242 14.841 0.036844 14.9023C0.077483 14.9637 0.14584 15.0006 0.21906 15.0006H14.7776C14.8508 15.0006 14.9192 14.9637 14.9599 14.9023C15.0005 14.841 15.008 14.7632 14.9798 14.6951Z" fill="#A8EEFC"/>
    <path d="M14.0838 15.0006H14.7811C14.8543 15.0006 14.9227 14.9637 14.9633 14.9023C15.004 14.841 15.0115 14.7632 14.9834 14.6951L12.8216 9.46191C12.7876 9.37964 12.7079 9.32605 12.6194 9.32605H11.7397L14.0838 15.0006Z" fill="#7EE5F2"/>
    <path d="M3.60856 11.3046L4.3545 9.32605H2.36917C2.28071 9.32605 2.20093 9.37967 2.16697 9.46191L1.40576 11.3046H3.60856Z" fill="#4CE166"/>
    <path d="M12.5996 9.32605H5.70605L7.7167 11.0793H13.47L12.8018 9.46194C12.7678 9.3797 12.6881 9.32605 12.5996 9.32605Z" fill="#4CE166"/>
    <path d="M13.5322 11.2065L13.5737 11.3068L13.5322 11.2065Z" fill="#4CE166"/>
    <path d="M14.1369 12.6828L13.4721 11.0735H7.7188L5.70819 9.32019H4.3594H4.18776L3.45995 11.073H1.49653L1.05551 12.1406L0.831543 12.6828H2.79704L1.84207 14.9947H3.62874L5.16259 11.2392L9.58588 14.9947H12.1973L9.55377 12.6828H14.1369Z" fill="#FFDB56"/>
    <path d="M7.48429 0C4.87567 0 2.75342 2.13822 2.75342 4.76645C2.75342 5.67251 2.99813 6.63381 3.48085 7.62362C3.8628 8.40693 4.39427 9.21054 5.0604 10.0121C6.19056 11.3721 7.3034 12.2452 7.35025 12.2817C7.38974 12.3125 7.437 12.3279 7.48429 12.3279C7.53158 12.3279 7.57887 12.3125 7.61834 12.2817C7.66516 12.2452 8.778 11.3721 9.90819 10.0121C10.5743 9.21054 11.1058 8.40693 11.4877 7.62362C11.9705 6.63379 12.2152 5.67251 12.2152 4.76645C12.2152 2.13822 10.0929 0 7.48429 0ZM7.48429 2.95337C8.47815 2.95337 9.28383 3.76512 9.28383 4.76645C9.28383 5.76777 8.47815 6.57952 7.48429 6.57952C6.49044 6.57952 5.68475 5.76777 5.68475 4.76645C5.68475 3.76512 6.49044 2.95337 7.48429 2.95337Z" fill="#FF4A4A"/>
    <path d="M7.47951 0C7.32384 0 7.16993 0.00785237 7.01807 0.0227074C9.41093 0.257165 11.2875 2.29506 11.2875 4.76645C11.2875 5.67251 11.0428 6.63381 10.5601 7.62362C10.1781 8.40693 9.64665 9.21054 8.98051 10.0121C8.20542 10.9449 7.43858 11.6484 7.01807 12.0103C7.21071 12.1761 7.33075 12.2703 7.34543 12.2817C7.38493 12.3125 7.43219 12.3278 7.47948 12.3278C7.52677 12.3278 7.57406 12.3125 7.61353 12.2817C7.66035 12.2452 8.77319 11.3721 9.90337 10.0121C10.5695 9.21051 11.101 8.4069 11.4829 7.62359C11.9656 6.63376 12.2104 5.67249 12.2104 4.76642C12.2104 2.13822 10.0881 0 7.47951 0Z" fill="#E7343F"/>
    <path d="M3.63184 14.9972H9.58897L5.16568 11.2416L3.63184 14.9972Z" fill="#4CE166"/>
    <path d="M12.4424 11.0776L13.1072 12.6869H14.1329L13.4681 11.0776H12.4424Z" fill="#FFBB24"/>
    <path d="M12.4523 11.0734H13.478L12.8099 9.45605C12.7759 9.37378 12.6962 9.32019 12.6077 9.32019H11.728L12.4523 11.0734Z" fill="#44C868"/>
</svg>
