<svg width="20" height="24" viewBox="0 0 20 24" fill="none" xmlns="http://www.w3.org/2000/svg">
    <path fill-rule="evenodd" clip-rule="evenodd" d="M15.4533 9.80539C14.9583 9.80539 14.5565 9.40361 14.5565 8.90854V6.34113C14.5565 3.8347 12.5176 1.79583 10.0112 1.79583H9.99204C8.78068 1.79583 7.64585 2.2622 6.78843 3.11243C5.92505 3.96624 5.44792 5.10585 5.44314 6.3208V8.90854C5.44314 9.40361 5.04134 9.80539 4.54628 9.80539C4.05121 9.80539 3.64941 9.40361 3.64941 8.90854V6.34113C3.65659 4.61915 4.32266 3.02992 5.52445 1.83888C6.72744 0.646657 8.31551 -0.0433282 10.0148 0.00211273C13.5065 0.00211273 16.3502 2.84576 16.3502 6.34113V8.90854C16.3502 9.40361 15.9484 9.80539 15.4533 9.80539Z" fill="#1F2D5A"/>
    <path fill-rule="evenodd" clip-rule="evenodd" d="M9.99989 18.1469C9.50482 18.1469 9.10303 17.7451 9.10303 17.25V14.5941C9.10303 14.0991 9.50482 13.6973 9.99989 13.6973C10.495 13.6973 10.8967 14.0991 10.8967 14.5941V17.25C10.8967 17.7451 10.495 18.1469 9.99989 18.1469Z" fill="#1F2D5A"/>
    <path fill-rule="evenodd" clip-rule="evenodd" d="M5.43139 9.72026C3.42481 9.72026 1.79372 11.3514 1.79372 13.3579V18.4868C1.79372 20.4934 3.42481 22.1244 5.43139 22.1244H14.5686C16.574 22.1244 18.2063 20.4934 18.2063 18.4868V13.3579C18.2063 11.3514 16.574 9.72026 14.5686 9.72026H5.43139ZM14.5686 23.9182H5.43139C2.43587 23.9182 0 21.4823 0 18.4868V13.3579C0 10.3624 2.43587 7.92651 5.43139 7.92651H14.5686C17.5641 7.92651 20 10.3624 20 13.3579V18.4868C20 21.4823 17.5641 23.9182 14.5686 23.9182Z" fill="#1F2D5A"/>
</svg>
