<svg width="76" height="87" viewBox="0 0 76 87" fill="none" xmlns="http://www.w3.org/2000/svg">
    <path d="M75.7089 20.6481V62.4614C75.7089 75.768 64.9258 86.5505 51.6198 86.5505C44.9665 86.5505 38.9402 83.8587 34.5811 79.4996C30.2225 75.1405 27.5307 69.1141 27.5307 62.4614V55.5789H48.1789V65.903C48.1789 67.8071 49.7157 69.3445 51.6204 69.3445C52.569 69.3445 53.4327 68.9621 54.0526 68.3352C54.6795 67.7158 55.062 66.8515 55.062 65.9035V0C60.7667 0 65.9211 2.30938 69.6609 6.04918C73.399 9.78898 75.7089 14.9428 75.7089 20.6481Z" fill="#2E74D8"/>
    <path d="M51.6204 6.02345L51.6122 36.0705L48.1759 48.1759H27.5324L20.6493 36.1348V65.9012C20.6493 77.3048 11.4036 86.5505 0 86.5505V0C6.38603 0 12.5264 1.71346 17.854 4.81291C23.3803 8.02814 28.0751 12.5837 31.6921 17.8347C33.9945 21.1762 35.9313 24.8113 37.3425 28.6196C37.5255 29.1137 37.7068 29.6114 37.8542 30.1172L51.6204 6.02345Z" fill="#1F2D5A"/>
</svg>
