<svg width="20" height="20" viewBox="0 0 20 20" fill="none" xmlns="http://www.w3.org/2000/svg">
    <path fill-rule="evenodd" clip-rule="evenodd" d="M9.94419 1.45199e-07H10.0558C12.1931 -9.6109e-06 13.8718 -1.94515e-05 15.1824 0.176185C16.5255 0.356761 17.5911 0.734351 18.4284 1.57162C19.2657 2.40889 19.6432 3.47451 19.8238 4.81758C20 6.12823 20 7.80693 20 9.9442V10.0558C20 12.1931 20 13.8718 19.8238 15.1824C19.6432 16.5255 19.2657 17.5911 18.4284 18.4284C17.5911 19.2657 16.5255 19.6432 15.1824 19.8238C13.8718 20 12.1931 20 10.0558 20H9.94419C7.80695 20 6.12823 20 4.81758 19.8238C3.47451 19.6432 2.40889 19.2657 1.57162 18.4284C0.734361 17.5911 0.356761 16.5255 0.176186 15.1824C-1.93352e-05 13.8718 -9.61092e-06 12.1931 1.4518e-07 10.0558V9.9442C-9.61092e-06 7.80693 -1.93352e-05 6.12823 0.176186 4.81758C0.356761 3.47451 0.734361 2.40889 1.57162 1.57162C2.40889 0.734351 3.47451 0.356761 4.81758 0.176185C6.12823 -1.94515e-05 7.80695 -9.6109e-06 9.94419 1.45199e-07ZM5.01259 1.62656C3.83178 1.78531 3.12646 2.08637 2.60641 2.60641C2.08637 3.12646 1.78531 3.83178 1.62656 5.01258C1.46497 6.21443 1.46341 7.79473 1.46341 10C1.46341 12.2053 1.46497 13.7856 1.62656 14.9874C1.78531 16.1682 2.08637 16.8736 2.60641 17.3936C3.12646 17.9137 3.83178 18.2147 5.01259 18.3735C6.21443 18.535 7.79476 18.5366 10 18.5366C12.2053 18.5366 13.7856 18.535 14.9874 18.3735C16.1682 18.2147 16.8736 17.9137 17.3936 17.3936C17.9137 16.8736 18.2147 16.1682 18.3735 14.9874C18.535 13.7856 18.5366 12.2053 18.5366 10C18.5366 7.79473 18.535 6.21443 18.3735 5.01258C18.2147 3.83178 17.9137 3.12646 17.3936 2.60641C16.8736 2.08637 16.1682 1.78531 14.9874 1.62656C13.7856 1.46497 12.2053 1.46341 10 1.46341C7.79476 1.46341 6.21443 1.46497 5.01259 1.62656Z" fill="#1F2D5A"/>
    <path fill-rule="evenodd" clip-rule="evenodd" d="M9.99159 5.85367C9.04584 5.85367 8.28086 6.61905 8.28086 7.56099C8.28086 8.50294 9.04584 9.26831 9.99159 9.26831C10.9374 9.26831 11.7024 8.50294 11.7024 7.56099C11.7024 6.61905 10.9374 5.85367 9.99159 5.85367ZM6.81742 7.56099C6.81742 5.80886 8.23949 4.39026 9.99159 4.39026C11.7437 4.39026 13.1658 5.80886 13.1658 7.56099C13.1658 9.31309 11.7437 10.7317 9.99159 10.7317C8.23949 10.7317 6.81742 9.31309 6.81742 7.56099ZM13.8521 15.374C11.8559 13.208 8.1393 13.2882 6.13887 15.3833C5.85981 15.6756 5.39664 15.6864 5.10435 15.4073C4.81207 15.1282 4.80135 14.6651 5.08041 14.3728C7.62968 11.7027 12.3258 11.5586 14.9282 14.3822C15.202 14.6793 15.1832 15.1423 14.886 15.4161C14.5889 15.69 14.1259 15.6711 13.8521 15.374Z" fill="#1F2D5A"/>
</svg>
