<svg width="182" height="96" viewBox="0 0 182 96" fill="none" xmlns="http://www.w3.org/2000/svg">
    <path fill-rule="evenodd" clip-rule="evenodd" d="M44.5799 94.0921C17.5794 94.0921 15.7017 78.9053 12.5073 66.1793C7.55399 46.4751 6.71223 14.458 27.2163 4.35791C52.2419 -7.97329 79.3504 14.6875 108.088 17.4053C153.316 21.684 163.395 20.4996 170.993 40.5252C177.597 57.934 160.946 94.0921 136.416 94.0921C105.811 94.0921 75.1956 94.0921 44.5799 94.0921Z" fill="#EBFAFF"/>
    <path d="M0.539532 95.0104C0.248113 95.0104 0 94.7991 0 94.5513C0 94.2942 0.248189 94.0921 0.539532 94.0921H181.46C181.763 94.0921 182 94.2941 182 94.5513C182 94.7992 181.763 95.0104 181.46 95.0104H0.539532Z" fill="#B8E6F5"/>
    <path fill-rule="evenodd" clip-rule="evenodd" d="M147.089 6.49737C148.74 4.8079 150.694 3.37557 152.863 2.24617C152.884 2.22778 152.906 2.21865 152.938 2.20945C153.079 2.17274 153.23 2.24617 153.273 2.36558C153.996 4.44067 154.341 6.61678 154.233 8.8296C154.136 10.9506 153.64 13.1083 152.701 15.2018C151.751 17.3044 150.435 19.1867 148.838 20.8211C147.187 22.5198 145.233 23.9521 143.064 25.0814C143.043 25.0906 143.021 25.0998 142.989 25.1089C142.848 25.1457 142.697 25.0814 142.654 24.9529C141.931 22.8869 141.597 20.7201 141.694 18.5164V18.498C141.78 16.3678 142.287 14.2193 143.226 12.1167C144.176 10.0232 145.492 8.1318 147.089 6.49737Z" fill="#B8E6F5"/>
    <path fill-rule="evenodd" clip-rule="evenodd" d="M147.618 5.97403C147.748 5.84549 147.877 5.72608 148.017 5.60674L149.787 8.97648L152.798 2.2737L152.863 2.24618C152.884 2.22779 152.906 2.21866 152.938 2.20947C153.079 2.17275 153.23 2.24618 153.273 2.36559L153.305 2.43902L152.032 5.25783L153.888 4.55996C153.92 4.70689 153.953 4.86295 153.974 5.01908L151.762 5.86382L150.284 9.14174L154.244 7.63591C154.255 7.80117 154.255 7.96643 154.255 8.13175L150.014 9.74779L147.284 15.8078L153.359 13.5032C153.295 13.696 153.23 13.8888 153.154 14.0816L147.014 16.4138L145.395 20.0222L151.287 17.7819C151.136 18.0114 150.985 18.2318 150.823 18.4614L145.114 20.6282L143.129 25.0447L143.064 25.0814C143.043 25.0906 143.021 25.0998 142.989 25.109C142.848 25.1457 142.697 25.0814 142.654 24.9529L142.632 24.8794L144.618 20.4629L142.071 15.6058C142.125 15.3487 142.19 15.0916 142.255 14.8345L144.888 19.857L148.158 12.585L145.762 8.00321C145.881 7.85634 145.999 7.70941 146.118 7.56248L148.438 11.9789L149.517 9.58247L147.618 5.97403Z" fill="#D6F1FA"/>
    <path fill-rule="evenodd" clip-rule="evenodd" d="M146 26.6056C149.669 21.2434 156.37 18.3144 163.191 18.4796C163.385 18.5806 163.45 18.7918 163.331 18.9571L159.867 24.0164L155.01 24.099C154.87 24.099 154.741 24.1816 154.708 24.3101C154.687 24.4387 154.773 24.5581 154.913 24.5948L158.604 25.8527L155.604 30.2416L151.536 29.0664C151.406 29.0205 151.244 29.0664 151.169 29.1674C151.093 29.2776 151.125 29.4153 151.244 29.498L154.438 31.9312L151.438 36.3109L148.33 34.1899C148.223 34.1073 148.061 34.1073 147.942 34.1899C147.823 34.2725 147.802 34.4103 147.877 34.5113L150.176 38.1565L146.712 43.2065C146.593 43.3718 146.345 43.4269 146.15 43.3351C142.633 38.3675 142.32 31.9678 146 26.6056Z" fill="#8FD6FF"/>
    <path fill-rule="evenodd" clip-rule="evenodd" d="M66.659 15.6883C62.5043 10.8862 55.7596 8.68255 49.2738 9.43552C49.1011 9.54574 49.0688 9.74771 49.1983 9.89457L53.1048 14.4212L57.756 14.0815C57.8854 14.0723 58.0258 14.1366 58.0689 14.2559C58.1013 14.3753 58.0366 14.4947 57.907 14.5497L54.5293 16.0647L57.9286 19.9946L61.6624 18.5163C61.7919 18.4612 61.9431 18.4887 62.0294 18.5898C62.1157 18.6816 62.0941 18.8192 61.997 18.9019L59.2344 21.5004L62.6337 25.4302L65.3424 23.1348C65.4395 23.0429 65.5906 23.0245 65.7093 23.098C65.8281 23.1623 65.8712 23.2909 65.8173 23.401L64.0583 27.0738L67.9756 31.5912C68.1051 31.7381 68.3425 31.7749 68.5152 31.6647C71.2886 26.6238 70.8138 20.4812 66.659 15.6883Z" fill="#B8E6F5"/>
    <path fill-rule="evenodd" clip-rule="evenodd" d="M79.5984 33.2623C73.8896 33.9326 76.4688 27.3675 66.3031 27.2298C56.0619 27.1013 62.4289 20.3894 48.5078 20.2699C42.5293 20.224 37.3601 16.4687 35.7521 17.8551C33.9931 19.3701 38.6874 22.3726 43.004 24.3926C48.8747 27.1472 41.5795 32.3165 50.9251 35.7873C61.0692 39.5519 59.4073 44.1704 63.3678 46.8147L69.519 48.3941L79.5984 33.2623Z" fill="#D6F1FA"/>
    <path d="M76.2963 40.8832C76.2453 40.8832 76.1937 40.8709 76.1478 40.8453C63.9209 33.977 51.694 27.0998 39.4779 20.2226C39.3537 20.1527 39.3195 20.0103 39.4018 19.9047C39.484 19.799 39.6512 19.7697 39.7757 19.8398C51.9915 26.717 64.2184 33.5942 76.4453 40.4619C76.5696 40.5318 76.6039 40.6742 76.5217 40.7802C76.4698 40.8469 76.3839 40.8832 76.2963 40.8832Z" fill="#EBFAFF"/>
    <path d="M50.1055 30.9581C50.0046 30.9581 49.9077 30.9097 49.8616 30.8268C49.7976 30.7122 49.8551 30.5753 49.9897 30.5209L54.7549 28.5948L53.203 24.2109C53.1601 24.0897 53.2409 23.9616 53.3835 23.9249C53.5258 23.8888 53.6768 23.9572 53.7197 24.0787L55.3385 28.6514C55.3769 28.7599 55.3162 28.8764 55.1957 28.925L50.2209 30.9359C50.1835 30.9507 50.1441 30.9581 50.1055 30.9581Z" fill="#EBFAFF"/>
    <path d="M60.7927 35.6991C60.6836 35.6991 60.5777 35.6456 60.5362 35.5561C60.4817 35.4381 60.5407 35.3077 60.6794 35.2615C61.9479 34.8367 63.1997 34.4179 64.4411 33.9909L64.253 29.1382C64.2481 29.0113 64.3648 28.9054 64.5138 28.9013C64.6643 28.8915 64.7876 28.9965 64.7924 29.123L64.9866 34.1361C64.9904 34.2323 64.9231 34.3202 64.8182 34.3566C63.5179 34.8048 62.2067 35.2435 60.8954 35.6827C60.862 35.6937 60.8273 35.6991 60.7927 35.6991Z" fill="#EBFAFF"/>
    <path d="M49.6623 94.0921H57.1516C57.2811 94.0921 57.389 94.0004 57.389 93.881V93.4494H49.4248V93.881C49.4248 94.0004 49.5327 94.0921 49.6623 94.0921Z" fill="#0D2B40"/>
    <path d="M34.7603 85.8193V94.0922H35.6019L36.2495 89.1616V85.8193H34.7603Z" fill="#48A3D8"/>
    <path d="M57.9287 85.8193V94.0922H57.087L56.4287 89.1616V85.8193H57.9287Z" fill="#48A3D8"/>
    <path d="M19.7163 85.8193V94.0922H20.5473L21.2055 89.1616V85.8193H19.7163Z" fill="#2F87CE"/>
    <path d="M42.6377 85.8193V94.0922H41.8067L41.1484 89.1616V85.8193H42.6377Z" fill="#2F87CE"/>
    <path d="M58.1024 86.5262H19.7167C19.5441 86.5262 19.4146 86.4161 19.4146 86.2692V85.1031H58.4046V86.2692C58.4046 86.4161 58.2642 86.5262 58.1024 86.5262Z" fill="#2F87CE"/>
    <path d="M22.7593 60.5508H38.6877V85.4336H24.4213L22.7593 60.5508Z" fill="#FFA833"/>
    <path d="M36.9937 79.5848H59.1919V85.2317C59.1919 85.3419 59.0948 85.4337 58.9546 85.4337H36.9937V79.5848Z" fill="#FFA833"/>
    <path d="M26.644 80.7326H41.9897C42.2595 80.7326 42.4753 80.9163 42.4753 81.1458V85.0205C42.4753 85.25 42.2595 85.4337 41.9897 85.4337H26.644V80.7326Z" fill="#F5CD56"/>
    <path d="M19.3604 60.5508H23.1267C23.5043 60.5508 23.8281 60.7988 23.8713 61.1201L25.339 73.084C25.4253 73.8002 25.4684 74.5348 25.4684 75.2601V84.9837C25.4684 85.2316 25.2418 85.4336 24.9504 85.4336H19.1337C18.8531 85.4336 18.6157 85.2316 18.6157 84.9837V61.1843C18.6157 60.8355 18.9503 60.5508 19.3604 60.5508Z" fill="#F5CD56"/>
    <path d="M26.0405 74.1677H59.4189C59.7103 74.1677 59.9585 74.3696 59.9585 74.6268V79.5575C59.9585 79.8053 59.7103 80.0165 59.4189 80.0165H26.0405V74.1677Z" fill="#FFA833"/>
    <path d="M48.4974 73.4238C45.8643 78.2994 48.4435 83.1566 50.6018 84.0196C52.7493 84.8827 54.94 72.7076 54.94 72.7076L48.4974 73.4238Z" fill="#F59518"/>
    <path d="M26.817 74.1677H42.4648C42.7562 74.1677 43.0044 74.3696 43.0044 74.6268V79.5575C43.0044 79.8053 42.7562 80.0165 42.4648 80.0165H26.817C26.5256 80.0165 26.2773 79.8053 26.2773 79.5575V74.6268C26.2774 74.3696 26.5256 74.1677 26.817 74.1677Z" fill="#F5CD56"/>
    <path d="M33.6262 45.5846C41.9249 44.4644 44.5473 52.7923 49.0258 54.6195C50.72 54.4359 56.4828 55.9509 57.7994 54.7756C58.339 54.2981 58.9002 57.0344 58.6951 57.4659C57.7885 59.4217 51.0223 59.8807 47.4179 59.1462C41.6875 57.9801 31.1981 45.9059 33.6262 45.5846Z" fill="#FE6B61"/>
    <path d="M39.8534 52.223L39.562 54.1237C41.3642 55.7855 43.3174 57.3098 45.0872 58.2463C44.7851 55.3999 41.7526 52.526 39.8534 52.223Z" fill="#EF5553"/>
    <path d="M36.7667 67.869C33.2486 69.0075 30.3781 67.52 30.1299 66.5835C28.7486 61.359 25.878 46.3283 33.594 45.0429C38.0292 44.2992 39.648 48.5687 40.9862 53.6095C41.5906 55.8774 42.1301 58.3106 42.8423 60.5143C43.7164 63.177 44.8495 65.5 46.641 66.7855C48.0762 67.8138 42.7992 65.9223 36.7667 67.869Z" fill="#FE6B61"/>
    <path d="M39.0548 66.308C33.7238 61.1937 34.1986 55.3357 30.1302 53.4534L28.4575 55.299C28.5223 59.6053 29.4935 64.1594 30.1302 66.5835C30.2489 67.0241 30.9396 67.5935 32.008 67.9424C35.4829 67.5383 40.1124 67.318 39.0548 66.308Z" fill="#EF5553"/>
    <path d="M49.7385 91.2551C48.0766 86.1224 49.3823 76.3162 51.0011 74.1676C51.0011 74.1676 39.2491 74.1676 36.7778 74.1676C34.8138 74.1676 38.526 68.3923 40.4362 66.9048C47.2781 66.9048 56.7639 68.1903 57.9833 72.0007C58.6955 74.2319 53.3321 87.1324 52.5443 90.8327C52.4363 91.3744 49.9219 91.7875 49.7385 91.2551Z" fill="#2F87CE"/>
    <path d="M60.6702 55.0417C61.3825 53.9307 60.8752 53.7196 60.5947 53.9307C60.4004 54.0593 59.958 54.3255 59.7961 54.4541C59.5371 54.6469 59.4292 55.0509 59.1055 55.3539C60.0011 55.6937 60.6702 55.0417 60.6702 55.0417Z" fill="#EF8A52"/>
    <path d="M40.3713 62.3689C41.6556 63.03 41.3425 63.4156 40.9756 63.3697C40.7382 63.333 40.1879 63.2962 39.972 63.2595C39.6375 63.2044 39.3029 62.9014 38.8389 62.782C39.4108 62.1027 40.3713 62.3689 40.3713 62.3689Z" fill="#EF8A52"/>
    <path d="M44.1055 62.6995C44.1055 62.6995 42.5947 62.6352 42.0983 62.6445C41.2781 62.6445 38.8392 62.7822 38.8392 62.7822C38.2672 62.7822 37.4795 62.8465 36.5837 62.9383C36.5082 62.2129 36.4111 61.3682 36.3247 60.5511C37.3067 60.5694 38.1808 60.597 38.7959 60.6429C39.6484 60.6796 40.9111 60.8449 41.1809 60.9C42.0226 61.0745 42.6701 61.2856 43.0586 61.4509C43.501 61.6345 44.0946 62.1854 44.3321 62.3691C44.4293 62.4608 44.3753 62.6995 44.1055 62.6995Z" fill="#F09D69"/>
    <path d="M30.6807 67.2352C30.6807 69.4755 32.0944 74.1675 36.7779 74.1675C45.7673 74.1675 50.5156 68.9981 55.0589 68.9981C56.3539 68.9981 55.5985 63.2227 52.7171 63.2227C46.6846 63.2227 37.5333 67.2352 30.6807 67.2352Z" fill="#48A3D8"/>
    <path d="M43.4795 68.0709C46.6846 66.2896 47.4723 64.5175 48.2494 64.2237C45.3249 64.8021 42.0227 65.2704 38.8391 66.0233C35.5153 67.9332 39.929 70.0358 43.4795 68.0709Z" fill="#2F87CE"/>
    <path d="M47.3212 62.828L47.3536 62.5801L37.4037 64.9582L37.2095 65.2428L47.3212 62.828Z" fill="#2371B0"/>
    <path d="M59.7313 61.671L37.4898 66.9873C37.3279 67.024 37.1553 66.9414 37.1122 66.8036L36.7236 65.6284C36.6805 65.4907 36.7776 65.3529 36.9395 65.3071L59.1809 59.9908C59.3428 59.9541 59.5154 60.0367 59.5586 60.1744L59.9471 61.3497C59.9903 61.4873 59.904 61.6343 59.7313 61.671Z" fill="#195392"/>
    <path d="M59.7312 61.6711L47.3101 64.6368C47.1482 64.6735 46.9756 64.5909 46.9324 64.4531L46.5439 63.2871C46.5008 63.1494 46.5979 63.0024 46.7598 62.9657L59.1809 59.9908C59.3428 59.9541 59.5154 60.0367 59.5586 60.1744L59.9471 61.3497C59.9902 61.4874 59.9039 61.6343 59.7312 61.6711Z" fill="#0D2B40"/>
    <path d="M60.7674 51.6261C60.7027 51.5802 60.6271 51.5618 60.5516 51.5802L48.1305 54.5551C48.0334 54.5735 47.9687 54.6378 47.9579 54.7113L46.5334 62.929C46.5226 63.0024 46.5442 63.0667 46.6089 63.1126C46.6629 63.1586 46.7493 63.1677 46.8248 63.1494L59.2459 60.1836C59.3322 60.1652 59.3969 60.101 59.4185 60.0276L60.843 51.8006C60.8537 51.7363 60.8213 51.672 60.7674 51.6261Z" fill="#0D2B40"/>
    <path d="M43.8678 64.2237L42.5405 64.5359C42.4973 64.5543 42.4649 64.591 42.4757 64.6369L42.6376 65.1052C42.6484 65.1511 42.7024 65.1694 42.7455 65.1602L44.0621 64.8481C44.116 64.8297 44.1484 64.793 44.1268 64.747L43.9757 64.2788C43.9649 64.2329 43.9111 64.2146 43.8678 64.2237Z" fill="#0D2B40"/>
    <path d="M45.778 63.7646L44.4507 64.086C44.4075 64.0952 44.3751 64.1411 44.3859 64.1777L44.5478 64.6461C44.5585 64.692 44.6125 64.7103 44.6557 64.7012L45.9722 64.389C46.0262 64.3798 46.0586 64.3339 46.037 64.288L45.8859 63.8197C45.8751 63.783 45.8211 63.7554 45.778 63.7646Z" fill="#0D2B40"/>
    <path d="M41.8385 65.0408C41.8709 65.1327 41.8061 65.2337 41.6982 65.2612C41.5903 65.2796 41.4716 65.2245 41.4392 65.1327C41.4176 65.0408 41.4823 64.949 41.5903 64.9215C41.6982 64.8939 41.8061 64.949 41.8385 65.0408Z" fill="#0D2B40"/>
    <path d="M41.1263 65.2152C41.1586 65.3071 41.094 65.3989 40.986 65.4265C40.8781 65.454 40.7702 65.3989 40.7378 65.3071C40.7055 65.2153 40.7703 65.1143 40.8782 65.0868C40.986 65.0684 41.1047 65.1142 41.1263 65.2152Z" fill="#0D2B40"/>
    <path d="M55.1019 56.9884C55.0372 57.4842 54.6919 57.9617 54.3357 58.0443C53.9688 58.1269 53.7422 57.7964 53.8069 57.3006C53.8717 56.8139 54.217 56.3365 54.5731 56.2539C54.94 56.1621 55.1774 56.4926 55.1019 56.9884Z" fill="#2371B0"/>
    <path d="M35.1158 44.8683C31.274 45.2907 28.5653 47.0261 26.7955 49.7163C24.0113 53.9583 24.2163 61.4967 25.2955 62.9933C26.4069 64.5174 35.2777 64.141 36.8317 64.0033C37.8676 63.9115 37.8137 60.3305 36.7777 60.4591C35.3856 60.6243 30.7452 60.2112 29.461 59.8347C29.7092 57.7321 31.1984 54.4174 32.5474 53.6094C33.7129 52.8933 35.1158 44.8683 35.1158 44.8683Z" fill="#FE6B61"/>
    <path d="M38.2782 45.9335C38.8286 46.6129 40.1667 51.5069 37.6306 54.4818C35.4724 53.4626 31.0693 47.7515 31.0693 45.9886C31.0693 45.7591 33.0442 45.0796 34.9866 45.0612C36.4867 45.0336 38.0839 45.7131 38.2782 45.9335Z" fill="#D64745"/>
    <path d="M37.3602 52.9299C39.1084 51.3598 38.4717 45.6395 37.5868 45.0978C37.1875 44.8591 36.5832 44.2715 34.889 44.3082C33.4213 44.3358 31.9536 44.8132 31.9536 45.4835C31.9535 46.4659 35.4501 51.773 37.3602 52.9299Z" fill="#F5CD56"/>
    <path d="M36.5399 48.2288C36.4212 48.2472 36.3565 48.4309 36.3996 48.642C36.4428 48.844 36.5831 49.0001 36.7018 48.9817C36.8205 48.9634 36.8852 48.7798 36.8421 48.5777C36.7989 48.3666 36.6695 48.2104 36.5399 48.2288Z" fill="#FEFEFE"/>
    <path d="M36.9826 50.4876C36.8639 50.506 36.7991 50.6895 36.8316 50.9008C36.8747 51.1027 37.0043 51.2589 37.1229 51.2497C37.2416 51.2313 37.3171 51.0477 37.274 50.8365C37.2416 50.6345 37.1121 50.4784 36.9826 50.4876Z" fill="#FEFEFE"/>
    <path d="M40.9751 36.9902C40.8564 37.8349 40.6298 38.6246 39.842 38.7347C39.065 38.8449 39.1838 36.4485 39.1838 36.4485L40.9751 36.9902Z" fill="#0D2B40"/>
    <path d="M32.4932 45.1622V40.6906L37.3818 41.2232V45.4744C37.3818 45.6763 37.3818 46.9159 36.3458 47.3842C34.6731 47.1087 32.4932 45.9794 32.4932 45.1622Z" fill="#F09D69"/>
    <path d="M37.3819 45.4743V43.3074L34.2415 42.2331C33.4538 43.9777 34.8351 45.9793 37.3819 45.4743Z" fill="#EF8A52"/>
    <path d="M38.418 36.375L35.5366 35.5211L34.2093 35.6221C33.3998 35.5394 33.5617 36.6872 33.4646 37.3666L32.979 40.7364C32.7416 42.3615 35.0293 44.6111 36.9395 44.8039C38.8496 45.0059 40.4575 43.0318 40.0366 40.3875C40.231 39.7172 41.0296 36.6505 38.418 36.375Z" fill="#F09D69"/>
    <path d="M34.9321 35.9802C35.0616 35.0711 34.2846 33.951 33.227 34.1255C30.0327 34.6672 31.2953 40.0202 32.3636 40.1304C32.6118 38.4409 34.4141 39.5978 34.5436 38.6796C34.6299 38.1195 34.8566 36.5403 34.9321 35.9802Z" fill="#0D2B40"/>
    <path d="M39.3896 41.8476C39.6055 41.6272 39.0551 41.0579 39.0551 41.0579C39.0659 41.2874 39.2385 41.5446 39.1091 41.6823C38.9903 41.82 38.5695 41.8108 38.4292 41.967C38.4292 41.967 39.1953 42.0496 39.3896 41.8476Z" fill="#EF8A52"/>
    <path d="M33.0117 40.8007L32.5046 40.8467C31.9649 40.8926 31.598 40.6263 31.598 40.1764C31.598 39.8918 31.5549 39.4419 31.5872 38.9736C31.6196 38.5787 32.062 38.3033 32.5153 38.3584C32.9793 38.4043 33.3031 38.7532 33.2491 39.1481L33.0117 40.8007Z" fill="#F09D69"/>
    <path d="M36.9293 40.0478C36.9617 39.8275 37.1451 39.653 37.3285 39.6714C37.5228 39.6989 37.6415 39.8918 37.6091 40.1213C37.5768 40.3508 37.404 40.5161 37.2206 40.4978C37.0264 40.4702 36.8969 40.2774 36.9293 40.0478Z" fill="#0D2B40"/>
    <path d="M39.6049 40.3233C39.6372 40.1121 39.7776 39.9469 39.9179 39.9652C40.0689 39.9744 40.166 40.1672 40.1337 40.3783C40.1013 40.5987 39.961 40.764 39.8099 40.7456C39.6696 40.7272 39.5725 40.5437 39.6049 40.3233Z" fill="#0D2B40"/>
    <path d="M37.3818 43.8858C37.8243 44.0051 38.2884 44.0327 38.4502 43.9592C38.2884 44.2898 37.6948 44.3632 37.3818 43.8858Z" fill="#EF8A52"/>
    <path d="M36.9826 40.7456C36.6589 40.7181 36.3891 40.8007 36.3783 40.9385C36.3567 41.0762 36.5941 41.2139 36.907 41.2415C37.2308 41.2782 37.5006 41.1955 37.5222 41.0578C37.533 40.9201 37.2956 40.7823 36.9826 40.7456Z" fill="#E5605A"/>
    <path d="M37.9651 39.0378C37.9326 39.0378 37.9003 39.0286 37.868 39.0011C37.7492 38.9092 37.555 38.8541 37.3499 38.845C37.1557 38.845 36.9614 38.8909 36.8319 38.9736C36.7671 39.0195 36.67 39.0011 36.616 38.946C36.5621 38.8909 36.5836 38.8174 36.6484 38.7715C36.8319 38.6521 37.0908 38.5879 37.3606 38.5971C37.6303 38.6063 37.8894 38.6798 38.0728 38.8174C38.1268 38.8633 38.1376 38.9368 38.0836 38.9919C38.0514 39.0195 38.0082 39.0378 37.9651 39.0378Z" fill="#0D2B40"/>
    <path d="M39.7133 39.2399C39.6593 39.2399 39.6162 39.2215 39.5838 39.1756C39.5406 39.1113 39.573 39.0378 39.6485 39.0011C39.8535 38.9093 40.1234 38.8817 40.3932 38.9276C40.4687 38.9368 40.5227 39.0011 40.5119 39.0746C40.4903 39.148 40.4147 39.194 40.3284 39.1756C40.1342 39.1388 39.9291 39.1664 39.7888 39.2307C39.7672 39.2399 39.7456 39.2399 39.7133 39.2399Z" fill="#0D2B40"/>
    <path d="M33.2056 34.7592C33.6048 33.0881 36.2164 33.1891 37.8028 33.4278C38.9143 33.5931 40.9863 34.3644 40.0367 34.6031C41.623 35.7049 42.3245 37.7341 41.1698 37.6147C39.0331 37.3944 33.2056 34.7592 33.2056 34.7592Z" fill="#0D2B40"/>
    <path d="M34.1553 36.5587L34.4143 34.7682L36.2165 34.9518L36.0114 36.4393C35.9467 36.8892 35.6014 37.2748 35.1157 37.4585C34.8567 37.5503 34.684 37.7431 34.6517 37.9818L34.3603 39.9835C34.3064 40.3875 33.1301 39.9284 33.2164 39.3407C33.2488 39.1663 33.5942 36.7423 33.6158 36.5677C33.6158 36.5677 33.864 36.4944 34.1553 36.5587Z" fill="#0D2B40"/>
    <path d="M39.8421 43.0321C39.8637 42.8576 39.8313 42.3067 39.3565 42.2608L37.3169 42.0405C36.95 42.0037 36.6155 42.1965 36.432 42.4077L35.6334 42.3251C34.5651 42.2148 34.1981 41.0947 34.36 39.9837C34.36 39.9837 33.2593 39.0471 33.2161 39.3409C32.6981 42.9678 33.6047 43.6839 34.5219 44.2716C35.9896 45.2265 38.1047 45.3275 38.8385 44.9419C39.3996 44.6388 39.7234 43.8492 39.8421 43.0321Z" fill="#0D2B40"/>
    <path d="M39.3894 42.83C39.3894 42.83 39.4002 43.4177 38.3857 43.3167C37.4684 43.2156 37.2095 42.6096 37.2095 42.6096L39.3894 42.83Z" fill="white"/>
    <path d="M36.5725 60.3947C37.4682 60.3121 38.5258 60.2846 39.0653 60.2662C39.3351 60.257 40.9971 63.7553 39.4215 63.9848C37.8783 64.2144 36.9718 64.2327 36.6912 64.2511C36.4538 64.2694 36.0545 60.4498 36.5725 60.3947Z" fill="#F5CD56"/>
    <path d="M49.9652 76.7294C48.94 80.5949 48.4544 87.3069 49.7386 91.2551C49.922 91.7876 52.4365 91.3744 52.5444 90.8327C53.2135 87.6833 57.2065 77.8495 57.9402 73.6259C55.5553 72.5149 52.0696 74.5992 49.9652 76.7294Z" fill="#48A3D8"/>
    <path d="M49.4258 93.4495C49.4258 93.6423 49.5984 93.7892 49.8143 93.7892H56.9584C57.2282 93.7892 57.3576 93.6607 57.39 93.4495C57.4008 93.3577 57.4008 93.2291 57.3792 93.1281C57.2497 92.5864 55.2856 92.1365 54.5518 91.8151C53.4079 91.301 52.8144 90.5388 51.9834 90.5388C50.8611 90.5388 50.6128 91.0898 50.1273 91.2183C49.4258 91.3928 49.4258 93.4495 49.4258 93.4495Z" fill="#195392"/>
    <path d="M27.8633 63.8932C26.6008 63.7187 25.6187 63.434 25.295 62.9933C25.0683 62.6811 24.8848 62.1119 24.7554 61.3589C26.072 61.7262 27.3238 62.8189 27.8633 63.8932Z" fill="#D64745"/>
    <path d="M58.857 55.4825C58.8246 55.8039 59.1915 56.9608 59.5152 57.0525C59.785 57.126 60.1736 57.227 60.5945 57.227C61.0153 57.2362 61.8031 54.9407 61.0585 54.7938C60.7024 54.7296 60.1304 54.8764 59.8391 54.8764C59.5477 54.8765 58.9001 55.1611 58.857 55.4825Z" fill="#F09D69"/>
    <path d="M71.4181 75.9489C71.7742 76.1785 72.3246 76.5641 73.2635 76.9773C73.4576 77.0599 73.7059 77.0049 73.8138 76.8395L77.9362 70.0449C78.0658 69.843 77.9794 69.6226 77.7852 69.5307C77.6556 69.4756 77.5045 69.4481 77.3643 69.5032C76.0909 69.9623 73.4901 72.7169 71.8498 73.2678C71.267 73.4606 71.6231 74.544 71.2455 75.398C71.1482 75.6 71.2238 75.8204 71.4181 75.9489Z" fill="#195392"/>
    <path d="M74.0407 77.0875L78.3357 70.0083C78.4004 69.9073 78.3465 69.7879 78.2278 69.7328L77.7853 69.5308L73.2637 76.9773L73.7169 77.1702C73.8248 77.2253 73.9759 77.1885 74.0407 77.0875Z" fill="#0D2B40"/>
    <path d="M71.6669 73.5157C64.9005 70.7795 57.2062 62.4515 52.8463 63.1034C50.8823 63.4064 49.6628 64.0675 48.1196 64.444L54.4111 68.9798C56.2457 69.7327 57.573 70.7244 57.9831 72.0006C57.9939 72.0098 57.9939 72.0282 57.9939 72.0466C62.1595 74.4522 67.7496 75.7101 70.9978 75.6551C71.6561 75.6459 72.2604 73.7544 71.6669 73.5157Z" fill="#48A3D8"/>
    <path fill-rule="evenodd" clip-rule="evenodd" d="M69.735 55.2438H143.15C144.272 55.2438 145.201 54.4633 145.201 53.4992V11.8962C145.201 10.9414 144.272 10.1609 143.15 10.1609H69.735C68.6126 10.1609 67.6846 10.9414 67.6846 11.8962V53.4992C67.6846 54.4633 68.6126 55.2438 69.735 55.2438Z" fill="#FEFEFE"/>
    <path d="M69.7354 54.0777H143.15C143.334 54.0777 143.507 54.0134 143.636 53.9124C143.755 53.8022 143.83 53.6553 143.83 53.4992V11.8963C143.83 11.7401 143.755 11.5933 143.636 11.4922C143.507 11.382 143.334 11.3178 143.15 11.3178H69.7354C69.5519 11.3178 69.3792 11.382 69.2497 11.4922C69.1311 11.5933 69.0555 11.7401 69.0555 11.8963V53.4992C69.0555 53.6553 69.1311 53.8022 69.2497 53.9124C69.3793 54.0134 69.5519 54.0777 69.7354 54.0777ZM143.15 56.4007H69.7354C68.7965 56.4007 67.9439 56.0793 67.3288 55.5559C66.7029 55.0234 66.3252 54.298 66.3252 53.4992V11.8963C66.3252 11.0974 66.7029 10.372 67.3288 9.84868C67.9439 9.32533 68.7965 8.99475 69.7354 8.99475H143.15C144.089 8.99475 144.942 9.32533 145.557 9.84868C146.183 10.372 146.561 11.0974 146.561 11.8963V53.4992C146.561 54.298 146.183 55.0234 145.557 55.5559C144.942 56.0793 144.089 56.4007 143.15 56.4007Z" fill="#2F87CE"/>
    <path d="M94.178 11.3177H69.0552V32.7023H94.178V11.3177Z" fill="#D0EBFF"/>
    <path d="M82.1348 23.8786L83.883 27.8728C84.1096 28.7909 85.0161 30.8936 85.847 32.7024H90.401L90.2392 32.3167C89.0737 29.6724 87.6492 26.119 87.0233 25.4855C86.4082 24.8703 84.0232 23.8786 82.4045 23.8786H82.1348Z" fill="#195392"/>
    <path d="M85.8474 32.7023C85.7071 32.3993 85.5668 32.0871 85.4265 31.7749L85.0596 29.2774C86.6675 29.9569 87.5309 31.2331 88.1028 32.7022L85.8474 32.7023Z" fill="#113F70"/>
    <path d="M76.1348 32.7024C76.3614 31.6557 76.6311 30.6181 76.9441 29.6632C77.9693 26.6149 79.5341 24.2735 81.8975 24.2735C84.7033 24.2735 86.2896 28.2676 87.1637 32.7024H76.1348Z" fill="#195392"/>
    <path d="M76.1348 32.7022C76.3614 31.6555 76.6311 30.6179 76.9441 29.6631L77.3973 29.2774C77.3973 29.2774 78.0017 29.5529 78.401 30.4619C78.7247 31.2056 78.4873 31.9494 78.3254 32.7023L76.1348 32.7022Z" fill="#113F70"/>
    <path d="M82.3292 23.8235C78.6277 23.7776 76.178 24.8794 75.3686 25.4855C74.4729 26.1649 73.124 29.4612 72.3901 32.7024H76.6312C77.0089 31.4996 77.5916 30.2141 78.7679 28.9103C78.7679 28.9103 84.0343 23.8418 82.3292 23.8235Z" fill="#195392"/>
    <path d="M80.3972 23.1991C78.7137 23.3093 77.8827 25.2008 77.7748 26.1465C77.764 26.2291 77.818 26.2934 77.9043 26.3209C78.6813 26.5046 79.2209 26.5872 79.2209 26.5872L78.6813 28.0104C78.6705 28.0563 78.6813 28.1022 78.7136 28.1481C79.0374 28.5429 80.4079 30.8017 81.6489 32.7023H84.8756C85.4259 30.6548 85.9655 28.1206 85.9871 27.4962C85.9871 27.4687 85.9871 27.4411 85.9655 27.4136C85.5986 26.8811 84.7785 26.119 84.7785 26.119L85.2856 25.4671C85.3288 25.4211 85.3288 25.3568 85.2964 25.311C84.6922 24.3377 83.408 23.0155 80.3972 23.1991Z" fill="#2C87CE"/>
    <path d="M79.1133 24.6039C79.1456 24.9344 80.3327 27.4778 81.6817 30.1864C82.0918 31.0312 82.5234 31.8851 82.9334 32.7022H83.9802C84.0557 31.8024 84.1097 30.8016 84.142 29.8283C84.2176 27.643 84.2176 25.6139 84.196 25.3292C84.0557 23.7683 81.919 23.401 81.2823 23.3552C80.7536 23.3276 79.0378 23.7408 79.1133 24.6039Z" fill="#E3E3E3"/>
    <path d="M81.6821 30.1865C82.0922 31.0312 82.5239 31.8852 82.9339 32.7023H83.9807C84.0562 31.8025 84.1101 30.8017 84.1425 29.8284C83.7217 28.901 83.1605 27.6064 83.1605 27.6064L83.2252 27.1473L82.4267 26.3025L82.0706 27.1932L82.2756 27.6523L81.6821 30.1865Z" fill="#0D2B40"/>
    <path d="M79.4585 19.5264C79.4585 19.306 79.2426 19.4162 78.9836 19.4162C78.7246 19.4162 78.5088 20.1232 78.5088 20.3436C78.5088 20.4813 78.5088 20.6649 78.5088 20.8027C78.5088 21.023 78.7246 21.2067 78.9836 21.2067C79.2426 21.2067 79.4585 21.023 79.4585 20.8027C79.4585 20.6649 79.4585 19.664 79.4585 19.5264Z" fill="#4F3058"/>
    <path d="M82.0914 17.4054C82.0914 16.6892 79.3504 16.1017 78.9403 16.1017C77.7964 16.1017 78.541 20.8303 78.9403 20.8303C79.3504 20.8303 79.6741 20.2518 79.6741 19.5265C79.6741 19.0857 82.0914 17.8462 82.0914 17.4054Z" fill="#0D2B40"/>
    <path d="M83.5703 17.4053C83.5703 16.6891 83.8941 16.3678 84.2933 16.3678C85.4373 16.3678 84.6926 20.8302 84.2933 20.8302C83.8941 20.8302 83.5703 20.2517 83.5703 19.5264C83.5703 19.0856 83.5703 17.846 83.5703 17.4053Z" fill="#0D2B40"/>
    <path d="M79.7173 24.1723V21.1056L83.5267 21.5188C83.5267 21.5188 83.5267 23.4562 83.5267 24.1723C83.5267 24.9253 82.4907 25.9444 82.3073 25.9444C82.113 25.9444 79.7173 24.9345 79.7173 24.1723Z" fill="#F09D69"/>
    <path d="M83.527 23.9888V22.8962L79.8794 22.6299C79.8795 24.5397 82.4478 24.9988 83.527 23.9888Z" fill="#EF8A52"/>
    <path d="M79.1242 20.8761C79.1459 20.7201 79.1782 20.0131 79.1782 19.6917C79.1782 18.7735 79.4048 17.433 80.9264 17.433H82.3078C83.8293 17.433 84.056 18.7735 84.056 19.6917C84.056 20.013 84.0883 20.7201 84.1099 20.8761C84.3905 22.6758 82.9984 24.0806 81.6171 24.0806C80.2358 24.0806 78.8437 22.6758 79.1242 20.8761Z" fill="#F09D69"/>
    <path d="M80.3328 20.6282C80.1278 20.6282 79.9551 20.5272 79.9551 20.3986C79.9551 20.2701 80.1278 20.1691 80.3328 20.1691C80.5378 20.1691 80.7105 20.2701 80.7105 20.3986C80.7105 20.5272 80.5378 20.6282 80.3328 20.6282Z" fill="#0D2B40"/>
    <path d="M82.9011 20.1691C83.1169 20.1691 83.2788 20.2701 83.2788 20.3986C83.2788 20.5272 83.117 20.6282 82.9011 20.6282C82.696 20.6282 82.5234 20.5272 82.5234 20.3986C82.5234 20.2701 82.696 20.1691 82.9011 20.1691Z" fill="#0D2B40"/>
    <path d="M83.009 20.9311C82.7607 20.9311 82.5557 21.0229 82.5557 21.1331C82.5557 21.2341 82.7607 21.3259 83.009 21.3259C83.2572 21.3259 83.4622 21.2341 83.4622 21.1331C83.4622 21.0229 83.2571 20.9311 83.009 20.9311Z" fill="#E5605A"/>
    <path d="M80.2248 20.9311C79.9765 20.9311 79.7715 21.0229 79.7715 21.1331C79.7715 21.2341 79.9765 21.3259 80.2248 21.3259C80.473 21.3259 80.6781 21.2341 80.6781 21.1331C80.6781 21.0229 80.473 20.9311 80.2248 20.9311Z" fill="#E5605A"/>
    <path d="M81.6172 21.574C81.779 21.574 81.9193 21.5465 82.038 21.5097C81.9733 21.6567 81.8114 21.7576 81.6172 21.7576C81.4229 21.7576 81.2611 21.6566 81.1963 21.5097C81.315 21.5465 81.4661 21.574 81.6172 21.574Z" fill="#EF8A52"/>
    <path d="M81.6172 23.0522C81.779 23.0522 81.9193 23.0246 82.038 22.9879C81.9733 23.1348 81.8114 23.2358 81.6172 23.2358C81.4229 23.2358 81.2611 23.1348 81.1963 22.9879C81.315 23.0247 81.4661 23.0522 81.6172 23.0522Z" fill="#EF8A52"/>
    <path d="M82.8043 22.1617C82.5561 22.5014 82.1244 22.7309 81.6172 22.7309C81.1208 22.7309 80.6784 22.5014 80.4302 22.1617H82.8043Z" fill="#F8F9FA"/>
    <path d="M79.7824 19.4163C79.804 19.4163 79.8364 19.4071 79.8579 19.3887C79.955 19.3061 80.0953 19.2602 80.2572 19.2418C80.4082 19.2326 80.5593 19.2602 80.6672 19.3245C80.7212 19.352 80.7968 19.3428 80.8291 19.2969C80.8723 19.251 80.8615 19.1959 80.8075 19.1592C80.6564 19.0766 80.4407 19.0307 80.2355 19.049C80.0197 19.0673 79.8255 19.1316 79.6959 19.2418C79.6528 19.2785 79.6528 19.3429 79.6959 19.3796C79.7176 19.407 79.75 19.4163 79.7824 19.4163Z" fill="#0D2B40"/>
    <path d="M83.4621 19.4163C83.4945 19.4163 83.5268 19.4071 83.5484 19.3796C83.5915 19.3429 83.5915 19.2786 83.5376 19.2419C83.4081 19.1316 83.2139 19.0674 82.998 19.049C82.7929 19.0306 82.5879 19.0765 82.4368 19.1592C82.3829 19.1959 82.3721 19.2511 82.4045 19.297C82.4368 19.3429 82.5124 19.352 82.5664 19.3245C82.6743 19.2602 82.8254 19.2327 82.9872 19.2419C83.1383 19.2602 83.2894 19.3061 83.3758 19.3887C83.3973 19.407 83.4297 19.4163 83.4621 19.4163Z" fill="#0D2B40"/>
    <path d="M83.8721 21.2893C83.8721 21.2893 84.2713 21.326 84.4117 21.3536C84.7031 21.4178 84.9081 21.2618 84.9405 20.9128C84.9621 20.6925 85.0269 20.3436 85.0376 19.9855C85.0592 19.6733 84.8434 19.4253 84.5951 19.4253C84.3469 19.4253 84.1419 19.6733 84.1419 19.9855L83.8721 21.2893Z" fill="#F09D69"/>
    <path d="M84.0552 19.0215C84.0552 18.792 84.325 18.6725 84.325 18.9021C84.325 19.0398 84.325 20.1509 84.325 20.2886C84.325 20.5916 84.1846 20.6926 84.0552 20.6926C84.0552 20.6926 84.0552 20.5089 84.0552 20.2886C84.0552 20.1509 84.0552 19.1592 84.0552 19.0215Z" fill="#0D2B40"/>
    <path d="M79.3613 21.2893C79.3613 21.2893 78.962 21.326 78.8325 21.3536C78.5411 21.4178 78.3253 21.2618 78.2929 20.9128C78.2713 20.6925 78.2066 20.3436 78.1957 19.9855C78.185 19.6733 78.4008 19.4253 78.649 19.4253C78.8972 19.4253 79.0914 19.6733 79.0914 19.9855L79.3613 21.2893Z" fill="#F09D69"/>
    <path d="M79.1779 19.0215C79.1779 18.792 78.9189 18.6725 78.9189 18.9021C78.9189 19.0398 78.9189 20.1509 78.9189 20.2886C78.9189 20.5916 79.0592 20.6926 79.1779 20.6926C79.1779 20.6926 79.1779 20.5089 79.1779 20.2886C79.1779 20.1509 79.1779 19.1592 79.1779 19.0215Z" fill="#0D2B40"/>
    <path d="M78.9409 16.5973C78.9625 15.5873 80.1496 15.0731 81.2503 15.0731C84.9194 15.0731 86.441 18.1674 85.1676 18.1674C81.9086 18.1675 78.9409 16.5973 78.9409 16.5973Z" fill="#0D2B40"/>
    <path d="M119.312 32.7023H94.1787V54.0776H119.312V32.7023Z" fill="#D0EBFF"/>
    <path d="M98.7967 51.2129C98.1492 51.6444 99.4119 53.2237 100.631 54.0776H102.822C103.815 53.2513 105.412 51.8189 105.412 51.8189C106.437 50.3774 110.721 45.7681 108.811 45.7681C102.962 45.7681 101.57 49.3398 98.7967 51.2129Z" fill="#195392"/>
    <path d="M99.8545 53.4441C100.103 53.6828 100.373 53.894 100.631 54.0776H103.75C104.182 53.7195 104.171 53.2972 104.279 52.8289L104.743 51.6536C103.707 51.9198 101.182 52.48 99.8545 53.4441Z" fill="#113F70"/>
    <path d="M108.811 45.8599C111.833 45.8599 113.354 49.7622 114.099 54.0777H103.545C104.43 49.7438 106.016 45.8599 108.811 45.8599Z" fill="#195392"/>
    <path d="M113.312 50.7355L112.826 50.8825C111.747 51.8833 111.196 52.9576 111.045 54.0777H114.099C113.894 52.9116 113.635 51.7731 113.312 50.7355Z" fill="#113F70"/>
    <path d="M112.653 54.0777C112.265 53.1321 111.703 51.7915 111.703 51.7915C111.024 50.2122 106.761 45.8692 108.671 45.8692C114.315 45.8692 116.603 50.7264 117.315 54.0777H112.653Z" fill="#195392"/>
    <path d="M108.121 47.5219C106.848 47.4393 105.984 46.3558 106.664 45.9242C106.966 45.7223 107.484 45.7682 108.812 45.7682C109.956 45.7682 111.067 45.9334 111.067 46.1262C111.067 46.8975 109.341 47.5862 108.121 47.5219Z" fill="#113F70"/>
    <path d="M109.826 51.1854C109.362 51.1854 108.984 51.4241 108.984 51.718C108.984 52.0118 109.362 52.2505 109.826 52.2505C110.29 52.2505 110.668 52.0118 110.668 51.718C110.668 51.4242 110.29 51.1854 109.826 51.1854Z" fill="#113F70"/>
    <path d="M110.873 40.9108C110.873 40.6813 111.078 40.7915 111.347 40.7915C111.606 40.7915 111.822 41.4985 111.822 41.728C111.822 41.8658 111.822 42.0402 111.822 42.1779C111.822 42.4074 111.606 42.5819 111.347 42.5819C111.078 42.5819 110.873 42.4074 110.873 42.1779C110.873 42.0402 110.873 41.0485 110.873 40.9108Z" fill="#4F3058"/>
    <path d="M110.656 38.7898C110.656 38.0645 110.991 37.486 111.39 37.486C112.534 37.486 111.789 42.2146 111.39 42.2146C110.991 42.2146 110.656 41.627 110.656 40.9108C110.656 40.4701 110.656 39.2214 110.656 38.7898Z" fill="#0D2B40"/>
    <path d="M106.761 38.7898C106.761 38.0645 106.437 37.486 106.038 37.486C104.894 37.486 105.639 42.2146 106.038 42.2146C106.437 42.2146 106.761 41.627 106.761 40.9108C106.761 40.4701 106.761 39.2214 106.761 38.7898Z" fill="#0D2B40"/>
    <path d="M110.614 45.9792V42.4901L106.804 42.9033V46.218C106.804 46.3832 107.02 46.9433 107.883 47.026C109.275 47.1637 110.614 46.6128 110.614 45.9792Z" fill="#F09D69"/>
    <path d="M106.804 45.3733V44.4092L110.549 43.9868C110.549 45.9058 107.98 46.3649 106.804 45.3733Z" fill="#EF8A52"/>
    <path d="M111.423 37.9728C111.401 36.972 110.333 36.4577 109.329 36.4577C108.326 36.4577 107.139 36.9903 106.394 36.9903C105.682 36.9903 105.466 36.6597 105.466 36.6597C104.495 37.6055 105.272 38.946 106.114 39.1296C106.157 40.0937 106.793 40.4794 106.793 40.4794L111.013 39.8274L111.423 37.9728Z" fill="#0D2B40"/>
    <path d="M111.207 42.2515C111.186 42.1046 111.153 41.3884 111.153 41.0762C111.153 40.158 110.927 38.8175 109.405 38.8175H108.024C106.502 38.8175 106.275 40.1581 106.275 41.0762C106.275 41.3884 106.243 42.1046 106.221 42.2515C105.941 44.0603 107.333 45.4651 108.714 45.4651C110.096 45.4652 111.488 44.0604 111.207 42.2515Z" fill="#F09D69"/>
    <path d="M109.729 41.7832C109.729 41.9577 109.848 42.1045 109.999 42.1045C110.15 42.1045 110.269 41.9576 110.269 41.7832C110.269 41.5996 110.15 41.4618 109.999 41.4618C109.848 41.4618 109.729 41.5996 109.729 41.7832Z" fill="#0D2B40"/>
    <path d="M107.16 41.7832C107.16 41.9577 107.279 42.1045 107.43 42.1045C107.57 42.1045 107.7 41.9576 107.7 41.7832C107.7 41.5996 107.57 41.4618 107.43 41.4618C107.279 41.4618 107.16 41.5996 107.16 41.7832Z" fill="#0D2B40"/>
    <path d="M107.322 42.3156C107.57 42.3156 107.775 42.3983 107.775 42.5085C107.775 42.6187 107.57 42.7105 107.322 42.7105C107.074 42.7105 106.869 42.6187 106.869 42.5085C106.869 42.3983 107.074 42.3156 107.322 42.3156Z" fill="#E5605A"/>
    <path d="M110.107 42.3156C110.355 42.3156 110.56 42.3983 110.56 42.5085C110.56 42.6187 110.355 42.7105 110.107 42.7105C109.858 42.7105 109.653 42.6187 109.653 42.5085C109.653 42.3983 109.858 42.3156 110.107 42.3156Z" fill="#E5605A"/>
    <path d="M108.714 42.9584C108.552 42.9584 108.412 42.9309 108.293 42.885C108.358 43.0411 108.52 43.1421 108.714 43.1421C108.909 43.1421 109.07 43.0411 109.135 42.885C109.016 42.9309 108.865 42.9584 108.714 42.9584Z" fill="#EF8A52"/>
    <path d="M108.714 44.4274C108.552 44.4274 108.412 44.409 108.293 44.3632C108.358 44.5101 108.52 44.6203 108.714 44.6203C108.909 44.6203 109.07 44.5101 109.135 44.3632C109.016 44.409 108.865 44.4274 108.714 44.4274Z" fill="#EF8A52"/>
    <path d="M107.732 43.6472C107.937 43.9226 108.293 44.1063 108.714 44.1063C109.124 44.1063 109.491 43.9226 109.685 43.6472H107.732Z" fill="white"/>
    <path d="M110.559 40.966C110.527 40.966 110.506 40.9568 110.484 40.9385C110.387 40.8558 110.247 40.8099 110.085 40.7915C109.912 40.7823 109.761 40.8099 109.642 40.8742C109.599 40.9018 109.545 40.8926 109.513 40.8558C109.491 40.8191 109.502 40.7731 109.545 40.7456C109.685 40.663 109.89 40.6171 110.095 40.6354C110.3 40.6538 110.495 40.7181 110.624 40.8283C110.657 40.8558 110.657 40.9109 110.624 40.9385C110.603 40.9568 110.581 40.966 110.559 40.966Z" fill="#0D2B40"/>
    <path d="M106.869 40.966C106.847 40.966 106.826 40.9568 106.804 40.9385C106.772 40.9109 106.772 40.8558 106.804 40.8283C106.934 40.7181 107.128 40.6538 107.333 40.6354C107.538 40.617 107.732 40.663 107.883 40.7456C107.926 40.7732 107.937 40.8191 107.905 40.8558C107.883 40.8925 107.818 40.9017 107.775 40.8742C107.667 40.8099 107.506 40.7824 107.344 40.7916C107.182 40.8099 107.031 40.8558 106.934 40.9385C106.912 40.9568 106.89 40.966 106.869 40.966Z" fill="#0D2B40"/>
    <path d="M111.164 38.092C110.754 38.092 110.419 38.5144 110.419 39.0378C110.419 39.5519 110.754 39.9743 111.164 39.9743C111.574 39.9743 111.909 39.552 111.909 39.0378C111.909 38.5144 111.574 38.092 111.164 38.092Z" fill="#0D2B40"/>
    <path d="M106.459 42.6646C106.459 42.6646 106.059 42.7105 105.919 42.7381C105.628 42.8023 105.423 42.6462 105.39 42.2973C105.368 42.0678 105.304 41.7281 105.293 41.3608C105.271 41.0578 105.487 40.8098 105.735 40.8098C105.984 40.8098 106.189 41.0578 106.189 41.3608L106.459 42.6646Z" fill="#F09D69"/>
    <path d="M106.275 40.9109C106.275 40.6814 106.005 40.562 106.005 40.7915C106.005 40.9293 106.005 42.0403 106.005 42.178C106.005 42.481 106.146 42.582 106.275 42.582C106.275 42.582 106.275 42.4076 106.275 42.178C106.275 42.0403 106.275 41.0486 106.275 40.9109Z" fill="#0D2B40"/>
    <path d="M110.959 42.6646C110.959 42.6646 111.369 42.7105 111.499 42.7381C111.79 42.8023 112.006 42.6462 112.038 42.2973C112.06 42.0678 112.114 41.7281 112.135 41.3608C112.146 41.0578 111.93 40.8098 111.682 40.8098C111.434 40.8098 111.24 41.0578 111.24 41.3608L110.959 42.6646Z" fill="#F09D69"/>
    <path d="M111.153 40.9109C111.153 40.6814 111.412 40.562 111.412 40.7915C111.412 40.9293 111.412 42.0403 111.412 42.178C111.412 42.481 111.272 42.582 111.153 42.582C111.153 42.582 111.153 42.4076 111.153 42.178C111.153 42.0403 111.153 41.0486 111.153 40.9109Z" fill="#0D2B40"/>
    <path d="M101.117 53.591C100.685 51.2496 98.9369 49.5051 98.2894 46.4108C98.6132 46.0068 98.7966 45.4926 98.829 45.4008C98.8722 45.309 98.883 45.1162 98.9369 45.0152C99.0232 44.8683 99.2714 44.6755 99.4441 44.5377C99.6491 44.3633 99.2283 44.1429 98.9045 44.2806C98.6348 44.4 98.311 44.5745 98.311 44.5745C98.311 44.5745 97.9764 43.2064 97.9441 43.0136C97.9118 42.8207 97.5664 42.4443 97.2642 42.4534C96.9729 42.4718 96.1203 43.4175 96.0772 43.6379C96.0448 43.8215 95.9477 44.8223 95.9908 45.0978C96.0448 45.3733 96.4333 46.6311 96.4333 46.6311C96.347 47.4024 96.5412 51.3782 97.3829 54.0776H101.16C101.16 53.9032 101.149 53.7287 101.117 53.591Z" fill="#F09D69"/>
    <path d="M110.247 16.781C110.215 15.7802 108.92 15.1099 108.003 15.1191C105.434 15.1375 104.377 17.5431 104.398 19.0398C104.42 20.9128 102.887 22.5473 102.909 24.3927C102.92 25.3201 103.351 26.1373 104.873 26.6423C104.927 27.5972 107.215 25.1915 107.215 25.1915L110.247 16.781Z" fill="#0D2B40"/>
    <path d="M107.538 16.8269C106.999 16.2943 106.988 15.3946 107.83 15.3854C110.161 15.3578 111.693 16.9554 111.887 19.3519C112.06 21.4271 113.679 22.5839 113.7 24.4937C113.722 26.1281 112.448 23.9336 111.79 23.8694C107.042 23.447 109.902 19.1407 107.538 16.8269Z" fill="#0D2B40"/>
    <path d="M96.4122 21.9688C96.4554 21.8128 96.9842 20.8027 97.0813 20.6925C97.1676 20.5731 97.3943 20.2426 97.7072 20.1416C98.0094 20.0498 98.1389 20.2426 98.236 20.4171C98.4087 20.7017 98.1821 21.9321 98.3224 22.4279C98.3224 22.4279 98.6246 22.1616 98.7001 22.1157C98.7648 22.0606 98.9915 21.9229 99.1317 21.978C99.1857 21.9963 99.2073 22.0514 99.1857 22.1065C99.0346 22.4646 98.9375 22.8687 98.8727 22.988C98.7972 23.1441 98.29 23.3185 98.1173 23.8603C98.0741 24.0164 98.0741 24.1908 98.0957 24.3561C98.3655 27.2483 100.146 28.6164 100.912 30.6824L100.092 32.7024H98.9591C97.7288 30.9762 96.3367 26.4128 96.369 24.2643C96.369 24.099 96.1748 23.4746 96.164 23.291C96.1532 23.0706 96.3583 22.1341 96.4122 21.9688Z" fill="#F09D69"/>
    <path d="M98.4409 31.169C100.394 30.5355 102.272 28.2584 103.696 27.7902L105.132 29.5714C104.376 30.2967 102.801 31.8117 101.441 32.7024H99.3907L98.4409 31.169Z" fill="#F09D69"/>
    <path d="M102.941 31.5637C103.729 30.9026 104.463 30.2048 104.97 29.7366L104.301 28.5337L104.085 28.2675L102.326 28.5888C102.088 28.7724 101.829 28.9652 101.581 29.1764C101.56 29.7732 102.099 30.7649 102.941 31.5637Z" fill="#EF8A52"/>
    <path d="M101.257 28.341C100.372 29.0388 103.815 31.0496 103.815 31.0496C104.452 29.5163 110.203 24.5214 108.347 24.5397C106.826 24.5489 105.358 24.7233 104.506 25.3477C103.351 26.1833 102.736 27.1749 101.257 28.341Z" fill="#FE6B61"/>
    <path d="M105.057 28.8734L104.808 29.6631C104.323 30.2323 103.945 30.719 103.816 31.0495C103.816 31.0495 102.844 30.4895 102.078 29.8559C102.79 29.1398 103.783 28.6347 105.057 28.8734Z" fill="#EF5553"/>
    <path d="M108.704 23.9796C109.729 23.9888 111.175 25.1733 111.413 27.0831C111.618 28.7909 110.69 30.9761 110.56 32.7024H104.02C103.999 32.5004 103.956 32.2892 103.891 32.078C103.308 31.5363 102.844 30.4069 103.805 29.3878C105.672 27.4228 106.718 23.9613 108.704 23.9796Z" fill="#FE6B61"/>
    <path d="M111.358 28.6624C111.186 29.801 110.808 31.0038 110.635 32.0872C109.545 32.179 108.509 31.3527 108.984 31.1415C109.621 30.7191 109.34 30.3794 109.211 29.5989C109.103 29.0021 110.506 28.1482 111.358 28.6624Z" fill="#EF5553"/>
    <path d="M111.499 27.6248C112.589 27.2667 113.722 26.1924 113.7 24.4938C113.679 23.144 108.499 21.3627 108.499 21.4821C108.499 21.6015 108.941 27.1932 108.941 27.1932L111.499 27.6248Z" fill="#0D2B40"/>
    <path d="M117.337 32.7024C116.204 30.5355 112.492 26.3577 112.492 26.3577L110.333 28.442C110.333 28.442 112.654 30.7651 114.111 32.7024H117.337Z" fill="#F09D69"/>
    <path d="M116.031 30.7007C115.837 30.4344 115.632 30.1773 115.438 29.9111L112.589 30.8568C113.053 31.3802 113.528 31.9403 113.938 32.4728C114.801 32.0871 115.675 31.3434 116.031 30.7007Z" fill="#EF8A52"/>
    <path d="M109.308 24.4846C112.75 25.2376 115.049 29.1031 115.891 30.3702C116.193 30.8477 113.139 32.4361 112.74 31.9679C112.092 31.2241 109.999 29.4429 108.93 28.9562C107.052 28.0931 108.293 25.5589 109.308 24.4846Z" fill="#FE6B61"/>
    <path d="M108.002 15.0731C106.901 15.0823 105.671 15.5597 105.218 16.1933C104.473 16.6524 104.063 17.7542 104.085 18.7459C104.106 20.7383 105.909 22.3268 108.099 22.3084C110.29 22.29 112.049 20.6556 112.027 18.6724C112.017 18.4153 111.984 18.1582 111.919 17.9102C112.092 16.4963 110.02 15.0548 108.002 15.0731Z" fill="#0D2B40"/>
    <path d="M109.664 24.5305L109.631 20.3527L106.61 20.7934L106.567 24.2642C106.567 24.4294 106.297 25.1089 106.728 25.77C107.732 25.6506 109.675 25.164 109.664 24.5305Z" fill="#F09D69"/>
    <path d="M109.599 21.8494L106.588 22.4095L106.578 23.1165C107.56 24.0623 109.664 23.4011 109.599 21.8494Z" fill="#EF8A52"/>
    <path d="M110.56 20.1048C110.538 19.9579 110.495 19.2417 110.495 18.9295C110.495 18.5622 110.344 18.3511 110.344 18.3511C109.081 18.3695 107.84 17.0014 106.761 17.0105C106.07 17.3411 105.606 18.0573 105.617 18.9755C105.617 19.2876 105.596 20.0038 105.574 20.1507C105.315 21.9595 107.193 23.1899 108.11 23.1807C109.027 23.1715 110.873 21.9044 110.56 20.1048Z" fill="#F09D69"/>
    <path d="M109.082 19.6457C109.082 19.8201 109.2 19.9671 109.351 19.9671C109.502 19.9671 109.621 19.8201 109.621 19.6457C109.61 19.462 109.492 19.3244 109.34 19.3244C109.2 19.3243 109.082 19.4712 109.082 19.6457Z" fill="#0D2B40"/>
    <path d="M106.513 19.6733C106.513 19.8477 106.632 19.9946 106.783 19.9946C106.934 19.9854 107.053 19.8477 107.042 19.664C107.042 19.4896 106.923 19.3427 106.772 19.3427C106.621 19.3519 106.503 19.4896 106.513 19.6733Z" fill="#0D2B40"/>
    <path d="M106.675 20.2058C106.934 20.2058 107.128 20.2884 107.128 20.3986C107.139 20.5088 106.934 20.5914 106.686 20.6006C106.438 20.6006 106.232 20.5088 106.232 20.4078C106.232 20.2976 106.427 20.2058 106.675 20.2058Z" fill="#E5605A"/>
    <path d="M109.46 20.1782C109.708 20.1782 109.913 20.2609 109.913 20.3711C109.913 20.4813 109.719 20.5639 109.47 20.573C109.222 20.573 109.017 20.4904 109.017 20.3802C109.017 20.27 109.211 20.1782 109.46 20.1782Z" fill="#E5605A"/>
    <path d="M108.078 20.8301C107.927 20.8301 107.776 20.8118 107.657 20.7659C107.722 20.9128 107.884 21.023 108.078 21.023C108.272 21.0138 108.434 20.9128 108.499 20.7659C108.38 20.8026 108.24 20.8301 108.078 20.8301Z" fill="#EF8A52"/>
    <path d="M108.1 22.3085C107.938 22.3085 107.797 22.2901 107.679 22.2441C107.743 22.3911 107.905 22.5012 108.1 22.4921C108.294 22.4921 108.456 22.3819 108.52 22.235C108.402 22.2809 108.251 22.3085 108.1 22.3085Z" fill="#EF8A52"/>
    <path d="M107.107 21.5281C107.312 21.8036 107.679 21.9872 108.1 21.9872C108.51 21.9872 108.866 21.7943 109.06 21.5097L107.107 21.5281Z" fill="white"/>
    <path d="M109.891 18.8194C109.87 18.8194 109.848 18.8102 109.827 18.801C109.729 18.7184 109.578 18.6724 109.416 18.6541C109.255 18.6449 109.093 18.6817 108.985 18.7459C108.942 18.7735 108.888 18.7643 108.855 18.7275C108.823 18.6908 108.834 18.6449 108.877 18.6173C109.028 18.5255 109.222 18.4888 109.438 18.498C109.643 18.5164 109.837 18.5806 109.956 18.6816C109.999 18.7183 109.999 18.7643 109.967 18.801C109.945 18.8102 109.924 18.8194 109.891 18.8194Z" fill="#0D2B40"/>
    <path d="M106.211 18.8561C106.189 18.8561 106.157 18.8469 106.146 18.8286C106.103 18.801 106.103 18.7551 106.146 18.7184C106.265 18.6174 106.459 18.544 106.664 18.5256C106.869 18.5072 107.074 18.5439 107.225 18.6357C107.268 18.6541 107.279 18.7092 107.247 18.746C107.214 18.7735 107.161 18.7919 107.117 18.7644C107.009 18.7001 106.848 18.6725 106.686 18.6817C106.524 18.7001 106.373 18.7552 106.276 18.8378C106.254 18.8469 106.232 18.8561 106.211 18.8561Z" fill="#0D2B40"/>
    <path d="M81.0225 38.9092C81.0656 37.9726 82.0476 37.339 82.7491 37.3482C84.7025 37.3758 85.6305 39.662 85.5981 41.0761C84.67 45.4558 86.019 45.9608 86.019 48.5042C86.019 49.6428 84.5405 49.3581 83.2887 49.3765C81.4218 49.3857 82.7384 46.7781 82.7384 46.7781L81.0225 38.9092Z" fill="#FE6B61"/>
    <path d="M83.0734 38.9643C83.4943 38.4593 83.5051 37.6054 82.8792 37.5962C81.1094 37.5687 79.4799 38.8725 79.782 41.1312C80.3108 44.9508 79.1885 45.8874 79.1885 47.9349C79.1885 49.1928 80.7964 49.4316 81.2929 49.3765C84.908 49 81.2605 41.1311 83.0734 38.9643Z" fill="#FE6B61"/>
    <path d="M76.2319 54.0776C77.9262 52.9575 79.9227 50.8916 80.3004 50.2029C81.0882 48.743 82.9228 45.5202 81.045 45.6395C79.5234 45.7405 78.4874 46.8515 77.7859 47.6045C76.5881 48.8991 74.16 52.985 73.1562 54.0776H76.2319Z" fill="#F5CD56"/>
    <path d="M79.2751 49.2847C79.2751 49.2847 79.5988 50.2121 79.793 50.8823C79.1563 51.6261 78.0772 52.6912 76.998 53.5267C77.3325 51.9107 76.7066 50.4599 79.2751 49.2847Z" fill="#FFA833"/>
    <path d="M85.3176 46.2455C84.5298 45.41 83.591 45.0427 82.1772 45.0427C80.7743 45.0427 81.001 47.0168 79.1016 49.6152C78.3786 50.5977 78.4649 51.7914 78.8966 52.5901C79.1124 53.0033 79.1879 53.6736 79.2096 54.0775H85.1449C85.2421 52.2963 87.2277 48.2839 85.3176 46.2455Z" fill="#F5CD56"/>
    <path d="M85.3617 52.8841C85.5344 52.1771 85.7717 51.3507 85.9336 50.506C85.9444 50.3683 85.9552 50.2397 85.9552 50.1112L84.9731 49.9643C84.9732 51.0753 85.0919 52.0394 85.3617 52.8841Z" fill="#FFA833"/>
    <path d="M91.6205 54.0776C90.9406 52.636 89.2895 50.1753 88.9118 49.5234C88.2536 48.4124 86.57 46.475 84.8866 45.8506C83.4837 45.3273 81.7139 48.8348 82.7607 49.2204C84.0665 49.707 86.732 51.9474 88.3939 54.0776H91.6205Z" fill="#F5CD56"/>
    <path d="M84.0444 44.5836C85.4257 45.4834 82.4149 47.632 81.9185 47.6136C81.5192 47.6044 80.1703 45.6487 81.1847 44.9784C81.7027 44.6295 84.0444 44.5836 84.0444 44.5836Z" fill="#FFA833"/>
    <path d="M86.2139 39.4969C86.2139 41.269 84.6167 42.7013 82.6419 42.7013C80.667 42.7013 79.0591 41.269 79.0591 39.4969C79.0591 37.734 80.667 36.4577 82.6419 36.4577C84.6167 36.4577 86.2139 37.7339 86.2139 39.4969Z" fill="#FE6B61"/>
    <path d="M81.0225 45.309L81.098 41.5627L84.1089 42.0218L84.1197 45.309C84.1089 45.6211 83.116 46.723 82.0153 47.1637C81.4325 46.8056 81.0225 46.0343 81.0225 45.309Z" fill="#F09D69"/>
    <path d="M81.1419 43.4727L81.0664 42.784L84.1096 43.3717V44.2899C83.1276 45.0152 81.4873 44.6939 81.1419 43.4727Z" fill="#EF8A52"/>
    <path d="M80.1596 41.3148C80.192 41.1587 80.2352 40.2405 80.2352 39.9284C80.2352 39.304 82.3396 38.0644 84.3683 38.2389C84.9079 38.6337 85.1453 39.2948 85.1238 40.213C85.1129 40.5251 85.1238 41.2413 85.1454 41.3882C85.3828 43.197 83.505 44.4182 82.5877 44.409C81.6597 44.3908 79.8359 43.1145 80.1596 41.3148Z" fill="#F09D69"/>
    <path d="M81.1099 40.8466C81.1207 40.6721 81.2393 40.5344 81.3905 40.5344C81.5307 40.5344 81.6495 40.6813 81.6495 40.8557C81.6387 41.0394 81.5199 41.1771 81.3689 41.1771C81.2286 41.1772 81.1099 41.0302 81.1099 40.8466Z" fill="#0D2B40"/>
    <path d="M83.6777 40.8926C83.6885 40.7181 83.8072 40.5712 83.9583 40.5804C84.0986 40.5804 84.2173 40.7273 84.2173 40.9017C84.2173 41.0762 84.0878 41.2231 83.9367 41.2231C83.7964 41.2139 83.6777 41.067 83.6777 40.8926Z" fill="#0D2B40"/>
    <path d="M84.0445 41.4342C83.7963 41.4342 83.5912 41.5168 83.5912 41.627C83.5804 41.7372 83.7855 41.8198 84.0336 41.829C84.2818 41.829 84.4869 41.7464 84.4869 41.6361C84.4869 41.5351 84.2927 41.4433 84.0445 41.4342Z" fill="#E5605A"/>
    <path d="M81.2608 41.3882C81.0126 41.3882 80.8075 41.4709 80.8075 41.5811C80.7968 41.6913 81.0018 41.7739 81.25 41.7831C81.4982 41.7831 81.7033 41.7004 81.7141 41.5903C81.7141 41.4893 81.509 41.3974 81.2608 41.3882Z" fill="#E5605A"/>
    <path d="M82.6421 42.0494C82.7931 42.0494 82.9334 42.0311 83.063 41.9943C82.9874 42.1412 82.8256 42.2422 82.6313 42.2422C82.437 42.233 82.2752 42.132 82.2212 41.976C82.3398 42.0219 82.4801 42.0494 82.6421 42.0494Z" fill="#EF8A52"/>
    <path d="M83.7317 42.683C83.7317 42.8666 83.1274 43.1604 82.6634 43.1604C82.1346 43.1604 81.6489 42.9217 81.5303 42.6462L83.7317 42.683Z" fill="white"/>
    <path d="M80.8394 40.0295C80.8611 40.0295 80.8935 40.0203 80.9042 40.0111C81.0014 39.9284 81.1524 39.8825 81.3143 39.8733C81.487 39.8549 81.638 39.8917 81.746 39.956C81.7891 39.9835 81.8539 39.9743 81.8755 39.9468C81.9078 39.91 81.8971 39.8549 81.8539 39.8274C81.7136 39.7448 81.5086 39.6988 81.3035 39.708C81.0985 39.7264 80.9042 39.7906 80.7747 39.8917C80.7424 39.9192 80.7424 39.9743 80.7747 40.0019C80.7963 40.0202 80.8179 40.0295 80.8394 40.0295Z" fill="#0D2B40"/>
    <path d="M84.5299 40.0294C84.5515 40.0294 84.573 40.0202 84.5947 40.011C84.6271 39.9743 84.6271 39.9284 84.5947 39.9008C84.4651 39.7907 84.2817 39.7172 84.0767 39.6988C83.8716 39.6804 83.6666 39.7172 83.5155 39.7999C83.4724 39.8274 83.4615 39.8733 83.4939 39.9101C83.5155 39.9468 83.5802 39.956 83.6234 39.9284C83.7313 39.8641 83.8932 39.8457 84.055 39.855C84.2169 39.8733 84.368 39.9284 84.4651 40.0111C84.4759 40.0201 84.5083 40.0294 84.5299 40.0294Z" fill="#0D2B40"/>
    <path d="M82.1777 43.491C82.5231 43.5736 82.8792 43.5828 83.0087 43.5186C82.89 43.7849 82.4367 43.8583 82.1777 43.491Z" fill="#EF8A52"/>
    <path d="M85.0049 42.031C85.0049 42.031 85.102 42.1687 85.307 42.2146C85.4904 42.2513 85.7171 42.1411 85.7603 41.8382C85.7927 41.6362 85.8574 41.3332 85.8898 41.0118C85.9114 40.7364 85.7711 40.5068 85.5445 40.5068C85.3286 40.5068 85.4689 40.9934 85.0805 40.9934L85.0049 42.031Z" fill="#F09D69"/>
    <path d="M85.4151 41.9025C85.5338 41.8933 85.6309 42.0219 85.6417 42.1872C85.6417 42.3433 85.5554 42.4902 85.4259 42.4902C85.3071 42.4994 85.2101 42.3708 85.1992 42.2056C85.1992 42.0402 85.2963 41.9025 85.4151 41.9025Z" fill="#FFA833"/>
    <path d="M80.2781 42.031C80.2781 42.031 80.1918 42.1687 79.9868 42.2146C79.8034 42.2513 79.5659 42.1411 79.5228 41.8382C79.5011 41.6362 79.4364 41.3332 79.404 41.0118C79.3825 40.7364 79.5228 40.5068 79.7493 40.5068C79.9652 40.5068 79.8249 40.9934 80.2134 40.9934L80.2781 42.031Z" fill="#F09D69"/>
    <path d="M79.8798 41.9025C79.7611 41.8933 79.6532 42.0219 79.6532 42.1872C79.6424 42.3433 79.7395 42.4902 79.8582 42.4902C79.9769 42.4994 80.0848 42.3708 80.0848 42.2056C80.0957 42.0402 79.9985 41.9025 79.8798 41.9025Z" fill="#FFA833"/>
    <path d="M143.831 11.3177H119.312V54.0775H143.831V11.3177Z" fill="#8FD6FF"/>
    <path fill-rule="evenodd" clip-rule="evenodd" d="M124.784 24.2919C126.068 24.2919 127.115 23.4012 127.115 22.3085C127.115 21.2159 126.068 20.3253 124.784 20.3253C123.499 20.3253 122.453 21.2159 122.453 22.3085C122.453 23.4011 123.499 24.2919 124.784 24.2919Z" fill="#FEFEFE"/>
    <path d="M136.061 21.3352H130.32C130.17 21.3352 130.05 21.2324 130.05 21.1055C130.05 20.9787 130.17 20.8759 130.32 20.8759H136.061C136.21 20.8759 136.33 20.9787 136.33 21.1055C136.33 21.2324 136.21 21.3352 136.061 21.3352Z" fill="#48A3D8"/>
    <path d="M140.69 22.5382H130.32C130.17 22.5382 130.05 22.4354 130.05 22.3085C130.05 22.1816 130.17 22.0789 130.32 22.0789H140.69C140.839 22.0789 140.96 22.1816 140.96 22.3085C140.96 22.4354 140.839 22.5382 140.69 22.5382Z" fill="#48A3D8"/>
    <path d="M140.69 23.7408H130.32C130.17 23.7408 130.05 23.638 130.05 23.5112C130.05 23.3843 130.17 23.2815 130.32 23.2815H140.69C140.839 23.2815 140.96 23.3843 140.96 23.5112C140.96 23.638 140.839 23.7408 140.69 23.7408Z" fill="#48A3D8"/>
    <path d="M136.061 28.2676H130.32C130.17 28.2676 130.05 28.1648 130.05 28.0379C130.05 27.9111 130.17 27.8083 130.32 27.8083H136.061C136.21 27.8083 136.33 27.9111 136.33 28.0379C136.33 28.1649 136.21 28.2676 136.061 28.2676Z" fill="#48A3D8"/>
    <path d="M140.69 29.4703H130.32C130.17 29.4703 130.05 29.3675 130.05 29.2407C130.05 29.1138 130.17 29.0111 130.32 29.0111H140.69C140.839 29.0111 140.96 29.1139 140.96 29.2407C140.96 29.3675 140.839 29.4703 140.69 29.4703Z" fill="#48A3D8"/>
    <path d="M140.69 30.6641H130.32C130.17 30.6641 130.05 30.5614 130.05 30.4345C130.05 30.3076 130.17 30.2048 130.32 30.2048H140.69C140.839 30.2048 140.96 30.3076 140.96 30.4345C140.96 30.5614 140.839 30.6641 140.69 30.6641Z" fill="#48A3D8"/>
    <path d="M136.061 35.1907H130.32C130.17 35.1907 130.05 35.088 130.05 34.9611C130.05 34.8343 130.17 34.7315 130.32 34.7315H136.061C136.21 34.7315 136.33 34.8343 136.33 34.9611C136.33 35.088 136.21 35.1907 136.061 35.1907Z" fill="#48A3D8"/>
    <path d="M140.69 36.3933H130.32C130.17 36.3933 130.05 36.2906 130.05 36.1637C130.05 36.0369 130.17 35.9341 130.32 35.9341H140.69C140.839 35.9341 140.96 36.0369 140.96 36.1637C140.96 36.2906 140.839 36.3933 140.69 36.3933Z" fill="#48A3D8"/>
    <path d="M140.69 37.5965H130.32C130.17 37.5965 130.05 37.4937 130.05 37.3669C130.05 37.24 130.17 37.1372 130.32 37.1372H140.69C140.839 37.1372 140.96 37.2401 140.96 37.3669C140.96 37.4937 140.839 37.5965 140.69 37.5965Z" fill="#48A3D8"/>
    <path d="M136.061 42.123H130.32C130.17 42.123 130.05 42.0202 130.05 41.8934C130.05 41.7665 130.17 41.6637 130.32 41.6637H136.061C136.21 41.6637 136.33 41.7665 136.33 41.8934C136.33 42.0202 136.21 42.123 136.061 42.123Z" fill="#48A3D8"/>
    <path d="M140.69 43.3259H130.32C130.17 43.3259 130.05 43.2231 130.05 43.0963C130.05 42.9695 130.17 42.8667 130.32 42.8667H140.69C140.839 42.8667 140.96 42.9695 140.96 43.0963C140.96 43.2231 140.839 43.3259 140.69 43.3259Z" fill="#48A3D8"/>
    <path d="M140.69 44.5195H130.32C130.17 44.5195 130.05 44.4166 130.05 44.2898C130.05 44.163 130.17 44.0602 130.32 44.0602H140.69C140.839 44.0602 140.96 44.163 140.96 44.2898C140.96 44.4167 140.839 44.5195 140.69 44.5195Z" fill="#48A3D8"/>
    <path fill-rule="evenodd" clip-rule="evenodd" d="M124.784 31.224C126.068 31.224 127.115 30.3334 127.115 29.2408C127.115 28.1482 126.068 27.2575 124.784 27.2575C123.499 27.2575 122.453 28.1481 122.453 29.2408C122.453 30.3334 123.499 31.224 124.784 31.224Z" fill="#FE6B61"/>
    <path fill-rule="evenodd" clip-rule="evenodd" d="M124.784 38.1472C126.068 38.1472 127.115 37.2566 127.115 36.1639C127.115 35.0713 126.068 34.1807 124.784 34.1807C123.499 34.1807 122.453 35.0713 122.453 36.1639C122.453 37.2566 123.499 38.1472 124.784 38.1472Z" fill="#48A3D8"/>
    <path fill-rule="evenodd" clip-rule="evenodd" d="M124.784 45.0795C126.068 45.0795 127.115 44.1889 127.115 43.0963C127.115 42.0036 126.068 41.1038 124.784 41.1038C123.499 41.1038 122.453 42.0036 122.453 43.0963C122.453 44.1889 123.499 45.0795 124.784 45.0795Z" fill="#195392"/>
    <path fill-rule="evenodd" clip-rule="evenodd" d="M123.402 47.2005H139.741C140.27 47.2005 140.69 47.5678 140.69 48.0085V50.3591C140.69 50.7997 140.27 51.167 139.741 51.167H123.402C122.884 51.167 122.453 50.7997 122.453 50.3591V48.0085C122.453 47.5678 122.884 47.2005 123.402 47.2005Z" fill="#D0EBFF"/>
    <path fill-rule="evenodd" clip-rule="evenodd" d="M123.402 18.2041H139.741C140.27 18.2041 140.69 17.8369 140.69 17.3961V15.0456C140.69 14.5956 140.27 14.2376 139.741 14.2376H123.402C122.884 14.2376 122.453 14.5957 122.453 15.0456V17.3961C122.453 17.8369 122.884 18.2041 123.402 18.2041Z" fill="#D0EBFF"/>
    <path d="M89.6669 81.3109L89.3971 94.0921H88.5877L88.3179 81.3109H89.6669Z" fill="#48A3D8"/>
    <path d="M90.4769 81.3109L90.2071 94.0921H89.3977L89.1279 81.3109H90.4769Z" fill="#8FD6FF"/>
    <path d="M71.8934 81.3109L71.6237 94.0921H70.8142L70.5444 81.3109H71.8934Z" fill="#48A3D8"/>
    <path d="M72.7029 81.3109L72.4331 94.0921H71.6238L71.354 81.3109H72.7029Z" fill="#8FD6FF"/>
    <path d="M116.711 81.3109L116.441 94.0921H115.632L115.362 81.3109H116.711Z" fill="#48A3D8"/>
    <path d="M117.52 81.3109L117.251 94.0921H116.441L116.171 81.3109H117.52Z" fill="#8FD6FF"/>
    <path d="M117.52 80.1449H98.3975V81.8986H117.52V80.1449Z" fill="#8FD6FF"/>
    <path d="M98.3975 80.1449H70.5444V81.8986H98.3975V80.1449Z" fill="#48A3D8"/>
    <path d="M98.9368 81.3109L98.667 94.0921H97.8577L97.5879 81.3109H98.9368Z" fill="#48A3D8"/>
    <path d="M99.7464 81.3109L99.4767 94.0921H98.6673L98.3975 81.3109H99.7464Z" fill="#8FD6FF"/>
    <path fill-rule="evenodd" clip-rule="evenodd" d="M97.9658 76.7108H110.128C111.142 76.7108 111.973 77.4178 111.973 78.2808C111.973 79.1439 111.142 79.8509 110.128 79.8509H97.9658V76.7108Z" fill="#D64745"/>
    <path d="M97.9659 76.4261H110.128C110.732 76.4261 111.272 76.6281 111.671 76.9679C112.071 77.3076 112.319 77.7667 112.319 78.2808C112.319 78.795 112.071 79.2633 111.671 79.5939C111.272 79.9336 110.732 80.1448 110.128 80.1448H97.9659C97.7716 80.1448 97.6206 80.0162 97.6206 79.851V76.7108C97.6205 76.5547 97.7716 76.4261 97.9659 76.4261ZM110.128 77.0046H98.3113V79.5572H110.128C110.538 79.5572 110.916 79.4194 111.186 79.1807C111.455 78.9512 111.628 78.6298 111.628 78.2808C111.628 77.9319 111.455 77.6106 111.186 77.381C110.916 77.1515 110.538 77.0046 110.128 77.0046Z" fill="#D64745"/>
    <path fill-rule="evenodd" clip-rule="evenodd" d="M92.2681 76.7108H103.491C104.506 76.7108 105.337 77.4178 105.337 78.2808C105.337 79.1439 104.506 79.8509 103.491 79.8509H92.2681V76.7108Z" fill="#B8E6F5"/>
    <path d="M91.3292 77.0051C91.1458 77.0051 90.9946 76.8765 90.9946 76.7113C90.9946 76.5551 91.1457 76.4266 91.3292 76.4266H103.491C104.096 76.4266 104.646 76.6286 105.045 76.9684C105.434 77.3081 105.682 77.7672 105.682 78.2813C105.682 78.7955 105.434 79.2638 105.045 79.5944C104.646 79.9341 104.096 80.1453 103.491 80.1453H91.3292C91.1458 80.1453 90.9946 80.0167 90.9946 79.8515C90.9946 79.6953 91.1457 79.5577 91.3292 79.5577H103.491C103.912 79.5577 104.279 79.4199 104.56 79.1812C104.829 78.9517 105.002 78.6303 105.002 78.2813C105.002 77.9324 104.829 77.611 104.56 77.3815C104.279 77.1519 103.912 77.0051 103.491 77.0051H91.3292Z" fill="#EF5553"/>
    <path fill-rule="evenodd" clip-rule="evenodd" d="M93.8543 74.4154H109.448C109.718 74.4154 109.934 74.5991 109.934 74.8286V76.0039C109.934 76.2334 109.718 76.4262 109.448 76.4262H93.8543C93.5845 76.4262 93.3687 76.2334 93.3687 76.0039V74.8286C93.3687 74.5991 93.5845 74.4154 93.8543 74.4154Z" fill="#F5CD56"/>
    <path fill-rule="evenodd" clip-rule="evenodd" d="M109.934 75.4161V76.0037C109.934 76.2333 109.718 76.4261 109.448 76.4261H93.8543C93.5845 76.4261 93.3687 76.2333 93.3687 76.0037V75.4161H109.934Z" fill="#FFA833"/>
    <path fill-rule="evenodd" clip-rule="evenodd" d="M107.009 74.4154H107.743V76.4262H107.009V74.4154ZM95.5596 74.4154H96.3042V76.4262H95.5596V74.4154Z" fill="#FFA833"/>
    <path fill-rule="evenodd" clip-rule="evenodd" d="M107.743 75.4161V76.4261H107.009V75.4161H107.743ZM95.5596 75.4161H96.3042V76.4261H95.5596V75.4161Z" fill="#F59518"/>
    <path d="M138.596 91.1357C138.596 91.1357 128.722 78.2811 135.37 63.3881C135.37 63.3881 144.618 72.7077 140.15 91.1357H138.596Z" fill="#B8E6F5"/>
    <path d="M137.711 89.7215C137.711 89.7215 131.69 85.8192 130.071 75.5723C130.071 75.5723 137.916 79.3827 138.855 89.3267L137.711 89.7215Z" fill="#8FD6FF"/>
    <path d="M139.524 90.3C139.524 90.3 136.621 76.5272 145.966 67.6851C145.966 67.6851 150.488 78.7216 141.369 90.3H139.524Z" fill="#48A3D8"/>
    <path d="M140.366 92.5955C140.366 92.5955 140.689 83.937 149.29 77.2618C149.29 77.2618 149.916 85.6173 141.715 92.5955H140.366Z" fill="#8FD6FF"/>
    <path d="M143.786 94.092H137.765C135.941 94.092 134.462 92.825 134.462 91.2732V89.5654H147.089V91.2732C147.089 92.825 145.61 94.092 143.786 94.092Z" fill="#FFA833"/>
    <path d="M147.305 89.6665H134.248C133.956 89.6665 133.708 89.4645 133.708 89.2166V89.1891C133.708 88.932 133.956 88.7299 134.248 88.7299H147.305C147.608 88.7299 147.845 88.9319 147.845 89.1891V89.2166C147.845 89.4645 147.608 89.6665 147.305 89.6665Z" fill="#F5CD56"/>
    <path d="M147.09 89.6664H134.463V89.8592H147.09V89.6664Z" fill="#F59518"/>
    <path d="M143.097 88.3811C143.086 88.3811 143.086 88.3811 143.075 88.3811C143.064 88.3719 143.064 88.3535 143.075 88.3443C144.769 86.4345 148.859 78.3178 148.892 78.2352C148.902 78.2168 148.913 78.2168 148.935 78.2168C148.946 78.226 148.956 78.2352 148.946 78.2535C148.902 78.3361 144.823 86.4529 143.118 88.3719C143.118 88.3811 143.107 88.3811 143.097 88.3811Z" fill="#8FD6FF"/>
</svg>
