<svg width="20" height="10" viewBox="0 0 20 10" fill="none" xmlns="http://www.w3.org/2000/svg">
    <path d="M2.52344 7.47266C1.83984 6.78906 1.5 5.96094 1.5 4.99609C1.5 4.07031 1.87109 3.18359 2.52344 2.52734C3.20703 1.84375 4.03125 1.50391 5 1.50391H8.5C8.91406 1.50391 9.25 1.16797 9.25 0.753906C9.25 0.339844 8.91406 0.00390625 8.5 0.00390625H5C3.61719 0.00390625 2.4375 0.492187 1.46094 1.46484C0.484375 2.4375 0 3.61719 0 5C0 6.38281 0.488281 7.5625 1.46094 8.53906C2.43359 9.51562 3.61719 10 5 10H8.5C8.91406 10 9.25 9.66406 9.25 9.25C9.25 8.83594 8.91406 8.5 8.5 8.5H5.03125C4.08984 8.50391 3.1875 8.13281 2.52344 7.47266Z" fill="#1F2D5A"/>
    <path d="M6.875 4.25H13.125C13.5391 4.25 13.875 4.58594 13.875 5C13.875 5.41406 13.5391 5.75 13.125 5.75H6.875C6.46094 5.75 6.125 5.41406 6.125 5C6.125 4.58594 6.46094 4.25 6.875 4.25Z" fill="#1F2D5A"/>
    <path d="M18.5391 1.46094C17.5625 0.484375 16.3867 0 15 0H11.5C11.0859 0 10.75 0.335937 10.75 0.75C10.75 1.16406 11.0859 1.5 11.5 1.5H14.9687C15.9062 1.49609 16.8086 1.86719 17.4766 2.52734C18.1602 3.21094 18.5 4.03906 18.5 5.00391C18.5 5.92969 18.1289 6.81641 17.4766 7.47266C16.793 8.15625 15.9687 8.49609 15 8.49609H11.5C11.0859 8.49609 10.75 8.83203 10.75 9.24609C10.75 9.66016 11.0859 9.99609 11.5 9.99609H15C16.3828 9.99609 17.5625 9.50781 18.5391 8.53516C19.5156 7.55859 20 6.38281 20 4.99609C20 3.61719 19.5117 2.4375 18.5391 1.46094Z" fill="#1F2D5A"/>
</svg>
