<svg width="30" height="27" viewBox="0 0 30 27" fill="none" xmlns="http://www.w3.org/2000/svg">
    <path d="M0.878978 22.8515H5.2735V25.4882C5.2735 25.9736 5.66701 26.3671 6.1524 26.3671H29.1211C29.6065 26.3671 30 25.9736 30 25.4882V2.63671C30 2.15132 29.6065 1.75781 29.1211 1.75781H24.7266V0.878904C24.7266 0.393515 24.3331 0 23.8477 0C23.3623 0 22.9688 0.393515 22.9688 0.878904V1.75781H18.5157V0.878904C18.5157 0.393515 18.1221 0 17.6368 0C17.1514 0 16.7578 0.393515 16.7578 0.878904V1.75781H12.3633V0.878904C12.3633 0.393515 11.9698 0 11.4844 0C10.999 0 10.6055 0.393515 10.6055 0.878904V1.75781H6.1524C5.66701 1.75781 5.2735 2.15132 5.2735 2.63671V7.91014C5.2735 14.3877 2.58141 19.3708 0.316303 21.2974C0.0320068 21.5343 -0.0734031 21.9239 0.0525146 22.2718C0.178549 22.6198 0.5089 22.8515 0.878978 22.8515ZM28.2422 24.6093H7.03131V22.8515H23.8477C24.0533 22.8515 24.2524 22.7794 24.4103 22.6478C25.4669 21.7678 27.1035 19.6726 28.2422 16.9891V24.6093ZM7.03131 3.51562H10.6055V4.39452C10.6055 4.87991 10.999 5.27343 11.4844 5.27343C11.9698 5.27343 12.3633 4.87991 12.3633 4.39452V3.51562H16.7578V4.39452C16.7578 4.87991 17.1514 5.27343 17.6368 5.27343C18.1221 5.27343 18.5157 4.87991 18.5157 4.39452V3.51562H22.9688V4.39452C22.9688 4.87991 23.3623 5.27343 23.8477 5.27343C24.3331 5.27343 24.7266 4.87991 24.7266 4.39452V3.51562H28.2422V7.03123H7.03131V3.51562ZM7.01625 8.78846H28.2266C28.0286 14.3639 25.8887 18.7507 23.503 21.0937H2.87813C5.58123 17.6495 6.87123 13.1649 7.01625 8.78846Z" fill="#1F2D5A"/>
</svg>
