<svg width="120" height="128" viewBox="0 0 120 128" fill="none" xmlns="http://www.w3.org/2000/svg">
    <g opacity="0.25">
        <path opacity="0.0196" d="M98.1727 120.804C98.3547 117.308 80.3621 113.53 57.985 112.365C35.608 111.199 17.3202 113.089 17.1382 116.584C16.9562 120.08 34.9488 123.858 57.3258 125.024C79.7029 126.189 97.9906 124.3 98.1727 120.804Z" fill="#0F0A26"/>
        <path opacity="0.0392" d="M98.0005 120.761C98.1801 117.312 80.4265 113.584 58.3467 112.434C36.2669 111.284 18.2221 113.148 18.0425 116.598C17.8629 120.047 35.6165 123.775 57.6963 124.925C79.776 126.075 97.8209 124.211 98.0005 120.761Z" fill="#0F0A26"/>
        <path opacity="0.0588" d="M97.8283 120.719C98.0055 117.316 80.4909 113.638 58.7084 112.504C36.9259 111.369 19.124 113.208 18.9468 116.611C18.7696 120.014 36.2842 123.692 58.0667 124.826C79.8492 125.961 97.6511 124.122 97.8283 120.719Z" fill="#0F0A26"/>
        <path opacity="0.0784" d="M97.6556 120.676C97.8304 117.32 80.5548 113.692 59.0696 112.573C37.5843 111.454 20.0254 113.268 19.8506 116.625C19.6759 119.981 36.9514 123.609 58.4367 124.728C79.9219 125.846 97.4808 124.033 97.6556 120.676Z" fill="#0F0A26"/>
        <path opacity="0.098" d="M97.4829 120.634C97.6553 117.324 80.6187 113.746 59.4308 112.643C38.2428 111.539 20.9268 113.328 20.7545 116.638C20.5821 119.948 37.6186 123.526 58.8066 124.629C79.9946 125.732 97.3105 123.944 97.4829 120.634Z" fill="#0F0A26"/>
        <path opacity="0.1176" d="M97.3107 120.591C97.4807 117.328 80.6832 113.8 59.7925 112.712C38.9017 111.624 21.8287 113.388 21.6588 116.652C21.4888 119.915 38.2863 123.443 59.1771 124.53C80.0678 125.618 97.1408 123.855 97.3107 120.591Z" fill="#0F0A26"/>
        <path opacity="0.1373" d="M97.138 120.549C97.3056 117.332 80.7471 113.854 60.1536 112.782C39.5602 111.71 22.7301 113.448 22.5626 116.665C22.3951 119.882 38.9536 123.359 59.547 124.432C80.1404 125.504 96.9705 123.766 97.138 120.549Z" fill="#0F0A26"/>
        <path opacity="0.1569" d="M96.9659 120.506C97.131 117.335 80.8115 113.908 60.5153 112.851C40.2192 111.795 23.632 113.508 23.4669 116.679C23.3018 119.849 39.6213 123.276 59.9174 124.333C80.2136 125.39 96.8008 123.677 96.9659 120.506Z" fill="#0F0A26"/>
        <path opacity="0.1765" d="M96.7933 120.463C96.956 117.339 80.8755 113.962 60.8766 112.921C40.8776 111.88 24.5334 113.568 24.3707 116.692C24.2081 119.816 40.2885 123.193 60.2874 124.235C80.2864 125.276 96.6306 123.588 96.7933 120.463Z" fill="#0F0A26"/>
        <path opacity="0.1961" d="M96.6211 120.421C96.7814 117.343 80.9399 114.016 61.2383 112.991C41.5366 111.965 25.4353 113.628 25.2751 116.706C25.1148 119.783 40.9562 123.11 60.6579 124.136C80.3596 125.162 96.4608 123.499 96.6211 120.421Z" fill="#0F0A26"/>
        <path opacity="0.2157" d="M96.4483 120.378C96.6062 117.347 81.0038 114.071 61.5994 113.06C42.195 112.05 26.3367 113.688 26.1789 116.719C26.021 119.75 41.6234 123.027 61.0278 124.037C80.4321 125.048 96.2905 123.41 96.4483 120.378Z" fill="#0F0A26"/>
        <path opacity="0.2353" d="M96.2762 120.336C96.4317 117.351 81.0683 114.125 61.9611 113.13C42.854 112.135 27.2386 113.748 27.0832 116.733C26.9278 119.717 42.2911 122.944 61.3983 123.939C80.5054 124.934 96.1208 123.321 96.2762 120.336Z" fill="#0F0A26"/>
        <path opacity="0.2549" d="M96.1036 120.293C96.2566 117.355 81.1322 114.179 62.3223 113.199C43.5125 112.22 28.14 113.808 27.987 116.746C27.834 119.685 42.9584 122.861 61.7682 123.84C80.5781 124.82 95.9505 123.232 96.1036 120.293Z" fill="#0F0A26"/>
        <path opacity="0.2745" d="M95.9309 120.251C96.0815 117.359 81.1961 114.233 62.6835 113.269C44.1709 112.305 29.0414 113.868 28.8908 116.76C28.7402 119.652 43.6256 122.778 62.1382 123.742C80.6508 124.706 95.7803 123.143 95.9309 120.251Z" fill="#0F0A26"/>
        <path opacity="0.2941" d="M95.7587 120.208C95.9069 117.362 81.2605 114.287 63.0452 113.338C44.8299 112.39 29.9433 113.928 29.7952 116.773C29.647 119.619 44.2933 122.694 62.5086 123.643C80.724 124.591 95.6105 123.054 95.7587 120.208Z" fill="#0F0A26"/>
        <path opacity="0.3137" d="M95.5865 120.165C95.7323 117.366 81.325 114.341 63.4069 113.408C45.4889 112.475 30.8452 113.987 30.6995 116.787C30.5537 119.586 44.961 122.611 62.8791 123.544C80.7971 124.477 95.4407 122.965 95.5865 120.165Z" fill="#0F0A26"/>
        <path opacity="0.3333" d="M95.4138 120.123C95.5571 117.37 81.3889 114.395 63.7681 113.477C46.1473 112.56 31.7466 114.048 31.6033 116.8C31.4599 119.553 45.6282 122.528 63.249 123.446C80.8698 124.363 95.2705 122.876 95.4138 120.123Z" fill="#0F0A26"/>
        <path opacity="0.3529" d="M95.2411 120.08C95.3821 117.374 81.4528 114.449 64.1293 113.547C46.8058 112.645 32.648 114.107 32.5071 116.814C32.3662 119.52 46.2954 122.445 63.619 123.347C80.9425 124.249 95.1002 122.787 95.2411 120.08Z" fill="#0F0A26"/>
        <path opacity="0.3725" d="M95.0689 120.038C95.2074 117.378 81.5172 114.503 64.491 113.616C47.4647 112.73 33.5499 114.167 33.4114 116.827C33.2729 119.487 46.9632 122.362 63.9894 123.248C81.0157 124.135 94.9304 122.698 95.0689 120.038Z" fill="#0F0A26"/>
        <path opacity="0.3922" d="M94.8963 119.995C95.0323 117.382 81.5811 114.557 64.8522 113.686C48.1232 112.815 34.4513 114.227 34.3153 116.841C34.1792 119.454 47.6304 122.279 64.3593 123.15C81.0883 124.021 94.7602 122.609 94.8963 119.995Z" fill="#0F0A26"/>
        <path opacity="0.4118" d="M94.7241 119.953C94.8577 117.386 81.6456 114.611 65.2138 113.756C48.7821 112.9 35.3532 114.287 35.2196 116.854C35.0859 119.421 48.2981 122.196 64.7298 123.051C81.1615 123.907 94.5904 122.52 94.7241 119.953Z" fill="#0F0A26"/>
        <path opacity="0.4314" d="M94.5514 119.91C94.6826 117.39 81.7095 114.665 65.575 113.825C49.4406 112.985 36.2546 114.347 36.1234 116.868C35.9921 119.388 48.9653 122.112 65.0997 122.953C81.2342 123.793 94.4201 122.431 94.5514 119.91Z" fill="#0F0A26"/>
        <path opacity="0.451" d="M94.3792 119.868C94.508 117.394 81.7739 114.719 65.9367 113.895C50.0995 113.07 37.1565 114.407 37.0277 116.881C36.8989 119.355 49.633 122.029 65.4702 122.854C81.3074 123.679 94.2504 122.342 94.3792 119.868Z" fill="#0F0A26"/>
        <path opacity="0.4706" d="M94.2065 119.825C94.3329 117.397 81.8378 114.773 66.2979 113.964C50.758 113.155 38.0579 114.467 37.9315 116.895C37.8051 119.322 50.3002 121.946 65.8401 122.755C81.38 123.565 94.0801 122.253 94.2065 119.825Z" fill="#0F0A26"/>
        <path opacity="0.4902" d="M94.0343 119.782C94.1583 117.401 81.9022 114.827 66.6596 114.034C51.4169 113.24 38.9598 114.527 38.8358 116.908C38.7118 119.289 50.9679 121.863 66.2106 122.657C81.4532 123.451 93.9103 122.164 94.0343 119.782Z" fill="#0F0A26"/>
        <path opacity="0.5098" d="M93.8616 119.74C93.9832 117.405 81.9662 114.882 67.0208 114.103C52.0754 113.325 39.8612 114.587 39.7397 116.922C39.6181 119.256 51.6351 121.78 66.5805 122.558C81.5259 123.336 93.7401 122.075 93.8616 119.74Z" fill="#0F0A26"/>
        <path opacity="0.5294" d="M93.6894 119.697C93.8086 117.409 82.0306 114.936 67.3825 114.173C52.7344 113.41 40.7631 114.647 40.644 116.935C40.5248 119.223 52.3029 121.697 66.951 122.46C81.5991 123.222 93.5703 121.986 93.6894 119.697Z" fill="#0F0A26"/>
        <path opacity="0.549" d="M93.5168 119.655C93.6335 117.413 82.0945 114.99 67.7437 114.242C53.3928 113.495 41.6645 114.707 41.5478 116.949C41.4311 119.19 52.9701 121.614 67.3209 122.361C81.6717 123.108 93.4 121.897 93.5168 119.655Z" fill="#0F0A26"/>
        <path opacity="0.5686" d="M93.3446 119.612C93.4589 117.417 82.1589 115.044 68.1053 114.312C54.0518 113.58 42.5664 114.767 42.4521 116.962C42.3378 119.158 53.6378 121.531 67.6913 122.262C81.7449 122.994 93.2303 121.808 93.3446 119.612Z" fill="#0F0A26"/>
        <path opacity="0.5882" d="M93.1719 119.57C93.2838 117.421 82.2228 115.098 68.4665 114.382C54.7103 113.665 43.4678 114.827 43.3559 116.976C43.244 119.125 54.305 121.447 68.0613 122.164C81.8176 122.88 93.06 121.719 93.1719 119.57Z" fill="#0F0A26"/>
        <path opacity="0.6078" d="M92.9997 119.527C93.1092 117.425 82.2873 115.152 68.8282 114.451C55.3692 113.75 44.3697 114.887 44.2603 116.989C44.1508 119.092 54.9727 121.364 68.4317 122.065C81.8908 122.766 92.8902 121.63 92.9997 119.527Z" fill="#0F0A26"/>
        <path opacity="0.6275" d="M92.827 119.484C92.9341 117.428 82.3512 115.206 69.1894 114.521C56.0277 113.835 45.2711 114.946 45.1641 117.003C45.057 119.059 55.6399 121.281 68.8017 121.966C81.9634 122.652 92.72 121.541 92.827 119.484Z" fill="#0F0A26"/>
        <path opacity="0.6471" d="M92.6543 119.442C92.759 117.432 82.4151 115.26 69.5506 114.59C56.6861 113.92 46.1726 115.006 46.0679 117.016C45.9633 119.026 56.3071 121.198 69.1716 121.868C82.0361 122.538 92.5497 121.452 92.6543 119.442Z" fill="#0F0A26"/>
        <path opacity="0.6667" d="M92.4821 119.399C92.5844 117.436 82.4795 115.314 69.9123 114.66C57.3451 114.005 47.0745 115.066 46.9722 117.03C46.87 118.993 56.9749 121.115 69.5421 121.769C82.1093 122.424 92.3799 121.363 92.4821 119.399Z" fill="#0F0A26"/>
        <path opacity="0.6863" d="M92.31 119.357C92.4098 117.44 82.5439 115.368 70.274 114.729C58.004 114.09 47.9763 115.126 47.8765 117.043C47.7767 118.96 57.6426 121.032 69.9125 121.671C82.1825 122.31 92.2101 121.274 92.31 119.357Z" fill="#0F0A26"/>
        <path opacity="0.7059" d="M92.1373 119.314C92.2347 117.444 82.6079 115.422 70.6352 114.799C58.6625 114.175 48.8778 115.186 48.7804 117.057C48.683 118.927 58.3098 120.949 70.2825 121.572C82.2552 122.196 92.0399 121.185 92.1373 119.314Z" fill="#0F0A26"/>
        <path opacity="0.7255" d="M91.9651 119.272C92.0601 117.448 82.6723 115.476 70.9969 114.868C59.3214 114.26 49.7796 115.246 49.6847 117.07C49.5897 118.894 58.9775 120.865 70.6529 121.473C82.3283 122.081 91.8701 121.096 91.9651 119.272Z" fill="#0F0A26"/>
        <path opacity="0.7451" d="M91.7924 119.229C91.885 117.452 82.7362 115.53 71.3581 114.938C59.9799 114.345 50.6811 115.306 50.5885 117.084C50.4959 118.861 59.6447 120.782 71.0229 121.375C82.401 121.967 91.6998 121.007 91.7924 119.229Z" fill="#0F0A26"/>
        <path opacity="0.7647" d="M91.6197 119.187C91.7099 117.456 82.8001 115.585 71.7192 115.008C60.6383 114.431 51.5825 115.366 51.4923 117.097C51.4022 118.828 60.3119 120.699 71.3928 121.276C82.4737 121.853 91.5296 120.918 91.6197 119.187Z" fill="#0F0A26"/>
        <path opacity="0.7843" d="M91.4475 119.144C91.5353 117.459 82.8645 115.639 72.0809 115.077C61.2973 114.515 52.4844 115.426 52.3966 117.111C52.3089 118.795 60.9796 120.616 71.7632 121.178C82.5469 121.739 91.3598 120.829 91.4475 119.144Z" fill="#0F0A26"/>
        <path opacity="0.8039" d="M91.2753 119.101C91.3607 117.463 82.9289 115.693 72.4426 115.147C61.9563 114.6 53.3862 115.486 53.3009 117.124C53.2156 118.762 61.6473 120.533 72.1337 121.079C82.62 121.625 91.19 120.74 91.2753 119.101Z" fill="#0F0A26"/>
        <path opacity="0.8235" d="M91.1027 119.059C91.1856 117.467 82.9929 115.747 72.8038 115.216C62.6147 114.685 54.2877 115.546 54.2048 117.137C54.1219 118.729 62.3146 120.45 72.5036 120.98C82.6927 121.511 91.0198 120.651 91.1027 119.059Z" fill="#0F0A26"/>
        <path opacity="0.8431" d="M90.9301 119.016C91.0106 117.471 83.0569 115.801 73.1651 115.286C63.2732 114.771 55.1891 115.606 55.1086 117.151C55.0281 118.696 62.9818 120.367 72.8737 120.882C82.7655 121.397 90.8496 120.562 90.9301 119.016Z" fill="#0F0A26"/>
        <path opacity="0.8627" d="M90.7579 118.974C90.836 117.475 83.1213 115.855 73.5267 115.355C63.9322 114.856 56.091 115.666 56.0129 117.164C55.9349 118.663 63.6495 120.283 73.2441 120.783C82.8387 121.283 90.6799 120.473 90.7579 118.974Z" fill="#0F0A26"/>
        <path opacity="0.8824" d="M90.5852 118.931C90.6609 117.479 83.1852 115.909 73.8879 115.425C64.5906 114.941 56.9924 115.726 56.9167 117.178C56.8411 118.63 64.3167 120.2 73.614 120.684C82.9113 121.169 90.5096 120.384 90.5852 118.931Z" fill="#0F0A26"/>
        <path opacity="0.902" d="M90.4131 118.889C90.4863 117.483 83.2496 115.963 74.2496 115.494C65.2496 115.026 57.8943 115.785 57.821 117.192C57.7478 118.598 64.9844 120.117 73.9845 120.586C82.9845 121.055 90.3398 120.295 90.4131 118.889Z" fill="#0F0A26"/>
        <path opacity="0.9216" d="M90.2404 118.846C90.3112 117.487 83.3136 116.017 74.6108 115.564C65.908 115.111 58.7957 115.845 58.7249 117.205C58.6541 118.565 65.6517 120.034 74.3544 120.487C83.0572 120.94 90.1696 120.206 90.2404 118.846Z" fill="#0F0A26"/>
        <path opacity="0.9412" d="M90.0682 118.804C90.1366 117.49 83.378 116.071 74.9725 115.633C66.567 115.196 59.6976 115.905 59.6292 117.218C59.5608 118.532 66.3194 119.951 74.7249 120.389C83.1304 120.826 89.9998 120.117 90.0682 118.804Z" fill="#0F0A26"/>
        <path opacity="0.9608" d="M89.8955 118.761C89.9615 117.494 83.4419 116.125 75.3337 115.703C67.2255 115.281 60.599 115.965 60.533 117.232C60.467 118.499 66.9866 119.868 75.0948 120.29C83.203 120.712 89.8295 120.028 89.8955 118.761Z" fill="#0F0A26"/>
        <path opacity="0.9804" d="M89.7233 118.718C89.7869 117.498 83.5063 116.179 75.6954 115.772C67.8844 115.366 61.5009 116.025 61.4373 117.245C61.3738 118.466 67.6543 119.785 75.4653 120.191C83.2762 120.598 89.6598 119.939 89.7233 118.718Z" fill="#0F0A26"/>
        <path d="M89.5506 118.676C89.6118 117.502 83.5703 116.233 76.0566 115.842C68.5429 115.451 62.4023 116.085 62.3411 117.259C62.28 118.433 68.3215 119.702 75.8352 120.093C83.3489 120.484 89.4895 119.85 89.5506 118.676Z" fill="#0F0A26"/>
    </g>
    <path d="M91.2465 120.331L120 49.9397L104.09 48.6948L75.3364 119.086L91.2465 120.331Z" fill="url(#paint0_linear_1_1133)"/>
    <path d="M39.3964 86.5493L68.1499 16.1582L52.2398 14.9133L23.4863 85.3044L39.3964 86.5493Z" fill="url(#paint1_linear_1_1133)"/>
    <path d="M68.1494 16.1582L120 49.9396L104.09 48.6947L52.2393 14.9133L68.1494 16.1582Z" fill="url(#paint2_linear_1_1133)"/>
    <path d="M52.2397 14.9133L104.09 48.6947L75.3367 119.086L20.3564 82.2897L52.2397 14.9133Z" fill="url(#paint3_linear_1_1133)"/>
    <path opacity="0.69" d="M52.2396 14.9133L52.1357 15.1328L103.7 48.7276L75.041 118.888L75.3367 119.086L104.09 48.6947L52.2396 14.9133Z" fill="url(#paint4_linear_1_1133)"/>
    <path d="M101.455 49.1142C102.218 49.6113 102.468 50.603 102.014 51.392C101.353 52.5383 100.306 54.3424 98.9612 56.6186C91.2479 69.6488 73.6594 98.3424 62.4955 108.49C61.4518 109.439 59.9107 109.556 58.7164 108.805L4.67891 74.8476C3.27491 73.9653 3.25117 71.9604 4.61226 71.0133C19.4331 60.7005 38.5142 34.9509 47.0016 22.9106C48.3738 20.9634 49.4675 19.3723 50.2219 18.2625C50.8858 17.2857 52.209 17.0244 53.1985 17.6692L101.455 49.1142Z" fill="url(#paint5_linear_1_1133)"/>
    <path d="M101.455 48.007C102.218 48.5041 102.468 49.4958 102.014 50.2848C101.353 51.4311 100.306 53.2352 98.9612 55.5114C91.2479 68.5416 73.6594 97.2352 62.4955 107.383C61.4518 108.331 59.9107 108.448 58.7164 107.698L4.67891 73.7404C3.27491 72.8581 3.25117 70.8532 4.61226 69.9061C19.4331 59.5933 38.5142 33.8437 47.0016 21.8034C48.3738 19.8562 49.4675 18.2651 50.2219 17.1553C50.8858 16.1786 52.209 15.9173 53.1985 16.562L101.455 48.007Z" fill="url(#paint6_linear_1_1133)"/>
    <path d="M61.7287 102.761C52.801 97.4436 47.832 94.4458 38.1211 88.449C53.4176 71.7896 60.2435 63.532 72.2264 43.331C80.9094 48.8958 85.2652 51.5979 94.1959 56.9144C82.1526 77.145 75.6646 85.9314 61.7287 102.761Z" fill="#D1D5E8"/>
    <path d="M33.6176 85.657C25.4708 80.5858 21.3654 77.9883 13.8254 73.0718C12.8376 72.4277 12.7536 71.2233 13.6126 70.3753C19.2413 64.8186 21.9194 62.0517 27 56.3153C27.7753 55.4399 29.1629 55.2475 30.118 55.8934C37.4087 60.8236 41.2398 63.3414 48.887 68.2629C49.8888 68.9077 50.1184 70.1565 49.3907 71.048C44.6226 76.8896 42.1408 79.7121 36.9829 85.3134C36.1958 86.1682 34.685 86.3214 33.6176 85.657Z" stroke="#AAADD4" stroke-width="8.1417" stroke-miterlimit="10"/>
    <path d="M50.9524 66.0586C43.1968 61.06 39.3124 58.5009 31.8944 53.4712C31.0463 52.8962 30.9079 51.7889 31.5711 50.991C36.2343 45.3795 38.4402 42.4988 42.5981 36.3905C43.1894 35.5218 44.3465 35.2783 45.192 35.8547C52.587 40.8969 56.311 43.3763 63.7974 48.2268C64.6534 48.7813 64.8843 49.946 64.3066 50.8217C60.2437 56.9793 58.1226 59.9134 53.7019 65.6258C53.0732 66.4382 51.8391 66.6301 50.9524 66.0586Z" stroke="#AAADD4" stroke-width="7.9109" stroke-miterlimit="10"/>
    <path d="M88.0071 61.2836C82.5038 57.9654 79.7657 56.2761 74.3117 52.8411C74.0622 52.684 73.9913 52.3426 74.1536 52.0818C74.1746 52.048 74.1852 52.031 74.2063 51.9971C74.3686 51.7363 74.7049 51.6509 74.9541 51.8078C80.4033 55.2391 83.1396 56.9267 88.6475 60.2454C88.8994 60.3972 88.9736 60.7363 88.8118 60.9983C88.7908 61.0324 88.7802 61.0494 88.7592 61.0835C88.5975 61.3455 88.2588 61.4353 88.0071 61.2836Z" fill="#AAADD4"/>
    <path d="M86.38 63.7935C79.8251 59.8338 76.5521 57.8038 70.0366 53.6661C69.7645 53.4933 69.6895 53.1237 69.8694 52.8439C70.0493 52.5641 70.4183 52.476 70.6901 52.6485C77.1977 56.7809 80.4668 58.8078 87.026 62.7674C87.2999 62.9328 87.379 63.2993 87.2012 63.5816C87.0235 63.8637 86.6537 63.9589 86.38 63.7935Z" fill="#AAADD4"/>
    <path d="M84.7805 66.2996C78.2341 62.3381 74.9503 60.3001 68.4135 56.1481C68.1405 55.9748 68.0667 55.6074 68.249 55.3314C68.4312 55.0554 68.8029 54.9706 69.0755 55.1438C75.6033 59.2897 78.8825 61.3244 85.432 65.285C85.7055 65.4504 85.7829 65.8144 85.6037 66.0934V66.0934C85.4244 66.3724 85.0538 66.465 84.7805 66.2996Z" fill="#AAADD4"/>
    <path d="M83.1667 68.778C76.626 64.8132 73.3301 62.7665 66.7691 58.5987C66.495 58.4246 66.4224 58.0596 66.607 57.787C66.7916 57.5144 67.166 57.433 67.4395 57.6069C73.9904 61.7681 77.2812 63.8113 83.8239 67.7745C84.0971 67.94 84.173 68.3016 83.9922 68.5776C83.8115 68.8536 83.4398 68.9437 83.1667 68.778Z" fill="#AAADD4"/>
    <path d="M79.0116 69.6895C73.4543 66.291 70.6514 64.5435 65.0655 60.9947C64.8115 60.8334 64.7453 60.4983 64.9179 60.2498C64.9388 60.2197 64.9493 60.2046 64.9701 60.1745C65.1427 59.9259 65.4909 59.8539 65.7445 60.015C71.3207 63.5577 74.1189 65.302 79.6746 68.6977C79.9271 68.852 79.9964 69.1847 79.8281 69.4366C79.8077 69.467 79.7976 69.4824 79.7772 69.5129C79.6089 69.7647 79.2643 69.844 79.0116 69.6895Z" fill="#AAADD4"/>
    <path d="M43.8919 72.2827C38.1499 68.5982 35.2823 66.7302 29.7491 63.0518C29.496 62.8835 29.4557 62.5626 29.6583 62.3382C29.6846 62.309 29.6978 62.2944 29.7241 62.2652C29.9267 62.0407 30.2981 61.9942 30.5507 62.1624C36.0732 65.8386 38.932 67.7035 44.6571 71.3816C44.919 71.5498 44.9761 71.874 44.7833 72.1016C44.7583 72.1312 44.7457 72.146 44.7206 72.1756C44.5279 72.4032 44.1546 72.4513 43.8919 72.2827Z" fill="#AAADD4"/>
    <path d="M41.9479 74.4613C35.0453 70.0467 31.5924 67.7999 25.0449 63.4285C24.7715 63.2459 24.7335 62.8984 24.959 62.6557C25.1845 62.413 25.591 62.3633 25.864 62.5458C32.4002 66.9165 35.8419 69.1597 42.7232 73.5671C43.0106 73.7512 43.0723 74.1033 42.8596 74.3493C42.6468 74.5954 42.2362 74.6457 41.9479 74.4613Z" fill="#AAADD4"/>
    <path d="M65.4716 42.894C60.0691 39.3796 57.3796 37.5942 51.9973 33.9593C51.7511 33.793 51.6842 33.4424 51.8479 33.1793C51.8692 33.1451 51.8798 33.1279 51.9011 33.0937C52.0647 32.8305 52.3995 32.7506 52.6458 32.9169C58.0293 36.5533 60.7161 38.3375 66.1137 41.8494C66.3606 42.01 66.4306 42.3579 66.2687 42.6216C66.2476 42.6559 66.2371 42.6731 66.216 42.7073C66.0539 42.9711 65.7187 43.0548 65.4716 42.894Z" fill="#AAADD4"/>
    <path d="M63.8333 45.412C57.3709 41.2089 54.1556 39.0675 47.7421 34.7079C47.4743 34.5258 47.4043 34.1467 47.5857 33.8647C47.7672 33.5826 48.1343 33.5002 48.4023 33.6825C54.8188 38.0446 58.03 40.1841 64.4854 44.3831C64.755 44.5585 64.8296 44.934 64.6504 45.2171C64.4712 45.5002 64.1032 45.5876 63.8333 45.412Z" fill="#AAADD4"/>
    <path d="M51.404 62.9943C44.7353 58.6764 41.4066 56.4777 34.9671 52.1207C34.6981 51.9388 34.6489 51.5827 34.8563 51.3288C35.0637 51.0749 35.4523 51.0154 35.721 51.1973C42.1551 55.5531 45.4755 57.7479 52.1288 62.0581C52.4067 62.2382 52.4718 62.5966 52.2728 62.8542C52.0739 63.1119 51.6825 63.1747 51.404 62.9943Z" fill="#AAADD4"/>
    <path d="M40.0228 76.6519C33.0658 72.2201 29.5844 69.9647 23.0072 65.5921C22.7325 65.4094 22.6965 65.0631 22.9255 64.8217C23.1545 64.5803 23.5648 64.5319 23.839 64.7145C30.4038 69.0867 33.8735 71.3387 40.808 75.7637C41.0977 75.9485 41.159 76.2999 40.9435 76.5443C40.728 76.7888 40.3134 76.8371 40.0228 76.6519Z" fill="#AAADD4"/>
    <path d="M38.0727 78.8291C31.0586 74.381 27.5471 72.1176 20.9375 67.7449C20.6614 67.5624 20.6272 67.2168 20.8597 66.9766C21.0922 66.7364 21.5065 66.6889 21.782 66.8715C28.3781 71.2442 31.8772 73.5045 38.8677 77.9462C39.1597 78.1317 39.2207 78.4824 39.0026 78.7253C38.7844 78.9683 38.3656 79.0148 38.0727 78.8291Z" fill="#AAADD4"/>
    <path d="M33.3728 79.27C27.401 75.4815 24.431 73.5699 18.7982 69.8639C18.5421 69.6953 18.5121 69.3771 18.73 69.1562C18.7564 69.1293 18.7696 69.116 18.796 69.0893C19.0138 68.8682 19.3999 68.825 19.6555 68.9936C25.2759 72.7002 28.2357 74.6097 34.1871 78.3938C34.4577 78.5658 34.5111 78.8888 34.3048 79.1115C34.2798 79.1384 34.2673 79.1519 34.2423 79.1788C34.036 79.4013 33.6443 79.4423 33.3728 79.27Z" fill="#AAADD4"/>
    <path d="M69.0741 88.7006C63.5395 85.3312 60.6689 83.5612 54.9194 79.9615C54.6564 79.7969 54.5933 79.4739 54.7789 79.2437C54.8031 79.2138 54.8152 79.1988 54.8392 79.1689C55.0248 78.9386 55.391 78.8846 55.6533 79.049C61.387 82.6423 64.2502 84.4092 69.7783 87.7762C70.0311 87.9303 70.0926 88.2472 69.9149 88.4806C69.8918 88.511 69.8802 88.5262 69.8571 88.5566C69.6795 88.7899 69.3272 88.8547 69.0741 88.7006Z" fill="#AAADD4"/>
    <path d="M67.2898 90.9372C60.6639 86.9095 57.1836 84.7643 50.2556 80.415C49.9663 80.2334 49.899 79.882 50.1058 79.634C50.3125 79.386 50.7174 79.3313 51.0059 79.5126C57.9129 83.8543 61.3828 85.9954 67.9998 90.0207C68.2761 90.1888 68.3424 90.5325 68.1474 90.7846C67.9522 91.0366 67.5665 91.1055 67.2898 90.9372Z" fill="#AAADD4"/>
    <path d="M65.5327 93.1807C58.8831 89.1475 55.3759 86.9925 48.3943 82.6253C48.1028 82.4429 48.0357 82.0923 48.2447 81.846C48.4538 81.5997 48.8623 81.5471 49.153 81.7293C56.1125 86.0892 59.6086 88.2404 66.2482 92.2714C66.5255 92.4398 66.5912 92.7819 66.3947 93.0321C66.1981 93.2822 65.8105 93.3491 65.5327 93.1807Z" fill="#AAADD4"/>
    <path d="M63.7613 95.4066C57.0853 91.3693 53.5498 89.2049 46.5118 84.821C46.2178 84.6379 46.1507 84.2879 46.3621 84.0432C46.5736 83.7986 46.9859 83.7479 47.2789 83.9307C54.2937 88.308 57.8175 90.4686 64.4825 94.5044C64.7608 94.6729 64.8261 95.0137 64.628 95.2618C64.4299 95.5099 64.0402 95.5752 63.7613 95.4066Z" fill="#AAADD4"/>
    <path d="M59.3681 96.0411C53.6011 92.5518 50.585 90.7083 44.5673 86.9778C44.2936 86.8082 44.2315 86.4857 44.4289 86.2611C44.4528 86.2339 44.4648 86.2202 44.4887 86.1931C44.686 85.9685 45.0703 85.9233 45.343 86.0927C51.3401 89.8181 54.3459 91.6587 60.1002 95.1462C60.3618 95.3048 60.4238 95.6202 60.2383 95.8476C60.2158 95.8751 60.2046 95.8888 60.182 95.9164C59.9964 96.1434 59.6303 96.1998 59.3681 96.0411Z" fill="#AAADD4"/>
    <path d="M72.0205 85.6856C65.26 81.5687 61.7376 79.3873 54.7285 74.9589C58.2887 70.4854 60.018 68.2066 63.3745 63.5046C70.1882 67.832 73.6121 69.9584 80.3368 74.0418C77.0766 78.814 75.4135 81.1357 72.0205 85.6856Z" stroke="#AAADD4" stroke-width="8.1417" stroke-miterlimit="10"/>
    <path d="M64.2008 75.2853C62.9224 76.0299 62.2795 76.3983 60.9849 77.1275C60.3472 76.7289 60.028 76.529 59.3892 76.1283C63.5668 73.8492 65.6079 72.6725 69.6261 70.2293C70.3556 70.6836 70.7201 70.9101 71.4483 71.3615C70.6254 75.7906 70.1997 77.9748 69.3193 82.2909C68.6714 81.893 68.3467 81.6933 67.6958 81.2924C67.9757 79.9354 68.1143 79.2543 68.3888 77.8868C66.7198 76.855 65.8814 76.3343 64.2008 75.2853ZM68.6976 76.8439C68.9464 75.5887 69.0697 74.9589 69.314 73.6946C69.4528 72.9775 69.6401 72.3624 69.8178 71.76C69.8042 71.7515 69.7974 71.7473 69.7837 71.7388C69.2494 72.138 68.6863 72.5377 68.0862 72.9135C66.9161 73.6098 66.3282 73.9544 65.1454 74.637C66.57 75.5256 67.2809 75.9672 68.6976 76.8439Z" fill="#AAADD4"/>
    <path d="M36.7065 48.605C40.4807 51.1682 42.3976 52.452 46.2571 55.0045C46.2325 51.2689 46.2187 49.3884 46.1603 45.5754C42.4218 46.8386 40.5288 47.4395 36.7065 48.605Z" fill="#C5C8E2"/>
    <path d="M42.6704 52.6208C47.7317 56.0006 50.3051 57.6892 55.4593 61.0172C55.8092 55.4369 55.9809 52.6191 56.2592 46.854C50.9446 49.3028 48.2276 50.4442 42.6704 52.6208Z" fill="#C5C8E2"/>
    <path d="M49.3109 43.6492C48.7202 44.4953 47.5544 44.7182 46.716 44.1545C45.8777 43.5909 45.6856 42.4547 46.2776 41.6092C46.8695 40.7638 48.0208 40.5289 48.8578 41.0919C49.6949 41.655 49.9015 42.8033 49.3109 43.6492Z" fill="#C5C8E2"/>
    <path d="M102.078 50.1721C101.423 51.3111 100.351 53.159 98.9611 55.5113L47.0015 21.8033C49.7709 17.8734 51.4061 15.3941 51.4061 15.3941L101.569 48.0809C102.268 48.5366 102.495 49.4488 102.078 50.1721Z" fill="url(#paint7_linear_1_1133)"/>
    <path d="M57.1181 20.687L60.1979 22.6837L58.6985 25.2412L55.6211 23.1596L57.1181 20.687Z" fill="#313F87"/>
    <path d="M59.2829 22.7915L55.3496 22.826C54.5743 22.7319 53.893 22.2645 53.5286 21.5742C53.1654 20.8852 53.1628 20.0597 53.5221 19.3681L56.5293 13.5804C57.4526 11.7993 59.3484 10.778 61.3382 10.957L72.5349 12.0079C73.4866 12.098 74.3224 12.6557 74.7706 13.4992C75.2201 14.3427 75.2149 15.3473 74.7565 16.1857L73.0659 19.5074L71.6499 18.5419L73.3681 15.4285C73.5729 15.0524 73.5742 14.621 73.3733 14.2423C73.1724 13.8637 72.8131 13.6242 72.3868 13.5842L61.1914 12.5333C59.8442 12.411 58.5603 13.1039 57.9331 14.3093L54.9259 20.097C54.8036 20.3327 54.8049 20.6019 54.9285 20.8362C55.0522 21.0706 55.275 21.2225 55.5376 21.2548L57.718 21.5155L59.2829 22.7915Z" fill="url(#paint8_linear_1_1133)"/>
    <path d="M58.4767 24.2888L56.241 24.0215C55.467 23.9288 54.7857 23.4625 54.4213 22.7736C54.0568 22.0833 54.0529 21.2564 54.4136 20.5636L57.4207 14.7759C58.3467 12.9935 60.2412 11.9773 62.2309 12.1538L73.4263 13.2047C74.378 13.2948 75.2139 13.8525 75.6621 14.696C76.1115 15.5396 76.1064 16.5441 75.6479 17.3825L74.1617 20.1051L72.7735 19.3478L74.2596 16.6253C74.4644 16.2492 74.4657 15.8165 74.2648 15.4391C74.0639 15.0605 73.7046 14.821 73.2783 14.781L62.0829 13.7302C60.7357 13.6079 59.453 14.2994 58.8246 15.5049L55.8174 21.2926C55.6951 21.5282 55.6963 21.7987 55.82 22.0331C55.9436 22.2662 56.1664 22.4194 56.4292 22.4503L59.2831 22.7916L58.4767 24.2888Z" fill="url(#paint9_linear_1_1133)"/>
    <path d="M67.0312 27.1196L70.111 29.1164L68.6116 31.6739L65.5342 29.5923L67.0312 27.1196Z" fill="#313F87"/>
    <path d="M69.1955 29.2242L65.2622 29.2587C64.4869 29.1646 63.8056 28.6971 63.4412 28.0068C63.078 27.3178 63.0754 26.4923 63.4347 25.8007L66.4419 20.0131C67.3652 18.2319 69.261 17.2107 71.2508 17.3897L82.4475 18.4405C83.3992 18.5307 84.235 19.0883 84.6832 19.9319C85.1327 20.7754 85.1275 21.78 84.6691 22.6184L82.9785 25.94L81.5625 24.9746L83.2808 21.8611C83.4855 21.4851 83.4869 21.0536 83.286 20.675C83.0851 20.2964 82.7257 20.0569 82.2995 20.0169L71.104 18.966C69.7569 18.8437 68.4729 19.5365 67.8457 20.742L64.8386 26.5297C64.7162 26.7653 64.7175 27.0345 64.8412 27.2689C64.9648 27.5033 65.1876 27.6553 65.4503 27.6875L67.6306 27.9482L69.1955 29.2242Z" fill="url(#paint10_linear_1_1133)"/>
    <path d="M68.3893 30.7215L66.1536 30.4542C65.3797 30.3614 64.6984 29.8952 64.3339 29.2062C63.9694 28.5159 63.9656 27.6891 64.3262 26.9962L67.3333 21.2085C68.2593 19.4262 70.1538 18.41 72.1435 18.5865L83.3389 19.6373C84.2907 19.7275 85.1265 20.2852 85.5747 21.1287C86.0241 21.9722 86.019 22.9768 85.5605 23.8152L84.0744 26.5378L82.6861 25.7805L84.1723 23.058C84.377 22.6819 84.3783 22.2492 84.1774 21.8718C83.9765 21.4932 83.6172 21.2537 83.1909 21.2137L71.9955 20.1628C70.6484 20.0405 69.3657 20.7321 68.7372 21.9375L65.7301 27.7252C65.6078 27.9609 65.609 28.2314 65.7327 28.4658C65.8563 28.6988 66.0791 28.8521 66.3418 28.883L69.1957 29.2243L68.3893 30.7215Z" fill="url(#paint11_linear_1_1133)"/>
    <path d="M76.9449 33.5523L80.0246 35.549L78.5251 38.1065L75.4478 36.025L76.9449 33.5523Z" fill="#313F87"/>
    <path d="M79.1091 35.6569L75.1758 35.6913C74.4005 35.5973 73.7192 35.1299 73.3547 34.4395C72.9916 33.7505 72.989 32.925 73.3483 32.2334L76.3554 26.4457C77.2788 24.6646 79.1745 23.6433 81.1643 23.8223L92.361 24.8732C93.3128 24.9633 94.1486 25.521 94.5968 26.3646C95.0462 27.2081 95.0411 28.2127 94.5826 29.0511L92.8921 32.3727L91.4761 31.4072L93.1943 28.2938C93.3991 27.9178 93.4004 27.4863 93.1995 27.1077C92.9986 26.7291 92.6393 26.4895 92.213 26.4496L81.0175 25.3987C79.6704 25.2764 78.3864 25.9692 77.7592 27.1746L74.752 32.9623C74.6297 33.198 74.631 33.4672 74.7546 33.7016C74.8783 33.936 75.1011 34.0879 75.3638 34.1201L77.5441 34.3809L79.1091 35.6569Z" fill="url(#paint12_linear_1_1133)"/>
    <path d="M78.3029 37.1542L76.0672 36.8868C75.2932 36.7941 74.612 36.3279 74.2475 35.6389C73.883 34.9486 73.8791 34.1218 74.2398 33.4289L77.2469 27.6412C78.1729 25.8588 80.0674 24.8426 82.0571 25.0191L93.2525 26.07C94.2042 26.1601 95.0401 26.7178 95.4883 27.5614C95.9377 28.4049 95.9326 29.4094 95.4741 30.2479L93.9879 32.9704L92.5996 32.2132L94.0858 29.4906C94.2905 29.1146 94.2918 28.6818 94.091 28.3045C93.8901 27.9258 93.5307 27.6863 93.1045 27.6464L81.909 26.5955C80.5619 26.4732 79.2792 27.1647 78.6507 28.3702L75.6436 34.1578C75.5213 34.3935 75.5225 34.6639 75.6462 34.8983C75.7698 35.1314 75.9926 35.2847 76.2554 35.3156L79.1093 35.6569L78.3029 37.1542Z" fill="url(#paint13_linear_1_1133)"/>
    <path d="M86.8579 39.985L89.9377 41.9817L88.4382 44.5392L85.3608 42.4576L86.8579 39.985Z" fill="#313F87"/>
    <path d="M89.0222 42.0896L85.0889 42.124C84.3136 42.03 83.6323 41.5625 83.2678 40.8722C82.9046 40.1832 82.9021 39.3577 83.2614 38.666L86.2685 32.8783C87.1919 31.0972 89.0876 30.076 91.0774 30.2549L102.274 31.3058C103.226 31.396 104.062 31.9536 104.51 32.7972C104.959 33.6407 104.954 34.6453 104.496 35.4837L102.805 38.8053L101.389 37.8399L103.107 34.7264C103.312 34.3504 103.314 33.9189 103.113 33.5403C102.912 33.1617 102.552 32.9221 102.126 32.8822L90.9307 31.8313C89.5836 31.709 88.2996 32.4018 87.6724 33.6073L84.6653 39.395C84.5429 39.6306 84.5442 39.8998 84.6678 40.1342C84.7915 40.3685 85.0143 40.5205 85.277 40.5528L87.4573 40.8135L89.0222 42.0896Z" fill="url(#paint14_linear_1_1133)"/>
    <path d="M88.216 43.5868L85.9803 43.3195C85.2063 43.2267 84.5251 42.7605 84.1606 42.0715C83.7961 41.3812 83.7922 40.5544 84.1528 39.8615L87.16 34.0738C88.086 32.2915 89.9805 31.2753 91.9702 31.4518L103.166 32.5026C104.117 32.5928 104.953 33.1505 105.401 33.994C105.851 34.8375 105.846 35.8421 105.387 36.6805L103.901 39.4031L102.513 38.6458L103.999 35.9233C104.204 35.5472 104.205 35.1145 104.004 34.7371C103.803 34.3585 103.444 34.119 103.018 34.079L91.8222 33.0281C90.475 32.9058 89.1923 33.5974 88.5639 34.8028L85.5567 40.5905C85.4344 40.8262 85.4357 41.0967 85.5593 41.3311C85.683 41.5641 85.9058 41.7174 86.1685 41.7483L89.0224 42.0896L88.216 43.5868Z" fill="url(#paint15_linear_1_1133)"/>
    <path d="M96.7705 46.4177L99.8503 48.4144L98.3508 50.9718L95.2734 48.8903L96.7705 46.4177Z" fill="#313F87"/>
    <path d="M98.9348 48.5222L95.0015 48.5567C94.2262 48.4627 93.5449 47.9952 93.1804 47.3049C92.8172 46.6158 92.8147 45.7903 93.174 45.0987L96.1812 39.311C97.1046 37.5299 99.0003 36.5086 100.99 36.6876L112.187 37.7385C113.138 37.8286 113.974 38.3863 114.423 39.2299C114.872 40.0734 114.867 41.0779 114.408 41.9164L112.718 45.238L111.302 44.2725L113.02 41.1591C113.225 40.7831 113.226 40.3516 113.025 39.973C112.824 39.5943 112.465 39.3548 112.039 39.3149L100.843 38.264C99.4962 38.1417 98.2122 38.8345 97.585 40.0399L94.5778 45.8276C94.4555 46.0633 94.4568 46.3325 94.5804 46.5669C94.7041 46.8013 94.9269 46.9532 95.1896 46.9854L97.3699 47.2462L98.9348 48.5222Z" fill="url(#paint16_linear_1_1133)"/>
    <path d="M98.1286 50.0195L95.8929 49.7521C95.1189 49.6594 94.4376 49.1932 94.0732 48.5042C93.7087 47.8139 93.7048 46.9871 94.0655 46.2942L97.0726 40.5065C97.9986 38.7241 99.893 37.708 101.883 37.8844L113.078 38.9353C114.03 39.0255 114.866 39.5831 115.314 40.4267C115.763 41.2702 115.758 42.2748 115.3 43.1132L113.814 45.8357L112.425 45.0785L113.911 42.3559C114.116 41.9799 114.117 41.5472 113.917 41.1698C113.716 40.7912 113.356 40.5516 112.93 40.5117L101.735 39.4608C100.387 39.3385 99.1048 40.0301 98.4763 41.2355L95.4691 47.0232C95.3468 47.2589 95.3481 47.5293 95.4717 47.7637C95.5954 47.9968 95.8182 48.1501 96.0809 48.181L98.9348 48.5223L98.1286 50.0195Z" fill="url(#paint17_linear_1_1133)"/>
    <path d="M102.014 50.0824C101.353 51.2288 100.307 53.0327 98.9615 55.3089C91.2482 68.3392 73.6596 97.0329 62.4957 107.18C61.4521 108.129 59.911 108.246 58.7168 107.495L4.67922 73.538C4.00843 73.1166 3.67391 72.4352 3.63364 71.7392C3.60852 72.5063 3.94159 73.2767 4.67922 73.7404L58.7168 107.698C59.911 108.448 61.4521 108.331 62.4957 107.383C73.6596 97.2353 91.2482 68.5416 98.9615 55.5113C100.307 53.2352 101.353 51.4312 102.014 50.2848C102.159 50.0329 102.208 49.7621 102.216 49.4915C102.185 49.6935 102.122 49.8941 102.014 50.0824Z" fill="white"/>
    <g opacity="0.25">
        <path opacity="0.0196" d="M40.3846 76.2153C54.2137 63.2231 63.3245 50.4557 60.7343 47.6987C58.144 44.9416 44.8336 53.2388 31.0045 66.231C17.1755 79.2233 8.06466 91.9906 10.6549 94.7477C13.2452 97.5048 26.5556 89.2076 40.3846 76.2153Z" fill="#0F0A26"/>
        <path opacity="0.0392" d="M40.1139 76.3904C53.7593 63.5707 62.7491 50.973 60.1932 48.2525C57.6374 45.5321 44.5038 53.7191 30.8584 66.5388C17.2131 79.3584 8.22328 91.9562 10.7791 94.6766C13.335 97.3971 26.4686 89.21 40.1139 76.3904Z" fill="#0F0A26"/>
        <path opacity="0.0588" d="M39.8432 76.5655C53.3048 63.9185 62.1736 51.4903 59.6522 48.8065C57.1307 46.1227 44.1739 54.1994 30.7123 66.8465C17.2507 79.4935 8.38192 91.9217 10.9034 94.6055C13.4248 97.2893 26.3816 89.2126 39.8432 76.5655Z" fill="#0F0A26"/>
        <path opacity="0.0784" d="M39.5725 76.7406C52.8504 64.2661 61.5982 52.0076 59.1111 49.3604C56.6241 46.7132 43.8441 54.6797 30.5662 67.1542C17.2883 79.6287 8.54055 91.8872 11.0276 94.5344C13.5146 97.1816 26.2946 89.2151 39.5725 76.7406Z" fill="#0F0A26"/>
        <path opacity="0.098" d="M39.3017 76.9157C52.3959 64.6139 61.0226 52.5249 58.57 49.9144C56.1174 47.3038 43.5142 55.1601 30.4201 67.462C17.3259 79.7638 8.69917 91.8527 11.1518 94.4633C13.6044 97.0739 26.2076 89.2176 39.3017 76.9157Z" fill="#0F0A26"/>
        <path opacity="0.1176" d="M39.0306 77.0909C51.9411 64.9616 60.4468 53.0423 58.0286 50.4683C55.6103 47.8943 43.184 55.6404 30.2735 67.7697C17.363 79.899 8.85733 91.8183 11.2755 94.3923C13.6938 96.9662 26.1201 89.2201 39.0306 77.0909Z" fill="#0F0A26"/>
        <path opacity="0.1373" d="M38.7598 77.2659C51.4866 65.3093 59.8712 53.5596 57.4874 51.0222C55.1036 48.4849 42.8541 56.1208 30.1273 68.0774C17.4006 80.0341 9.01595 91.7838 11.3997 94.3211C13.7836 96.8585 26.0331 89.2226 38.7598 77.2659Z" fill="#0F0A26"/>
        <path opacity="0.1569" d="M38.4891 77.441C51.0322 65.6569 59.2958 54.0768 56.9464 51.5761C54.597 49.0754 42.5243 56.6011 29.9812 68.3851C17.4382 80.1692 9.17457 91.7493 11.524 94.25C13.8733 96.7507 25.946 89.2251 38.4891 77.441Z" fill="#0F0A26"/>
        <path opacity="0.1765" d="M38.2183 77.6161C50.5777 66.0046 58.7203 54.5941 56.4053 52.1301C54.0903 49.666 42.1945 57.0814 29.8351 68.6929C17.4758 80.3044 9.3332 91.7149 11.6482 94.1789C13.9631 96.643 25.859 89.2276 38.2183 77.6161Z" fill="#0F0A26"/>
        <path opacity="0.1961" d="M37.9477 77.7912C50.1234 66.3523 58.1449 55.1114 55.8643 52.684C53.5837 50.2565 41.8647 57.5617 29.689 69.0006C17.5134 80.4395 9.49184 91.6804 11.7724 94.1078C14.053 96.5353 25.7721 89.2301 37.9477 77.7912Z" fill="#0F0A26"/>
        <path opacity="0.2157" d="M37.6764 77.9663C49.6684 66.7 57.5689 55.6288 55.3227 53.2379C53.0765 50.8471 41.5343 58.0421 29.5424 69.3084C17.5505 80.5746 9.64998 91.6459 11.8961 94.0367C14.1423 96.4276 25.6845 89.2326 37.6764 77.9663Z" fill="#0F0A26"/>
        <path opacity="0.2353" d="M37.4062 78.1414C49.2144 67.0477 56.9939 56.146 54.7822 53.7918C52.5704 51.4376 41.205 58.5224 29.3968 69.6161C17.5886 80.7098 9.80908 91.6115 12.0208 93.9656C14.2326 96.3198 25.598 89.2351 37.4062 78.1414Z" fill="#0F0A26"/>
        <path opacity="0.2549" d="M37.135 78.3165C48.7595 67.3954 56.418 56.6634 54.2406 54.3458C52.0633 52.0282 40.8747 59.0027 29.2502 69.9238C17.6257 80.8449 9.96723 91.577 12.1446 93.8945C14.3219 96.2121 25.5105 89.2376 37.135 78.3165Z" fill="#0F0A26"/>
        <path opacity="0.2745" d="M36.8643 78.4916C48.3051 67.7431 55.8425 57.1806 53.6996 54.8997C51.5566 52.6187 40.5449 59.483 29.1041 70.2315C17.6633 80.98 10.1259 91.5425 12.2688 93.8235C14.4117 96.1044 25.4235 89.2401 36.8643 78.4916Z" fill="#0F0A26"/>
        <path opacity="0.2941" d="M36.5935 78.6666C47.8506 68.0907 55.267 57.6979 53.1585 55.4536C51.05 53.2093 40.215 59.9633 28.9579 70.5392C17.7009 81.1151 10.2845 91.508 12.393 93.7523C14.5015 95.9966 25.3365 89.2425 36.5935 78.6666Z" fill="#0F0A26"/>
        <path opacity="0.3137" d="M36.3229 78.8418C47.3963 68.4385 54.6916 58.2152 52.6175 56.0075C50.5434 53.7998 39.8852 60.4436 28.8118 70.847C17.7385 81.2503 10.4431 91.4735 12.5173 93.6813C14.5914 95.889 25.2495 89.2451 36.3229 78.8418Z" fill="#0F0A26"/>
        <path opacity="0.3333" d="M36.0521 79.0169C46.9418 68.7862 54.1161 58.7326 52.0764 56.5615C50.0367 54.3904 39.5553 60.924 28.6657 71.1547C17.776 81.3854 10.6018 91.4391 12.6415 93.6102C14.6812 95.7813 25.1625 89.2476 36.0521 79.0169Z" fill="#0F0A26"/>
        <path opacity="0.3529" d="M35.7809 79.1919C46.4869 69.1338 53.5401 59.2497 51.5349 57.1153C49.5296 54.9809 39.2251 61.4043 28.5191 71.4624C17.8132 81.5205 10.7599 91.4046 12.7652 93.539C14.7705 95.6735 25.075 89.25 35.7809 79.1919Z" fill="#0F0A26"/>
        <path opacity="0.3725" d="M35.5101 79.367C46.0324 69.4815 52.9646 59.7671 50.9937 57.6693C49.0229 55.5715 38.8952 61.8847 28.373 71.7702C17.8507 81.6557 10.9185 91.3701 12.8894 93.4679C14.8603 95.5657 24.9879 89.2526 35.5101 79.367Z" fill="#0F0A26"/>
        <path opacity="0.3922" d="M35.2395 79.5421C45.578 69.8292 52.3892 60.2844 50.4527 58.2232C48.5163 56.162 38.5654 62.3649 28.2269 72.0778C17.8884 81.7908 11.0772 91.3356 13.0136 93.3968C14.9501 95.458 24.901 89.2551 35.2395 79.5421Z" fill="#0F0A26"/>
        <path opacity="0.4118" d="M34.9687 79.7172C45.1235 70.1769 51.8137 60.8016 49.9116 58.7771C48.0096 56.7525 38.2355 62.8452 28.0807 72.3856C17.9259 81.9259 11.2358 91.3011 13.1378 93.3257C15.0399 95.3502 24.8139 89.2575 34.9687 79.7172Z" fill="#0F0A26"/>
        <path opacity="0.4314" d="M34.698 79.8923C44.6691 70.5246 51.2383 61.319 49.3706 59.331C47.503 57.3431 37.9058 63.3256 27.9347 72.6933C17.9635 82.0611 11.3944 91.2667 13.2621 93.2546C15.1297 95.2426 24.7269 89.2601 34.698 79.8923Z" fill="#0F0A26"/>
        <path opacity="0.451" d="M34.4273 80.0674C44.2147 70.8723 50.6628 61.8363 48.8295 59.8849C46.9963 57.9336 37.5759 63.8059 27.7885 73.001C18.0011 82.1961 11.553 91.2321 13.3863 93.1835C15.2196 95.1348 24.6399 89.2625 34.4273 80.0674Z" fill="#0F0A26"/>
        <path opacity="0.4706" d="M34.1561 80.2425C43.7598 71.22 50.0869 62.3536 48.288 60.4389C46.4892 58.5242 37.2456 64.2862 27.6419 73.3088C18.0383 82.3313 11.7112 91.1977 13.51 93.1124C15.3089 95.0271 24.5524 89.2651 34.1561 80.2425Z" fill="#0F0A26"/>
        <path opacity="0.4902" d="M33.8853 80.4176C43.3053 71.5676 49.5113 62.8708 47.7469 60.9928C45.9825 59.1147 36.9158 64.7665 27.4958 73.6165C18.0758 82.4664 11.8698 91.1632 13.6342 93.0413C15.3987 94.9194 24.4654 89.2675 33.8853 80.4176Z" fill="#0F0A26"/>
        <path opacity="0.5098" d="M33.6147 80.5927C42.851 71.9154 48.936 63.3882 47.2059 61.5467C45.4759 59.7053 36.586 65.2469 27.3497 73.9242C18.1134 82.6016 12.0284 91.1288 13.7585 92.9702C15.4885 94.8117 24.3784 89.2701 33.6147 80.5927Z" fill="#0F0A26"/>
        <path opacity="0.5294" d="M33.3439 80.7678C42.3965 72.263 48.3604 63.9055 46.6648 62.1006C44.9692 60.2958 36.2561 65.7272 27.2036 74.2319C18.151 82.7367 12.1871 91.0943 13.8827 92.8991C15.5783 94.7039 24.2914 89.2726 33.3439 80.7678Z" fill="#0F0A26"/>
        <path opacity="0.549" d="M33.0732 80.9429C41.942 72.6107 47.785 64.4228 46.1238 62.6546C44.4626 60.8864 35.9263 66.2075 27.0575 74.5397C18.1886 82.8719 12.3457 91.0599 14.0069 92.8281C15.6681 94.5963 24.2044 89.2751 33.0732 80.9429Z" fill="#0F0A26"/>
        <path opacity="0.5686" d="M32.8024 81.118C41.4875 72.9584 47.2095 64.9401 45.5827 63.2085C43.9559 61.4769 35.5964 66.6879 26.9113 74.8474C18.2262 83.007 12.5043 91.0254 14.1311 92.7569C15.7579 94.4885 24.1173 89.2775 32.8024 81.118Z" fill="#0F0A26"/>
        <path opacity="0.5882" d="M32.5313 81.2931C41.0327 73.3061 46.6336 65.4574 45.0412 63.7624C43.4488 62.0675 35.2662 67.1682 26.7647 75.1552C18.2633 83.1421 12.6625 90.9909 14.2549 92.6859C15.8472 94.3808 24.0299 89.2801 32.5313 81.2931Z" fill="#0F0A26"/>
        <path opacity="0.6078" d="M32.2605 81.4682C40.5782 73.6538 46.058 65.9747 44.5001 64.3163C42.9421 62.658 34.9363 67.6485 26.6186 75.4629C18.3009 83.2773 12.8211 90.9564 14.3791 92.6147C15.937 94.273 23.9428 89.2826 32.2605 81.4682Z" fill="#0F0A26"/>
        <path opacity="0.6275" d="M31.9898 81.6432C40.1238 74.0014 45.4826 66.4919 43.9591 64.8702C42.4355 63.2485 34.6065 68.1288 26.4725 75.7706C18.3385 83.4124 12.9797 90.9219 14.5033 92.5436C16.0268 94.1653 23.8558 89.285 31.9898 81.6432Z" fill="#0F0A26"/>
        <path opacity="0.6471" d="M31.7191 81.8184C39.6694 74.3492 44.9071 67.0093 43.418 65.4242C41.9288 63.8391 34.2766 68.6091 26.3264 76.0783C18.3761 83.5475 13.1384 90.8874 14.6275 92.4725C16.1167 94.0576 23.7689 89.2876 31.7191 81.8184Z" fill="#0F0A26"/>
        <path opacity="0.6667" d="M31.4484 81.9935C39.215 74.6969 44.3317 67.5266 42.877 65.9781C41.4222 64.4297 33.9469 69.0895 26.1803 76.3861C18.4137 83.6827 13.297 90.853 14.7517 92.4015C16.2065 93.9499 23.6818 89.2901 31.4484 81.9935Z" fill="#0F0A26"/>
        <path opacity="0.6863" d="M31.1776 82.1686C38.7605 75.0446 43.7562 68.0439 42.3358 66.532C40.9155 65.0202 33.617 69.5698 26.0341 76.6938C18.4513 83.8178 13.4556 90.8185 14.8759 92.3303C16.2963 93.8421 23.5948 89.2926 31.1776 82.1686Z" fill="#0F0A26"/>
        <path opacity="0.7059" d="M30.9065 82.3437C38.3056 75.3923 43.1803 68.5612 41.7944 67.086C40.4084 65.6108 33.2867 70.0501 25.8876 77.0015C18.4884 83.953 13.6138 90.7841 14.9997 92.2593C16.3856 93.7345 23.5074 89.2952 30.9065 82.3437Z" fill="#0F0A26"/>
        <path opacity="0.7255" d="M30.6357 82.5188C37.8511 75.74 42.6048 69.0785 41.2533 67.6399C39.9017 66.2013 32.9568 70.5304 25.7414 77.3093C18.526 84.0881 13.7724 90.7496 15.1239 92.1881C16.4754 93.6267 23.4203 89.2976 30.6357 82.5188Z" fill="#0F0A26"/>
        <path opacity="0.7451" d="M30.365 82.6938C37.3967 76.0876 42.0293 69.5957 40.7122 68.1938C39.3951 66.7918 32.6271 71.0108 25.5953 77.617C18.5636 84.2232 13.931 90.7151 15.2481 92.117C16.5652 93.519 23.3333 89.3001 30.365 82.6938Z" fill="#0F0A26"/>
        <path opacity="0.7647" d="M30.0942 82.869C36.9422 76.4353 41.4538 70.1131 40.1711 68.7478C38.8884 67.3825 32.2972 71.4911 25.4492 77.9248C18.6012 84.3584 14.0896 90.6807 15.3723 92.046C16.655 93.4113 23.2462 89.3026 30.0942 82.869Z" fill="#0F0A26"/>
        <path opacity="0.7843" d="M29.8236 83.0441C36.4879 76.7831 40.8784 70.6304 39.6301 69.3017C38.3818 67.973 31.9674 71.9714 25.3031 78.2325C18.6388 84.4935 14.2483 90.6462 15.4966 91.9749C16.7449 93.3036 23.1593 89.3052 29.8236 83.0441Z" fill="#0F0A26"/>
        <path opacity="0.8039" d="M29.5528 83.2191C36.0334 77.1307 40.3029 71.1476 39.089 69.8555C37.8751 68.5635 31.6375 72.4517 25.157 78.5401C18.6764 84.6286 14.4069 90.6116 15.6208 91.9037C16.8347 93.1958 23.0722 89.3075 29.5528 83.2191Z" fill="#0F0A26"/>
        <path opacity="0.8235" d="M29.2821 83.3942C35.579 77.4783 39.7275 71.6649 38.548 70.4094C37.3685 69.154 31.3077 72.932 25.0109 78.8479C18.714 84.7637 14.5655 90.5772 15.745 91.8326C16.9245 93.088 22.9852 89.31 29.2821 83.3942Z" fill="#0F0A26"/>
        <path opacity="0.8431" d="M29.0109 83.5694C35.1241 77.8261 39.1515 72.1823 38.0064 70.9635C36.8614 69.7446 30.9774 73.4124 24.8642 79.1556C18.7511 84.8989 14.7237 90.5427 15.8687 91.7616C17.0138 92.9804 22.8978 89.3126 29.0109 83.5694Z" fill="#0F0A26"/>
        <path opacity="0.8627" d="M28.7402 83.7445C34.6696 78.1738 38.576 72.6995 37.4654 71.5173C36.3547 70.3351 30.6476 73.8927 24.7182 79.4634C18.7887 85.034 14.8823 90.5083 15.993 91.6905C17.1036 92.8727 22.8107 89.3151 28.7402 83.7445Z" fill="#0F0A26"/>
        <path opacity="0.8824" d="M28.4694 83.9196C34.2152 78.5215 38.0005 73.2169 36.9243 72.0713C35.848 70.9258 30.3177 74.3731 24.572 79.7711C18.8263 85.1692 15.0409 90.4738 16.1172 91.6194C17.1934 92.7649 22.7237 89.3176 28.4694 83.9196Z" fill="#0F0A26"/>
        <path opacity="0.902" d="M28.1988 84.0947C33.7608 78.8692 37.4251 73.7341 36.3833 72.6252C35.3414 71.5162 29.9879 74.8533 24.4259 80.0788C18.8639 85.3043 15.1996 90.4393 16.2414 91.5483C17.2833 92.6572 22.6368 89.3201 28.1988 84.0947Z" fill="#0F0A26"/>
        <path opacity="0.9216" d="M27.9275 84.2698C33.3058 79.2169 36.8491 74.2515 35.8417 73.1792C34.8343 72.1068 29.6576 75.3337 24.2793 80.3866C18.901 85.4394 15.3577 90.4049 16.3651 91.4772C17.3726 92.5495 22.5492 89.3226 27.9275 84.2698Z" fill="#0F0A26"/>
        <path opacity="0.9412" d="M27.6573 84.4448C32.8519 79.5646 36.2742 74.7687 35.3011 73.733C34.3281 72.6974 29.3283 75.814 24.1337 80.6943C18.9391 85.5746 15.5168 90.3704 16.4898 91.4061C17.4628 92.4418 22.4627 89.3251 27.6573 84.4448Z" fill="#0F0A26"/>
        <path opacity="0.9608" d="M27.386 84.6199C32.3969 79.9122 35.6981 75.286 34.7595 74.287C33.8209 73.2879 28.9979 76.2943 23.9871 81.002C18.9762 85.7097 15.6749 90.3359 16.6135 91.3349C17.5521 92.334 22.3751 89.3276 27.386 84.6199Z" fill="#0F0A26"/>
        <path opacity="0.9804" d="M27.1154 84.7951C31.9426 80.26 35.1228 75.8033 34.2186 74.8409C33.3144 73.8785 28.6682 76.7747 23.841 81.3097C19.0138 85.8448 15.8336 90.3015 16.7378 91.2639C17.642 92.2263 22.2882 89.3301 27.1154 84.7951Z" fill="#0F0A26"/>
        <path d="M26.8446 84.9702C31.4881 80.6077 34.5472 76.3207 33.6774 75.3949C32.8077 74.4691 28.3383 77.255 23.6948 81.6175C19.0514 85.98 15.9922 90.267 16.862 91.1928C17.7318 92.1186 22.2012 89.3326 26.8446 84.9702Z" fill="#0F0A26"/>
    </g>
    <path d="M11.2198 57.7031C11.2198 57.7031 0.454345 63.6444 0.0581055 70.9653L11.2198 97.1136L22.3816 70.9653C21.9851 63.6444 11.2198 57.7031 11.2198 57.7031Z" fill="url(#paint18_linear_1_1133)"/>
    <path d="M0.142191 20.2277C0.152037 20.1108 0.159297 19.9939 0.179936 19.8773C0.196977 19.7816 0.225376 19.6865 0.249739 19.5912C0.278204 19.4797 0.304712 19.3681 0.343276 19.2575C0.375086 19.1663 0.417374 19.0763 0.456001 18.9858C0.505799 18.8689 0.555473 18.7521 0.616822 18.6366C0.661129 18.553 0.71446 18.4708 0.764826 18.3881C0.844793 18.2568 0.929304 18.1261 1.02442 17.9974C1.08059 17.9212 1.14182 17.8462 1.20329 17.771C1.34511 17.5977 1.50221 17.4276 1.67211 17.2604C1.73434 17.1992 1.79108 17.1367 1.85704 17.0766C1.96314 16.9798 2.08148 16.8862 2.19749 16.7919C2.29993 16.7086 2.39845 16.6242 2.50852 16.5431C2.63507 16.4499 2.77455 16.3607 2.9112 16.2707C3.05005 16.1791 3.18165 16.0852 3.33098 15.9972C3.81362 15.7126 4.3407 15.4705 4.88388 15.2482C5.02645 15.1898 5.17143 15.1347 5.31748 15.0807C5.65483 14.956 6.00935 14.8558 6.36305 14.7539C6.73 14.6484 7.10011 14.5489 7.48108 14.468C7.92484 14.3737 8.3724 14.2875 8.82961 14.2269C8.94195 14.212 9.05234 14.1908 9.16538 14.178C9.7843 14.1075 10.4115 14.0706 11.0396 14.0612C11.1395 14.0597 11.2394 14.0578 11.3393 14.0579C11.9594 14.0581 12.5789 14.0882 13.1917 14.148C13.2848 14.1571 13.3775 14.1669 13.4703 14.1774C14.0797 14.2461 14.6803 14.3449 15.2665 14.473C15.3731 14.4964 15.4778 14.5233 15.5832 14.5486C16.1159 14.6762 16.6326 14.831 17.1325 15.0087C17.224 15.0413 17.3209 15.0667 17.4111 15.1008C18.0112 15.3285 18.5848 15.5897 19.116 15.8919C21.3247 17.1484 22.4343 18.8106 22.4401 20.4771L22.3235 6.4235C22.3176 4.75693 21.208 3.09478 18.9994 1.83828C18.4946 1.55104 17.9542 1.2975 17.3867 1.07767C17.357 1.06625 17.3245 1.05855 17.2948 1.04725C17.204 1.01285 17.1073 0.987605 17.0152 0.954848C16.6914 0.839662 16.3685 0.723278 16.0304 0.629299C15.8463 0.578112 15.6548 0.53999 15.4671 0.494989C15.3609 0.469617 15.257 0.442792 15.1498 0.419313C15.0543 0.398422 14.9624 0.371029 14.8661 0.351715C14.502 0.278691 14.1326 0.216964 13.7596 0.166535C13.6254 0.148358 13.4888 0.139016 13.3538 0.123806C13.2607 0.113328 13.1687 0.103672 13.0753 0.0945207C12.9414 0.0814557 12.8089 0.0624571 12.6743 0.0522324C12.3093 0.0244615 11.9423 0.00723049 11.5748 0.000477121C11.4574 -0.00173192 11.3403 0.0044537 11.2229 0.00432746C11.1225 0.00432746 11.0236 0.00609482 10.9232 0.0076096C10.7592 0.0101342 10.595 0.00641031 10.4313 0.0130374C10.0167 0.0298262 9.60347 0.0599323 9.19353 0.103356C9.14474 0.108531 9.09753 0.118883 9.04881 0.124437C8.93551 0.137376 8.82626 0.158393 8.71354 0.173288C8.39727 0.215197 8.07935 0.253003 7.76895 0.311007C7.62972 0.337073 7.50229 0.385231 7.36451 0.414454C6.9824 0.495557 6.61463 0.594396 6.24654 0.700367C6.05296 0.756098 5.84563 0.788538 5.65673 0.851149C5.49969 0.903219 5.35459 0.970312 5.20122 1.02712C5.05441 1.0814 4.91044 1.13599 4.7673 1.19462C4.22375 1.41692 3.69724 1.6589 3.21447 1.94362C3.16877 1.97063 3.12339 1.99783 3.07871 2.02516C2.97772 2.08676 2.8917 2.15335 2.79563 2.21666C2.65848 2.30704 2.51868 2.39628 2.39163 2.48988C2.28238 2.57036 2.1848 2.65405 2.083 2.73679C1.96611 2.83178 1.84707 2.92601 1.74009 3.02365C1.71857 3.04328 1.69225 3.06158 1.6711 3.08134C1.62781 3.1218 1.59801 3.16535 1.55642 3.20625C1.38607 3.37375 1.22892 3.54391 1.08678 3.71767C1.0556 3.75573 1.01363 3.79151 0.983773 3.82983C0.95474 3.86725 0.935617 3.90626 0.907972 3.94394C0.812794 4.07282 0.72841 4.20322 0.648379 4.33469C0.614739 4.38998 0.570053 4.4435 0.539064 4.49917C0.523663 4.52687 0.515079 4.5554 0.50031 4.58317C0.439025 4.69874 0.38935 4.81544 0.339489 4.93233C0.310582 5.00012 0.271136 5.06677 0.246079 5.13499C0.237685 5.15784 0.234717 5.18113 0.226764 5.20404C0.1882 5.31481 0.161692 5.42627 0.133227 5.5378C0.113851 5.61322 0.0845655 5.68801 0.0699227 5.76375C0.0660096 5.78376 0.0669584 5.80396 0.0634239 5.82396C0.0427851 5.94009 0.0355263 6.05654 0.0258065 6.17299C0.0193056 6.24999 0.00257877 6.32674 0.000874647 6.40381C0.000180376 6.43644 -0.000135233 6.46907 5.41136e-05 6.50176L0.116628 20.5554C0.116123 20.4459 0.13304 20.3369 0.142191 20.2277Z" fill="url(#paint19_linear_1_1133)"/>
    <path d="M3.44024 25.1352C-0.948688 22.6383 -0.997667 18.5495 3.33067 15.9971C7.65901 13.4447 14.7268 13.3948 19.1157 15.8917C23.5046 18.3886 23.5538 22.4874 19.2254 25.0398C14.897 27.5921 7.82917 27.6322 3.44024 25.1352Z" fill="url(#paint20_linear_1_1133)"/>
    <path d="M0.142191 27.907C0.152037 27.7901 0.159297 27.6732 0.179936 27.5567C0.196977 27.4609 0.225376 27.3659 0.249739 27.2705C0.278204 27.159 0.304712 27.0475 0.343276 26.9368C0.375086 26.8456 0.417374 26.7556 0.456001 26.665C0.505799 26.5482 0.555473 26.4314 0.616822 26.3159C0.661129 26.2323 0.71446 26.1501 0.764826 26.0674C0.844793 25.9361 0.929304 25.8054 1.02442 25.6767C1.08059 25.6005 1.14182 25.5255 1.20329 25.4503C1.34511 25.2769 1.50221 25.1068 1.67211 24.9397C1.73434 24.8785 1.79108 24.816 1.85704 24.7558C1.96314 24.659 2.08148 24.5654 2.19749 24.4711C2.29993 24.3878 2.39845 24.3034 2.50852 24.2223C2.63507 24.1291 2.77455 24.0399 2.9112 23.9499C3.05005 23.8584 3.18165 23.7644 3.33098 23.6764C3.81362 23.3919 4.3407 23.1497 4.88388 22.9274C5.02645 22.869 5.17143 22.8139 5.31748 22.7599C5.65483 22.6352 6.00935 22.535 6.36305 22.4331C6.73 22.3276 7.10011 22.2281 7.48108 22.1472C7.92484 22.0529 8.3724 21.9667 8.82961 21.9061C8.94195 21.8912 9.05234 21.87 9.16538 21.8572C9.7843 21.7867 10.4115 21.7499 11.0396 21.7404C11.1395 21.7389 11.2394 21.737 11.3393 21.7371C11.9594 21.7374 12.5789 21.7674 13.1917 21.8272C13.2848 21.8363 13.3775 21.8462 13.4703 21.8566C14.0797 21.9254 14.6803 22.0242 15.2665 22.1523C15.3731 22.1756 15.4778 22.2026 15.5832 22.2278C16.1159 22.3555 16.6326 22.5103 17.1325 22.688C17.224 22.7206 17.3209 22.7459 17.4111 22.7801C18.0112 23.0078 18.5848 23.269 19.116 23.5712C21.3247 24.8277 22.4343 26.4898 22.4401 28.1564L22.3235 19.7519C22.3176 18.0852 21.208 16.4232 18.9994 15.1667C18.4946 14.8794 17.9542 14.6259 17.3867 14.406C17.357 14.3946 17.3245 14.3869 17.2948 14.3756C17.204 14.3412 17.1073 14.316 17.0152 14.2832C16.6914 14.168 16.3685 14.0516 16.0304 13.9577C15.8463 13.9065 15.6548 13.8684 15.4671 13.8234C15.3609 13.798 15.257 13.7712 15.1498 13.7477C15.0543 13.7268 14.9624 13.6993 14.8661 13.68C14.502 13.607 14.1326 13.5453 13.7596 13.4948C13.6254 13.4767 13.4888 13.4673 13.3538 13.4521C13.2607 13.4416 13.1687 13.432 13.0753 13.4228C12.9414 13.4098 12.8089 13.3908 12.6743 13.3805C12.3093 13.3528 11.9423 13.3355 11.5748 13.3287C11.4574 13.3265 11.3403 13.3327 11.2229 13.3326C11.1225 13.3326 11.0236 13.3343 10.9232 13.3359C10.7592 13.3384 10.595 13.3347 10.4313 13.3413C10.0167 13.3581 9.60347 13.3882 9.19353 13.4316C9.14474 13.4368 9.09753 13.4471 9.04881 13.4527C8.93551 13.4656 8.82626 13.4866 8.71354 13.5015C8.39727 13.5434 8.07935 13.5813 7.76895 13.6393C7.62972 13.6653 7.50229 13.7135 7.36451 13.7427C6.9824 13.8238 6.61463 13.9226 6.24654 14.0286C6.05296 14.0843 5.84563 14.1168 5.65673 14.1794C5.49969 14.2315 5.35459 14.2986 5.20122 14.3554C5.05441 14.4096 4.91044 14.4642 4.7673 14.5229C4.22375 14.7452 3.69724 14.9872 3.21447 15.2719C3.16877 15.2989 3.12339 15.3261 3.07871 15.3534C2.97772 15.415 2.8917 15.4816 2.79563 15.5449C2.65848 15.6353 2.51868 15.7245 2.39163 15.8181C2.28238 15.8986 2.1848 15.9823 2.083 16.065C1.96611 16.16 1.84707 16.2543 1.74009 16.3519C1.71857 16.3715 1.69225 16.3898 1.6711 16.4095C1.62781 16.45 1.59801 16.4935 1.55642 16.5344C1.38607 16.7019 1.22892 16.8721 1.08678 17.0459C1.0556 17.0839 1.01363 17.1197 0.983773 17.158C0.95474 17.1954 0.935617 17.2344 0.907972 17.2721C0.812794 17.401 0.72841 17.5314 0.648379 17.6629C0.614739 17.7182 0.570053 17.7717 0.539064 17.8274C0.523663 17.8551 0.515079 17.8836 0.50031 17.9114C0.439025 18.0269 0.38935 18.1436 0.339489 18.2605C0.310582 18.3283 0.271136 18.3949 0.246079 18.4632C0.237685 18.486 0.234717 18.5093 0.226764 18.5322C0.1882 18.643 0.161692 18.7545 0.133227 18.866C0.113851 18.9414 0.0845655 19.0162 0.0699227 19.092C0.0660096 19.112 0.0669584 19.1322 0.0634239 19.1522C0.0427851 19.2683 0.0355263 19.3848 0.0258065 19.5012C0.0193056 19.5782 0.00257877 19.655 0.000874647 19.7321C0.000180376 19.7647 -0.000135233 19.7973 5.41136e-05 19.83L0.116628 28.2345C0.116123 28.1252 0.13304 28.0162 0.142191 27.907Z" fill="url(#paint21_linear_1_1133)"/>
    <path d="M3.44024 32.8146C-0.948688 30.3177 -0.997667 26.2288 3.33067 23.6764C7.65901 21.1241 14.7268 21.0741 19.1157 23.571C23.5046 26.068 23.5538 30.1667 19.2254 32.7191C14.8971 35.2714 7.82917 35.3114 3.44024 32.8146Z" fill="url(#paint22_linear_1_1133)"/>
    <path d="M22.4405 70.8814C22.4405 69.2175 21.3206 67.5535 19.1126 66.3055C18.6005 65.9855 18.0246 65.7295 17.4166 65.5055C17.3207 65.4735 17.2246 65.4416 17.1287 65.4096C16.6486 65.2497 16.1367 65.0895 15.6246 64.9616H15.5925C15.4646 64.9296 15.3685 64.8975 15.2726 64.8975C14.6646 64.7696 14.0886 64.6416 13.4806 64.5776C13.3845 64.5776 13.2886 64.5776 13.1926 64.5456C12.5846 64.5135 11.9447 64.4815 11.3367 64.4815H11.0487C10.4086 64.4815 9.76861 64.5135 9.16061 64.5776C9.06474 64.6096 8.9368 64.6096 8.84068 64.6416C8.36062 64.7055 7.91276 64.7696 7.49676 64.8654C7.27276 64.9295 7.0487 64.9936 6.8247 65.0256C6.66477 65.0894 6.50477 65.1214 6.37665 65.1535C6.02471 65.2814 5.64072 65.3775 5.32079 65.5054C5.16066 65.5375 5.03273 65.6015 4.87273 65.6654C4.3288 65.8894 3.81668 66.1134 3.33681 66.4015C3.17662 66.4974 3.04875 66.5935 2.92082 66.6893C2.76069 66.7854 2.63276 66.8495 2.50482 66.9454C2.4087 67.0415 2.31283 67.1053 2.1847 67.2015C2.08883 67.2973 1.9607 67.3935 1.86477 67.4893C1.8007 67.5534 1.73683 67.6175 1.67277 67.6813C1.51283 67.8415 1.35265 68.0015 1.19271 68.1935C1.12884 68.2573 1.06478 68.3214 1.03278 68.4174C0.936904 68.5454 0.840778 68.6733 0.776716 68.8014C0.712843 68.8653 0.648781 68.9614 0.616781 69.0573C0.552719 69.1534 0.520909 69.2813 0.456846 69.4094C0.424784 69.4733 0.360786 69.5694 0.328913 69.6653C0.296913 69.7934 0.264849 69.8893 0.264849 69.9854C0.232787 70.0813 0.200789 70.1774 0.168789 70.2733C0.168789 70.4014 0.136977 70.5294 0.136977 70.6254C0.136977 70.7534 0.104915 70.8494 0.104915 70.9774L0.00878906 28.226V28.13C0.00878906 28.0659 0.00878878 28.002 0.0408515 27.906C0.0408515 27.778 0.0408512 27.682 0.0729139 27.554C0.0729139 27.554 0.0729139 27.522 0.0729139 27.49C0.0729139 27.4261 0.104978 27.362 0.136977 27.266C0.168787 27.1701 0.200849 27.0422 0.232849 26.946C0.232849 26.914 0.232849 26.882 0.232849 26.882C0.264911 26.8181 0.296913 26.722 0.328913 26.658C0.392786 26.5621 0.424785 26.4342 0.488847 26.306C0.52091 26.306 0.520908 26.274 0.552718 26.2422C0.584781 26.1781 0.616781 26.114 0.648844 26.082C0.712906 25.9541 0.808779 25.8262 0.904904 25.666C0.936967 25.6342 0.968778 25.6022 0.968778 25.5702C1.00084 25.5381 1.0649 25.5061 1.0969 25.4422C1.22484 25.2821 1.38477 25.1221 1.54496 24.9301C1.60883 24.8981 1.64083 24.8661 1.6729 24.8342C1.70496 24.8022 1.70496 24.7702 1.73696 24.7702C1.83283 24.6741 1.96077 24.5782 2.08889 24.4821C2.18476 24.3863 2.28089 24.3222 2.37676 24.2263C2.50488 24.1302 2.66482 24.0343 2.79275 23.9382C2.88888 23.9061 2.98475 23.8103 3.08082 23.7783C3.11282 23.7462 3.17669 23.7142 3.20875 23.6821C3.68881 23.3943 4.23274 23.1702 4.77667 22.9462C4.90479 22.8821 5.06472 22.8183 5.19266 22.7542C5.3526 22.7221 5.51278 22.6263 5.64072 22.5943C5.83272 22.5302 6.05671 22.4982 6.24871 22.4343C6.44071 22.3703 6.63271 22.3383 6.8247 22.2742C6.98464 22.2424 7.17664 22.1783 7.36863 22.1463C7.49676 22.1143 7.62469 22.0822 7.78463 22.0504C8.07269 21.9863 8.39262 21.9543 8.71274 21.9223C8.84068 21.8902 8.93674 21.8902 9.03267 21.8582C9.09674 21.8582 9.1288 21.8582 9.19261 21.8264C9.6086 21.7943 10.0246 21.7624 10.4407 21.7624C10.6006 21.7303 10.7606 21.7623 10.9207 21.7303H11.5606C11.9448 21.7303 12.2967 21.7623 12.6807 21.7943C12.8086 21.7943 12.9368 21.8264 13.0647 21.8264C13.1606 21.8264 13.2567 21.8582 13.3526 21.8582C13.4807 21.8903 13.6406 21.8903 13.7686 21.8903C14.1207 21.9543 14.5047 22.0184 14.8566 22.0823C14.9525 22.1143 15.0486 22.1463 15.1447 22.1463C15.2726 22.1784 15.3685 22.2104 15.4646 22.2425C15.5287 22.2425 15.5605 22.2743 15.6245 22.2743C15.7525 22.3063 15.9126 22.3383 16.0405 22.3704C16.3605 22.4663 16.6806 22.5624 17.0005 22.6903C17.0966 22.7224 17.1924 22.7544 17.2885 22.7865C17.3206 22.7865 17.3524 22.8185 17.3844 22.8185C17.9604 23.0425 18.5045 23.2984 18.9844 23.5865C21.1923 24.8345 22.3124 26.4983 22.3124 28.1623L22.4405 70.8814Z" fill="url(#paint23_linear_1_1133)"/>
    <path d="M15.6246 22.2741V64.9616H15.5925C15.4646 64.9296 15.3685 64.8975 15.2726 64.8975C14.6646 64.7696 14.0886 64.6416 13.4806 64.5776C13.3845 64.5776 13.2886 64.5776 13.1926 64.5456C12.5846 64.5135 11.9447 64.4815 11.3367 64.4815H11.0487C10.4086 64.4815 9.76861 64.5135 9.16062 64.5776C9.06474 64.6096 8.93681 64.6096 8.84068 64.6416C8.36062 64.7055 7.91276 64.7696 7.49676 64.8654C7.27277 64.9295 7.0487 64.9936 6.82471 65.0256V22.2741C6.98464 22.2423 7.17664 22.1782 7.36864 22.1462C7.49676 22.1142 7.6247 22.0821 7.78463 22.0503C8.07269 21.9862 8.39262 21.9542 8.71275 21.9222C8.84068 21.8901 8.93674 21.8901 9.03268 21.8581C9.09674 21.8581 9.1288 21.8581 9.19261 21.8263C9.60861 21.7942 10.0246 21.7622 10.4407 21.7622C10.6006 21.7302 10.7606 21.7622 10.9207 21.7302H11.5606C11.9448 21.7302 12.2967 21.7622 12.6807 21.7942C12.8086 21.7942 12.9368 21.8263 13.0647 21.8263C13.1606 21.8263 13.2567 21.8581 13.3526 21.8581C13.4807 21.8902 13.6406 21.8902 13.7686 21.8902C14.1207 21.9542 14.5047 22.0183 14.8566 22.0822C14.9525 22.1142 15.0486 22.1462 15.1447 22.1462C15.2726 22.1783 15.3685 22.2103 15.4646 22.2423C15.5287 22.2423 15.5605 22.2741 15.6246 22.2741Z" fill="url(#paint24_linear_1_1133)"/>
    <path d="M7.55664 88.5318C9.57495 86.497 12.8649 86.497 14.8832 88.5318L11.2199 97.1136L7.55664 88.5318Z" fill="url(#paint25_linear_1_1133)"/>
    <defs>
        <linearGradient id="paint0_linear_1_1133" x1="81.9135" y1="121.502" x2="117.137" y2="38.8025" gradientUnits="userSpaceOnUse">
            <stop stop-color="#858AC2"/>
            <stop offset="1" stop-color="#E9E9F4"/>
        </linearGradient>
        <linearGradient id="paint1_linear_1_1133" x1="23.4863" y1="50.7313" x2="68.1499" y2="50.7313" gradientUnits="userSpaceOnUse">
            <stop stop-color="#F9FCFF"/>
            <stop offset="1" stop-color="#E5E5F2"/>
        </linearGradient>
        <linearGradient id="paint2_linear_1_1133" x1="104.638" y1="59.7705" x2="64.5541" y2="0.583772" gradientUnits="userSpaceOnUse">
            <stop stop-color="#F9FCFF"/>
            <stop offset="1" stop-color="#E5E5F2"/>
        </linearGradient>
        <linearGradient id="paint3_linear_1_1133" x1="72.2651" y1="76.2326" x2="91.2325" y2="96.5195" gradientUnits="userSpaceOnUse">
            <stop stop-color="#858AC2"/>
            <stop offset="1" stop-color="#E9E9F4"/>
        </linearGradient>
        <linearGradient id="paint4_linear_1_1133" x1="77.7253" y1="71.1274" x2="96.6928" y2="91.4143" gradientUnits="userSpaceOnUse">
            <stop stop-color="#F9FCFF"/>
            <stop offset="1" stop-color="#E5E5F2"/>
        </linearGradient>
        <linearGradient id="paint5_linear_1_1133" x1="92.6914" y1="39.4608" x2="21.1939" y2="86.3732" gradientUnits="userSpaceOnUse">
            <stop stop-color="#858AC2"/>
            <stop offset="1" stop-color="#E9E9F4"/>
        </linearGradient>
        <linearGradient id="paint6_linear_1_1133" x1="3.60836" y1="62.1982" x2="102.24" y2="62.1982" gradientUnits="userSpaceOnUse">
            <stop stop-color="#F9FCFF"/>
            <stop offset="1" stop-color="#E5E5F2"/>
        </linearGradient>
        <linearGradient id="paint7_linear_1_1133" x1="47.0015" y1="35.4527" x2="102.287" y2="35.4527" gradientUnits="userSpaceOnUse">
            <stop stop-color="#F58B21"/>
            <stop offset="1" stop-color="#F5B419"/>
        </linearGradient>
        <linearGradient id="paint8_linear_1_1133" x1="60.4839" y1="26.4552" x2="66.78" y2="11.5233" gradientUnits="userSpaceOnUse">
            <stop stop-color="#858AC2"/>
            <stop offset="1" stop-color="#E9E9F4"/>
        </linearGradient>
        <linearGradient id="paint9_linear_1_1133" x1="62.0129" y1="11.1872" x2="68.6068" y2="27.6081" gradientUnits="userSpaceOnUse">
            <stop stop-color="#9196C8"/>
            <stop offset="1" stop-color="#2C3C91"/>
        </linearGradient>
        <linearGradient id="paint10_linear_1_1133" x1="70.3966" y1="32.8879" x2="76.6926" y2="17.956" gradientUnits="userSpaceOnUse">
            <stop stop-color="#858AC2"/>
            <stop offset="1" stop-color="#E9E9F4"/>
        </linearGradient>
        <linearGradient id="paint11_linear_1_1133" x1="71.9255" y1="17.6199" x2="78.5194" y2="34.0408" gradientUnits="userSpaceOnUse">
            <stop stop-color="#9196C8"/>
            <stop offset="1" stop-color="#2C3C91"/>
        </linearGradient>
        <linearGradient id="paint12_linear_1_1133" x1="80.3101" y1="39.3206" x2="86.6062" y2="24.3886" gradientUnits="userSpaceOnUse">
            <stop stop-color="#858AC2"/>
            <stop offset="1" stop-color="#E9E9F4"/>
        </linearGradient>
        <linearGradient id="paint13_linear_1_1133" x1="81.8391" y1="24.0525" x2="88.433" y2="40.4734" gradientUnits="userSpaceOnUse">
            <stop stop-color="#9196C8"/>
            <stop offset="1" stop-color="#2C3C91"/>
        </linearGradient>
        <linearGradient id="paint14_linear_1_1133" x1="90.2232" y1="45.7532" x2="96.5193" y2="30.8213" gradientUnits="userSpaceOnUse">
            <stop stop-color="#858AC2"/>
            <stop offset="1" stop-color="#E9E9F4"/>
        </linearGradient>
        <linearGradient id="paint15_linear_1_1133" x1="91.7522" y1="30.4852" x2="98.3461" y2="46.9061" gradientUnits="userSpaceOnUse">
            <stop stop-color="#9196C8"/>
            <stop offset="1" stop-color="#2C3C91"/>
        </linearGradient>
        <linearGradient id="paint16_linear_1_1133" x1="100.136" y1="52.1859" x2="106.432" y2="37.254" gradientUnits="userSpaceOnUse">
            <stop stop-color="#858AC2"/>
            <stop offset="1" stop-color="#E9E9F4"/>
        </linearGradient>
        <linearGradient id="paint17_linear_1_1133" x1="101.665" y1="36.9179" x2="108.259" y2="53.3388" gradientUnits="userSpaceOnUse">
            <stop stop-color="#9196C8"/>
            <stop offset="1" stop-color="#2C3C91"/>
        </linearGradient>
        <linearGradient id="paint18_linear_1_1133" x1="22.4221" y1="77.3371" x2="0.0995027" y2="77.479" gradientUnits="userSpaceOnUse">
            <stop stop-color="#858AC2"/>
            <stop offset="0.615" stop-color="#E9E9F4"/>
            <stop offset="1" stop-color="#BDC0DE"/>
        </linearGradient>
        <linearGradient id="paint19_linear_1_1133" x1="0.338225" y1="10.3448" x2="18.1519" y2="10.2308" gradientUnits="userSpaceOnUse">
            <stop stop-color="#C43A37"/>
            <stop offset="1" stop-color="#EA5C5C"/>
        </linearGradient>
        <linearGradient id="paint20_linear_1_1133" x1="22.4396" y1="20.4445" x2="0.116443" y2="20.5874" gradientUnits="userSpaceOnUse">
            <stop stop-color="#9196C8"/>
            <stop offset="1" stop-color="#2C3C91"/>
        </linearGradient>
        <linearGradient id="paint21_linear_1_1133" x1="0.320651" y1="20.8488" x2="18.1631" y2="20.7346" gradientUnits="userSpaceOnUse">
            <stop stop-color="#858AC2"/>
            <stop offset="0.615" stop-color="#E9E9F4"/>
            <stop offset="1" stop-color="#BDC0DE"/>
        </linearGradient>
        <linearGradient id="paint22_linear_1_1133" x1="22.4396" y1="28.1238" x2="0.116452" y2="28.2667" gradientUnits="userSpaceOnUse">
            <stop stop-color="#9196C8"/>
            <stop offset="1" stop-color="#2C3C91"/>
        </linearGradient>
        <linearGradient id="paint23_linear_1_1133" x1="22.8651" y1="46.3538" x2="2.67118" y2="46.3538" gradientUnits="userSpaceOnUse">
            <stop stop-color="#9196C8"/>
            <stop offset="1" stop-color="#2C3C91"/>
        </linearGradient>
        <linearGradient id="paint24_linear_1_1133" x1="3.55319" y1="43.3779" x2="14.4775" y2="43.3779" gradientUnits="userSpaceOnUse">
            <stop stop-color="#F58B21"/>
            <stop offset="1" stop-color="#F5B419"/>
        </linearGradient>
        <linearGradient id="paint25_linear_1_1133" x1="14.9054" y1="92.0362" x2="7.57919" y2="92.0827" gradientUnits="userSpaceOnUse">
            <stop stop-color="#9196C8"/>
            <stop offset="1" stop-color="#2C3C91"/>
        </linearGradient>
    </defs>
</svg>
