<svg width="15" height="15" viewBox="0 0 15 15" fill="none" xmlns="http://www.w3.org/2000/svg">
    <path d="M14.359 12.3264H0.641026C0.286987 12.3264 0 12.6134 0 12.9675V13.0184C0 13.7942 0.62891 14.4231 1.40468 14.4231H13.5953C14.3711 14.4231 15 13.7942 15 13.0184V12.9675C15 12.6134 14.713 12.3264 14.359 12.3264Z" fill="#AC9EF9"/>
    <path d="M13.5731 3.17154H1.42716C1.07312 3.17154 0.786133 3.45853 0.786133 3.81256V12.3264H14.2141V3.81256C14.2141 3.45853 13.9271 3.17154 13.5731 3.17154Z" fill="#6262F4"/>
    <path d="M1.44092 3.82712H13.5588V12.3264H1.44092V3.82712Z" fill="white"/>
    <path d="M8.78854 13.3748H6.21155C5.92831 13.3748 5.69873 13.1452 5.69873 12.862V12.3265H9.30136V12.862C9.30136 13.1452 9.07174 13.3748 8.78854 13.3748Z" fill="#6262F4"/>
    <path d="M12.903 0.655609C12.903 0.293526 12.6097 0 12.248 0H2.7522C2.39044 0 2.09717 0.293526 2.09717 0.655609V1.91381H12.903V0.655609Z" fill="#FDBF38"/>
    <path d="M2.09717 1.91382V10.0302C2.09717 10.3923 2.39044 10.6858 2.7522 10.6858H12.248C12.6098 10.6858 12.903 10.3923 12.903 10.0302V1.91382H2.09717Z" fill="#E0E9EF"/>
    <path d="M3.34336 1.22185C3.48823 1.22185 3.60567 1.10433 3.60567 0.959354C3.60567 0.814379 3.48823 0.696854 3.34336 0.696854C3.19849 0.696854 3.08105 0.814379 3.08105 0.959354C3.08105 1.10433 3.19849 1.22185 3.34336 1.22185Z" fill="white"/>
    <path d="M4.65489 1.22184C4.79975 1.22184 4.91719 1.10431 4.91719 0.959338C4.91719 0.814364 4.79975 0.696838 4.65489 0.696838C4.51002 0.696838 4.39258 0.814364 4.39258 0.959338C4.39258 1.10431 4.51002 1.22184 4.65489 1.22184Z" fill="white"/>
    <path d="M5.96641 1.22184C6.11128 1.22184 6.22872 1.10431 6.22872 0.959338C6.22872 0.814364 6.11128 0.696838 5.96641 0.696838C5.82154 0.696838 5.7041 0.814364 5.7041 0.959338C5.7041 1.10431 5.82154 1.22184 5.96641 1.22184Z" fill="white"/>
    <path d="M10.7935 1.1196H7.33653C7.24803 1.1196 7.17627 1.04787 7.17627 0.959344C7.17627 0.870818 7.24803 0.799088 7.33653 0.799088H10.7935C10.882 0.799088 10.9538 0.870818 10.9538 0.959344C10.9538 1.04787 10.882 1.1196 10.7935 1.1196Z" fill="white"/>
    <path d="M8.56151 5.13359H6.43937C6.08533 5.13359 5.79834 5.42058 5.79834 5.77462V7.6351H9.20254V5.77462C9.20254 5.42061 8.91552 5.13359 8.56151 5.13359Z" fill="#6262F4"/>
    <path d="M7.50048 7.04027L6.93311 6.41213L7.22336 5.13361H7.77759L8.06785 6.41213L7.50048 7.04027Z" fill="#AC9EF9"/>
    <path d="M7.50015 4.40285C7.91606 4.40285 8.25322 4.06542 8.25322 3.64919C8.25322 3.23296 7.91606 2.89554 7.50015 2.89554C7.08423 2.89554 6.74707 3.23296 6.74707 3.64919C6.74707 4.06542 7.08423 4.40285 7.50015 4.40285Z" fill="#6262F4"/>
    <path d="M7.50028 9.79328C7.80812 9.79328 8.05768 9.54354 8.05768 9.23546C8.05768 8.92739 7.80812 8.67764 7.50028 8.67764C7.19243 8.67764 6.94287 8.92739 6.94287 9.23546C6.94287 9.54354 7.19243 9.79328 7.50028 9.79328Z" fill="#FDBF38"/>
    <path d="M10.1233 9.79328C10.4312 9.79328 10.6807 9.54354 10.6807 9.23546C10.6807 8.92739 10.4312 8.67764 10.1233 8.67764C9.81548 8.67764 9.56592 8.92739 9.56592 9.23546C9.56592 9.54354 9.81548 9.79328 10.1233 9.79328Z" fill="#F761A6"/>
    <path d="M4.87723 9.7933C5.18507 9.7933 5.43463 9.54355 5.43463 9.23548C5.43463 8.9274 5.18507 8.67766 4.87723 8.67766C4.56938 8.67766 4.31982 8.9274 4.31982 9.23548C4.31982 9.54355 4.56938 9.7933 4.87723 9.7933Z" fill="#35C9AD"/>
    <path d="M14.3411 2.851H10.9341C10.5719 2.851 10.2783 3.14481 10.2783 3.50728V5.14936C10.2783 5.5118 10.5719 5.80565 10.9341 5.80565H11.721V7.16103L13.2551 5.80565H14.3411C14.7033 5.80565 14.9969 5.51183 14.9969 5.14936V3.50728C14.9969 3.14481 14.7033 2.851 14.3411 2.851Z" fill="#35C9AD"/>
    <path d="M13.9944 4.48787H11.2809C11.1924 4.48787 11.1206 4.41614 11.1206 4.32761C11.1206 4.23909 11.1924 4.16736 11.2809 4.16736H13.9944C14.0828 4.16736 14.1546 4.23909 14.1546 4.32761C14.1546 4.41614 14.0828 4.48787 13.9944 4.48787Z" fill="white"/>
    <path d="M2.46203 7.67568C3.82016 7.67568 4.92114 6.57386 4.92114 5.21469C4.92114 3.85552 3.82016 2.75369 2.46203 2.75369C1.10391 2.75369 0.00292969 3.85552 0.00292969 5.21469C0.00292969 6.57386 1.10391 7.67568 2.46203 7.67568Z" fill="#F761A6"/>
    <path d="M2.95047 5.39279H1.9739C1.70031 5.39279 1.47852 5.61459 1.47852 5.88818V6.73029H3.44579V5.88818C3.44582 5.61459 3.22406 5.39279 2.95047 5.39279Z" fill="white"/>
    <path d="M2.46226 4.78022C2.78822 4.78022 3.05246 4.51578 3.05246 4.18958C3.05246 3.86338 2.78822 3.59894 2.46226 3.59894C2.13631 3.59894 1.87207 3.86338 1.87207 4.18958C1.87207 4.51578 2.13631 4.78022 2.46226 4.78022Z" fill="white"/>
</svg>
