<svg width="11" height="10" viewBox="0 0 11 10" fill="none" xmlns="http://www.w3.org/2000/svg">
    <path d="M10.0504 2.68566C9.79955 1.37193 8.91286 0.500547 7.55367 0.231973C7.20071 0.162226 6.26517 0 5.2037 0L5.18342 1.95312e-05C4.15447 0.00207031 3.19515 0.162656 2.83043 0.231601C1.47237 0.488359 0.585022 1.35988 0.331827 2.68566C0.243303 3.14918 0.0946695 4.0668 0.0937542 5.00453C0.0927793 6.0134 0.260177 6.96051 0.332185 7.32093C0.595648 8.63929 1.4824 9.51007 2.82908 9.77287C3.17893 9.84117 4.10876 10 5.18388 10C6.31601 10 7.28402 9.82607 7.55367 9.77277C8.91286 9.50422 9.79955 8.63281 10.0504 7.31908C10.1366 6.8676 10.2812 5.96599 10.2812 5.00002C10.2812 4.03818 10.1366 3.13715 10.0504 2.68566ZM7.46365 9.33382C7.20443 9.38505 6.27384 9.55224 5.18388 9.55224C4.14929 9.55224 3.25466 9.39941 2.91804 9.33373C2.69167 9.28955 2.48163 9.22654 2.28809 9.1457C2.27008 8.99461 2.26049 8.85295 2.26049 8.72447C2.26049 7.2915 3.35471 6.43603 5.18748 6.43603C7.02026 6.43603 8.11448 7.2915 8.11448 8.72447C8.11448 8.85396 8.10501 8.99636 8.08668 9.14877C7.89521 9.22769 7.6874 9.28961 7.46365 9.33382ZM9.60207 7.23658C9.46313 7.96424 9.11062 8.52271 8.56609 8.89222C8.56888 8.83478 8.57067 8.77851 8.57067 8.72445C8.57067 7.84908 8.21878 7.13101 7.55303 6.64787C6.95842 6.21636 6.14043 5.98826 5.1875 5.98826C4.23457 5.98826 3.41659 6.21636 2.82197 6.64787C2.15624 7.13101 1.80434 7.84908 1.80434 8.72445C1.80434 8.77632 1.80601 8.83029 1.80858 8.88529C1.27453 8.5163 0.924672 7.95965 0.779799 7.23472C0.710376 6.88724 0.548968 5.97437 0.549903 5.00498C0.550779 4.10326 0.694558 3.21648 0.780177 2.76816C0.996462 1.63555 1.75525 0.890859 2.91671 0.671289C3.26867 0.604746 4.19426 0.449785 5.18434 0.447793L5.20368 0.447773C6.22412 0.447773 7.12408 0.603847 7.46363 0.670918C8.64518 0.904394 9.38463 1.62961 9.60205 2.76816C9.68536 3.20437 9.82508 4.07439 9.82508 5.00002C9.8251 5.96449 9.66914 6.88543 9.60207 7.23658Z" fill="black"/>
    <path d="M5.18551 5.67051C4.05365 5.67051 3.13281 4.7666 3.13281 3.65557C3.13281 2.54453 4.05365 1.64062 5.18551 1.64062C6.31736 1.64062 7.23821 2.54451 7.23821 3.65555C7.23821 4.76658 6.31736 5.67051 5.18551 5.67051ZM5.18551 2.0884C4.30519 2.0884 3.58896 2.79143 3.58896 3.65557C3.58896 4.51971 4.30517 5.22275 5.18551 5.22275C6.06586 5.22275 6.78207 4.51973 6.78207 3.65557C6.78207 2.79143 6.06588 2.0884 5.18551 2.0884Z" fill="black"/>
</svg>
