<svg width="20" height="20" viewBox="0 0 20 20" fill="none" xmlns="http://www.w3.org/2000/svg">
    <path fill-rule="evenodd" clip-rule="evenodd" d="M10 0C15.5228 0 20 4.47716 20 10C20 15.5228 15.5228 20 10 20C4.47718 20 0 15.5228 0 10C0 4.47718 4.47716 0 10 0ZM10 2.58322C11.8763 2.58322 13.3975 4.10433 13.3975 5.9807C13.3975 7.857 11.8763 9.37809 10 9.37809C8.1237 9.37809 6.60253 7.85699 6.60253 5.9807C6.60253 4.10432 8.12371 2.58322 10 2.58322ZM4.30693 15.9173C4.30693 14.3453 4.9441 12.9219 5.97434 11.8916C7.00473 10.8615 8.42795 10.2242 10 10.2242C11.5721 10.2242 12.9953 10.8615 14.0257 11.8916C15.0559 12.9219 15.6931 14.3453 15.6931 15.9173H14.832C14.832 14.583 14.2913 13.3749 13.4168 12.5004C12.5425 11.6261 11.3343 11.0851 10 11.0851C8.66567 11.0851 7.45749 11.6261 6.58323 12.5004C5.70874 13.3749 5.16796 14.583 5.16796 15.9173H4.30693Z" fill="#1F2D5A"/>
    <circle cx="10" cy="10" r="10" fill="#F0F0F0"/>
    <path d="M7.74438 12.8364C7.74438 12.8364 9.79794 11.3338 12.2181 12.8364V14.5217H7.7991L7.74438 12.8364Z" fill="#FFCB05"/>
    <path d="M7.74438 12.8364C7.74438 12.8364 9.79794 11.3338 12.2181 12.8364V14.5217H7.7991L7.74438 12.8364Z" fill="#FFCB05"/>
    <path d="M8.08446 11.8467C8.08446 11.8467 8.1578 12.8491 8.08446 13.6804C8.07797 13.7537 8.13922 13.8685 8.16371 13.9345C8.23789 14.1348 8.33371 14.3277 8.45175 14.5058C8.80522 15.0389 9.3302 15.3458 9.96962 15.3773C9.98513 15.3781 10.0007 15.3789 10.0162 15.3797C9.98171 15.3797 9.94726 15.3797 9.91277 15.3797C10.5714 15.3806 11.1321 15.0346 11.4869 14.4911C11.6016 14.3155 11.6949 14.1258 11.7673 13.9291C11.7911 13.8644 11.8509 13.7521 11.8446 13.6804C11.7712 12.8491 11.8446 11.8467 11.8446 11.8467L8.08446 11.8467Z" fill="#FED09E"/>
    <path opacity="0.4" d="M8.08446 11.8467C8.08446 11.8467 8.1578 12.8491 8.08446 13.6804C8.07797 13.7537 8.13922 13.8685 8.16371 13.9345C8.23789 14.1348 8.33371 14.3277 8.45175 14.5058C8.80522 15.0389 9.3302 15.3458 9.96962 15.3773C9.98513 15.3781 10.0007 15.3789 10.0162 15.3797C9.98171 15.3797 9.94726 15.3797 9.91277 15.3797C10.5714 15.3806 11.1321 15.0346 11.4869 14.4911C11.6016 14.3155 11.6949 14.1258 11.7673 13.9291C11.7911 13.8644 11.8509 13.7521 11.8446 13.6804C11.7712 12.8491 11.8446 11.8467 11.8446 11.8467L8.08446 11.8467Z" fill="#FED09E"/>
    <path opacity="0.6" d="M8.08447 11.8465C8.08447 11.8465 8.09367 11.9722 8.10229 12.1713C8.25358 12.3688 8.42745 12.5471 8.61007 12.7169C9.0083 13.0872 9.4711 13.4759 10.0136 13.4801C10.5562 13.4759 11.019 13.0872 11.4172 12.7169C11.5595 12.5846 11.6966 12.4473 11.8218 12.2996C11.8314 12.0276 11.8446 11.8464 11.8446 11.8464L8.08447 11.8465Z" fill="#FED09E"/>
    <path d="M9.98413 19.5555C15.3118 19.5555 17.6512 16.2548 17.6512 16.2548C17.6901 15.4446 12.2181 14.089 12.2181 14.089V12.8364C11.6848 13.543 10.129 13.8496 10.129 13.8496L9.98235 15.0227H9.98009L9.83346 13.8496C9.83346 13.8496 8.27764 13.543 7.74435 12.8364V14.089C7.74435 14.089 2.27226 15.4446 2.31124 16.2548C2.31124 16.2548 4.65066 19.5555 9.97831 19.5555" fill="#86ADDA"/>
    <path opacity="0.4" d="M12.2181 14.089V12.8364C11.6849 13.543 10.129 13.8496 10.129 13.8496L10.0154 14.7589V19.5554C15.3209 19.5425 17.6512 16.2548 17.6512 16.2548C17.6902 15.4446 12.2181 14.089 12.2181 14.089Z" fill="#86ADDA"/>
    <path d="M5.54649 16.8974C5.96053 15.6828 5.70964 15.0332 5.47498 14.7227C3.97569 15.1837 2.28955 15.8038 2.31124 16.2548C2.31124 16.2548 3.75151 18.2866 6.94515 19.1619C6.81226 16.355 5.54649 16.8974 5.54649 16.8974Z" fill="#262262"/>
    <path d="M5.99618 16.3407C5.99618 16.3407 7.33915 16.3102 7.37555 19.2703C7.57133 19.3152 7.77324 19.3557 7.98115 19.391C7.98395 18.3985 7.82542 16.0472 6.24955 16.1865C6.24955 16.1865 6.87435 15.5312 6.08982 14.5389C6.03737 14.5542 5.98426 14.5697 5.93066 14.5856C6.13475 14.8313 6.53698 15.4823 5.99618 16.3407Z" fill="#262262"/>
    <path d="M14.4162 16.8974C14.0022 15.6828 14.2531 15.0332 14.4878 14.7227C15.987 15.1838 17.6731 15.8038 17.6515 16.2548C17.6515 16.2548 16.2112 18.2866 13.0176 19.1619C13.1504 16.355 14.4162 16.8974 14.4162 16.8974Z" fill="#262262"/>
    <path d="M13.9665 16.3407C13.9665 16.3407 12.6235 16.3102 12.5871 19.2703C12.3913 19.3152 12.1894 19.3557 11.9815 19.391C11.9786 18.3985 12.1372 16.0472 13.7131 16.1865C13.7131 16.1865 13.0883 15.5312 13.8728 14.5389C13.9253 14.5542 13.9784 14.5697 14.032 14.5856C13.8279 14.8313 13.4257 15.4823 13.9665 16.3407Z" fill="#262262"/>
    <path d="M10.1292 13.8496L9.98258 15.0227H9.98032L9.8337 13.8496C9.8337 13.8496 8.27787 13.543 7.74463 12.8364V13.3705C7.99001 13.5992 8.57738 14.052 9.51814 14.2142C9.51814 14.2142 9.65054 15.494 9.9153 15.7146H10.0719C10.3367 15.494 10.4691 14.2142 10.4691 14.2142C11.38 14.0572 11.9597 13.6275 12.2184 13.3928V12.8364C11.685 13.543 10.1292 13.8496 10.1292 13.8496Z" fill="#FFCB05"/>
    <path d="M6.12626 8.78452C6.15089 9.01225 6.22631 9.23252 6.33288 9.43457C6.43128 9.62105 6.55746 9.79812 6.70929 9.94501C6.82013 10.0523 6.98089 10.1814 7.14693 10.1433C7.2384 10.1223 7.30271 10.0484 7.34831 9.97074C7.40524 9.87381 7.44089 9.76594 7.45795 9.65505C7.492 9.4335 7.45929 9.20674 7.416 8.98888C7.374 8.77768 7.31191 8.55799 7.16986 8.39065C7.16884 8.38945 7.16755 8.3887 7.16631 8.38781C7.14177 8.34465 7.11315 8.30372 7.08 8.26608C6.95915 8.12901 6.78724 8.05732 6.60506 8.06092C6.44595 8.06403 6.29813 8.13474 6.21186 8.27114C6.11582 8.42301 6.10746 8.61079 6.12626 8.78452Z" fill="#FED09E"/>
    <path opacity="0.35" d="M7.41586 8.98888C7.37386 8.77768 7.31177 8.55799 7.16977 8.39065C7.16875 8.38945 7.16746 8.3887 7.16621 8.38781C7.14168 8.34465 7.11306 8.30372 7.0799 8.26608C7.0187 8.19665 6.94439 8.14412 6.8623 8.1095C6.85577 8.28065 6.85453 8.45199 6.85946 8.62319C6.87039 9.00452 6.91133 9.3847 6.98141 9.75967C7.00581 9.89016 7.0339 10.0199 7.06493 10.149C7.09199 10.151 7.11933 10.1496 7.14688 10.1433C7.23835 10.1223 7.30266 10.0484 7.34826 9.97079C7.40519 9.87385 7.44084 9.76599 7.4579 9.6551C7.4919 9.4335 7.45919 9.20674 7.41586 8.98888Z" fill="#FED09E"/>
    <path d="M6.25317 8.56812C6.37726 8.3891 6.63232 8.56585 6.7433 8.67061C6.92544 8.84261 7.03157 9.08492 7.07824 9.32754C7.10615 9.47274 7.11335 9.62145 7.10441 9.76888C7.10375 9.78016 7.08632 9.77403 7.08632 9.76501C7.08628 9.68101 7.08255 9.59696 7.07392 9.51354C7.0465 9.52999 7.00201 9.52719 6.97561 9.52079C6.92886 9.50945 6.88544 9.48345 6.84761 9.45439C6.77504 9.39865 6.71028 9.32812 6.65766 9.25328C6.65304 9.24674 6.66353 9.24585 6.66704 9.25056C6.71739 9.3179 6.77939 9.37932 6.84713 9.42905C6.8821 9.45474 6.91993 9.47972 6.96201 9.49181C6.97953 9.49683 6.99797 9.49972 7.01619 9.49763C7.03646 9.49532 7.05015 9.48372 7.06873 9.4779C7.06908 9.47776 7.06952 9.47785 7.06988 9.47776C7.05237 9.33345 7.01935 9.1915 6.96317 9.05612C6.88237 8.86141 6.74784 8.6723 6.55766 8.57203C6.46575 8.52354 6.35219 8.4967 6.27255 8.58176C6.26486 8.58999 6.24641 8.57785 6.25317 8.56812Z" fill="#726658"/>
    <path d="M14.0131 8.78452C13.9885 9.01225 13.9131 9.23252 13.8065 9.43457C13.7081 9.62105 13.5819 9.79812 13.4301 9.94501C13.3192 10.0523 13.1584 10.1814 12.9924 10.1433C12.9009 10.1223 12.8366 10.0484 12.791 9.97074C12.7341 9.87381 12.6984 9.76594 12.6814 9.65505C12.6473 9.4335 12.68 9.20674 12.7233 8.98888C12.7653 8.77768 12.8274 8.55799 12.9694 8.39065C12.9704 8.38945 12.9717 8.3887 12.973 8.38781C12.9975 8.34465 13.0261 8.30372 13.0593 8.26608C13.1801 8.12901 13.3521 8.05732 13.5342 8.06092C13.6933 8.06403 13.8412 8.13474 13.9274 8.27114C14.0235 8.42301 14.0319 8.61079 14.0131 8.78452Z" fill="#FED09E"/>
    <path opacity="0.35" d="M12.7234 8.98888C12.7654 8.77768 12.8275 8.55799 12.9695 8.39065C12.9705 8.38945 12.9718 8.3887 12.973 8.38781C12.9975 8.34465 13.0261 8.30372 13.0593 8.26608C13.1205 8.19665 13.1948 8.14412 13.2769 8.1095C13.2835 8.28065 13.2847 8.45199 13.2798 8.62319C13.2688 9.00452 13.2279 9.3847 13.1578 9.75967C13.1334 9.89016 13.1053 10.0199 13.0743 10.149C13.0472 10.151 13.0199 10.1496 12.9923 10.1433C12.9009 10.1223 12.8366 10.0484 12.791 9.97079C12.734 9.87385 12.6984 9.76599 12.6813 9.6551C12.6474 9.4335 12.6801 9.20674 12.7234 8.98888Z" fill="#FED09E"/>
    <path d="M13.8861 8.56812C13.762 8.3891 13.5069 8.56585 13.396 8.67061C13.2138 8.84261 13.1077 9.08492 13.061 9.32754C13.0331 9.47274 13.0259 9.62145 13.0349 9.76888C13.0355 9.78016 13.0529 9.77403 13.053 9.76501C13.053 9.68101 13.0567 9.59696 13.0654 9.51354C13.0928 9.52999 13.1373 9.52719 13.1637 9.52079C13.2104 9.50945 13.2538 9.48345 13.2917 9.45439C13.3642 9.39865 13.429 9.32812 13.4816 9.25328C13.4862 9.24674 13.4758 9.24585 13.4722 9.25056C13.4219 9.3179 13.3599 9.37932 13.2922 9.42905C13.2572 9.45474 13.2194 9.47972 13.1773 9.49181C13.1598 9.49683 13.1413 9.49972 13.1231 9.49763C13.1028 9.49532 13.0891 9.48372 13.0706 9.4779C13.0702 9.47776 13.0698 9.47785 13.0694 9.47776C13.0869 9.33345 13.1199 9.1915 13.1761 9.05612C13.2569 8.86141 13.3915 8.6723 13.5816 8.57203C13.6735 8.52354 13.7871 8.4967 13.8667 8.58176C13.8744 8.58999 13.8929 8.57785 13.8861 8.56812Z" fill="#726658"/>
    <path d="M13.0362 7.0916C13.0504 7.67525 12.9856 8.28258 12.9462 8.84587C12.8947 9.58005 12.8469 10.3601 12.6086 11.0621C12.5998 11.0882 12.5906 11.1141 12.5808 11.1399C12.3828 11.6639 12.0011 12.0514 11.5787 12.4036C11.1321 12.776 10.6128 13.1671 10.0034 13.1671H10.0234C9.41407 13.1671 8.89474 12.776 8.44811 12.4036C8.02567 12.0514 7.64402 11.6639 7.44598 11.1399C7.02491 10.026 7.01131 7.09214 7.01131 7.09214C7.01131 7.09214 6.617 4.34485 9.97785 4.34485C11.4043 4.34485 12.7657 4.96938 12.9884 6.4956C13.0168 6.68956 13.0312 6.88916 13.0362 7.0916Z" fill="#FED09E"/>
    <path d="M7.0782 8.80292C7.0782 8.80292 6.96954 5.82567 7.94745 5.55403C7.94745 5.55403 8.49718 6.58927 10.5074 6.58927C12.5175 6.58927 12.1742 5.60834 12.1742 5.60834C12.1742 5.60834 12.9457 6.32549 12.9457 9.04194C12.9457 9.04194 14.4993 4.26407 12.8828 3.97109C12.8828 3.97109 12.6808 2.64758 10.9228 2.7082C10.9228 2.7082 11.5492 2.7486 11.7311 3.15274C11.7311 3.15274 10.8117 2.31416 8.96282 2.83954C7.70447 3.19709 6.46834 4.36825 6.5134 5.7642C6.52443 6.10589 6.63327 6.4222 6.70869 6.75145C6.78118 7.06785 6.84154 7.389 6.8998 7.7086C6.96447 8.0626 7.06509 8.44194 7.0782 8.80292Z" fill="#EBA040"/>
    <path opacity="0.4" d="M6.5134 5.76424C6.52443 6.10593 6.63327 6.42224 6.70869 6.75149C6.78118 7.06789 6.84154 7.38904 6.8998 7.70864C6.96438 8.06255 7.065 8.44189 7.07816 8.80291C7.07816 8.80291 6.96949 5.82567 7.9474 5.55402C7.9474 5.55402 8.49714 6.58927 10.5073 6.58927C12.5175 6.58927 12.1742 5.60833 12.1742 5.60833C12.1742 5.60833 12.9457 6.32549 12.9457 9.04193C12.9457 9.04193 13.3589 7.77118 13.5374 6.50015C13.2979 7.09824 12.9226 7.17518 12.8642 6.32384C12.778 5.06824 11.781 4.73589 11.781 4.73589C11.781 4.73589 12.9627 5.43753 10.7593 5.92993C8.55585 6.42233 7.84185 4.67433 7.84185 4.67433C7.84185 4.67433 7.59567 5.92993 6.9186 5.80682C6.4594 5.72331 6.78731 4.76789 7.04589 4.16162C6.7034 4.62633 6.49438 5.17527 6.5134 5.76424Z" fill="#EBA040"/>
    <path d="M7.80908 8.17062C7.80908 8.17062 8.54242 7.43728 9.20655 8.32279C9.20655 8.32279 8.39713 8.9731 7.80908 8.17062Z" fill="white"/>
    <path d="M8.5134 8.53645C8.69892 8.53645 8.84931 8.38605 8.84931 8.20054C8.84931 8.01502 8.69892 7.86462 8.5134 7.86462C8.32788 7.86462 8.17749 8.01502 8.17749 8.20054C8.17749 8.38605 8.32788 8.53645 8.5134 8.53645Z" fill="#2F6D8F"/>
    <path d="M8.51342 8.39318C8.61981 8.39318 8.70605 8.30694 8.70605 8.20056C8.70605 8.09418 8.61981 8.00793 8.51342 8.00793C8.40704 8.00793 8.3208 8.09418 8.3208 8.20056C8.3208 8.30694 8.40704 8.39318 8.51342 8.39318Z" fill="#231F20"/>
    <path d="M8.56592 8.13206C8.56592 8.199 8.62018 8.25322 8.68707 8.25322C8.75401 8.25322 8.80827 8.19895 8.80827 8.13206C8.80827 8.06513 8.75401 8.01086 8.68707 8.01086C8.62018 8.01086 8.56592 8.06513 8.56592 8.13206Z" fill="white"/>
    <path d="M7.8019 8.16343C8.07857 7.80703 8.58715 7.69495 8.95048 7.99397C9.0619 8.08366 9.15048 8.19472 9.21461 8.31672C9.21723 8.32175 9.21532 8.32797 9.2103 8.33059C9.2063 8.33272 9.2015 8.33188 9.19839 8.3289C9.10035 8.23428 8.99999 8.14655 8.89017 8.07943C8.53292 7.84935 8.15301 7.96046 7.81621 8.17779C7.8075 8.18468 7.79475 8.17241 7.8019 8.16343Z" fill="#231F20"/>
    <path d="M7.51123 7.62957C7.51123 7.62957 7.82705 7.0345 9.31932 7.69824L9.33061 7.65037C9.37096 7.47908 9.28083 7.32108 9.11434 7.26402C7.62208 6.75264 7.51123 7.62957 7.51123 7.62957Z" fill="#EBA040"/>
    <path d="M12.1023 8.17062C12.1023 8.17062 11.369 7.43728 10.7048 8.32279C10.7048 8.32279 11.5143 8.9731 12.1023 8.17062Z" fill="white"/>
    <path d="M11.3979 8.53645C11.5834 8.53645 11.7338 8.38605 11.7338 8.20054C11.7338 8.01502 11.5834 7.86462 11.3979 7.86462C11.2124 7.86462 11.062 8.01502 11.062 8.20054C11.062 8.38605 11.2124 8.53645 11.3979 8.53645Z" fill="#2F6D8F"/>
    <path d="M11.3979 8.39318C11.5043 8.39318 11.5906 8.30694 11.5906 8.20056C11.5906 8.09418 11.5043 8.00793 11.3979 8.00793C11.2916 8.00793 11.2053 8.09418 11.2053 8.20056C11.2053 8.30694 11.2916 8.39318 11.3979 8.39318Z" fill="#231F20"/>
    <path d="M11.3454 8.13206C11.3454 8.199 11.2911 8.25322 11.2242 8.25322C11.1573 8.25322 11.103 8.19895 11.103 8.13206C11.103 8.06513 11.1573 8.01086 11.2242 8.01086C11.2911 8.01086 11.3454 8.06513 11.3454 8.13206Z" fill="white"/>
    <path d="M12.1094 8.16343C11.8328 7.80703 11.3242 7.69495 10.9609 7.99397C10.8494 8.08366 10.7609 8.19472 10.6967 8.31672C10.6941 8.32175 10.696 8.32797 10.701 8.33059C10.705 8.33272 10.7098 8.33188 10.713 8.3289C10.811 8.23428 10.9114 8.14655 11.0212 8.07943C11.3784 7.84935 11.7583 7.96046 12.0951 8.17779C12.1038 8.18468 12.1166 8.17241 12.1094 8.16343Z" fill="#231F20"/>
    <path d="M12.4002 7.62957C12.4002 7.62957 12.0844 7.0345 10.5921 7.69824L10.5809 7.65037C10.5405 7.47908 10.6306 7.32108 10.7971 7.26402C12.2894 6.75264 12.4002 7.62957 12.4002 7.62957Z" fill="#EBA040"/>
    <path d="M11.0962 11.0786C11.0962 11.0786 10.7142 11.5743 10.0047 11.5743H10.0051C9.29562 11.5743 8.91357 11.0786 8.91357 11.0786H11.0962Z" fill="#C1736B"/>
    <path opacity="0.6" d="M11.0962 11.0786C11.0962 11.0786 10.7142 11.5743 10.0047 11.5743H10.0051C9.29562 11.5743 8.91357 11.0786 8.91357 11.0786H11.0962Z" fill="#C1736B"/>
    <path d="M8.81787 11.0496C8.81787 11.0496 9.89654 11.4233 11.2201 11.0563C11.2201 11.0563 11.0082 11.0529 10.8009 10.9762C10.5937 10.8994 10.2781 10.8093 10.0096 10.9028C10.0096 10.9028 9.70814 10.796 9.32192 10.9495C8.93565 11.103 8.81787 11.0496 8.81787 11.0496Z" fill="#C1736B"/>
    <path opacity="0.3" d="M10.4498 9.98983L10.2481 10.1175C10.0911 10.2744 9.83672 10.2744 9.67979 10.1175L9.48584 9.98983C9.41561 9.91961 9.40339 9.81014 9.45637 9.72614L9.96784 8.91516L10.4793 9.72614C10.5323 9.81009 10.5201 9.91961 10.4498 9.98983Z" fill="#FED09E"/>
    <path opacity="0.5" d="M10.4793 9.72608L10.3841 9.5752C10.3002 9.71782 10.1453 9.8136 9.96784 9.8136C9.79041 9.8136 9.63544 9.71782 9.55152 9.5752L9.45637 9.72608C9.40339 9.81008 9.41561 9.91955 9.48584 9.98977L9.67979 10.1174C9.83672 10.2744 10.0911 10.2744 10.2481 10.1174L10.4498 9.98977C10.52 9.9196 10.5323 9.81008 10.4793 9.72608Z" fill="#FED09E"/>
    <path d="M9.58767 9.91798C9.68314 9.85971 9.80087 9.90247 9.83305 10.0106C9.8422 10.0414 9.84589 10.073 9.8446 10.1047C9.84443 10.1103 9.83972 10.1148 9.83407 10.1146C9.82994 10.1145 9.82643 10.1119 9.82496 10.1083C9.81896 10.0939 9.81434 10.0796 9.80985 10.0654C9.79625 10.0296 9.7762 9.98642 9.74798 9.9622C9.707 9.92696 9.64816 9.92607 9.59598 9.93647C9.58465 9.93998 9.57745 9.92398 9.58767 9.91798Z" fill="#726658"/>
    <path d="M10.3482 9.91798C10.2528 9.85971 10.135 9.90247 10.1029 10.0106C10.0937 10.0414 10.09 10.073 10.0913 10.1047C10.0915 10.1103 10.0962 10.1148 10.1018 10.1146C10.106 10.1145 10.1095 10.1119 10.111 10.1083C10.117 10.0939 10.1216 10.0796 10.1261 10.0654C10.1397 10.0296 10.1597 9.98642 10.1879 9.9622C10.2289 9.92696 10.2878 9.92607 10.34 9.93647C10.3512 9.93998 10.3584 9.92398 10.3482 9.91798Z" fill="#726658"/>
    <path d="M9.49341 9.67291C9.48066 9.69869 9.46434 9.72416 9.45243 9.7498C9.41701 9.82873 9.43439 9.91998 9.48799 9.98798C9.49003 9.99033 9.48657 9.99389 9.48412 9.99184C9.39688 9.9242 9.3939 9.78731 9.46279 9.70549C9.47141 9.69362 9.47981 9.68162 9.48879 9.66998C9.49075 9.66744 9.49497 9.67002 9.49341 9.67291Z" fill="#726658"/>
    <path d="M10.4415 9.66991C10.4591 9.694 10.4771 9.7164 10.4917 9.74293C10.536 9.82288 10.5195 9.93471 10.4461 9.99173C10.4437 9.99368 10.4403 9.99035 10.4423 9.98786C10.4959 9.91986 10.5133 9.82862 10.4778 9.74968C10.4659 9.724 10.4496 9.69857 10.4368 9.67279C10.4353 9.66999 10.4396 9.66724 10.4415 9.66991Z" fill="#726658"/>
    <path opacity="0.5" d="M9.53979 11.5972C9.53979 11.5972 9.83904 11.801 10.4462 11.5972C10.4462 11.5972 9.96917 12.226 9.53979 11.5972Z" fill="#FED09E"/>
</svg>
