<svg width="25" height="29" viewBox="0 0 25 29" fill="none" xmlns="http://www.w3.org/2000/svg">
    <path d="M20.6401 14.4147C20.5386 14.3109 20.4176 14.2285 20.2839 14.172C20.1503 14.1156 20.0067 14.0863 19.8616 14.0859C19.7166 14.0855 19.5728 14.114 19.4389 14.1697C19.3049 14.2254 19.1834 14.3073 19.0814 14.4104C18.9794 14.5136 18.8989 14.636 18.8447 14.7705C18.7904 14.9051 18.7635 15.0491 18.7655 15.1942C18.7675 15.3393 18.7984 15.4825 18.8563 15.6155C18.9142 15.7485 18.998 15.8687 19.1028 15.969C20.0303 16.8816 20.7662 17.9704 21.2672 19.1713C21.7682 20.3721 22.0243 21.661 22.0205 22.9622C22.0205 24.2993 18.1878 26.2419 12.1816 26.2419C6.1754 26.2419 2.34272 24.2984 2.34272 22.9601C2.33904 21.6678 2.59172 20.3876 3.08614 19.1936C3.58056 17.9997 4.3069 16.9156 5.22311 16.0043C5.32674 15.9033 5.40927 15.7827 5.46592 15.6495C5.52258 15.5163 5.55222 15.3732 5.55314 15.2285C5.55406 15.0837 5.52623 14.9403 5.47127 14.8064C5.4163 14.6725 5.33531 14.5509 5.23297 14.4485C5.13063 14.3462 5.00899 14.2652 4.8751 14.2102C4.74122 14.1553 4.59775 14.1274 4.45302 14.1284C4.3083 14.1293 4.1652 14.1589 4.03202 14.2156C3.89884 14.2722 3.77823 14.3548 3.6772 14.4584C2.55712 15.5726 1.6692 16.8979 1.06483 18.3576C0.460459 19.8173 0.151658 21.3824 0.156302 22.9622C0.156302 26.5125 6.35152 28.4283 12.1816 28.4283C18.0117 28.4283 24.2069 26.5125 24.2069 22.9622C24.2118 21.3717 23.8987 19.7963 23.2862 18.3284C22.6737 16.8606 21.7741 15.5299 20.6401 14.4147Z" fill="#1F2D5A"/>
    <path d="M12.1837 15.3049C13.6972 15.3049 15.1768 14.8561 16.4352 14.0153C17.6936 13.1744 18.6745 11.9792 19.2537 10.5809C19.8329 9.18264 19.9844 7.64398 19.6891 6.15955C19.3939 4.67511 18.665 3.31158 17.5948 2.24136C16.5246 1.17114 15.1611 0.442315 13.6766 0.147043C12.1922 -0.148229 10.6535 0.00331568 9.25524 0.582513C7.85694 1.16171 6.66179 2.14255 5.82092 3.40099C4.98006 4.65943 4.53125 6.13895 4.53125 7.65247C4.53359 9.68131 5.34059 11.6264 6.77519 13.061C8.2098 14.4956 10.1549 15.3026 12.1837 15.3049ZM12.1837 2.18642C13.2648 2.18642 14.3216 2.507 15.2205 3.10762C16.1194 3.70823 16.82 4.56191 17.2337 5.5607C17.6474 6.55949 17.7556 7.65853 17.5447 8.71884C17.3338 9.77915 16.8132 10.7531 16.0488 11.5175C15.2844 12.282 14.3104 12.8026 13.2501 13.0135C12.1898 13.2244 11.0907 13.1161 10.092 12.7024C9.09316 12.2887 8.23948 11.5881 7.63886 10.6892C7.03825 9.79035 6.71767 8.73355 6.71767 7.65247C6.71938 6.20331 7.29581 4.81399 8.32052 3.78928C9.34523 2.76456 10.7346 2.18813 12.1837 2.18642Z" fill="#1F2D5A"/>
</svg>
