<svg width="60" height="61" viewBox="0 0 60 61" fill="none" xmlns="http://www.w3.org/2000/svg">
    <path d="M53.4521 54.4479C44.2589 61.9526 15.5535 61.9526 6.54787 54.4479C-2.64536 46.9432 -1.70729 14.8608 6.54787 6.418C14.803 -2.02475 45.197 -2.02475 53.4521 6.418C61.7073 14.8608 62.6454 46.9434 53.4521 54.4479Z" fill="#2E74D8"/>
    <path d="M30.1993 41.3179C21.9441 47.8845 12.7509 51.2616 4.12056 51.4492C-2.25847 40.5674 -0.945093 14.1135 6.55959 6.4212C13.3138 -0.520592 34.5145 -1.83397 46.7096 2.4812C49.7114 14.864 43.5201 30.6237 30.1993 41.3179Z" fill="#2E4696"/>
    <path d="M47.8193 30.0659C47.8193 31.942 46.3184 33.443 44.4422 33.443H33.1853V44.6999C33.1853 46.5761 31.6843 48.077 29.8082 48.077C27.932 48.077 26.4311 46.5761 26.4311 44.6999V33.443H15.174C13.2978 33.443 11.7969 31.942 11.7969 30.0659C11.7969 28.1897 13.2978 26.6888 15.174 26.6888H26.4309V15.4318C26.4309 13.5557 27.9319 12.0547 29.808 12.0547C31.6842 12.0547 33.1851 13.5557 33.1851 15.4318V26.6888H44.4421C46.3184 26.6888 47.8193 28.1896 47.8193 30.0659Z" fill="white"/>
</svg>
