<svg width="30" height="30" viewBox="0 0 30 30" fill="none" xmlns="http://www.w3.org/2000/svg">
    <path d="M21 30H9C6.61381 29.9975 4.32607 29.0485 2.63878 27.3612C0.95149 25.6739 0.00248174 23.3862 0 21V9C0.00248174 6.61381 0.95149 4.32607 2.63878 2.63878C4.32607 0.95149 6.61381 0.00248174 9 0L21 0C23.3862 0.00248174 25.6739 0.95149 27.3612 2.63878C29.0485 4.32607 29.9975 6.61381 30 9V21C29.9975 23.3862 29.0485 25.6739 27.3612 27.3612C25.6739 29.0485 23.3862 29.9975 21 30ZM9 1.99688C7.14342 1.99936 5.36359 2.73798 4.05078 4.05078C2.73798 5.36359 1.99936 7.14342 1.99688 9V21C1.99936 22.8566 2.73798 24.6364 4.05078 25.9492C5.36359 27.262 7.14342 28.0006 9 28.0031H21C22.8566 28.0006 24.6364 27.262 25.9492 25.9492C27.262 24.6364 28.0006 22.8566 28.0031 21V9C28.0006 7.14342 27.262 5.36359 25.9492 4.05078C24.6364 2.73798 22.8566 1.99936 21 1.99688H9Z" fill="#1F2D5A"/>
    <path d="M15 16.9961C13.8133 16.9961 12.6533 16.6442 11.6666 15.9849C10.6799 15.3256 9.91085 14.3886 9.45673 13.2922C9.0026 12.1958 8.88378 10.9894 9.11529 9.82555C9.3468 8.66167 9.91825 7.59257 10.7574 6.75346C11.5965 5.91434 12.6656 5.3429 13.8295 5.11138C14.9933 4.87987 16.1997 4.99869 17.2961 5.45282C18.3925 5.90695 19.3295 6.67598 19.9888 7.66268C20.6481 8.64937 21 9.80941 21 10.9961C20.9975 12.5866 20.3646 14.1113 19.2399 15.236C18.1152 16.3607 16.5905 16.9936 15 16.9961ZM15 7.00235C14.2083 7.00235 13.4343 7.23713 12.776 7.67699C12.1177 8.11686 11.6046 8.74207 11.3016 9.47354C10.9986 10.205 10.9193 11.0099 11.0738 11.7864C11.2283 12.563 11.6095 13.2763 12.1694 13.8361C12.7292 14.396 13.4425 14.7772 14.219 14.9317C14.9956 15.0861 15.8005 15.0069 16.5319 14.7039C17.2634 14.4009 17.8886 13.8878 18.3285 13.2295C18.7683 12.5712 19.0031 11.7972 19.0031 11.0055C19.0031 9.94378 18.5814 8.92557 17.8306 8.17483C17.0799 7.4241 16.0617 7.00235 15 7.00235Z" fill="#1F2D5A"/>
    <path d="M22.0136 23.1195C21.7636 23.1201 21.5226 23.0263 21.3386 22.857C20.0503 21.6563 18.356 20.9866 16.5949 20.982H13.4168C11.6557 20.9866 9.96132 21.6563 8.67301 22.857C8.57707 22.9529 8.46271 23.0283 8.33682 23.0786C8.21093 23.129 8.07613 23.1534 7.94057 23.1502C7.80501 23.147 7.67149 23.1164 7.5481 23.0602C7.42471 23.0039 7.314 22.9233 7.22266 22.8231C7.13132 22.7228 7.06125 22.6051 7.01668 22.4771C6.9721 22.349 6.95396 22.2132 6.96334 22.078C6.97272 21.9427 7.00943 21.8107 7.07125 21.69C7.13306 21.5693 7.21871 21.4624 7.32301 21.3758C8.98405 19.8475 11.1596 19.0007 13.4168 19.0039H16.5855C18.8484 19.0035 21.0281 19.8573 22.6886 21.3945C22.8345 21.5315 22.9361 21.709 22.9803 21.9041C23.0246 22.0993 23.0094 22.3032 22.9368 22.4897C22.8643 22.6762 22.7376 22.8367 22.5731 22.9506C22.4085 23.0645 22.2137 23.1266 22.0136 23.1289V23.1195Z" fill="#1F2D5A"/>
</svg>
