<svg width="23" height="20" viewBox="0 0 23 20" fill="none" xmlns="http://www.w3.org/2000/svg">
    <path d="M22.066 0.859199C22.1737 0.357918 21.6823 -0.064757 21.2028 0.11817L0.407789 8.05653C0.157515 8.1521 -0.00802598 8.39197 -0.0085437 8.65985C-0.00906142 8.92777 0.15553 9.16829 0.405459 9.2648L6.24719 11.521V18.6272C6.24719 18.927 6.45302 19.1875 6.74467 19.2568C7.03438 19.3257 7.33647 19.1879 7.47228 18.9185L9.88835 14.124L15.7845 18.4998C16.1431 18.7659 16.6587 18.5967 16.7892 18.1689C22.2942 0.119595 22.0562 0.904543 22.066 0.859199ZM16.9328 3.13363L6.80261 10.348L2.44394 8.66464L16.9328 3.13363ZM7.54149 11.4108L16.3715 5.12232C8.7734 13.1379 9.17023 12.716 9.1371 12.7606C9.08787 12.8268 9.22274 12.5687 7.54149 15.905V11.4108ZM15.8189 16.9135L10.6289 13.0618L20.013 3.1621L15.8189 16.9135Z" fill="white"/>
</svg>
