<svg width="100" height="88" viewBox="0 0 100 88" fill="none" xmlns="http://www.w3.org/2000/svg">
    <path d="M11.2269 32.0371C11.1352 32.0371 11.05 31.9783 11.0207 31.8861C10.9468 31.6531 10.8762 31.4214 10.8091 31.1912C10.7757 31.0764 10.8416 30.9562 10.9563 30.9228C11.0712 30.8891 11.1912 30.9554 11.2246 31.07C11.2908 31.297 11.3603 31.5254 11.4333 31.755C11.4694 31.8689 11.4064 31.9906 11.2925 32.0268C11.2708 32.0338 11.2486 32.0371 11.2269 32.0371ZM10.7511 30.3728C10.6543 30.3728 10.5663 30.3075 10.5414 30.2095C10.4813 29.9723 10.4249 29.7366 10.372 29.5024C10.3457 29.3859 10.4189 29.2701 10.5355 29.2437C10.6525 29.2176 10.768 29.2907 10.7943 29.4072C10.8463 29.6377 10.9018 29.8696 10.961 30.1031C10.9904 30.219 10.9203 30.3367 10.8044 30.3661C10.7866 30.3706 10.7686 30.3728 10.7511 30.3728ZM10.3801 28.682C10.2777 28.682 10.1868 28.609 10.1676 28.5048C10.1235 28.2657 10.0826 28.0243 10.0462 27.7872C10.028 27.6691 10.1091 27.5586 10.2272 27.5404C10.3453 27.5215 10.4559 27.6033 10.474 27.7214C10.5098 27.9543 10.5499 28.1914 10.5933 28.4263C10.615 28.5438 10.5373 28.6567 10.4197 28.6784C10.4064 28.6808 10.3931 28.682 10.3801 28.682ZM10.1281 26.9696C10.0192 26.9696 9.92539 26.8875 9.91327 26.7767C9.88698 26.5356 9.86437 26.2915 9.84612 26.0513C9.83703 25.9321 9.92637 25.8281 10.0455 25.8191C10.1653 25.8096 10.2687 25.8993 10.2777 26.0185C10.2956 26.254 10.3178 26.4933 10.3436 26.7297C10.3565 26.8484 10.2707 26.9553 10.1519 26.9683C10.1439 26.9692 10.136 26.9696 10.1281 26.9696ZM10.0097 25.243C9.89293 25.243 9.7967 25.1499 9.79353 25.0324C9.78859 24.8498 9.78613 24.6682 9.78613 24.4878C9.78613 24.4262 9.78642 24.3646 9.787 24.3033C9.78812 24.1845 9.88478 24.0889 10.0034 24.0889C10.0041 24.0889 10.0047 24.0889 10.0054 24.0889C10.1249 24.0901 10.2209 24.1878 10.2198 24.3074C10.2192 24.3673 10.219 24.4275 10.219 24.4878C10.219 24.6644 10.2214 24.842 10.2262 25.0207C10.2294 25.1402 10.1352 25.2396 10.0157 25.2429C10.0137 25.243 10.0117 25.243 10.0097 25.243ZM10.0397 23.5136C10.0351 23.5136 10.0305 23.5135 10.0259 23.5132C9.90667 23.5057 9.816 23.403 9.82346 23.2837C9.83868 23.0414 9.85881 22.7969 9.88341 22.5569C9.89553 22.438 10.0021 22.3506 10.1207 22.3637C10.2397 22.3759 10.3261 22.4821 10.314 22.601C10.2899 22.8354 10.2702 23.0742 10.2554 23.3108C10.2482 23.4255 10.153 23.5136 10.0397 23.5136ZM10.2307 21.7954C10.2192 21.7954 10.2077 21.7946 10.196 21.7927C10.078 21.7737 9.99775 21.6626 10.0168 21.5446C10.0556 21.304 10.0998 21.0625 10.1482 20.8267C10.1723 20.7097 10.2872 20.6346 10.4037 20.6582C10.5208 20.6823 10.5963 20.7967 10.5722 20.9137C10.525 21.1435 10.4819 21.379 10.4441 21.6135C10.427 21.7198 10.335 21.7954 10.2307 21.7954ZM10.593 20.1053C10.5743 20.1053 10.5554 20.1029 10.5365 20.0978C10.4211 20.0667 10.3528 19.9479 10.384 19.8325C10.4474 19.5971 10.5167 19.3614 10.5898 19.1318C10.626 19.0179 10.7477 18.9547 10.8616 18.9913C10.9756 19.0276 11.0385 19.1493 11.0022 19.2631C10.931 19.4866 10.8636 19.716 10.8018 19.9452C10.7758 20.0417 10.6884 20.1053 10.593 20.1053ZM11.1318 18.4631C11.1057 18.4631 11.0792 18.4583 11.0534 18.4483C10.942 18.4049 10.8869 18.2794 10.9302 18.168C11.0178 17.9433 11.1121 17.7164 11.2107 17.4936C11.2589 17.3843 11.3867 17.3347 11.4961 17.3832C11.6054 17.4316 11.6548 17.5594 11.6065 17.6687C11.5106 17.8855 11.4188 18.1064 11.3336 18.3251C11.3003 18.4106 11.2185 18.4631 11.1318 18.4631ZM11.8467 16.8875C11.813 16.8875 11.7788 16.8796 11.7468 16.8629C11.6408 16.8076 11.5997 16.677 11.655 16.571C11.7671 16.3561 11.8856 16.1408 12.0073 15.9312C12.0673 15.8278 12.1997 15.7926 12.3031 15.8527C12.4065 15.9127 12.4417 16.0451 12.3816 16.1485C12.2632 16.3525 12.1478 16.562 12.0388 16.7711C12.0001 16.8451 11.9248 16.8875 11.8467 16.8875ZM12.7271 15.4013C12.6858 15.4013 12.6441 15.3895 12.6072 15.3648C12.5078 15.2985 12.481 15.1642 12.5473 15.0647C12.6818 14.8631 12.8227 14.6618 12.9659 14.4663C13.0365 14.3699 13.172 14.3489 13.2684 14.4197C13.3648 14.4903 13.3857 14.6257 13.315 14.7222C13.1755 14.9125 13.0383 15.1086 12.9073 15.305C12.8656 15.3675 12.797 15.4013 12.7271 15.4013ZM13.7607 14.0152C13.7121 14.0152 13.6632 13.9988 13.6227 13.9654C13.5307 13.8891 13.518 13.7527 13.5943 13.6606C13.7481 13.4751 13.9088 13.2893 14.0718 13.1086C14.1517 13.0199 14.2886 13.0129 14.3774 13.0929C14.4661 13.1729 14.4732 13.3098 14.3931 13.3985C14.2342 13.5747 14.0775 13.7558 13.9275 13.9368C13.8847 13.9885 13.8229 14.0152 13.7607 14.0152ZM70.6584 13.8596C70.6244 13.8596 70.5899 13.8516 70.5578 13.8347L70.4587 13.7825C70.3531 13.7267 70.3126 13.5957 70.3684 13.4901C70.4242 13.3843 70.5551 13.3441 70.6608 13.3997L70.7592 13.4516C70.8649 13.5072 70.9056 13.638 70.8501 13.7439C70.8114 13.8175 70.7362 13.8596 70.6584 13.8596ZM69.6633 13.3429C69.6302 13.3429 69.5965 13.3352 69.5649 13.3191C69.3518 13.2102 69.1382 13.1024 68.9244 12.9958C68.8175 12.9424 68.7741 12.8124 68.8275 12.7055C68.8807 12.5984 69.0111 12.5551 69.1177 12.6084C69.3326 12.7157 69.5473 12.8241 69.7619 12.9336C69.8683 12.988 69.9105 13.1184 69.8562 13.2248C69.8178 13.2997 69.7419 13.3429 69.6633 13.3429ZM14.9291 12.74C14.8734 12.74 14.8177 12.7187 14.7754 12.6759C14.6913 12.591 14.6919 12.454 14.7768 12.3699C14.9478 12.2005 15.1254 12.0312 15.3047 11.8667C15.3927 11.7858 15.5296 11.7919 15.6105 11.88C15.6912 11.968 15.6853 12.1049 15.5972 12.1857C15.422 12.3465 15.2484 12.5119 15.0814 12.6774C15.0392 12.7192 14.9842 12.74 14.9291 12.74ZM68.1146 12.5733C68.083 12.5733 68.0509 12.5663 68.0205 12.5517C67.8043 12.4471 67.5879 12.3438 67.3714 12.2416C67.2633 12.1905 67.2171 12.0616 67.2681 11.9534C67.3193 11.8454 67.4482 11.7993 67.5563 11.8502C67.7739 11.953 67.9915 12.0568 68.209 12.1619C68.3165 12.214 68.3616 12.3434 68.3096 12.451C68.2723 12.5283 68.1951 12.5733 68.1146 12.5733ZM66.5479 11.837C66.5179 11.837 66.4874 11.8307 66.4582 11.8174C66.2397 11.7177 66.021 11.619 65.8023 11.5216C65.6931 11.4729 65.6441 11.345 65.6927 11.2358C65.7415 11.1266 65.8695 11.0776 65.9784 11.1262C66.1982 11.2242 66.4182 11.3233 66.6379 11.4236C66.7466 11.4732 66.7946 11.6017 66.7449 11.7103C66.7087 11.7899 66.63 11.837 66.5479 11.837ZM16.2126 11.5802C16.1502 11.5802 16.0883 11.5535 16.0455 11.5016C15.9694 11.4094 15.9825 11.273 16.0746 11.1969C16.26 11.0439 16.4519 10.8912 16.6448 10.7431C16.7394 10.6704 16.8754 10.6881 16.9482 10.7831C17.021 10.8778 17.0031 11.0137 16.9083 11.0865C16.7194 11.2315 16.5316 11.3809 16.3502 11.5307C16.3099 11.564 16.2611 11.5802 16.2126 11.5802ZM64.965 11.1352C64.9365 11.1352 64.9075 11.1295 64.8796 11.1175C64.659 11.0226 64.4384 10.9288 64.2176 10.8362C64.1074 10.79 64.0554 10.6631 64.1018 10.5529C64.1479 10.4427 64.2748 10.3909 64.385 10.437C64.6069 10.5302 64.8289 10.6244 65.0507 10.7199C65.1604 10.7671 65.2111 10.8944 65.1639 11.0042C65.1287 11.0861 65.0488 11.1352 64.965 11.1352ZM17.5921 10.5362C17.5236 10.5362 17.4562 10.5039 17.4142 10.4433C17.3459 10.3452 17.3703 10.2102 17.4685 10.1421C17.6658 10.005 17.8693 9.86855 18.0732 9.73662C18.1736 9.67166 18.3075 9.70033 18.3725 9.80071C18.4374 9.90101 18.4088 10.035 18.3084 10.1C18.1084 10.2294 17.9089 10.3632 17.7153 10.4976C17.6777 10.5237 17.6347 10.5362 17.5921 10.5362ZM63.3674 10.4684C63.3404 10.4684 63.3129 10.4634 63.2864 10.4526C63.0635 10.3627 62.8408 10.2737 62.618 10.186C62.5069 10.1423 62.4522 10.0166 62.496 9.90545C62.5398 9.79407 62.6656 9.73947 62.7767 9.78336C63.0005 9.87148 63.2244 9.96082 63.4484 10.0513C63.5593 10.0961 63.6129 10.2222 63.568 10.333C63.5341 10.4173 63.4529 10.4684 63.3674 10.4684ZM61.7554 9.83739C61.7299 9.83739 61.7039 9.83288 61.6787 9.82332C61.4541 9.7382 61.2294 9.65438 61.0048 9.57175C60.8927 9.53056 60.8352 9.40612 60.8763 9.29399C60.9176 9.18178 61.0416 9.124 61.1542 9.16558C61.3801 9.24865 61.606 9.33301 61.832 9.41857C61.9437 9.46091 62 9.58581 61.9577 9.69759C61.925 9.78408 61.8427 9.83739 61.7554 9.83739ZM19.0504 9.60479C18.9761 9.60479 18.9039 9.56663 18.8635 9.49799C18.803 9.39491 18.8374 9.26236 18.9405 9.20176C19.1469 9.08054 19.3598 8.95971 19.5733 8.84263C19.6782 8.78521 19.8096 8.82355 19.8672 8.92836C19.9246 9.03318 19.8862 9.16472 19.7814 9.22218C19.5716 9.33716 19.3625 9.45586 19.1597 9.57499C19.1253 9.59523 19.0875 9.60479 19.0504 9.60479ZM60.1293 9.24263C60.1054 9.24263 60.0811 9.23859 60.0573 9.23022C59.8306 9.15026 59.6042 9.07152 59.3778 8.99394C59.2648 8.9552 59.2045 8.83214 59.2433 8.71906C59.2819 8.60602 59.4048 8.5455 59.5181 8.58453C59.7457 8.66251 59.9735 8.74171 60.2013 8.82207C60.3141 8.86182 60.3732 8.98542 60.3335 9.09814C60.3021 9.18704 60.2185 9.24263 60.1293 9.24263ZM20.5722 8.78128C20.4928 8.78128 20.4162 8.73724 20.3784 8.66124C20.3251 8.5543 20.3686 8.42442 20.4757 8.37108C20.6901 8.26428 20.9105 8.1582 21.1307 8.05584C21.2393 8.00534 21.3678 8.05259 21.4182 8.16087C21.4686 8.26929 21.4215 8.39798 21.3132 8.44837C21.0964 8.54911 20.8796 8.65345 20.6686 8.75856C20.6376 8.77396 20.6047 8.78128 20.5722 8.78128ZM58.4905 8.68483C58.4682 8.68483 58.4455 8.6813 58.4231 8.67398C58.1947 8.59917 57.9665 8.5257 57.7384 8.45342C57.6244 8.41728 57.5615 8.29569 57.5975 8.18172C57.6334 8.06789 57.7548 8.00477 57.8691 8.04076C58.0987 8.11348 58.328 8.18749 58.5578 8.26273C58.6714 8.29991 58.7334 8.42215 58.6962 8.53569C58.6663 8.62694 58.5815 8.68483 58.4905 8.68483ZM56.8394 8.16487C56.8187 8.16487 56.7975 8.16184 56.7767 8.15557C56.5466 8.0861 56.3167 8.01779 56.087 7.95077C55.9722 7.9173 55.9064 7.79712 55.9398 7.68246C55.9733 7.56762 56.0943 7.50169 56.2082 7.5353C56.4392 7.60272 56.6703 7.67132 56.9018 7.74122C57.0162 7.77573 57.081 7.89656 57.0464 8.01093C57.0182 8.10453 56.9322 8.16487 56.8394 8.16487ZM22.1453 8.05977C22.0609 8.05977 21.9807 8.01003 21.9458 7.9274C21.8994 7.81732 21.9511 7.69036 22.0612 7.64394C22.2831 7.55031 22.5074 7.45895 22.7342 7.3699C22.8455 7.326 22.971 7.38089 23.0147 7.49216C23.0585 7.6034 23.0037 7.72899 22.8924 7.7727C22.669 7.86049 22.4481 7.95045 22.2294 8.04264C22.2019 8.05429 22.1733 8.05977 22.1453 8.05977ZM55.1763 7.68333C55.1572 7.68333 55.1377 7.6808 55.1184 7.67546C54.8867 7.61126 54.6554 7.54843 54.4242 7.48694C54.3087 7.45613 54.24 7.33765 54.2708 7.22212C54.3016 7.1066 54.4204 7.03818 54.5355 7.06862C54.7681 7.13055 55.0009 7.19381 55.2339 7.25826C55.349 7.29015 55.4166 7.40943 55.3847 7.52459C55.3582 7.62042 55.2711 7.68333 55.1763 7.68333ZM23.759 7.43402C23.67 7.43402 23.5866 7.37873 23.5552 7.29004C23.5151 7.1774 23.5739 7.05368 23.6866 7.01368C23.9133 6.93304 24.1423 6.85455 24.3734 6.77805C24.4872 6.74043 24.6094 6.80222 24.6469 6.91558C24.6843 7.02905 24.6228 7.1515 24.5094 7.18905C24.2813 7.26443 24.0553 7.34191 23.8315 7.42151C23.8075 7.42991 23.7831 7.43402 23.759 7.43402ZM53.5025 7.2412C53.485 7.2412 53.4673 7.23908 53.4495 7.23457C53.2163 7.17596 52.9836 7.11861 52.7511 7.06267C52.635 7.03468 52.5634 6.91782 52.5913 6.8016C52.6193 6.68543 52.7361 6.61387 52.8524 6.64182C53.0864 6.69816 53.3206 6.7558 53.5552 6.81484C53.671 6.84402 53.7414 6.96157 53.7123 7.07745C53.6875 7.1757 53.5993 7.2412 53.5025 7.2412ZM25.4048 6.89783C25.3114 6.89783 25.2254 6.83702 25.1974 6.74299C25.1634 6.62844 25.2286 6.50797 25.3432 6.47389C25.5738 6.40536 25.8065 6.33878 26.041 6.2744C26.156 6.24269 26.2753 6.31046 26.307 6.4257C26.3387 6.54098 26.2709 6.66007 26.1556 6.6917C25.9241 6.7554 25.6943 6.82112 25.4665 6.88882C25.4459 6.89488 25.4252 6.89783 25.4048 6.89783ZM51.8185 6.83926C51.8026 6.83926 51.7866 6.83749 51.7705 6.83385C51.5362 6.78087 51.3021 6.72925 51.0683 6.67894C50.9515 6.65387 50.8771 6.53878 50.9023 6.42188C50.9274 6.30509 51.0425 6.23061 51.1593 6.25582C51.3946 6.30639 51.6301 6.35833 51.866 6.41171C51.9826 6.43804 52.0558 6.55392 52.0293 6.67053C52.0067 6.77098 51.9173 6.83926 51.8185 6.83926ZM50.1252 6.47861C50.1111 6.47861 50.0968 6.47721 50.0825 6.47432C49.8469 6.42711 49.6115 6.38134 49.3766 6.33687C49.2592 6.31468 49.182 6.20147 49.2043 6.08403C49.2264 5.96666 49.3394 5.88933 49.4571 5.91166C49.6935 5.95638 49.9304 6.00248 50.1675 6.04994C50.2847 6.07339 50.3607 6.18744 50.3372 6.30459C50.3166 6.40749 50.2262 6.47861 50.1252 6.47861ZM27.0756 6.44554C26.9782 6.44554 26.8898 6.37939 26.8655 6.28064C26.8371 6.16453 26.9081 6.04738 27.0242 6.01885C27.2578 5.96158 27.4933 5.90621 27.7305 5.85287C27.8475 5.8269 27.9629 5.89986 27.9891 6.01651C28.0153 6.13308 27.9421 6.24893 27.8254 6.27512C27.5911 6.32789 27.3583 6.38253 27.1273 6.43926C27.11 6.44348 27.0926 6.44554 27.0756 6.44554ZM48.4235 6.16035C48.4112 6.16035 48.3987 6.1593 48.3861 6.1571C48.1493 6.11584 47.9129 6.07602 47.677 6.03765C47.5591 6.01842 47.479 5.90726 47.4982 5.78924C47.5174 5.6713 47.6281 5.59152 47.7466 5.61045C47.9841 5.64912 48.222 5.68923 48.4603 5.73063C48.5781 5.75112 48.6569 5.86322 48.6364 5.98098C48.6182 6.08616 48.5267 6.16035 48.4235 6.16035ZM28.7659 6.07173C28.6646 6.07173 28.5742 6.00039 28.5538 5.8973C28.5306 5.78008 28.6068 5.66618 28.724 5.64291C28.96 5.59621 29.1975 5.55141 29.4366 5.50842C29.5537 5.48667 29.6667 5.56533 29.6879 5.68306C29.7091 5.80071 29.6308 5.91321 29.5132 5.93442C29.2766 5.97691 29.0416 6.02127 28.8081 6.06747C28.7939 6.07032 28.7798 6.07173 28.7659 6.07173ZM46.7141 5.88569C46.7036 5.88569 46.693 5.88497 46.6823 5.88338C46.4445 5.84836 46.2072 5.81471 45.9704 5.7825C45.852 5.76634 45.769 5.65731 45.7851 5.53889C45.8012 5.42041 45.9111 5.33763 46.0287 5.35361C46.2671 5.38607 46.506 5.41991 46.7454 5.45518C46.8636 5.47257 46.9453 5.58254 46.9279 5.7008C46.9121 5.80836 46.8197 5.88569 46.7141 5.88569ZM30.4707 5.77121C30.3658 5.77121 30.2737 5.69485 30.2571 5.58791C30.2389 5.46979 30.3197 5.35924 30.4379 5.34092C30.6756 5.30413 30.9147 5.26907 31.1552 5.23589C31.273 5.21897 31.3828 5.30225 31.3992 5.42066C31.4155 5.53904 31.3328 5.64829 31.2144 5.66463C30.9763 5.69752 30.7396 5.73218 30.5042 5.76865C30.4929 5.77045 30.4818 5.77121 30.4707 5.77121ZM44.9982 5.65604C44.9896 5.65604 44.9809 5.65554 44.9722 5.65449C44.7334 5.62582 44.4953 5.59862 44.2578 5.57276C44.1389 5.55988 44.0531 5.45302 44.066 5.33424C44.079 5.2154 44.1853 5.12967 44.3046 5.14251C44.5437 5.16851 44.7834 5.19596 45.0238 5.22478C45.1424 5.23902 45.2271 5.34672 45.2128 5.46542C45.1996 5.57529 45.1062 5.65604 44.9982 5.65604ZM32.1864 5.54009C32.078 5.54009 31.9844 5.45879 31.9717 5.34849C31.958 5.22972 32.0432 5.12234 32.1619 5.10867C32.4009 5.08112 32.6411 5.05544 32.8826 5.03141C33.0008 5.02063 33.1075 5.10644 33.1193 5.22535C33.1311 5.34434 33.0443 5.45027 32.9254 5.4621C32.6861 5.48584 32.4482 5.51141 32.2115 5.53868C32.203 5.53965 32.1947 5.54009 32.1864 5.54009ZM43.2765 5.473C43.2699 5.473 43.2632 5.47271 43.2563 5.4721C43.017 5.44999 42.7783 5.42932 42.5402 5.41017C42.421 5.40057 42.3322 5.29626 42.3418 5.17713C42.3514 5.058 42.4561 4.96894 42.5748 4.97875C42.8146 4.99805 43.055 5.01883 43.2962 5.04108C43.4152 5.05208 43.5027 5.15744 43.4918 5.2765C43.4814 5.38874 43.3871 5.473 43.2765 5.473ZM33.9097 5.37403C33.7978 5.37403 33.703 5.28786 33.6942 5.17446C33.6849 5.05526 33.774 4.95113 33.8931 4.94186C34.1329 4.92318 34.3738 4.90622 34.616 4.89086C34.7341 4.88206 34.838 4.97385 34.8456 5.09316C34.8531 5.21244 34.7626 5.3152 34.6433 5.32281C34.4033 5.33803 34.1645 5.35487 33.9268 5.37338C33.921 5.37381 33.9154 5.37403 33.9097 5.37403ZM41.5504 5.33817C41.5457 5.33817 41.5412 5.33803 41.5364 5.33774C41.2966 5.32252 41.0573 5.30874 40.8189 5.29648C40.6995 5.29035 40.6078 5.18856 40.6139 5.06921C40.62 4.94976 40.7211 4.85648 40.8412 4.8642C41.0813 4.87661 41.3222 4.89039 41.5639 4.90575C41.6832 4.91336 41.7737 5.01612 41.7662 5.13547C41.7589 5.25013 41.6637 5.33817 41.5504 5.33817ZM35.638 5.26964C35.5227 5.26964 35.4269 5.17883 35.4219 5.06261C35.4167 4.94323 35.5093 4.8422 35.6287 4.83704C35.8691 4.82662 36.1103 4.81796 36.3527 4.81086C36.4704 4.80909 36.5719 4.90139 36.5754 5.02085C36.5788 5.1403 36.4848 5.24 36.3654 5.24353C36.125 5.25053 35.8858 5.25918 35.6475 5.26946C35.6443 5.26957 35.6411 5.26964 35.638 5.26964ZM39.8212 5.25356C39.8187 5.25356 39.8162 5.25349 39.8136 5.25342C39.5734 5.24523 39.334 5.23863 39.0953 5.23354C38.9758 5.23102 38.881 5.13208 38.8836 5.01262C38.8861 4.89317 38.9868 4.79549 39.1045 4.80087C39.345 4.80595 39.5863 4.81255 39.8284 4.82089C39.9479 4.82496 40.0414 4.92509 40.0373 5.04454C40.0334 5.16151 39.9373 5.25356 39.8212 5.25356ZM37.3686 5.22377C37.2501 5.22377 37.1535 5.12833 37.1523 5.00952C37.1511 4.88999 37.247 4.79214 37.3665 4.79095C37.5498 4.78911 37.7338 4.78821 37.9181 4.78821L38.0908 4.7885C38.2104 4.78893 38.3069 4.8862 38.3065 5.0057C38.306 5.12494 38.2092 5.22131 38.09 5.22131C38.0898 5.22131 38.0895 5.22131 38.0893 5.22131L37.9181 5.22103C37.7352 5.22103 37.5528 5.22193 37.3709 5.22377C37.3701 5.22377 37.3694 5.22377 37.3686 5.22377Z" fill="#292F52"/>
    <path d="M59.007 82.2824C58.9901 82.2824 58.9731 82.2818 58.9565 82.2824C58.8078 82.2824 58.6588 82.2817 58.5093 82.2801C58.3898 82.2789 58.2939 82.181 58.2951 82.0615C58.2964 81.9427 58.3931 81.8473 58.5115 81.8473C58.5123 81.8473 58.5129 81.8473 58.5138 81.8473C58.6781 81.849 58.8418 81.8499 59.0052 81.8496C59.0809 81.8496 59.1562 81.8493 59.2315 81.8489C59.232 81.8489 59.2325 81.8489 59.2329 81.8489C59.3518 81.8489 59.4486 81.9448 59.4493 82.064C59.45 82.1835 59.3538 82.281 59.2341 82.2817C59.1585 82.2821 59.0828 82.2824 59.007 82.2824ZM60.2415 82.2642C60.1249 82.2642 60.0288 82.1714 60.0254 82.054C60.0219 81.9345 60.116 81.835 60.2354 81.8316C60.4752 81.8246 60.7145 81.8159 60.9529 81.8053C61.0773 81.7998 61.1735 81.8924 61.1787 82.0118C61.1841 82.1313 61.0917 82.2324 60.9723 82.2376C60.7314 82.2485 60.4899 82.2572 60.2479 82.2641C60.2457 82.2642 60.2436 82.2642 60.2415 82.2642ZM57.5022 82.259C57.4998 82.259 57.4975 82.259 57.4951 82.2589C57.2543 82.2513 57.013 82.2417 56.7708 82.23C56.6515 82.2243 56.5593 82.1229 56.5651 82.0034C56.5707 81.8841 56.6726 81.7949 56.7917 81.7977C57.0313 81.8091 57.2704 81.8187 57.5089 81.8263C57.6284 81.8301 57.7221 81.93 57.7183 82.0495C57.7146 82.1666 57.6185 82.259 57.5022 82.259ZM61.9704 82.1814C61.8575 82.1814 61.7624 82.0939 61.7547 81.9795C61.7467 81.8603 61.8368 81.757 61.9562 81.749C62.1955 81.733 62.4342 81.7149 62.6721 81.6949C62.7899 81.6874 62.8958 81.7735 62.9058 81.8926C62.9157 82.0116 62.8273 82.1163 62.7081 82.1263C62.4681 82.1463 62.2271 82.1646 61.9852 82.1809C61.9802 82.1813 61.9753 82.1814 61.9704 82.1814ZM55.7733 82.1711C55.7682 82.1711 55.7631 82.171 55.7581 82.1706C55.5177 82.1539 55.2768 82.1352 55.0354 82.1146C54.9164 82.1046 54.828 81.9998 54.8382 81.8808C54.8483 81.7616 54.9546 81.6723 55.072 81.6835C55.3111 81.7038 55.5498 81.7222 55.7879 81.7389C55.9073 81.7472 55.9971 81.8505 55.9888 81.9698C55.981 82.0838 55.8858 82.1711 55.7733 82.1711ZM63.695 82.0311C63.5859 82.0311 63.492 81.9486 63.4802 81.8376C63.4675 81.7189 63.5534 81.6122 63.6723 81.5995C63.911 81.574 64.1486 81.5465 64.3853 81.5171C64.5056 81.5022 64.6121 81.5866 64.6267 81.705C64.6415 81.8237 64.5573 81.9319 64.4388 81.9465C64.1996 81.9762 63.9595 82.004 63.7183 82.0298C63.7105 82.0306 63.7028 82.0311 63.695 82.0311ZM54.0489 82.0187C54.0412 82.0187 54.0334 82.0183 54.0257 82.0174C53.7861 81.9917 53.5461 81.9643 53.3056 81.9348C53.187 81.9203 53.1026 81.8123 53.1171 81.6936C53.1317 81.5751 53.2383 81.4924 53.3583 81.5051C53.5966 81.5343 53.8342 81.5617 54.0716 81.5871C54.1906 81.5998 54.2765 81.7064 54.2638 81.8252C54.252 81.9362 54.1581 82.0187 54.0489 82.0187ZM65.4122 81.8123C65.3067 81.8123 65.2144 81.7351 65.1985 81.6276C65.1808 81.5094 65.2626 81.3993 65.3808 81.3818C65.6182 81.3466 65.8546 81.3096 66.0899 81.2707C66.2085 81.2511 66.3193 81.3308 66.3387 81.4487C66.3583 81.5667 66.2785 81.6781 66.1606 81.6975C65.9227 81.737 65.6841 81.7743 65.4442 81.8099C65.4335 81.8115 65.4228 81.8123 65.4122 81.8123ZM52.3313 81.8025C52.321 81.8025 52.3106 81.8018 52.3002 81.8003C52.0616 81.7659 51.8229 81.7296 51.5837 81.6914C51.4658 81.6725 51.3854 81.5615 51.4042 81.4435C51.4231 81.3255 51.533 81.2447 51.6521 81.2639C51.889 81.3018 52.1256 81.3379 52.362 81.372C52.4802 81.389 52.5623 81.4988 52.5453 81.617C52.5297 81.7248 52.4371 81.8025 52.3313 81.8025ZM67.1193 81.5239C67.0174 81.5239 66.9267 81.4516 66.9069 81.3479C66.8847 81.2305 66.9618 81.1172 67.0791 81.0948C67.3148 81.05 67.5494 81.0033 67.783 80.9546C67.8994 80.9304 68.0148 81.0055 68.039 81.1225C68.0634 81.2394 67.9883 81.3541 67.8712 81.3784C67.6354 81.4276 67.3983 81.4747 67.16 81.5201C67.1463 81.5226 67.1326 81.5239 67.1193 81.5239ZM50.6227 81.5239C50.6098 81.5239 50.5968 81.5227 50.5837 81.5203C50.3467 81.4772 50.1093 81.4321 49.8719 81.3854C49.7546 81.3622 49.6783 81.2484 49.7014 81.1312C49.7246 81.014 49.8388 80.9375 49.9556 80.9607C50.1911 81.0072 50.4263 81.0517 50.6612 81.0945C50.7788 81.116 50.8568 81.2287 50.8354 81.3462C50.8163 81.4507 50.7252 81.5239 50.6227 81.5239ZM48.9254 81.1835C48.91 81.1835 48.8944 81.1819 48.8788 81.1784C48.6435 81.1268 48.4079 81.0733 48.1723 81.0179C48.0559 80.9906 47.9838 80.8742 48.011 80.7578C48.0385 80.6414 48.155 80.5689 48.2712 80.5966C48.5049 80.6515 48.7383 80.7044 48.9716 80.7557C49.0884 80.7813 49.1622 80.8967 49.1366 81.0134C49.1144 81.1146 49.0248 81.1835 48.9254 81.1835ZM68.813 81.1653C68.7147 81.1653 68.6258 81.0979 68.6024 80.9982C68.5752 80.8818 68.6475 80.7654 68.7639 80.7381C68.9975 80.6834 69.2298 80.6271 69.4611 80.5686C69.5772 80.539 69.6946 80.6095 69.7239 80.7254C69.7532 80.8412 69.683 80.9589 69.5671 80.9882C69.3335 81.0472 69.0986 81.1044 68.8625 81.1596C68.8459 81.1635 68.8294 81.1653 68.813 81.1653ZM47.2413 80.7826C47.2235 80.7826 47.2054 80.7805 47.1873 80.7759C46.9541 80.716 46.7205 80.6541 46.4869 80.5904C46.3716 80.559 46.3036 80.4401 46.335 80.3247C46.3664 80.2095 46.4854 80.1411 46.6007 80.1728C46.8323 80.2359 47.0637 80.2972 47.2949 80.3566C47.4107 80.3863 47.4804 80.5042 47.4508 80.62C47.4257 80.7177 47.3377 80.7826 47.2413 80.7826ZM70.49 80.7354C70.3953 80.7354 70.3083 80.6729 70.2817 80.5773C70.2494 80.4622 70.3166 80.3427 70.4317 80.3106C70.6628 80.246 70.8926 80.1796 71.121 80.1113C71.2353 80.077 71.3562 80.142 71.3904 80.2564C71.4248 80.3709 71.3597 80.4915 71.2453 80.5258C71.0143 80.5949 70.782 80.6621 70.5484 80.7274C70.5288 80.7329 70.5092 80.7354 70.49 80.7354ZM45.5723 80.3225C45.5521 80.3225 45.5315 80.3197 45.5111 80.3136C45.2801 80.2455 45.0489 80.1757 44.8176 80.1038C44.7035 80.0683 44.6397 79.947 44.6752 79.8329C44.7107 79.7188 44.8319 79.6551 44.9461 79.6905C45.1754 79.7618 45.4045 79.831 45.6335 79.8986C45.7482 79.9323 45.8137 80.0526 45.7799 80.1672C45.7521 80.2615 45.6658 80.3225 45.5723 80.3225ZM72.1468 80.2332C72.0558 80.2332 71.971 80.1754 71.9411 80.0841C71.9039 79.9705 71.9659 79.8483 72.0795 79.811C72.3074 79.7364 72.534 79.6599 72.7591 79.5815C72.872 79.5419 72.9954 79.6019 73.0347 79.7148C73.0739 79.8278 73.0143 79.9511 72.9014 79.9904C72.6737 80.0696 72.4447 80.1469 72.2142 80.2224C72.1918 80.2298 72.1691 80.2332 72.1468 80.2332ZM43.9206 79.8043C43.8979 79.8043 43.8749 79.8007 43.8522 79.7932C43.6237 79.7171 43.3951 79.6392 43.1667 79.5594C43.0538 79.5201 42.9942 79.3967 43.0336 79.2839C43.0729 79.1711 43.1959 79.1108 43.3091 79.1508C43.5357 79.2298 43.7624 79.3071 43.989 79.3826C44.1024 79.4204 44.1637 79.543 44.1259 79.6562C44.0957 79.7469 44.0113 79.8043 43.9206 79.8043ZM73.7796 79.6579C73.6923 79.6579 73.61 79.6046 73.5772 79.518C73.5349 79.4063 73.5912 79.2814 73.7031 79.239C73.9274 79.1542 74.1502 79.0674 74.3714 78.9789C74.4821 78.9347 74.6084 78.9885 74.6528 79.0994C74.6971 79.2104 74.6432 79.3364 74.5323 79.3808C74.3086 79.4704 74.0833 79.558 73.8562 79.644C73.831 79.6534 73.8051 79.6579 73.7796 79.6579ZM42.2878 79.2292C42.2627 79.2292 42.2373 79.2248 42.2124 79.2156C41.9866 79.1317 41.7609 79.046 41.5351 78.9584C41.4237 78.9151 41.3684 78.7897 41.4116 78.6783C41.4548 78.567 41.58 78.5115 41.6917 78.5548C41.9156 78.6416 42.1394 78.7267 42.3632 78.8099C42.4752 78.8516 42.5323 78.9762 42.4907 79.0882C42.4583 79.1754 42.3756 79.2292 42.2878 79.2292ZM75.3842 79.008C75.3005 79.008 75.2208 78.9592 75.1854 78.8775C75.1379 78.7679 75.1884 78.6404 75.2981 78.5929C75.518 78.4977 75.7366 78.4007 75.9533 78.3017C76.062 78.2517 76.1904 78.3 76.24 78.4086C76.2897 78.5173 76.2418 78.6456 76.133 78.6953C75.9138 78.7955 75.6927 78.8937 75.47 78.9902C75.442 79.0023 75.4128 79.008 75.3842 79.008ZM40.6755 78.5987C40.6481 78.5987 40.6202 78.5934 40.5933 78.5825C40.3706 78.4909 40.1479 78.3976 39.9252 78.3027C39.8153 78.2557 39.7643 78.1285 39.8112 78.0186C39.8581 77.9086 39.9853 77.8576 40.0952 77.9045C40.316 77.9989 40.5369 78.0913 40.7578 78.1821C40.8684 78.2276 40.9212 78.354 40.8757 78.4646C40.8414 78.5481 40.7606 78.5987 40.6755 78.5987ZM76.9559 78.2827C76.876 78.2827 76.7992 78.2383 76.7616 78.1618C76.7088 78.0546 76.753 77.9248 76.8602 77.8721C77.0755 77.7661 77.2888 77.6585 77.5004 77.549C77.6066 77.4941 77.7371 77.5355 77.7921 77.6417C77.847 77.7479 77.8054 77.8785 77.6994 77.9334C77.4852 78.0443 77.2691 78.1533 77.0513 78.2604C77.0205 78.2756 76.988 78.2827 76.9559 78.2827ZM39.0854 77.9141C39.0557 77.9141 39.0255 77.908 38.9966 77.8949C38.7772 77.7962 38.5578 77.6954 38.3384 77.593C38.23 77.5424 38.1833 77.4137 38.2338 77.3053C38.2843 77.1971 38.4132 77.1502 38.5214 77.2008C38.7391 77.3023 38.9567 77.4023 39.1744 77.5005C39.2834 77.5495 39.3319 77.6777 39.2828 77.7866C39.2468 77.8667 39.1679 77.9141 39.0854 77.9141ZM78.4899 77.4802C78.4139 77.4802 78.3403 77.4402 78.3007 77.369C78.2425 77.2646 78.2801 77.1327 78.3845 77.0747C78.5941 76.958 78.8016 76.8397 79.0072 76.7196C79.1102 76.6591 79.2426 76.6938 79.3032 76.7973C79.3635 76.9004 79.3287 77.033 79.2256 77.0933C79.0175 77.215 78.8072 77.3348 78.595 77.4529C78.5616 77.4714 78.5255 77.4802 78.4899 77.4802ZM37.5191 77.1771C37.487 77.1771 37.4545 77.17 37.4238 77.155C37.2078 77.0489 36.9917 76.9411 36.7758 76.8315C36.6693 76.7773 36.6268 76.6471 36.6809 76.5404C36.735 76.4339 36.8651 76.3915 36.9718 76.4454C37.186 76.5542 37.4002 76.6611 37.6145 76.7664C37.7218 76.8191 37.7661 76.9487 37.7134 77.056C37.6759 77.1327 37.599 77.1771 37.5191 77.1771ZM79.9802 76.5998C79.9082 76.5998 79.8378 76.5639 79.7968 76.4984C79.7332 76.3971 79.7638 76.2635 79.8651 76.2001C80.0682 76.0727 80.2691 75.9435 80.4679 75.8127C80.5674 75.7469 80.7018 75.7744 80.7676 75.8743C80.8334 75.974 80.8059 76.1083 80.706 76.1739C80.5047 76.3068 80.301 76.4376 80.0951 76.5667C80.0593 76.5891 80.0196 76.5998 79.9802 76.5998ZM35.9776 76.3892C35.9434 76.3892 35.9086 76.3811 35.8763 76.3639C35.6637 76.2508 35.4513 76.1361 35.2391 76.0195C35.1343 75.962 35.0961 75.8304 35.1536 75.7256C35.2111 75.621 35.3426 75.5825 35.4475 75.6403C35.6579 75.7558 35.8687 75.8696 36.0794 75.9818C36.185 76.0379 36.225 76.1689 36.1689 76.2744C36.13 76.3475 36.0551 76.3892 35.9776 76.3892ZM81.4211 75.6405C81.3534 75.6405 81.2864 75.6087 81.2443 75.5491C81.1753 75.4516 81.1984 75.3165 81.296 75.2474C81.4916 75.1091 81.6849 74.9689 81.8758 74.8268C81.9719 74.7558 82.1071 74.7754 82.1787 74.8713C82.25 74.9673 82.23 75.1028 82.1342 75.1743C81.9405 75.3182 81.7444 75.4604 81.546 75.6007C81.5081 75.6277 81.4644 75.6405 81.4211 75.6405ZM34.4625 75.5521C34.4259 75.5521 34.389 75.5429 34.355 75.5233C34.1463 75.4036 33.9378 75.2821 33.7292 75.1589C33.6263 75.0981 33.5922 74.9654 33.653 74.8625C33.7139 74.7597 33.8465 74.7255 33.9494 74.7863C34.1563 74.9085 34.3632 75.0291 34.5704 75.148C34.674 75.2074 34.7099 75.3397 34.6505 75.4434C34.6104 75.513 34.5375 75.5521 34.4625 75.5521ZM32.9746 74.6672C32.9359 74.6672 32.8966 74.6568 32.8613 74.635C32.6564 74.5087 32.4518 74.3808 32.2474 74.2512C32.1465 74.1872 32.1164 74.0535 32.1804 73.9526C32.2443 73.8516 32.378 73.8215 32.479 73.8857C32.682 74.0142 32.8851 74.1413 33.0884 74.2667C33.1901 74.3294 33.2217 74.4627 33.159 74.5644C33.1181 74.6308 33.0472 74.6672 32.9746 74.6672ZM82.8051 74.601C82.7415 74.601 82.6786 74.5731 82.6359 74.5196C82.5612 74.4262 82.5766 74.2901 82.67 74.2155C82.8572 74.0661 83.0418 73.9149 83.2238 73.7619C83.3153 73.6849 83.4518 73.6968 83.5287 73.7883C83.6056 73.8798 83.5938 74.0163 83.5022 74.0932C83.3174 74.2485 83.13 74.4019 82.9399 74.5537C82.9001 74.5855 82.8524 74.601 82.8051 74.601ZM31.515 73.7362C31.4741 73.7362 31.4328 73.7247 31.3961 73.7005C31.1953 73.568 30.9947 73.4338 30.7943 73.2981C30.6953 73.231 30.6695 73.0965 30.7365 72.9974C30.8035 72.8985 30.9381 72.8729 31.037 72.9396C31.236 73.0745 31.4351 73.2076 31.6344 73.3392C31.7342 73.405 31.7617 73.5393 31.6958 73.639C31.6542 73.702 31.5853 73.7362 31.515 73.7362ZM84.1243 73.4807C84.0654 73.4807 84.0065 73.4567 83.9638 73.4094C83.8836 73.3208 83.8904 73.184 83.979 73.1038C84.1567 72.9432 84.3315 72.7809 84.5036 72.6169C84.5902 72.5346 84.727 72.5378 84.8096 72.6242C84.892 72.7108 84.8887 72.8478 84.8022 72.9302C84.6274 73.0967 84.4497 73.2616 84.2695 73.4247C84.2281 73.4622 84.1761 73.4807 84.1243 73.4807ZM30.0847 72.7613C30.0416 72.7613 29.9982 72.7484 29.9603 72.7218C29.7636 72.5833 29.5672 72.4432 29.3709 72.3014C29.274 72.2314 29.2523 72.0961 29.3223 71.9992C29.3923 71.9024 29.5275 71.8805 29.6245 71.9505C29.8192 72.0913 30.0142 72.2305 30.2094 72.3679C30.3071 72.4366 30.3306 72.5716 30.2618 72.6694C30.2197 72.7293 30.1527 72.7613 30.0847 72.7613ZM85.3702 72.2794C85.3158 72.2794 85.2614 72.2591 85.2194 72.2182C85.1336 72.135 85.1316 71.9979 85.2149 71.9122C85.3809 71.7413 85.5461 71.5665 85.7059 71.3922C85.7869 71.304 85.9239 71.2986 86.0118 71.3791C86.0998 71.4599 86.1056 71.5969 86.0249 71.685C85.8621 71.8621 85.6942 72.04 85.5254 72.2137C85.483 72.2575 85.4265 72.2794 85.3702 72.2794ZM86.5328 70.9976C86.4835 70.9976 86.4338 70.9808 86.3932 70.9464C86.3019 70.8693 86.2906 70.7326 86.3677 70.6414C86.5207 70.4606 86.6732 70.2748 86.8211 70.089C86.8953 69.9956 87.0319 69.9799 87.1251 70.0543C87.2187 70.1287 87.2342 70.265 87.1598 70.3584C87.0092 70.5477 86.8539 70.737 86.6982 70.9209C86.6554 70.9715 86.5942 70.9976 86.5328 70.9976ZM87.6018 69.637C87.5575 69.637 87.513 69.6236 87.4747 69.5956C87.378 69.5253 87.3566 69.39 87.4269 69.2934C87.5678 69.0996 87.706 68.903 87.838 68.709C87.9052 68.6101 88.0398 68.5846 88.1387 68.6518C88.2374 68.719 88.2631 68.8535 88.1959 68.9524C88.0615 69.1501 87.9205 69.3504 87.7769 69.5478C87.7346 69.6062 87.6687 69.637 87.6018 69.637ZM88.5656 68.1999C88.5268 68.1999 88.4877 68.1895 88.4521 68.1678C88.3504 68.1051 88.3187 67.9718 88.3814 67.87C88.5055 67.6685 88.6281 67.4619 88.7455 67.2559C88.8047 67.152 88.937 67.1159 89.0407 67.1752C89.1445 67.2344 89.1807 67.3665 89.1214 67.4704C89.0016 67.6805 88.8767 67.8914 88.75 68.0971C88.7092 68.1634 88.6381 68.1999 88.5656 68.1999ZM89.4122 66.6911C89.3792 66.6911 89.3457 66.6837 89.3143 66.6676C89.2078 66.6135 89.1652 66.4833 89.2195 66.3767C89.328 66.1631 89.4329 65.9473 89.5315 65.7351C89.582 65.6267 89.7106 65.58 89.8191 65.6301C89.9274 65.6805 89.9745 65.8092 89.924 65.9177C89.8233 66.1342 89.716 66.3546 89.6052 66.5728C89.5672 66.6478 89.4911 66.6911 89.4122 66.6911ZM90.13 65.1175C90.103 65.1175 90.0755 65.1124 90.0489 65.1016C89.9381 65.0568 89.8847 64.9306 89.9297 64.8198C90.0182 64.6013 90.104 64.3781 90.1845 64.1562C90.2254 64.0438 90.3495 63.9856 90.4618 64.0266C90.5742 64.0675 90.6322 64.1916 90.5915 64.3039C90.509 64.5309 90.4212 64.7591 90.3307 64.9824C90.2966 65.0665 90.2156 65.1175 90.13 65.1175ZM90.7076 63.4906C90.6866 63.4906 90.6651 63.4877 90.644 63.4812C90.5298 63.4461 90.4655 63.3252 90.5005 63.2108C90.5694 62.9861 90.635 62.7556 90.6958 62.5261C90.7264 62.4107 90.8448 62.3416 90.9604 62.3722C91.0759 62.4028 91.1448 62.5213 91.1142 62.6368C91.0521 62.8716 90.9849 63.1075 90.9144 63.3376C90.8858 63.4307 90.8001 63.4906 90.7076 63.4906ZM91.1376 61.8156C91.1229 61.8156 91.108 61.8142 91.0931 61.8111C90.9761 61.7865 90.901 61.672 90.9254 61.5549C90.9736 61.3241 91.0181 61.0881 91.0576 60.8534C91.0776 60.7355 91.1894 60.6566 91.3069 60.6759C91.4249 60.6958 91.5043 60.8074 91.4845 60.9253C91.444 61.1655 91.3985 61.4071 91.3492 61.6434C91.3278 61.7454 91.2379 61.8156 91.1376 61.8156ZM91.412 60.1039C91.4039 60.1039 91.3955 60.1035 91.3872 60.1025C91.2685 60.089 91.1832 59.9817 91.1968 59.863C91.2232 59.6309 91.2456 59.3924 91.2634 59.1537C91.2723 59.0344 91.3771 58.9446 91.4953 58.9539C91.6145 58.9628 91.704 59.0666 91.6951 59.1858C91.6769 59.4301 91.654 59.6745 91.6268 59.912C91.6142 60.0224 91.5205 60.1039 91.412 60.1039ZM91.5272 58.3784C91.5257 58.3784 91.5241 58.3784 91.5226 58.3784C91.4031 58.3759 91.3083 58.277 91.3107 58.1575C91.3134 58.0291 91.3148 57.9002 91.3148 57.7713C91.3148 57.6626 91.3138 57.5538 91.3118 57.4447C91.3097 57.3252 91.4048 57.2266 91.5244 57.2245C91.5257 57.2245 91.5269 57.2245 91.5284 57.2245C91.646 57.2245 91.7425 57.3189 91.7446 57.4371C91.7466 57.5487 91.7476 57.6601 91.7476 57.7713C91.7476 57.9033 91.7462 58.0351 91.7435 58.1665C91.741 58.2844 91.6446 58.3784 91.5272 58.3784ZM91.4839 56.6484C91.3713 56.6484 91.2763 56.5612 91.2683 56.4472C91.2518 56.2119 91.2305 55.9728 91.2052 55.7362C91.1924 55.6173 91.2784 55.5107 91.3972 55.498C91.5164 55.4849 91.6228 55.5711 91.6354 55.69C91.6614 55.9318 91.683 56.1763 91.6999 56.4167C91.7084 56.5361 91.6185 56.6395 91.4993 56.6478C91.4941 56.6482 91.4891 56.6484 91.4839 56.6484ZM91.2866 54.9284C91.1821 54.9284 91.0901 54.8524 91.0732 54.7459C91.0363 54.5135 90.9944 54.277 90.9486 54.0429C90.9257 53.9257 91.002 53.812 91.1194 53.789C91.2372 53.7659 91.3504 53.8424 91.3733 53.9597C91.4202 54.199 91.463 54.4406 91.5006 54.678C91.5194 54.7961 91.4388 54.907 91.3209 54.9257C91.3093 54.9275 91.2979 54.9284 91.2866 54.9284ZM90.943 53.2316C90.8456 53.2316 90.7573 53.1656 90.7329 53.0669C90.6767 52.8383 90.6154 52.606 90.5506 52.3762C90.5181 52.2612 90.585 52.1416 90.7001 52.1092C90.815 52.0765 90.9346 52.1437 90.9671 52.2587C91.0333 52.4931 91.0958 52.7303 91.1533 52.9636C91.1818 53.0797 91.1109 53.1969 90.9948 53.2255C90.9775 53.2296 90.96 53.2316 90.943 53.2316ZM90.4623 51.5681C90.3714 51.5681 90.2869 51.5106 90.2569 51.4198C90.183 51.1966 90.1037 50.9696 90.0212 50.7447C89.98 50.6326 90.0375 50.5083 90.1498 50.467C90.2615 50.426 90.3863 50.4834 90.4275 50.5957C90.5116 50.8246 90.5924 51.0563 90.6677 51.2836C90.7053 51.3972 90.6437 51.5196 90.5303 51.5571C90.5078 51.5646 90.4848 51.5681 90.4623 51.5681Z" fill="#292F52"/>
    <path d="M11.3645 32.8307L14.2757 34.5442L13.4802 32.8885L11.3645 32.8307Z" fill="#428AEB"/>
    <path d="M16.8085 28.4597L19.9173 38.1931L14.1541 32.0326L16.8085 28.4597Z" fill="#6BA9FB"/>
    <path d="M13.4803 32.8885L10.9221 36.3393L19.9174 38.1931L13.4803 32.8885Z" fill="#6BA9FB"/>
    <path d="M14.1541 32.0326L11.3645 32.8307L13.4802 32.8885L19.9173 38.1931L14.1541 32.0326Z" fill="#428AEB"/>
    <path d="M49.3403 2.29926H37.1645C36.2833 2.29926 35.5623 3.02018 35.5623 3.90133V9.9856C35.5623 10.8667 36.2833 11.5877 37.1645 11.5877H44.4807V14.4937C44.4807 15.3748 44.9904 15.5859 45.6134 14.9629L48.9888 11.5877H49.3403C50.2215 11.5877 50.9426 10.8667 50.9426 9.9856V3.90133C50.9426 3.02022 50.2215 2.29926 49.3403 2.29926Z" fill="#F59F35"/>
    <path d="M32.4877 3.77112H44.6635C45.5448 3.77112 46.2658 4.49205 46.2658 5.3732V11.4574C46.2658 12.3386 45.5448 13.0594 44.6635 13.0594H37.3473V15.9654C37.3473 16.8465 36.8376 17.0578 36.2146 16.4345L32.8392 13.0594H32.4877C31.6066 13.0594 30.8855 12.3386 30.8855 11.4574V5.3732C30.8855 4.49205 31.6066 3.77112 32.4877 3.77112Z" fill="#F5D236"/>
    <path d="M43.6272 7.08496H35.5434C35.3842 7.08496 35.2549 6.95577 35.2549 6.79642C35.2549 6.63707 35.3842 6.50787 35.5434 6.50787H43.6272C43.7867 6.50787 43.9158 6.63707 43.9158 6.79642C43.9158 6.95577 43.7867 7.08496 43.6272 7.08496Z" fill="#F5F5F5"/>
    <path d="M43.6272 8.51734H33.5237C33.3644 8.51734 33.2351 8.38814 33.2351 8.22879C33.2351 8.06944 33.3644 7.94025 33.5237 7.94025H43.6272C43.7867 7.94025 43.9158 8.06944 43.9158 8.22879C43.9158 8.38814 43.7867 8.51734 43.6272 8.51734Z" fill="#F5F5F5"/>
    <path d="M41.4586 9.94995H33.5237C33.3644 9.94995 33.2351 9.82076 33.2351 9.66141C33.2351 9.50206 33.3644 9.37286 33.5237 9.37286H41.4586C41.6181 9.37286 41.7472 9.50206 41.7472 9.66141C41.7472 9.82076 41.6181 9.94995 41.4586 9.94995Z" fill="#F5F5F5"/>
    <path d="M53.3684 78.5421L59.4687 73.1875C60.0653 72.6641 61.0411 72.6641 61.6373 73.1875L67.7379 78.5421H53.3684Z" fill="#F5D236"/>
    <path d="M68.3434 79.7138V86.1196C68.3434 86.9131 67.6942 87.5624 66.9007 87.5624H54.2047C53.4112 87.5624 52.762 86.9131 52.762 86.1196V79.7138C52.762 78.9203 53.4112 78.2711 54.2047 78.2711H66.9007C67.6942 78.2711 68.3434 78.9203 68.3434 79.7138Z" fill="#F59F35"/>
    <path d="M66.0595 84.6913C66.0595 85.4848 65.4103 86.134 64.6168 86.134H56.4894C55.6959 86.134 55.0466 85.4848 55.0466 84.6913V77.1704C55.0466 76.3769 55.6959 75.7277 56.4894 75.7277H64.6168C65.4103 75.7277 66.0595 76.3769 66.0595 77.1704V84.6913Z" fill="#F5F5F5"/>
    <path d="M68.3434 80.1222V86.1196C68.3434 86.9131 67.6942 87.5624 66.9007 87.5624H54.2047C53.4112 87.5624 52.762 86.9131 52.762 86.1196V80.1222C52.762 80.1222 55.0948 82.9168 60.5527 83.5847C66.0105 82.9168 68.3434 80.1222 68.3434 80.1222Z" fill="#F5D236"/>
    <path d="M64.0635 78.5596H58.966C58.8065 78.5596 58.6775 78.4304 58.6775 78.2711C58.6775 78.1118 58.8065 77.9825 58.966 77.9825H64.0635C64.223 77.9825 64.352 78.1118 64.352 78.2711C64.352 78.4304 64.223 78.5596 64.0635 78.5596Z" fill="#E6E6E6"/>
    <path d="M64.0636 79.8895H57.0425C56.883 79.8895 56.7539 79.7603 56.7539 79.6009C56.7539 79.4416 56.883 79.3124 57.0425 79.3124H64.0636C64.2231 79.3124 64.3522 79.4416 64.3522 79.6009C64.3522 79.7603 64.2231 79.8895 64.0636 79.8895Z" fill="#E6E6E6"/>
    <path d="M62.2845 81.2193H57.0425C56.883 81.2193 56.7539 81.0901 56.7539 80.9308C56.7539 80.7714 56.883 80.6422 57.0425 80.6422H62.2845C62.4437 80.6422 62.573 80.7714 62.573 80.9308C62.573 81.0901 62.4437 81.2193 62.2845 81.2193Z" fill="#E6E6E6"/>
    <path d="M91.5311 54.1143L89.5134 50.1485L90.9744 51.2618L91.5311 54.1143Z" fill="#428AEB"/>
    <path d="M95.984 48.8959L87.0784 43.8863L91.9487 50.7746L95.984 48.8959Z" fill="#6BA9FB"/>
    <path d="M90.9744 51.2618L87.0784 53.0708V43.8863L90.9744 51.2618Z" fill="#6BA9FB"/>
    <path d="M91.9487 50.7746L91.5311 54.1143L90.9744 51.2618L87.0784 43.8863L91.9487 50.7746Z" fill="#428AEB"/>
    <mask id="mask0_12_3565" style="mask-type:luminance" maskUnits="userSpaceOnUse" x="3" y="38" width="49" height="45">
        <path d="M17.5528 42.9566C41.0676 28.8692 57.6024 55.4683 49.2719 65.0606C42.2185 73.1823 38.8281 65.6626 25.3738 78.7303C9.82596 93.8313 -11.6989 60.481 17.5528 42.9566Z" fill="white"/>
    </mask>
    <g mask="url(#mask0_12_3565)">
        <path d="M56.8265 37.282H-1.74829V87.7791H56.8265V37.282Z" fill="#E8E8F7"/>
    </g>
    <mask id="mask1_12_3565" style="mask-type:luminance" maskUnits="userSpaceOnUse" x="3" y="38" width="49" height="45">
        <path d="M17.5528 42.9566C41.0676 28.8692 57.6024 55.4683 49.2719 65.0606C42.2185 73.1823 38.8281 65.6626 25.3738 78.7303C9.82596 93.8313 -11.6989 60.481 17.5528 42.9566Z" fill="white"/>
    </mask>
    <g mask="url(#mask1_12_3565)">
        <path d="M36.5033 59.1733C36.5033 59.1733 36.0518 54.2971 36.1152 54.112C36.1786 53.9271 38.5231 53.1817 38.8477 53.5949L39.1002 56.841C39.1002 56.841 38.4966 59.7146 37.6081 59.5563C36.7197 59.3979 36.5033 59.1733 36.5033 59.1733Z" fill="#292F52"/>
        <path d="M39.4613 60.9654C39.3528 59.5604 40.0742 57.5045 39.6775 56.8553C39.2807 56.206 38.6675 56.001 38.6675 56.001C38.6675 56.001 37.1527 55.7728 37.2248 58.6766C36.3953 58.7308 35.8903 58.9416 36.2149 59.756C36.5395 60.5703 36.3953 61.9086 36.3953 61.9086C36.3953 61.9086 37.6216 62.201 38.2347 61.9086C38.8479 61.6162 39.4613 60.9654 39.4613 60.9654Z" fill="#FFA993"/>
        <path d="M31.1653 61.9086C32.6801 62.9869 35.3492 65.8002 35.7459 66.4494C36.0345 65.0427 35.9623 62.3452 36.0705 61.9086C37.2247 60.7146 38.956 60.7867 39.7495 61.0392C40.038 62.6262 39.9298 70.2005 39.497 71.9318C39.0642 73.663 37.7657 73.7712 36.4673 73.1581C35.1688 72.5449 31.7423 69.948 31.7423 69.948C31.7423 69.948 29.6865 65.9084 30.2635 64.4296C30.8406 62.9508 31.1653 61.9086 31.1653 61.9086Z" fill="#8A6BFF"/>
        <path d="M32.6653 69.55C36.185 72.3258 37.6048 73.3384 39.34 72.4067C39.34 72.4067 38.5931 74.3797 36.4674 73.1581C34.5844 72.0759 32.6653 70.634 32.6653 70.634V69.55Z" fill="#C2B3FF"/>
        <path d="M26.8365 59.7559C29.542 60.6063 30.8044 61.5517 31.1651 61.9086C31.5258 62.2655 32.716 67.315 32.716 70.9579C32.716 74.6008 32.4275 78.2798 32.4275 78.2798C32.4275 78.2798 28.496 81.1292 20.2364 80.7324C16.7739 76.4403 15.7279 63.8886 16.0165 63.3475C16.305 62.8065 19.4706 60.4925 22.2923 59.756C24.3482 59.885 26.8365 59.7559 26.8365 59.7559Z" fill="#8A3EFF"/>
        <path d="M19.3561 68.6144C19.5875 71.1743 19.1546 74.2761 20.4892 75.9353C21.8237 77.5944 24.9272 80.6028 24.9272 80.6028C24.9272 80.6028 23.0147 80.7857 21.8958 80.7697C20.6695 79.6864 18.4693 76.1825 18.0726 73.498C17.6758 70.8136 19.3561 68.6144 19.3561 68.6144Z" fill="#C2B3FF"/>
        <path d="M35.7459 66.4494C35.7459 66.4494 35.4934 68.1806 35.4212 68.7938C35.1688 66.9543 34.5784 65.3448 33.8096 64.274C34.4282 64.9127 35.7459 66.4494 35.7459 66.4494Z" fill="#C2B3FF"/>
        <path d="M28.2855 54.0398C28.7125 52.4549 29.5421 48.2349 27.0173 47.4414C24.4926 46.6479 22.3645 48.7594 20.3808 49.0562C18.397 49.353 17.2476 54.0051 20.0044 57.0532C22.6531 55.665 28.2855 54.0398 28.2855 54.0398Z" fill="#292F52"/>
        <path d="M20.8137 57.5766C21.4629 58.4423 22.1843 59.8489 22.004 61.0752C23.3385 62.5901 27.2339 61.7605 27.5585 60.7867C27.3781 60.0293 26.9092 58.9833 27.0896 58.2619C27.2699 57.5406 23.9517 55.9175 23.0139 56.206C22.0761 56.4946 20.8137 57.5766 20.8137 57.5766Z" fill="#FFB29E"/>
        <path d="M24.0959 59.1997C24.8353 59.6866 26.2344 59.9868 27.194 59.5301C27.149 59.3514 27.0501 58.6765 27.0501 58.6765L24.0959 59.1997Z" fill="#FF7D71"/>
        <path d="M20.8137 57.5766L21.8056 57.735C21.8056 57.735 22.9057 59.5571 22.612 61.5375C22.612 61.5375 22.1482 61.2195 22.004 61.0752C22.0761 59.9571 21.431 58.1984 20.8137 57.5766Z" fill="#FF7D71"/>
        <path d="M24.096 59.1997C27.8471 59.9932 28.6406 58.3701 28.2078 52.8156C28.2078 52.8156 28.7848 49.3531 25.3584 50.1466C21.9319 50.9401 20.3449 51.3729 19.876 52.491C19.4071 53.6091 19.6957 56.6388 20.8138 57.5766C21.9319 58.5144 24.096 59.1997 24.096 59.1997Z" fill="#FFB29E"/>
        <path d="M21.3176 55.2116C21.7673 55.0107 22.2926 53.9807 22.2204 52.8412C23.7533 53.4719 26.242 51.4992 28.2077 52.8157C28.2077 52.8157 28.3565 52.1123 27.7862 51.5533C27.2158 50.9942 22.004 51.409 21.6073 51.6795C21.2105 51.95 21.3176 55.2116 21.3176 55.2116Z" fill="#FF7D71"/>
        <path d="M28.2075 52.8156C26.9451 50.6155 23.3744 53.2845 21.8234 52.2025C22.1841 54.4026 20.951 56.0644 20.1248 56.5319C19.0462 54.7994 18.6787 51.95 20.1248 50.9401C21.571 49.9302 25.1417 48.9563 26.1516 49.0645C27.1615 49.1727 28.3878 50.1826 28.46 51.0843C28.5321 51.986 28.2075 52.8156 28.2075 52.8156Z" fill="#292F52"/>
        <path d="M21.3175 55.2116C20.453 53.9337 19.625 55.4486 19.6603 55.9535C19.6955 56.4585 19.9841 57.5405 20.8137 57.5766C20.994 56.747 21.3175 55.2116 21.3175 55.2116Z" fill="#FFB29E"/>
        <path d="M27.782 54.6738C27.8147 54.9256 27.7211 55.1454 27.5731 55.1647C27.4249 55.1838 27.2782 54.9953 27.2455 54.7434C27.2128 54.4915 27.3065 54.2717 27.4546 54.2526C27.6027 54.2334 27.7494 54.4219 27.782 54.6738Z" fill="#292F52"/>
        <path d="M24.9537 55.1311C24.9864 55.383 24.8927 55.6028 24.7447 55.622C24.5964 55.6412 24.4499 55.4527 24.4172 55.2008C24.3844 54.949 24.478 54.7292 24.6262 54.7099C24.7743 54.6907 24.9209 54.8792 24.9537 55.1311Z" fill="#292F52"/>
        <path d="M26.6937 53.3024C26.6937 53.3024 26.6947 53.2961 26.6962 53.2841C26.6987 53.2724 26.7009 53.2525 26.7078 53.2334C26.7203 53.1923 26.743 53.1365 26.7831 53.0839C26.8027 53.0561 26.8257 53.0277 26.8543 53.0043C26.881 52.9784 26.9123 52.9536 26.9464 52.9322C26.9819 52.9126 27.0187 52.8914 27.0597 52.8788C27.0999 52.8641 27.1424 52.8539 27.1858 52.8475C27.2295 52.8417 27.2733 52.8389 27.3169 52.8432C27.3605 52.8437 27.4033 52.8539 27.4436 52.8649C27.484 52.8732 27.5211 52.895 27.5554 52.9119C27.5902 52.9264 27.6197 52.9505 27.6457 52.9734C27.6989 53.0148 27.7327 53.0661 27.7532 53.1035C27.7737 53.1413 27.782 53.1662 27.7818 53.1662L27.7854 53.1774C27.7876 53.1839 27.7839 53.1906 27.7777 53.1927C27.7752 53.1934 27.7726 53.1934 27.7702 53.1926C27.7702 53.1926 27.7536 53.1872 27.7244 53.1779C27.6957 53.1678 27.6541 53.1555 27.6033 53.145C27.578 53.1385 27.5506 53.1323 27.521 53.1297C27.4916 53.1262 27.4608 53.1204 27.4283 53.121C27.3636 53.1184 27.2944 53.121 27.2267 53.1331C27.0896 53.1488 26.9569 53.1963 26.8636 53.2422C26.7686 53.2862 26.7113 53.3255 26.7113 53.3255C26.7057 53.3293 26.6982 53.3278 26.6944 53.3224C26.6924 53.3197 26.6918 53.3169 26.6923 53.3139L26.6937 53.3024Z" fill="#FF7167"/>
        <path d="M24.0684 53.6819C24.0684 53.6818 24.0702 53.6557 24.0813 53.6167C24.0925 53.578 24.1123 53.5264 24.1462 53.4771C24.1629 53.452 24.1821 53.425 24.2061 53.403C24.2299 53.3801 24.2543 53.3534 24.2849 53.3347C24.3432 53.2933 24.4155 53.2632 24.493 53.2466C24.5709 53.2314 24.656 53.2328 24.7342 53.2522C24.813 53.2745 24.8841 53.3117 24.9335 53.3592C24.9588 53.3821 24.9784 53.4081 24.9939 53.4306C25.01 53.4521 25.0184 53.4792 25.026 53.4976C25.0395 53.5373 25.0416 53.5619 25.0416 53.5619L25.0426 53.5741C25.0432 53.5808 25.0382 53.5865 25.0317 53.5871C25.0296 53.5872 25.0274 53.5868 25.0254 53.5858C25.0254 53.5858 25.0115 53.5792 24.9872 53.5675C24.9641 53.5532 24.9271 53.5427 24.8835 53.5288C24.8393 53.5174 24.7863 53.5093 24.7288 53.5086C24.6713 53.5092 24.6099 53.5158 24.5496 53.5295C24.4278 53.5517 24.3098 53.5963 24.2248 53.6363C24.1389 53.6754 24.0844 53.706 24.0844 53.706C24.0789 53.709 24.0721 53.707 24.069 53.7018C24.0679 53.6997 24.0675 53.6976 24.0677 53.6955L24.0684 53.6819Z" fill="#FF7167"/>
        <path d="M26.9146 56.0171C26.9146 56.0171 26.9213 56.0375 26.9328 56.0732C26.9434 56.1075 26.9646 56.1569 26.987 56.2166C27.0329 56.3361 27.0975 56.4967 27.1325 56.6745C27.1474 56.7637 27.1585 56.8585 27.1322 56.955C27.1201 57.0028 27.0919 57.0507 27.0533 57.0826C27.015 57.1149 26.971 57.1301 26.9334 57.136C26.8571 57.1483 26.8012 57.1311 26.7622 57.1248C26.7242 57.1138 26.703 57.1065 26.703 57.1065C26.6912 57.1022 26.6848 57.089 26.6891 57.077C26.6923 57.0679 26.7005 57.0622 26.7096 57.0617H26.7114C26.7114 57.0617 26.733 57.0605 26.7695 57.0608C26.805 57.0591 26.8587 57.0566 26.909 57.038C26.96 57.0179 26.9946 56.9861 27.0045 56.9233C27.0155 56.8613 27.0065 56.7807 26.9909 56.7011C26.9591 56.5402 26.9102 56.3741 26.8877 56.2443C26.875 56.1796 26.8715 56.1238 26.8686 56.0841C26.8663 56.0434 26.8695 56.0227 26.8695 56.0227L26.8698 56.0207C26.8718 56.008 26.8836 55.9994 26.8962 56.0013C26.9051 56.0027 26.9121 56.0092 26.9146 56.0171Z" fill="#FF7167"/>
        <path d="M25.335 57.7408C25.335 57.7408 25.356 57.7604 25.3908 57.7977C25.408 57.8185 25.4301 57.8355 25.4538 57.8543C25.477 57.8742 25.5037 57.8955 25.5362 57.9155C25.5669 57.9377 25.6017 57.957 25.6391 57.9765C25.6751 57.9987 25.7174 58.0105 25.7578 58.031C25.8001 58.0457 25.8441 58.06 25.8892 58.073C25.9345 58.0851 25.9807 58.095 26.0279 58.1015C26.0743 58.1127 26.1225 58.1127 26.1691 58.1176C26.2162 58.1164 26.2624 58.1237 26.3076 58.1178C26.353 58.1151 26.3965 58.1133 26.4382 58.1054C26.4801 58.1015 26.5186 58.0885 26.5556 58.0826C26.5912 58.0699 26.6251 58.0617 26.6543 58.0501C26.6828 58.0356 26.7094 58.0273 26.7302 58.0158C26.7707 57.9909 26.7957 57.9773 26.7957 57.9773L26.8005 57.9748C26.8171 57.9659 26.833 57.979 26.8361 58.0041C26.8385 58.0225 26.833 58.0424 26.8235 58.0551C26.8235 58.0551 26.8011 58.0848 26.7593 58.1358C26.7165 58.1817 26.6521 58.2395 26.5716 58.2884C26.5317 58.3079 26.4875 58.3377 26.441 58.3513C26.3944 58.3697 26.3451 58.3871 26.2945 58.3953C26.2433 58.4077 26.1916 58.4102 26.1384 58.415C26.0863 58.4122 26.0325 58.4142 25.9803 58.4046C25.9275 58.399 25.8765 58.3824 25.8262 58.3668C25.7758 58.3519 25.7285 58.326 25.6827 58.3022C25.6382 58.2739 25.5945 58.2493 25.5569 58.213C25.5379 58.1961 25.5195 58.1799 25.5016 58.1641C25.4849 58.1448 25.469 58.1262 25.4537 58.1085C25.4227 58.0752 25.3966 58.0362 25.375 57.9986C25.3521 57.9634 25.3347 57.9314 25.3243 57.903C25.3011 57.8474 25.2887 57.814 25.2887 57.814C25.2808 57.7922 25.2866 57.7612 25.3018 57.7447C25.3126 57.7329 25.3256 57.732 25.335 57.7408Z" fill="#FF7167"/>
    </g>
    <path d="M22.8333 84.4112C23.5241 84.603 24.3101 86.1064 25.2849 86.3228C26.2597 86.5392 29.4164 85.6145 28.5681 84.4112C28.2505 83.9608 27.3778 84.2669 26.8368 83.1849C26.3462 82.2037 24.8891 82.7881 24.7088 82.8964L22.8333 84.4112Z" fill="#FFA993"/>
    <path d="M16.0166 63.3475C14.9706 64.5136 13.8164 73.7951 14.4417 76.1517C15.0669 78.5082 21.6553 84.5195 22.9537 84.808C24.5889 84.3752 25.164 83.0286 25.2852 82.3554C23.9873 80.2395 20.0202 77.1135 19.0103 75.286C18.6819 74.6917 19.5382 68.9876 19.3469 67.1924C19.1778 65.6054 17.7599 63.0709 16.0166 63.3475Z" fill="#8A6BFF"/>
    <mask id="mask2_12_3565" style="mask-type:luminance" maskUnits="userSpaceOnUse" x="53" y="1" width="47" height="43">
        <path d="M87.5224 38.9551C67.9061 53.4992 50.9895 30.7157 54.3729 21.9017C57.0856 14.8341 64.423 18.3368 69.705 13.8023C74.987 9.26792 77.1381 0.823023 84.8305 1.38666C92.5229 1.95015 113.2 19.9166 87.5224 38.9551Z" fill="white"/>
    </mask>
    <g mask="url(#mask2_12_3565)">
        <path d="M107.292 -1.76813H48.7178V48.7289H107.292V-1.76813Z" fill="#E8E8F7"/>
    </g>
    <mask id="mask3_12_3565" style="mask-type:luminance" maskUnits="userSpaceOnUse" x="53" y="1" width="47" height="43">
        <path d="M87.5224 38.9551C67.9061 53.4992 50.9895 30.7157 54.3729 21.9017C57.0856 14.8341 64.423 18.3368 69.705 13.8023C74.987 9.26792 77.1381 0.823023 84.8305 1.38666C92.5229 1.95015 113.2 19.9166 87.5224 38.9551Z" fill="white"/>
    </mask>
    <g mask="url(#mask3_12_3565)">
        <path d="M86.5124 41.9345C87.883 47.3448 72.1272 49.0851 72.1632 48.003C72.1993 46.921 71.9409 44.1347 73.0229 40.9967C76.2037 39.4048 79.0046 39.2736 79.9813 39.6302C80.9579 39.9868 86.5124 41.9345 86.5124 41.9345Z" fill="#292F52"/>
        <path d="M67.6837 23.0155C67.6732 21.6109 67.6631 20.336 67.7902 20.1403C67.9172 19.9444 70.3538 19.8147 70.4947 20.2245C70.6359 20.6345 70.7289 23.7444 70.5866 24.2433C70.4443 24.7425 69.5617 25.0656 69.0847 24.5806C68.6079 24.0958 67.6837 23.0155 67.6837 23.0155Z" fill="#292F52"/>
        <path d="M70.2356 26.385C70.9547 25.3634 71.4185 24.0169 70.7524 23.877C69.6165 23.6383 69.5052 21.9241 68.6663 22.0486C68.0132 22.1456 67.0441 23.1568 67.4 24.2605C67.7562 25.3645 68.0856 26.1028 68.0495 26.6325C68.0134 27.1626 70.2356 26.385 70.2356 26.385Z" fill="#FFB29E"/>
        <path d="M74.4656 28.0121C73.6045 25.6442 75.1149 21.4117 75.1509 19.3642C75.187 17.3169 73.5279 13.1881 76.3773 12.0339C76.3773 12.0339 77.9975 11.4208 79.2613 13.7292C80.5251 16.0375 81.2465 24.766 78.6135 27.1826C75.9805 29.5991 74.7542 28.8056 74.4656 28.0121Z" fill="#292F52"/>
        <path d="M74.8262 25.8977C73.5912 27.9232 72.3736 30.49 72.3736 30.49C72.3736 30.49 70.888 26.2764 70.6415 25.7894C69.5301 25.4519 68.2855 26.1542 68.0198 26.7057C68.5684 29.1503 69.5947 33.6099 70.5989 34.5284C72.2293 36.0193 74.8936 34.0885 76.3172 32.6048C77.7407 31.121 77.637 28.1706 76.6091 27.3731C75.5811 26.5755 74.8262 25.8977 74.8262 25.8977Z" fill="#FF546B"/>
        <path d="M73.7679 28.3726C73.7679 28.3726 72.2778 31.3545 72.1814 32.5087C72.0853 33.6629 71.6302 34.6588 70.1746 33.9444C70.8829 35.7788 73.7123 34.934 75.0147 33.7694C76.3174 32.6048 73.7679 28.3726 73.7679 28.3726Z" fill="#F0A8C9"/>
        <path d="M78.2528 24.0447C76.5937 24.4775 75.4288 24.984 74.8264 25.8977C74.2236 26.8112 72.4459 31.6551 72.9148 32.9174C73.3836 34.1798 74.1411 34.5405 73.9247 35.9472C73.7083 37.3538 72.9508 40.4196 73.023 40.9967C75.9084 43.6298 84.7451 43.305 87.1256 42.3312C87.1256 40.6721 85.9354 38.0752 86.1878 36.1275C86.4403 34.1798 86.7289 24.2019 83.9877 24.0447C81.2465 23.8874 78.2528 24.0447 78.2528 24.0447Z" fill="#FF335D"/>
        <path d="M80.9461 25.5814C79.2614 28.8012 78.9562 32.4605 80.3989 35.875C77.1829 38.7124 74.67 40.8082 73.2092 41.1549C74.8112 42.0411 76.031 42.5263 77.2999 42.7062C79.4341 42.9666 85.3101 43.2613 87.1256 42.3312C86.9791 40.3881 86.0047 38.5682 86.1848 36.1563C86.3355 34.1343 85.3442 32.4769 85.1179 31.6927C84.3966 29.1919 80.9461 25.5814 80.9461 25.5814Z" fill="#F0A8C9"/>
        <path d="M77.76 23.3713C77.76 23.3713 77.9043 24.6698 77.76 25.2469C78.9142 26.353 80.9819 25.9202 81.8957 24.9103C82.8095 23.9004 82.7132 21.8324 81.8957 21.4477C81.0783 21.063 77.76 23.3713 77.76 23.3713Z" fill="#FFB29E"/>
        <path d="M77.8225 24.6384C77.8225 24.6384 79.744 24.227 80.1526 23.4505C79.4611 23.1249 77.76 23.3713 77.76 23.3713L77.8225 24.6384Z" fill="#FF7D71"/>
        <path d="M75.6439 17.0233C75.2593 22.7462 76.5081 24.7626 79.9721 23.5156C81.1745 23.0828 82.6654 22.5538 82.9057 21.2072C83.1461 19.8607 82.3577 14.0416 79.2414 14.9554C76.1249 15.8691 75.6439 17.0233 75.6439 17.0233Z" fill="#FFB29E"/>
        <path d="M81.2346 19.5653C78.6856 20.9428 77.2997 17.1736 75.6096 17.6059L75.6437 17.0233C75.6437 17.0233 77.1527 16.3261 77.5855 16.5064C78.0183 16.6868 81.2346 19.5653 81.2346 19.5653Z" fill="#FF7D71"/>
        <path d="M75.6439 17.0234C77.0266 16.6868 78.4682 18.8507 79.4431 19.3643C81.1383 20.2575 81.9318 18.7787 82.2565 19.7526C82.4621 20.3694 82.4007 21.7002 81.2826 22.1691C81.5607 25.2166 79.7441 28.3007 80.1527 31.4026C80.4091 33.3498 82.2565 37.3198 85.9715 37.3178C89.8367 37.3157 91.5096 31.6094 90.9489 28.4811C90.0111 23.2512 86.6207 22.2052 85.4305 17.4803C84.5054 13.808 83.01 12.4533 81.2826 12.575C78.7218 12.7553 77.5676 11.6372 76.3773 12.034C75.9485 12.1768 75.3674 13.824 75.3674 14.8586C75.3674 15.8933 75.6439 17.0234 75.6439 17.0234Z" fill="#292F52"/>
        <path d="M73.9952 35.9619L73.8536 35.9343C73.8556 35.9234 73.8577 35.9128 73.8601 35.9023C74.0491 34.9292 73.4835 34.1759 73.4777 34.1683L73.2141 33.8239L73.5749 34.0644C74.9565 34.9854 76.5194 35.1703 77.0714 34.9459L77.1288 35.0783C76.721 35.2663 76.1697 35.2948 75.6367 35.3224C74.8576 35.3627 74.1209 35.4008 74.001 35.9339C73.9992 35.9432 73.9972 35.9525 73.9952 35.9619ZM73.7576 34.3497C73.8925 34.609 74.0584 35.0374 74.043 35.5589C74.3541 35.2443 74.9778 35.212 75.6293 35.1782C75.7846 35.1702 75.9414 35.1621 76.0952 35.15C75.4244 35.0783 74.5706 34.8321 73.7576 34.3497Z" fill="#E50695"/>
        <path d="M75.9526 19.5423C75.952 19.7959 76.0737 19.7802 76.2232 19.8252C76.3727 19.8701 76.493 19.9587 76.4937 19.705C76.4945 19.4513 76.3741 19.2091 76.2246 19.1641C76.0753 19.1193 75.9535 19.2885 75.9526 19.5423Z" fill="#292F52"/>
        <path d="M77.9959 20.273C77.9951 20.5265 78.1169 20.531 78.2664 20.6006C78.4159 20.6702 78.5362 20.7787 78.5369 20.525C78.5377 20.2714 78.4173 20.0094 78.2678 19.9397C78.1186 19.8703 77.9967 20.0194 77.9959 20.273Z" fill="#292F52"/>
        <path d="M76.8184 18.8298C76.8184 18.8298 76.819 18.8257 76.8208 18.818C76.8215 18.8102 76.8248 18.7976 76.8233 18.7841C76.8225 18.7555 76.8158 18.7152 76.7916 18.6714C76.7806 18.6489 76.7663 18.6248 76.7454 18.6021C76.7271 18.5784 76.704 18.5541 76.6773 18.5309C76.6489 18.5084 76.6194 18.4845 76.5841 18.4646C76.5497 18.4435 76.5122 18.4245 76.4726 18.4075C76.4328 18.3909 76.3922 18.376 76.3496 18.3653C76.3081 18.3524 76.2647 18.3456 76.2235 18.34C76.1831 18.3328 76.1421 18.3347 76.1051 18.3345C76.0681 18.3326 76.0337 18.3382 76.003 18.3441C75.9415 18.3529 75.8957 18.3735 75.8665 18.39C75.837 18.4063 75.8223 18.4188 75.8224 18.4189L75.8161 18.4244C75.8126 18.4278 75.8141 18.4328 75.8195 18.436C75.8216 18.4373 75.8241 18.438 75.8265 18.4382C75.8265 18.4382 75.8436 18.44 75.8739 18.4433C75.9039 18.4459 75.9466 18.451 75.9976 18.4601C76.0232 18.4638 76.0511 18.4684 76.0797 18.4759C76.1086 18.4827 76.1391 18.4885 76.17 18.4986C76.2319 18.5165 76.297 18.5392 76.3578 18.5669C76.4838 18.6178 76.5971 18.6864 76.6733 18.7422C76.7516 18.7973 76.7954 18.8383 76.7954 18.8383C76.7998 18.8423 76.8074 18.8438 76.8122 18.8415C76.8149 18.8405 76.8161 18.8389 76.8167 18.8372L76.8184 18.8298Z" fill="#FF7167"/>
        <path d="M78.856 19.5044C78.856 19.5044 78.8566 19.5003 78.8584 19.4927C78.8591 19.4849 78.8624 19.4723 78.8609 19.4587C78.8601 19.4302 78.8535 19.3899 78.8292 19.3461C78.8182 19.3236 78.8039 19.2995 78.783 19.2768C78.7647 19.2531 78.7416 19.2287 78.715 19.2056C78.6865 19.1831 78.6571 19.1592 78.6217 19.1393C78.5873 19.1182 78.5499 19.0992 78.5103 19.0822C78.4704 19.0656 78.4298 19.0506 78.3873 19.04C78.3457 19.0271 78.3023 19.0203 78.2612 19.0147C78.2207 19.0075 78.1797 19.0094 78.1427 19.0092C78.1058 19.0073 78.0714 19.0129 78.0407 19.0188C77.9791 19.0276 77.9333 19.0482 77.9042 19.0646C77.8746 19.081 77.8599 19.0935 77.8601 19.0936L77.8537 19.099C77.8502 19.1024 77.8517 19.1075 77.8571 19.1107C77.8592 19.1119 77.8618 19.1126 77.8642 19.1128C77.8642 19.1128 77.8812 19.1146 77.9115 19.1179C77.9415 19.1205 77.9842 19.1257 78.0352 19.1347C78.0609 19.1384 78.0888 19.143 78.1174 19.1505C78.1463 19.1573 78.1768 19.1631 78.2077 19.1732C78.2695 19.1912 78.3346 19.2138 78.3955 19.2415C78.5214 19.2924 78.6347 19.361 78.7109 19.4168C78.7893 19.472 78.8331 19.5129 78.8331 19.5129C78.8375 19.5169 78.8451 19.5184 78.8499 19.5162C78.8525 19.5152 78.8538 19.5136 78.8544 19.5118L78.856 19.5044Z" fill="#FF7167"/>
        <path d="M76.8714 20.8651C76.8714 20.8651 76.8646 20.8856 76.8531 20.9212C76.8427 20.9556 76.8212 21.0049 76.799 21.0646C76.7531 21.1841 76.6885 21.3447 76.6536 21.5226C76.6387 21.6117 76.6274 21.7066 76.6539 21.8031C76.666 21.8508 76.6942 21.8987 76.7328 21.9307C76.7711 21.9629 76.815 21.9782 76.8525 21.9841C76.9289 21.9963 76.9847 21.9791 77.0238 21.9728C77.0619 21.9618 77.083 21.9545 77.083 21.9545C77.0948 21.9503 77.101 21.937 77.0968 21.925C77.0937 21.9159 77.0855 21.9103 77.0763 21.9097H77.0746C77.0746 21.9097 77.0529 21.9086 77.0165 21.9088C76.981 21.9071 76.9272 21.9046 76.877 21.886C76.826 21.866 76.7914 21.8341 76.7815 21.7713C76.7706 21.7093 76.7796 21.6287 76.795 21.5491C76.8269 21.3882 76.8756 21.2221 76.8982 21.0923C76.9109 21.0277 76.9145 20.9719 76.9173 20.9322C76.9196 20.8914 76.9165 20.8707 76.9165 20.8707L76.9162 20.8687C76.9142 20.8561 76.9024 20.8475 76.8897 20.8493C76.881 20.8508 76.8739 20.8573 76.8714 20.8651Z" fill="#FF7167"/>
        <path d="M78.3067 22.4445C78.3067 22.4445 78.2855 22.4641 78.2509 22.5014C78.2337 22.5223 78.2114 22.5392 78.1877 22.5581C78.1646 22.5779 78.1379 22.5992 78.1055 22.6192C78.0747 22.6414 78.0398 22.6607 78.0026 22.6802C77.9665 22.7025 77.9243 22.7142 77.8837 22.7347C77.8414 22.7494 77.7974 22.7638 77.7524 22.7767C77.707 22.7889 77.6608 22.7987 77.6137 22.8052C77.5672 22.8164 77.519 22.8164 77.4725 22.8214C77.4255 22.8201 77.3793 22.8274 77.3339 22.8215C77.2885 22.8189 77.2451 22.817 77.2034 22.8091C77.1615 22.8052 77.1229 22.7922 77.0859 22.7863C77.0504 22.7736 77.0166 22.7654 76.9873 22.7539C76.9589 22.7394 76.9321 22.7311 76.9115 22.7195C76.8709 22.6947 76.8458 22.6811 76.8458 22.6811L76.841 22.6786C76.8244 22.6697 76.8086 22.6828 76.8055 22.7078C76.803 22.7263 76.8086 22.7461 76.8179 22.7588C76.8179 22.7588 76.8405 22.7886 76.8822 22.8396C76.925 22.8855 76.9895 22.9433 77.0698 22.9921C77.1098 23.0117 77.1541 23.0414 77.2006 23.0551C77.2471 23.0734 77.2964 23.0909 77.3471 23.0991C77.3981 23.1115 77.45 23.114 77.5032 23.1188C77.5553 23.116 77.6091 23.118 77.6613 23.1084C77.714 23.1028 77.765 23.0861 77.8154 23.0706C77.8658 23.0557 77.9129 23.0298 77.9588 23.0059C78.0034 22.9776 78.047 22.9531 78.0845 22.9167C78.1037 22.8998 78.122 22.8836 78.14 22.8679C78.1567 22.8486 78.1724 22.83 78.1879 22.8122C78.2189 22.779 78.2448 22.7399 78.2665 22.7023C78.2894 22.6671 78.3068 22.6351 78.3173 22.6068C78.3404 22.5512 78.3528 22.5178 78.3528 22.5178C78.3607 22.4959 78.355 22.4649 78.3398 22.4484C78.3289 22.4366 78.316 22.4358 78.3067 22.4445Z" fill="#FF7167"/>
    </g>
    <path d="M74.8113 41.5987C73.8194 41.6436 72.3986 40.9797 72.838 42.2245C71.8317 42.0585 70.0604 42.8714 70.8598 43.9753C71.2338 44.4917 72.5725 45.828 73.5664 45.2535C74.7952 44.5434 75.5901 43.8429 75.8792 43.7182C75.8068 42.6809 74.8113 41.5987 74.8113 41.5987Z" fill="#FFB29E"/>
    <path d="M85.9836 36.0194C86.176 37.6064 85.0216 39.53 84.2041 40.011C83.3864 40.492 77.1348 43.714 75.5768 44.195C75.1251 43.6661 74.0661 42.608 74.5472 41.2613C74.9949 41.0203 81.7997 37.1256 82.1843 35.0657L85.9836 36.0194Z" fill="#FF546B"/>
    <path d="M8.20637 56.8212C8.20637 59.087 6.36917 60.9244 4.10333 60.9244C1.83695 60.9244 0 59.087 0 56.8212C0 54.5547 1.83695 52.7177 4.10333 52.7177C6.36913 52.7177 8.20637 54.5547 8.20637 56.8212Z" fill="#52D4A5"/>
    <path d="M2.92789 58.2024C2.75065 58.2024 2.57283 58.1406 2.43137 58.0149L1.41356 57.1102C1.29436 57.0043 1.28365 56.822 1.38962 56.7028C1.49558 56.5837 1.67787 56.5731 1.79708 56.6788L2.8146 57.5835C2.8828 57.6443 2.99299 57.6387 3.05467 57.5717L4.96967 55.4943C5.07787 55.3771 5.2602 55.3697 5.37742 55.4777C5.49464 55.5858 5.50196 55.7682 5.39405 55.8854L3.47904 57.9627C3.33254 58.1217 3.13048 58.2024 2.92789 58.2024Z" fill="#F5F5F5"/>
    <path d="M4.51559 58.2405C4.44544 58.2405 4.37554 58.2153 4.32003 58.1641C4.20281 58.056 4.19549 57.8734 4.3034 57.7564L6.38858 55.4943C6.49678 55.3771 6.6791 55.3697 6.79633 55.4777C6.91355 55.5858 6.92087 55.7684 6.81295 55.8854L4.72778 58.1474C4.67083 58.2092 4.59335 58.2405 4.51559 58.2405Z" fill="#F5F5F5"/>
    <path d="M98.6421 4.20883C98.6421 6.53314 96.7574 8.41748 94.4331 8.41748C92.1084 8.41748 90.2244 6.53314 90.2244 4.20883C90.2244 1.8842 92.1084 5.17816e-10 94.4331 5.17816e-10C96.7574 -3.60677e-05 98.6421 1.88416 98.6421 4.20883Z" fill="#FF4962"/>
    <path d="M96.5868 5.81423L95.7964 4.39163V2.88975C95.7964 2.23771 95.263 1.70422 94.6108 1.70422H94.2552C93.6032 1.70422 93.0695 2.23771 93.0695 2.88975V4.39163L92.2791 5.81423H93.0695H93.5481C93.5454 5.84178 93.5437 5.86988 93.5437 5.89827C93.5437 6.34825 93.9086 6.71326 94.3591 6.71326C94.8091 6.71326 95.174 6.34829 95.174 5.89827C95.174 5.86988 95.1723 5.84178 95.1696 5.81423H95.7965H96.5868Z" fill="#F5F5F5"/>
    <path d="M93.8046 78.631C87.5738 75.6574 91.7577 70.5975 93.8046 73.6534C95.8515 70.5975 100.035 75.6574 93.8046 78.631Z" fill="#FF4962"/>
    <path d="M10.3876 9.04417C4.15683 6.07064 8.34074 1.01071 10.3876 4.06662C12.4345 1.01071 16.6184 6.07067 10.3876 9.04417Z" fill="#FF4962"/>
</svg>
