<svg width="20" height="20" viewBox="0 0 20 20" fill="none" xmlns="http://www.w3.org/2000/svg">
    <path d="M0.714309 0.71431C0.524868 0.714328 0.343191 0.789591 0.209236 0.923546C0.0752816 1.0575 1.83769e-05 1.23918 0 1.42862L0 8.57171C1.83769e-05 8.76115 0.0752816 8.94282 0.209236 9.07678C0.343191 9.21073 0.524868 9.286 0.714309 9.28601H7.8574C8.04684 9.286 8.22851 9.21073 8.36247 9.07678C8.49642 8.94282 8.57169 8.76115 8.5717 8.57171V1.42862C8.57169 1.23918 8.49642 1.0575 8.36247 0.923546C8.22851 0.789591 8.04684 0.714328 7.8574 0.71431H0.714309ZM1.42862 2.14293H7.14309V7.8574H1.42862V2.14293Z" fill="#1F2D5A"/>
    <path d="M11.7861 18.572C11.6923 18.572 11.5994 18.5905 11.5127 18.6264C11.4261 18.6623 11.3473 18.7149 11.281 18.7812C11.2147 18.8476 11.162 18.9263 11.1262 19.013C11.0903 19.0996 11.0718 19.1925 11.0718 19.2863C11.0718 19.3801 11.0903 19.473 11.1262 19.5597C11.162 19.6463 11.2147 19.7251 11.281 19.7914C11.3473 19.8578 11.4261 19.9104 11.5127 19.9463C11.5994 19.9822 11.6923 20.0006 11.7861 20.0006H18.9292C19.023 20.0006 19.1159 19.9822 19.2025 19.9463C19.2892 19.9104 19.3679 19.8578 19.4343 19.7914C19.5006 19.7251 19.5532 19.6463 19.5891 19.5597C19.625 19.473 19.6435 19.3801 19.6435 19.2863C19.6435 19.1925 19.625 19.0996 19.5891 19.013C19.5532 18.9263 19.5006 18.8476 19.4343 18.7812C19.3679 18.7149 19.2892 18.6623 19.2025 18.6264C19.1159 18.5905 19.023 18.572 18.9292 18.572H11.7861Z" fill="#1F2D5A"/>
    <path d="M11.7861 11.4289C11.6923 11.4289 11.5994 11.4474 11.5127 11.4833C11.4261 11.5192 11.3473 11.5718 11.281 11.6382C11.2147 11.7045 11.162 11.7832 11.1262 11.8699C11.0903 11.9566 11.0718 12.0494 11.0718 12.1432C11.0718 12.2371 11.0903 12.3299 11.1262 12.4166C11.162 12.5033 11.2147 12.582 11.281 12.6483C11.3473 12.7147 11.4261 12.7673 11.5127 12.8032C11.5994 12.8391 11.6923 12.8576 11.7861 12.8576H18.9292C19.023 12.8576 19.1159 12.8391 19.2025 12.8032C19.2892 12.7673 19.3679 12.7147 19.4343 12.6483C19.5006 12.582 19.5532 12.5033 19.5891 12.4166C19.625 12.3299 19.6435 12.2371 19.6435 12.1432C19.6435 12.0494 19.625 11.9566 19.5891 11.8699C19.5532 11.7832 19.5006 11.7045 19.4343 11.6382C19.3679 11.5718 19.2892 11.5192 19.2025 11.4833C19.1159 11.4474 19.023 11.4289 18.9292 11.4289H11.7861Z" fill="#1F2D5A"/>
    <path d="M11.7861 15.0005C11.6923 15.0005 11.5994 15.019 11.5127 15.0549C11.4261 15.0908 11.3473 15.1434 11.281 15.2097C11.2147 15.276 11.162 15.3548 11.1262 15.4414C11.0903 15.5281 11.0718 15.621 11.0718 15.7148C11.0718 15.8086 11.0903 15.9015 11.1262 15.9882C11.162 16.0748 11.2147 16.1536 11.281 16.2199C11.3473 16.2862 11.4261 16.3388 11.5127 16.3747C11.5994 16.4106 11.6923 16.4291 11.7861 16.4291H18.9292C19.023 16.4291 19.1159 16.4106 19.2025 16.3747C19.2892 16.3388 19.3679 16.2862 19.4343 16.2199C19.5006 16.1536 19.5532 16.0748 19.5891 15.9882C19.625 15.9015 19.6435 15.8086 19.6435 15.7148C19.6435 15.621 19.625 15.5281 19.5891 15.4414C19.5532 15.3548 19.5006 15.276 19.4343 15.2097C19.3679 15.1434 19.2892 15.0908 19.2025 15.0549C19.1159 15.019 19.023 15.0005 18.9292 15.0005H11.7861Z" fill="#1F2D5A"/>
    <path d="M15.3577 0C15.2249 0.000119985 15.0947 0.0372599 14.9819 0.10725C14.869 0.177239 14.7779 0.277307 14.7187 0.396218L10.79 8.25361C10.7359 8.36248 10.7105 8.48335 10.7161 8.60479C10.7217 8.72623 10.7583 8.84422 10.8223 8.9476C10.8862 9.05097 10.9755 9.13631 11.0817 9.19553C11.1879 9.25475 11.3074 9.28589 11.429 9.28601H19.2864C19.408 9.28589 19.5275 9.25475 19.6337 9.19553C19.7398 9.13631 19.8291 9.05097 19.8931 8.9476C19.9571 8.84422 19.9936 8.72623 19.9993 8.60479C20.0049 8.48335 19.9795 8.36248 19.9254 8.25361L15.9967 0.396218C15.9375 0.277307 15.8464 0.177239 15.7335 0.10725C15.6206 0.0372599 15.4905 0.000119985 15.3577 0ZM15.3577 2.31034L18.1312 7.8574H12.5842L15.3577 2.31034Z" fill="#1F2D5A"/>
    <path d="M4.28585 11.4289C1.92731 11.4289 0 13.3562 0 15.7148C0 18.0733 1.9273 20.0006 4.28585 20.0006C6.6444 20.0006 8.5717 18.0733 8.5717 15.7148C8.5717 13.3562 6.6444 11.4289 4.28585 11.4289ZM4.28585 12.8576C5.87232 12.8576 7.14309 14.1283 7.14309 15.7148C7.14309 17.3012 5.87231 18.572 4.28585 18.572C2.69939 18.572 1.42862 17.3012 1.42862 15.7148C1.42862 14.1283 2.69939 12.8576 4.28585 12.8576Z" fill="#1F2D5A"/>
</svg>
