<svg width="20" height="20" viewBox="0 0 20 20" fill="none" xmlns="http://www.w3.org/2000/svg">
    <path d="M14.0976 8.47717C13.5884 8.47742 13.0905 8.32659 12.6671 8.04379C12.2436 7.76098 11.9136 7.35891 11.7188 6.88846C11.5239 6.41801 11.4731 5.90033 11.5726 5.40095C11.6721 4.90157 11.9175 4.44293 12.2778 4.08309C12.7679 3.61479 13.4197 3.35345 14.0976 3.35345C14.7754 3.35345 15.4272 3.61479 15.9173 4.08309C16.1566 4.32193 16.3464 4.60559 16.4758 4.91785C16.6053 5.23011 16.672 5.56484 16.672 5.90288C16.672 6.24092 16.6053 6.57565 16.4758 6.88791C16.3464 7.20017 16.1566 7.48383 15.9173 7.72267C15.679 7.96262 15.3955 8.15287 15.0831 8.28239C14.7707 8.41191 14.4357 8.47812 14.0976 8.47717ZM14.0976 4.73275C13.8661 4.7327 13.6398 4.80131 13.4473 4.92988C13.2549 5.05845 13.1049 5.24122 13.0163 5.45506C12.9277 5.6689 12.9045 5.90421 12.9497 6.13122C12.9949 6.35823 13.1063 6.56675 13.27 6.7304C13.4931 6.94305 13.7894 7.06169 14.0976 7.06169C14.4057 7.06169 14.702 6.94305 14.9251 6.7304C15.0888 6.56675 15.2002 6.35823 15.2454 6.13122C15.2906 5.90421 15.2674 5.6689 15.1788 5.45506C15.0902 5.24122 14.9402 5.05845 14.7478 4.92988C14.5553 4.80131 14.329 4.7327 14.0976 4.73275Z" fill="#1F2D5A"/>
    <path d="M8.80187 20.0025C8.34066 20.0028 7.88393 19.9119 7.45791 19.7352C7.03189 19.5585 6.64495 19.2994 6.31932 18.9728L1.0247 13.681C0.368457 13.0222 0 12.1302 0 11.2003C0 10.2704 0.368457 9.37844 1.0247 8.71963L8.71575 1.02858C9.07318 0.669436 9.5045 0.392391 9.97975 0.216677C10.455 0.0409627 10.9628 -0.0292109 11.4679 0.0110284L16.3843 0.385471C17.2211 0.446033 18.008 0.805835 18.6013 1.39905C19.1945 1.99226 19.5543 2.77923 19.6148 3.61598L19.9893 8.53241C20.0289 9.03745 19.9584 9.54507 19.7827 10.0202C19.6071 10.4954 19.3304 10.9268 18.9717 11.2846L11.2807 18.9756C10.9554 19.3014 10.5689 19.5598 10.1436 19.736C9.71823 19.9122 9.26229 20.0028 8.80187 20.0025ZM11.1974 1.40021C10.9209 1.40018 10.6472 1.45465 10.3918 1.5605C10.1364 1.66635 9.90434 1.82151 9.70896 2.0171L2.01697 9.70909C1.62266 10.1045 1.40122 10.6401 1.40122 11.1984C1.40122 11.7568 1.62266 12.2924 2.01697 12.6878L7.31253 17.9833C7.70789 18.3777 8.24349 18.5991 8.80187 18.5991C9.36026 18.5991 9.89586 18.3777 10.2912 17.9833L17.9832 10.2914C18.1981 10.0765 18.3639 9.81761 18.4693 9.53257C18.5746 9.24752 18.617 8.94305 18.5935 8.64006L18.2191 3.72363C18.1824 3.22018 17.9653 2.74689 17.6075 2.39072C17.2498 2.03456 16.7756 1.81946 16.272 1.78495L11.3556 1.41051C11.3106 1.40208 11.2507 1.40021 11.1974 1.40021Z" fill="#1F2D5A"/>
</svg>
