<svg width="20" height="20" viewBox="0 0 20 20" fill="none" xmlns="http://www.w3.org/2000/svg">
    <path d="M20 14.1406V5.85938C20 2.62333 17.3767 0 14.1406 0H5.85938C2.62333 0 0 2.62333 0 5.85938V14.1406C0 17.3767 2.62333 20 5.85938 20H14.1406C17.3767 20 20 17.3767 20 14.1406Z" fill="url(#paint0_linear_0_1)"/>
    <path d="M9.1252 4.61357L4.42949 9.30928C4.04824 9.69053 4.04824 10.3089 4.42949 10.6905L9.1252 15.3862C9.50645 15.7675 10.1248 15.7675 10.5064 15.3862C10.8877 15.005 10.8877 14.3866 10.5064 14.005L7.47793 10.9765H14.8807C15.4201 10.9765 15.8572 10.5394 15.8572 9.9999C15.8572 9.46045 15.4201 9.02334 14.8807 9.02334H7.47754L10.5061 5.99482C10.8873 5.61357 10.8873 4.99521 10.5061 4.61357C10.1248 4.23232 9.50645 4.23232 9.1248 4.61357H9.1252Z" fill="#1F2D5A"/>
    <defs>
        <linearGradient id="paint0_linear_0_1" x1="1.71602" y1="1.71602" x2="18.284" y2="18.284" gradientUnits="userSpaceOnUse">
            <stop stop-color="white"/>
            <stop offset="1" stop-color="#E1E1E1"/>
        </linearGradient>
    </defs>
</svg>
